<svg width="902" height="619" viewBox="0 0 902 619" fill="none" xmlns="http://www.w3.org/2000/svg">
<path opacity="0.8" d="M770.352 382.015C770.473 381.915 770.68 381.828 770.772 381.669C770.86 381.473 770.907 381.262 770.911 381.048C771.06 379.624 771.202 378.199 771.345 376.775C771.367 376.561 771.377 376.347 771.401 376.133C771.601 374.39 771.801 372.648 771.991 370.904C772.517 366.064 773.113 361.231 773.541 356.382C774.228 348.607 775.117 340.855 776.025 333.105C778.19 314.615 780.5 296.143 782.955 277.69C784.486 266.084 785.922 254.466 787.476 242.864C787.799 240.451 788.1 238.035 788.476 235.629C789.905 226.394 790.898 217.101 792.201 207.849C792.615 204.908 793.148 201.984 793.626 199.049C794.026 196.576 794.414 194.1 794.836 191.63C795.511 187.679 796.21 183.73 796.899 179.783C796.924 179.642 796.95 179.501 796.973 179.36C797.352 177.065 797.731 174.77 798.111 172.474C798.625 169.4 798.97 166.304 799.244 163.202C799.451 160.346 799.435 157.478 799.194 154.624C799.006 151.876 798.855 149.124 798.726 146.375C798.684 145.445 798.704 144.513 798.784 143.586C799.204 138.664 799.627 133.742 800.409 128.859C800.743 126.774 801.068 124.688 801.409 122.603C801.898 119.603 802.393 116.603 802.894 113.603C803.199 111.767 803.509 109.934 803.825 108.103C803.866 107.859 803.925 107.618 803.97 107.38C804.064 107.317 804.165 107.264 804.27 107.221C805.948 106.713 807.589 106.088 809.18 105.35C810.133 104.939 811.08 104.533 811.994 104.028C814.118 102.814 815.932 101.125 817.294 99.093C819.085 96.493 820.371 93.5788 821.084 90.503C821.4 89.143 821.622 87.7632 821.75 86.373C821.786 86.023 821.837 85.673 821.896 85.207C822.052 85.3308 822.195 85.4702 822.323 85.623C822.985 86.686 823.662 87.741 824.281 88.829C824.847 89.829 825.337 90.861 825.876 91.872C826.565 93.172 827.246 94.472 827.976 95.742C830.649 100.445 834.649 104.254 839.476 106.695C841.783 107.929 844.236 108.869 846.776 109.495C848.454 109.872 850.166 110.078 851.885 110.11C854.284 110.11 856.674 109.839 859.012 109.302C861.222 108.863 863.447 108.49 865.643 107.991C867.435 107.59 869.311 107.831 870.943 108.672C872.462 109.4 873.922 110.23 875.363 111.096C876.498 111.777 877.623 112.474 878.752 113.165C881.956 115.146 885.506 116.503 889.215 117.165C891.755 117.644 894.367 117.576 896.878 116.965C897.434 116.83 897.977 116.644 898.499 116.411C899.371 116.055 900.091 115.405 900.533 114.573C900.976 113.741 901.112 112.78 900.918 111.858C900.744 110.83 900.374 109.846 899.828 108.958C899.087 107.729 898.143 106.635 897.035 105.722C895.436 104.396 893.696 103.249 891.847 102.303C890.355 101.527 888.855 100.767 887.356 100.003C884.072 98.3233 880.99 96.2744 878.17 93.896C874.982 91.1788 871.956 88.2768 869.108 85.205C867.408 83.411 865.713 81.616 863.983 79.854C862.68 78.5237 861.295 77.2763 859.836 76.119C857.831 74.4916 855.553 73.2343 853.107 72.406C850.617 71.6011 848.013 71.2026 845.396 71.226C842.961 71.2527 840.54 71.6001 838.196 72.259C837.989 72.315 837.78 72.359 837.588 72.406C837.422 72.249 837.53 72.133 837.602 72.017C837.979 71.409 838.375 70.817 838.732 70.193C839.563 68.6884 840.203 67.0861 840.637 65.423C841.196 63.423 841.728 61.423 842.177 59.393C843.061 55.557 844.167 51.7757 845.489 48.068C846.252 45.868 846.936 43.648 847.695 41.451C848.549 38.983 849.459 36.535 850.324 34.07C851.467 30.8265 852.242 27.4652 852.636 24.049C852.769 23.163 852.798 22.2647 852.724 21.372C852.695 21.124 852.665 20.872 852.624 20.629C852.57 20.2364 852.436 19.859 852.231 19.5202C852.025 19.1814 851.752 18.8883 851.429 18.659C851.106 18.4297 850.739 18.2691 850.352 18.187C849.964 18.105 849.563 18.1033 849.175 18.182C848.614 18.2866 848.066 18.4543 847.543 18.682C847.254 18.8058 846.973 18.9484 846.703 19.109C846.443 19.015 846.539 18.809 846.512 18.653C846.455 18.336 846.419 18.016 846.362 17.699C846.146 16.5137 845.659 15.3944 844.938 14.4287C844.218 13.463 843.284 12.6769 842.209 12.132C840.845 11.3363 839.346 10.8018 837.786 10.556C836.618 10.384 835.446 10.216 834.27 10.126C833.841 10.1184 833.421 10.0038 833.047 9.79267C832.673 9.58156 832.358 9.28058 832.13 8.91697C830.435 6.50878 828.281 4.45976 825.791 2.88797C824.239 1.85452 822.522 1.09171 820.715 0.631963C815.215 -0.857037 810.223 0.346961 805.667 3.59296C801.796 6.33483 799.082 10.4168 798.05 15.047C797.624 16.7865 797.389 18.5674 797.35 20.358C797.292 23.077 797.234 25.795 797.161 28.513C797.14 29.3 797.076 30.086 797.017 30.871C796.961 31.5157 796.761 32.1395 796.43 32.696C796.145 33.1926 795.855 33.6863 795.559 34.177C794.632 35.7155 794.06 37.4414 793.885 39.229C793.677 41.4042 793.749 43.5971 794.099 45.754C794.395 47.6639 794.795 49.5561 795.299 51.422C795.828 53.3564 796.543 55.2354 797.432 57.033C798.087 58.386 798.767 59.728 799.427 61.078C799.661 61.557 799.871 62.049 800.087 62.525C799.867 62.725 799.803 62.516 799.747 62.439C799.264 61.773 798.792 61.098 798.323 60.421C796.874 58.333 795.412 56.254 793.985 54.151C792.09 51.2834 790.419 48.2745 788.985 45.151C788.51 44.151 788.045 43.141 787.536 42.151C786.697 40.4856 785.616 38.9536 784.328 37.605C784.153 37.425 783.982 37.24 783.794 37.076C781.538 35.026 778.956 33.3671 776.154 32.168C774.598 31.543 772.974 31.079 771.367 30.589C769.383 29.9836 767.39 29.4063 765.389 28.857C763.389 28.311 761.376 27.802 759.361 27.31C756.061 26.505 752.742 25.76 749.446 24.928C747.273 24.3279 745.135 23.6115 743.039 22.782C740.29 21.762 737.539 20.732 734.771 19.782C731.993 18.8315 729.146 18.098 726.255 17.588C723.643 17.0953 720.955 17.1717 718.375 17.812C716.738 18.2214 715.199 18.9544 713.849 19.968C712.222 21.166 711.005 22.8366 710.362 24.752C709.864 26.1105 709.88 27.6042 710.406 28.952C711.129 30.7908 712.22 32.4621 713.613 33.863C714.928 35.1836 716.412 36.3244 718.026 37.256C719.658 38.2236 721.208 39.323 722.661 40.543C723.605 41.314 724.353 42.2988 724.841 43.416C727.17 48.6884 731.481 52.8322 736.841 54.951C739.181 55.9385 741.57 56.8063 743.998 57.551C747.051 58.4782 750.21 59.0158 753.398 59.151C753.934 59.177 754.469 59.227 755.005 59.251C756.505 59.318 758.005 59.375 759.505 59.441C760.102 59.4121 760.699 59.4796 761.274 59.641C761.064 59.81 760.939 59.931 760.796 60.023C758.999 61.2016 757.29 62.5094 755.683 63.936C753.116 66.1688 750.363 68.1791 747.454 69.945C745.001 71.4281 742.713 73.169 740.629 75.138C737.702 77.9095 735.563 81.4078 734.429 85.276C733.984 86.6744 733.66 88.1087 733.462 89.563C733.213 91.7043 733.46 93.8742 734.183 95.905C734.548 96.9563 735.08 97.9422 735.758 98.825C737.047 100.589 738.173 102.467 739.123 104.434C739.773 105.71 740.502 106.944 741.306 108.129C743.2 110.909 746.046 112.901 749.306 113.729C753.158 114.772 757.203 114.882 761.106 114.049C763.346 113.595 765.55 112.983 767.703 112.217C770.069 111.394 772.422 110.535 774.78 109.693C776.59 109.015 778.435 108.437 780.308 107.962C782.68 107.397 785.132 107.245 787.556 107.515C788.943 107.669 790.331 107.828 791.715 108.015C795.164 108.451 798.66 108.346 802.077 107.704C802.318 107.66 802.562 107.629 802.877 107.58C802.888 107.769 802.886 107.958 802.871 108.147C802.371 111.221 801.855 114.292 801.358 117.366C800.936 119.981 800.579 122.607 800.112 125.213C799.322 129.622 798.754 134.058 798.324 138.513C798.146 140.366 797.967 142.22 797.848 144.077C797.762 145.793 797.784 147.512 797.914 149.225C798.075 151.832 798.253 154.437 798.414 157.044C798.512 158.795 798.501 160.55 798.383 162.299C798.174 165.626 797.773 168.929 797.244 172.217C796.659 175.857 796.052 179.493 795.424 183.126C794.824 186.618 794.197 190.105 793.587 193.595C793.458 194.335 793.364 195.082 793.239 195.823C792.774 198.576 792.3 201.323 791.839 204.08C791.702 204.892 791.58 205.706 791.473 206.523C790.652 212.842 789.857 219.164 789.014 225.481C788.414 229.951 787.739 234.41 787.131 238.881C786.286 245.089 785.446 251.297 784.649 257.511C782.176 276.792 779.716 296.075 777.268 315.361C776.438 321.894 775.638 328.432 774.868 334.975C774.329 339.525 773.825 344.079 773.358 348.638C772.833 353.73 772.383 358.829 771.858 363.921C771.458 367.873 770.983 371.821 770.551 375.769C770.451 376.729 770.39 377.695 770.284 378.655C770.225 379.185 770.1 379.708 770.022 380.236C769.96 380.624 769.92 381.015 769.901 381.407C769.89 381.546 769.93 381.684 770.013 381.795C770.096 381.907 770.216 381.985 770.352 382.015ZM845.828 91.07L845.886 91.019C845.68 90.6433 845.384 90.3243 845.025 90.09C842.501 87.8662 839.758 85.9026 836.84 84.229C834.522 82.8772 832.065 81.7788 829.512 80.953L827.163 80.189C827.829 79.6374 828.583 79.2014 829.393 78.899C832.326 79.3594 835.213 80.0792 838.019 81.05C842.449 82.5749 846.732 84.4999 850.813 86.801C856.141 89.8085 861.198 93.2739 865.925 97.158C866.564 97.676 867.206 98.191 867.849 98.703C867.949 98.786 868.065 98.872 868.198 98.703C868.098 98.603 867.998 98.496 867.893 98.403C866.793 97.487 865.708 96.555 864.593 95.664C858.282 90.5436 851.336 86.2595 843.928 82.918C840.997 81.5875 837.962 80.4985 834.853 79.662C833.608 79.34 832.353 79.072 831.097 78.771C830.758 78.7576 830.434 78.6248 830.183 78.396C830.364 78.278 830.5 78.178 830.646 78.096C830.792 78.014 830.966 77.944 831.146 77.861C831.746 77.894 832.357 77.903 832.961 77.961C835.739 78.2251 838.494 78.6944 841.203 79.365C843.56 79.9631 845.867 80.7445 848.103 81.702C851.768 83.3208 855.274 85.279 858.574 87.551C861.514 89.528 864.332 91.671 867.16 93.802C870.215 96.1046 873.282 98.3926 876.36 100.666C877.251 101.321 878.208 101.886 879.142 102.482C879.331 102.552 879.528 102.599 879.729 102.622C878.561 101.809 877.543 101.144 876.572 100.422C873.105 97.8286 869.65 95.2233 866.207 92.606C862.704 89.8803 859.065 87.3347 855.303 84.979C849.896 81.59 843.886 79.2739 837.603 78.157C836.122 77.907 834.625 77.757 833.135 77.557C832.824 77.515 832.515 77.465 832.205 77.419C833.281 77.1742 834.389 77.1087 835.486 77.225C837.34 77.357 839.186 77.616 841.03 77.847C841.703 77.931 842.367 78.087 843.03 78.213C843.768 78.352 844.504 78.495 845.241 78.636L845.216 78.66C845.165 78.441 844.979 78.421 844.807 78.382C843.796 78.154 842.785 77.923 841.773 77.7C839.574 77.1951 837.329 76.921 835.073 76.882C834.622 76.9046 834.172 76.8366 833.748 76.682C834.261 76.591 834.603 76.516 834.948 76.471C837.86 76.0911 840.81 76.1069 843.718 76.518C844.461 76.623 845.193 76.798 845.933 76.927C848.117 77.3095 850.266 77.8673 852.36 78.595C852.479 78.6632 852.611 78.7043 852.747 78.7154C852.883 78.7265 853.02 78.7072 853.148 78.659C852.748 78.496 852.409 78.339 852.054 78.213C849.112 77.1891 846.072 76.4746 842.982 76.081C841.599 75.8935 840.203 75.8079 838.807 75.825C837.377 75.8461 835.949 75.9497 834.531 76.135C834.301 76.1399 834.071 76.1255 833.844 76.092L835.914 74.065C835.96 74.0097 836.013 73.9606 836.071 73.919C836.283 73.7905 836.507 73.6817 836.739 73.594C837.456 73.371 838.177 73.157 838.904 72.969C842.475 72.0049 846.215 71.8379 849.858 72.48C852.437 72.9321 854.904 73.8832 857.119 75.28C858.53 76.1968 859.862 77.2293 861.102 78.367C863.264 80.305 865.251 82.415 867.23 84.535C869.942 87.435 872.701 90.296 875.665 92.948C879.021 96.0211 882.764 98.6432 886.799 100.748C888.329 101.526 889.864 102.294 891.39 103.082C893.21 104.004 894.921 105.128 896.49 106.432C897.518 107.271 898.389 108.287 899.06 109.432C899.121 109.539 899.255 109.656 899.101 109.795C898.06 109.235 897.034 108.654 895.982 108.126C894.968 107.545 893.884 107.095 892.756 106.788C895.122 107.906 897.408 109.185 899.599 110.616C899.94 111.212 900.073 111.905 899.977 112.585C899.744 112.457 899.532 112.356 899.336 112.228C898.228 111.506 897.136 110.758 896.014 110.056C893.93 108.734 891.741 107.586 889.468 106.623C889.368 106.56 889.255 106.52 889.138 106.507C889.021 106.493 888.902 106.506 888.79 106.545C889.78 107.035 890.735 107.485 891.668 107.977C892.648 108.494 893.619 109.031 894.568 109.597C895.49 110.144 896.393 110.724 897.287 111.317C898.224 111.898 899.126 112.535 899.987 113.224C899.951 113.679 899.798 114.118 899.542 114.496C899.286 114.874 898.936 115.18 898.527 115.383C897.96 115.687 897.359 115.922 896.737 116.083C894.406 116.683 891.974 116.77 889.606 116.338C886.348 115.812 883.212 114.706 880.344 113.073C879.101 112.364 877.885 111.609 876.661 110.873C874.943 109.775 873.159 108.783 871.319 107.903C870.737 107.629 870.192 107.285 869.694 106.878C867.719 105.339 865.726 103.824 863.73 102.311C863.481 102.122 863.257 101.86 862.902 101.851L862.864 101.884C863.007 102.242 863.359 102.384 863.632 102.593C865.208 103.829 866.794 105.052 868.374 106.282C868.594 106.453 868.8 106.643 869.032 106.84C868.918 106.901 868.858 106.962 868.81 106.954C867.671 106.819 866.517 106.882 865.399 107.141C862.836 107.632 860.268 108.104 857.712 108.628C855.507 109.107 853.248 109.289 850.995 109.169C849.817 109.106 848.644 108.959 847.486 108.73C844.549 108.075 841.727 106.981 839.115 105.486C834.871 103.191 831.342 99.7708 828.915 95.601C828.086 94.181 827.335 92.715 826.553 91.267C825.84 89.945 825.178 88.593 824.412 87.302C823.701 86.102 822.897 84.96 822.112 83.811C821.947 83.6059 821.835 83.3625 821.789 83.1032C821.742 82.8438 821.761 82.5769 821.845 82.327L825.126 81.04C825.387 81.122 825.594 81.177 825.794 81.252C828.656 82.3836 831.38 83.8359 833.915 85.581C838.985 89.0211 843.56 93.1378 847.515 97.817C849.329 99.8916 851.032 102.061 852.615 104.317C852.696 104.434 852.742 104.643 852.999 104.591C852.974 104.484 852.938 104.381 852.89 104.282C852.541 103.741 852.205 103.189 851.825 102.67C848.21 97.6354 843.986 93.0675 839.249 89.07C835.353 85.6859 830.944 82.9415 826.188 80.939C826.105 80.906 826.051 80.798 825.924 80.659C826.091 80.5824 826.267 80.5277 826.448 80.496C826.626 80.5058 826.801 80.5411 826.969 80.601C829.392 81.2318 831.749 82.0945 834.007 83.177C837.964 85.1116 841.653 87.5527 844.98 90.439C845.247 90.665 845.545 90.859 845.828 91.07ZM774.637 34.039L774.705 33.983C774.347 33.4957 773.918 33.0646 773.433 32.704C773.242 32.517 773.054 32.327 772.71 31.985C773.165 32.073 773.41 32.098 773.64 32.169C775.565 32.7353 777.399 33.5748 779.085 34.662C779.831 35.154 780.567 35.662 781.304 36.17C783.129 37.4463 784.674 39.0817 785.845 40.976C786.709 42.4196 787.481 43.9166 788.156 45.458C789.671 48.7808 791.46 51.9721 793.503 54.999C795.603 58.03 797.731 61.04 799.843 64.063C799.97 64.246 800.207 64.39 800.156 64.663C800.085 64.687 800.047 64.715 800.021 64.706C799.18 64.4948 798.457 63.9614 798.006 63.221C797.817 62.878 797.567 62.569 797.349 62.241C796.082 60.333 794.813 58.4256 793.541 56.519C793.447 56.379 793.394 56.15 793.064 56.164C793.205 56.417 793.301 56.607 793.414 56.787C794.327 58.243 795.245 59.695 796.154 61.152C796.234 61.279 796.408 61.424 796.159 61.614C795.926 61.343 795.685 61.082 795.465 60.803C791.849 56.2675 788.47 51.5482 785.341 46.664C785.199 46.4616 785.048 46.2667 784.886 46.08L784.795 46.146C784.877 46.3785 784.978 46.6042 785.095 46.821C786.037 48.298 786.962 49.786 787.947 51.233C789.155 53.005 790.417 54.74 791.647 56.495C791.722 56.603 791.927 56.716 791.716 56.937C791.46 56.665 791.209 56.414 790.976 56.147C790.128 55.179 789.288 54.204 788.44 53.236C788.365 53.149 788.28 52.995 788.116 53.187C788.24 53.357 788.364 53.531 788.493 53.7C788.645 53.9 788.801 54.095 788.957 54.29C789.09 54.4566 789.226 54.6233 789.364 54.79C789.5 54.955 789.638 55.12 789.776 55.284C789.937 55.475 790.098 55.667 790.262 55.856C790.402 56.019 790.545 56.179 790.686 56.34L791.186 56.903C791.327 57.064 791.468 57.226 791.611 57.386C791.754 57.546 791.898 57.704 792.043 57.863C792.211 58.048 792.38 58.232 792.548 58.418C792.692 58.577 792.833 58.738 792.978 58.896C793.123 59.054 793.272 59.209 793.417 59.367C793.587 59.55 793.756 59.735 793.925 59.919C794.07 60.077 794.215 60.2346 794.362 60.392C794.532 60.575 794.713 60.75 794.871 60.943C794.986 61.084 795.197 61.187 795.134 61.513C794.977 61.411 794.824 61.3012 794.678 61.184C793.906 60.493 793.128 59.809 792.378 59.099C791.881 58.6373 791.409 58.1499 790.963 57.639C787.491 53.596 783.889 49.675 780.03 45.997C777.749 43.7787 775.328 41.7079 772.784 39.797C772.533 39.541 772.222 39.3534 771.878 39.252L771.82 39.303C772.02 39.496 772.22 39.703 772.432 39.879C773.917 41.113 775.444 42.3 776.888 43.579C781.404 47.6598 785.644 52.0361 789.58 56.679C789.663 56.779 789.732 56.884 789.956 57.189C789.445 56.9331 788.959 56.6319 788.502 56.289C787.458 55.5305 786.306 54.9334 785.084 54.518C784.309 54.2442 783.583 53.8486 782.933 53.346C779.318 50.7126 775.618 48.205 771.833 45.823C762.889 40.1444 753.28 35.5879 743.223 32.256C743.004 32.2071 742.781 32.1773 742.556 32.167C742.632 32.241 742.656 32.277 742.684 32.289C743.622 32.633 744.561 32.9756 745.5 33.317C753.907 36.3635 761.982 40.2555 769.603 44.933C773.813 47.5136 777.918 50.252 781.918 53.148C782.118 53.293 782.44 53.373 782.431 53.719C781.331 53.619 780.264 53.482 779.194 53.435C778.516 53.4045 777.853 53.2246 777.252 52.908C773.525 51.004 769.72 49.2706 765.838 47.708C762.025 46.161 758.154 44.773 754.213 43.594C751.813 42.877 749.393 42.24 746.971 41.61C745.484 41.224 743.978 40.91 742.476 40.583C742.061 40.493 741.631 40.471 741.207 40.418C745.227 41.428 749.236 42.443 753.195 43.645C758.637 45.2912 763.974 47.2685 769.175 49.566C771.809 50.6706 774.386 51.9089 776.894 53.276C776.907 53.283 776.894 53.341 776.888 53.376C776.626 53.4731 776.347 53.5166 776.068 53.5038C775.788 53.4911 775.514 53.4225 775.262 53.302C770.735 51.8346 766.122 50.649 761.448 49.752C758.81 49.241 756.135 48.994 753.468 48.693C753.371 48.6894 753.274 48.6937 753.178 48.706C756.837 49.233 760.478 49.777 764.071 50.612C767.696 51.4265 771.276 52.4278 774.798 53.612C774.652 53.6843 774.488 53.7137 774.326 53.697C773.904 53.622 773.486 53.522 773.068 53.424C770.735 52.879 768.403 52.324 766.068 51.791C765.686 51.703 765.29 51.669 764.9 51.617C764.546 51.569 764.19 51.524 763.834 51.488C763.482 51.4215 763.12 51.4154 762.766 51.47C763.61 51.642 764.466 51.729 765.304 51.898C767.898 52.418 770.46 53.078 773.018 53.752C773.088 53.771 773.134 53.88 773.241 54.005C772.871 54.116 772.571 54.211 772.268 54.295C770.506 54.7762 768.799 55.4408 767.176 56.278C765.971 56.907 764.798 57.597 763.61 58.258C763.331 58.414 763.049 58.565 762.81 58.694C761.639 58.651 760.531 58.613 759.423 58.567C757.89 58.5043 756.353 58.4376 754.814 58.367C754.135 58.335 753.458 58.274 752.779 58.239C749.881 58.0878 747.012 57.5766 744.24 56.717C741.846 55.978 739.504 55.092 737.181 54.159C733.52 52.6523 730.325 50.1987 727.925 47.05C727.754 46.834 727.625 46.586 727.408 46.25C727.626 46.2662 727.843 46.2946 728.058 46.335C729.268 46.652 730.475 46.983 731.685 47.298C732.929 47.6219 734.208 47.7898 735.493 47.798C732.616 47.278 729.819 46.462 727.056 45.689C726.471 44.867 726.471 44.867 726.356 44.25C726.464 44.268 726.567 44.28 726.667 44.304C728.231 44.684 729.793 45.068 731.357 45.446C732.19 45.646 733.03 45.826 733.857 46.046C735.112 46.3358 736.384 46.5469 737.666 46.678C737.806 46.6837 737.946 46.677 738.084 46.658C737.911 46.546 737.717 46.4714 737.513 46.439C736.249 46.19 734.976 45.986 733.724 45.689C731.424 45.145 729.142 44.552 726.855 43.969C726.514 43.882 726.188 43.738 725.914 43.641C725.807 43.432 725.729 43.31 725.679 43.177C725.11 41.777 724.168 40.5603 722.954 39.66C721.567 38.5298 720.099 37.5024 718.562 36.586C717.103 35.745 715.749 34.7351 714.527 33.577C713.188 32.3268 712.123 30.8126 711.398 29.13C711.17 28.568 710.994 27.9862 710.872 27.392C710.756 26.8919 710.805 26.3678 711.012 25.898C711.225 25.925 711.398 25.939 711.568 25.97C712.799 26.196 714.032 26.417 715.26 26.654C717.753 27.137 720.246 27.618 722.733 28.123C723.643 28.308 724.541 28.55 725.441 28.782C726.652 29.094 727.859 29.426 729.07 29.737C729.294 29.7787 729.52 29.8048 729.747 29.815C729.337 29.5905 728.903 29.4131 728.453 29.286C725.438 28.373 722.366 27.686 719.285 27.044C716.798 26.529 714.293 26.102 711.798 25.626C711.582 25.5693 711.371 25.4944 711.167 25.402C711.137 25.3415 711.121 25.2753 711.12 25.2079C711.118 25.1405 711.132 25.0736 711.159 25.012C711.685 23.4408 712.644 22.0497 713.924 20.998C715.256 19.9026 716.809 19.1082 718.476 18.669C719.628 18.2465 720.89 18.2355 722.049 18.638C722.082 18.6489 722.115 18.6569 722.149 18.662C725.184 19.356 728.175 20.214 731.128 21.192C737.058 23.0859 742.78 25.576 748.207 28.624C748.327 28.6791 748.452 28.7232 748.58 28.756C748.497 28.5656 748.353 28.4077 748.172 28.306C747.526 27.925 746.882 27.538 746.22 27.184C739.695 23.7512 732.807 21.0598 725.683 19.16L722.489 18.282C722.644 18.194 722.822 18.1527 723 18.163C724.324 18.1815 725.643 18.3289 726.938 18.603C729.502 19.0996 732.03 19.7677 734.505 20.603C736.978 21.437 739.423 22.355 741.866 23.273C744.694 24.3906 747.584 25.3412 750.523 26.12C753.266 26.798 756.023 27.43 758.777 28.056C761.429 28.656 764.053 29.362 766.668 30.106C767.527 30.3513 768.336 30.7438 769.061 31.266C771.922 33.2978 774.584 35.5954 777.013 38.128C777.199 38.321 777.347 38.574 777.66 38.658C777.644 38.57 777.652 38.499 777.621 38.458C775.187 35.7175 772.465 33.2466 769.503 31.088C769.594 31.0574 769.689 31.0399 769.785 31.036C770.777 31.2038 771.703 31.6431 772.461 32.305C772.986 32.79 773.55 33.232 774.105 33.684C774.276 33.8118 774.453 33.9303 774.637 34.039ZM777.858 86.174C778.217 86.029 778.353 85.674 778.558 85.395C780.636 82.524 782.807 79.726 785.038 76.973C787.134 74.3397 789.406 71.8514 791.838 69.525C793.338 68.0848 795.033 66.8628 796.874 65.895C797.33 65.6297 797.821 65.4301 798.333 65.302C798.671 65.602 799.203 65.639 799.561 66.069C799.277 66.342 799.025 66.592 798.761 66.834C797.203 68.2603 795.72 69.7663 794.317 71.346C792.546 73.3166 790.931 75.4231 789.489 77.646C789.401 77.785 789.172 77.916 789.377 78.146C789.956 77.36 790.509 76.568 791.105 75.81C791.945 74.742 792.793 73.677 793.684 72.65C794.575 71.623 795.509 70.634 796.447 69.65C796.965 69.107 797.528 68.607 798.073 68.089C798.099 68.0646 798.132 68.0483 798.167 68.042C798.188 68.042 798.214 68.066 798.237 68.079C798.245 68.111 798.271 68.155 798.258 68.179C798.118 68.379 797.983 68.593 797.827 68.786C795.935 71.1226 794.196 73.579 792.621 76.14C790.172 79.9734 788.262 84.1253 786.944 88.479C786.847 88.748 786.78 89.0271 786.744 89.311C786.729 89.598 786.378 89.811 786.604 90.189C786.728 89.889 786.846 89.628 786.941 89.362C787.469 87.881 787.941 86.378 788.526 84.921C790.207 80.8886 792.33 77.0549 794.855 73.49C796.392 71.2453 798.072 69.1018 799.885 67.073C799.977 66.9216 800.098 66.7901 800.241 66.6859C800.384 66.5817 800.547 66.5069 800.719 66.466C801.497 66.7749 802.253 67.1357 802.983 67.546C802.835 67.756 802.725 67.935 802.592 68.096C801.692 69.2095 800.893 70.4016 800.206 71.658C797.887 75.9806 796.298 80.6565 795.503 85.497C795.126 87.537 794.911 89.606 794.635 91.664C794.4 93.402 794.367 95.157 794.279 96.906C794.249 97.493 794.304 98.085 794.32 98.675C794.462 98.2702 794.537 97.8449 794.542 97.416C794.554 95.8449 794.654 94.2758 794.842 92.716C794.998 90.7176 795.272 88.7302 795.662 86.764C796.008 85.009 796.356 83.258 796.798 81.524C797.621 78.2601 798.843 75.1098 800.435 72.144C801.106 70.8781 801.895 69.679 802.793 68.563C803.008 68.2322 803.291 67.951 803.623 67.738C803.768 67.7596 803.912 67.791 804.053 67.832C805.364 68.306 806.662 68.821 807.988 69.251C808.362 69.3705 808.708 69.5651 809.005 69.8231C809.301 70.081 809.542 70.3968 809.712 70.751C810.378 71.9835 810.782 73.3407 810.897 74.737C811.076 76.4115 810.956 78.1044 810.543 79.737C810.476 80.0819 810.43 80.4305 810.405 80.781C810.615 80.253 810.758 79.963 810.844 79.657C810.921 79.3443 810.979 79.0274 811.019 78.708C811.077 78.355 811.136 78.002 811.18 77.647C811.219 77.327 811.247 77.006 811.264 76.684C811.282 76.364 811.286 76.042 811.286 75.721C811.286 75.4 811.286 75.076 811.267 74.756C811.241 74.4349 811.197 74.1154 811.137 73.799C811.079 73.483 811.003 73.169 810.918 72.859C810.823 72.514 810.718 72.171 810.6 71.834C810.493 71.534 810.352 71.24 810.239 70.934C810.139 70.657 809.875 70.434 809.875 70.097C810.361 70.029 810.675 70.317 811.05 70.419C811.91 70.6856 812.651 71.2431 813.145 71.996C814.685 74.0753 815.727 76.481 816.189 79.027C816.498 80.6835 816.543 82.3786 816.32 84.049C816.179 85.2957 815.867 86.5171 815.394 87.679C815.305 87.888 815.149 88.112 815.354 88.416C815.507 88.095 815.654 87.816 815.777 87.522C816.7 85.2193 817.043 82.7253 816.777 80.259C816.522 77.3547 815.505 74.5692 813.828 72.184C813.728 72.035 813.528 71.906 813.6 71.673C813.643 71.6638 813.687 71.6614 813.73 71.666C813.829 71.7034 813.927 71.7465 814.021 71.795C815.504 72.5978 816.831 73.6604 817.938 74.932C818.642 75.6986 819.209 76.5804 819.614 77.539C820.338 79.2184 820.781 81.0057 820.924 82.829C821.156 86.1609 820.703 89.5051 819.592 92.655C818.799 95.0363 817.628 97.274 816.122 99.282C814.501 101.453 812.184 103.002 809.559 103.672C809.007 103.817 808.447 103.94 807.887 104.049C806.087 104.355 804.256 104.445 802.434 104.317C800.175 104.254 797.942 103.822 795.823 103.039C793.289 102.057 790.744 101.104 788.212 100.117C786.196 99.2763 784.093 98.6635 781.941 98.29C779.137 97.8445 776.269 98.021 773.541 98.807C770.268 99.712 767.398 101.702 765.403 104.45C764.981 105.027 764.584 105.623 764.182 106.215C763.66 106.986 763.176 107.784 762.619 108.527C761.933 109.443 761.214 110.333 760.463 111.198C759.693 112.058 758.699 112.686 757.592 113.012C757.081 113.175 756.56 113.312 756.039 113.433C755.891 113.438 755.743 113.422 755.599 113.384C755.806 112.721 756.069 112.078 756.386 111.46C756.652 110.874 756.923 110.29 757.209 109.713C757.509 109.104 757.824 108.501 758.144 107.901C758.464 107.301 758.786 106.701 759.127 106.115C759.45 105.559 759.804 105.02 760.135 104.468C760.535 103.93 760.881 103.354 761.166 102.748C761.016 102.809 760.886 102.91 760.79 103.04C760.333 103.681 759.86 104.311 759.443 104.977C757.93 107.406 756.603 109.947 755.474 112.577C755.335 112.899 755.174 113.213 755.033 113.515C754.123 113.623 753.202 113.613 752.294 113.485C750.736 113.252 749.209 112.84 747.745 112.258C745.695 111.47 743.903 110.129 742.57 108.383C742.109 107.791 741.692 107.162 741.288 106.529C740.466 105.189 739.714 103.807 739.037 102.389C739.215 102.152 739.36 101.948 739.514 101.753C739.692 101.528 739.878 101.31 740.061 101.09L740.543 100.514L741.029 99.94C741.215 99.723 741.401 99.505 741.589 99.289C741.755 99.101 741.924 98.916 742.089 98.73L742.589 98.172C742.758 97.987 742.926 97.801 743.097 97.618C743.297 97.408 743.49 97.201 743.686 96.993C743.859 96.811 744.03 96.628 744.204 96.448C744.378 96.268 744.554 96.089 744.73 95.911C744.93 95.7056 745.13 95.5016 745.33 95.299C745.507 95.121 745.683 94.944 745.863 94.769C746.043 94.594 746.224 94.422 746.405 94.248C746.611 94.048 746.814 93.848 747.022 93.648C747.204 93.475 747.391 93.308 747.575 93.139C747.759 92.97 747.942 92.797 748.128 92.629C748.341 92.4376 748.555 92.2476 748.77 92.059C748.958 91.893 749.148 91.729 749.338 91.566C749.528 91.403 749.719 91.24 749.91 91.078C750.101 90.916 750.292 90.753 750.486 90.594C750.707 90.4126 750.93 90.233 751.155 90.055C751.355 89.9 751.55 89.747 751.748 89.594C751.946 89.441 752.148 89.287 752.343 89.135C752.571 88.961 752.804 88.794 753.025 88.612C753.164 88.5346 753.285 88.4291 753.38 88.3024C753.476 88.1757 753.544 88.0305 753.581 87.876C752.399 88.6536 751.26 89.4938 750.168 90.393C749.145 91.232 748.133 92.093 747.156 92.982C746.156 93.898 745.177 94.849 744.223 95.818C743.294 96.762 742.405 97.744 741.504 98.718C740.584 99.708 739.776 100.798 738.789 101.836C738.225 101.064 737.798 100.296 737.314 99.498C737.712 99.0358 738.142 98.6015 738.599 98.198C739.04 97.778 739.483 97.3603 739.927 96.945C740.347 96.555 740.768 96.167 741.195 95.786C741.65 95.386 742.105 94.977 742.573 94.586C743.041 94.195 743.526 93.829 744.002 93.449C744.478 93.069 744.965 92.756 745.412 92.349C745.335 92.291 745.296 92.249 745.283 92.254C745.058 92.3596 744.84 92.4792 744.63 92.612C743.157 93.6318 741.753 94.7497 740.43 95.958C739.452 96.851 738.488 97.758 737.513 98.658C737.362 98.798 737.233 98.995 736.918 98.952C736.834 98.852 736.712 98.729 736.607 98.591C734.78 96.1587 733.935 93.1286 734.238 90.102C734.341 89.0328 734.534 87.9743 734.817 86.938C735.94 82.1591 738.577 77.8713 742.336 74.714C744.25 73.0943 746.287 71.6271 748.43 70.326C750.908 68.818 753.26 67.1104 755.46 65.22C757.543 63.3578 759.772 61.6666 762.127 60.163C764.088 58.9061 766.116 57.758 768.203 56.724C772.136 54.7645 776.542 53.9552 780.914 54.389C783.166 54.6055 785.343 55.3131 787.292 56.462C789.289 57.6652 791.07 59.1959 792.559 60.99C792.642 61.1211 792.713 61.2593 792.772 61.403C792.377 61.354 792.095 61.324 791.815 61.282C789.197 60.8791 786.551 60.6785 783.902 60.682C780 60.6963 776.118 61.2402 772.363 62.299C771.916 62.425 771.483 62.599 771.049 62.763C770.912 62.815 770.731 62.853 770.727 63.077C771.685 62.831 772.614 62.588 773.545 62.353C778.143 61.242 782.887 60.8594 787.603 61.219C789.171 61.319 790.73 61.591 792.291 61.797C792.574 61.8427 792.851 61.914 793.121 62.01C793.32 62.1049 793.512 62.2156 793.693 62.341C789.586 61.9924 785.451 62.2686 781.427 63.16C777.463 63.9706 773.609 65.2506 769.947 66.973C766.817 68.473 761.172 72.361 759.911 73.943C760.411 73.584 760.756 73.343 761.095 73.096C762.342 72.196 763.577 71.273 764.837 70.39C766.679 69.0861 768.645 67.9671 770.707 67.049C776.72 64.3224 783.215 62.8183 789.814 62.624C791.385 62.5574 792.959 62.6613 794.508 62.934C794.824 63.0951 795.106 63.317 795.336 63.587C795.22 63.644 795.099 63.6918 794.975 63.73C792.312 64.2964 789.738 65.2229 787.325 66.484C783.382 68.4562 779.706 70.923 776.386 73.825C775.278 74.786 774.228 75.812 773.159 76.817C773.059 76.911 772.854 77.017 773.027 77.217C774.247 76.155 775.447 75.081 776.679 74.046C780.063 71.1633 783.792 68.7113 787.779 66.746C789.7 65.7844 791.714 65.0208 793.789 64.467C793.934 64.43 794.097 64.326 794.201 64.498C792.887 65.084 791.563 65.628 790.281 66.258C786.477 68.1907 782.973 70.6662 779.881 73.607C775.887 77.3063 772.17 81.2944 768.761 85.539C767.191 87.49 765.672 89.483 764.141 91.464C763.929 91.738 763.617 91.964 763.635 92.376L763.626 92.364C763.771 92.275 763.906 92.1693 764.026 92.049C764.587 91.349 765.134 90.649 765.684 89.94C768.883 85.7629 772.319 81.7723 775.974 77.988C778.491 75.3407 781.202 72.8843 784.083 70.639C787.35 68.121 791.004 66.1506 794.903 64.805C795.442 64.624 795.992 64.473 796.474 64.327C796.87 64.4593 797.235 64.6702 797.547 64.947C797.464 65.0368 797.371 65.1167 797.27 65.185C794.67 66.4851 792.324 68.2409 790.344 70.369C785.84 75.126 781.723 80.2349 778.032 85.647C777.946 85.7998 777.877 85.9609 777.824 86.128L777.858 86.174ZM810.568 69.286C810.368 68.757 810.201 68.325 810.047 67.886C808.058 62.2093 806.322 56.4563 804.839 50.627C803.692 46.081 802.857 41.47 802.026 36.858C802.013 36.5284 801.925 36.206 801.77 35.915C801.742 35.9926 801.724 36.0737 801.718 36.156C801.765 36.618 801.808 37.08 801.874 37.539C802.497 41.825 803.297 46.078 804.318 50.287C805.753 56.203 807.503 62.027 809.502 67.776C809.679 68.1493 809.786 68.5514 809.82 68.963C809.066 68.792 808.333 68.5354 807.637 68.198C804.383 62.4977 801.761 56.4597 799.816 50.191C799.746 50.2643 799.699 50.3557 799.679 50.4548C799.659 50.5539 799.668 50.6566 799.704 50.751C799.913 51.472 800.104 52.199 800.344 52.911C801.916 57.7093 803.913 62.3578 806.311 66.801C806.479 67.109 806.626 67.428 806.78 67.736C806.698 67.787 806.661 67.827 806.641 67.82C805.497 67.425 804.349 67.038 803.212 66.62C802.966 66.5088 802.745 66.3492 802.562 66.1508C802.38 65.9523 802.239 65.7191 802.148 65.465C802.012 65.174 801.914 64.865 801.807 64.565C801.257 63.0132 800.609 61.4978 799.867 60.028C799.289 58.876 798.708 57.728 798.154 56.563C795.928 51.8566 794.721 46.7331 794.612 41.528C794.48 39.0407 795.097 36.571 796.385 34.439C797.832 32.112 797.827 32.173 798.004 29.1C798.015 28.921 798.023 28.742 798.027 28.563C798.084 25.845 798.141 23.127 798.196 20.409C798.23 18.656 798.457 16.9122 798.873 15.209C799.948 10.4719 802.849 6.35023 806.945 3.73896C809.467 2.07293 812.384 1.10096 815.401 0.920964C815.806 0.851939 816.222 0.889512 816.608 1.02997C816.628 1.23162 816.636 1.43435 816.631 1.63697C816.531 2.95697 816.42 4.27598 816.323 5.59498C816.196 7.34298 816.068 9.09498 815.964 10.841C815.928 11.441 815.955 12.056 815.97 12.664C815.97 12.731 816.08 12.795 816.186 12.915C816.265 11.845 816.342 10.856 816.411 9.86496C816.477 8.90196 816.531 7.93798 816.598 6.97498C816.668 5.97498 816.726 4.97495 816.828 3.97995C816.862 2.97017 816.991 1.9658 817.212 0.979955C817.465 0.958849 817.72 0.958849 817.973 0.979955C818.642 1.09495 819.311 1.22298 819.973 1.37998C821.861 1.80778 823.656 2.57195 825.273 3.63596C826.495 4.45004 827.651 5.35849 828.731 6.35297C828.939 6.54697 829.131 6.75298 829.347 6.97098C830.162 11.003 830.647 15.095 830.795 19.206C830.906 18.7557 830.972 18.2954 830.99 17.832C830.979 16.903 830.92 15.975 830.856 15.048C830.708 12.906 830.443 10.778 830.093 8.65897C829.985 8.37749 829.978 8.06711 830.073 7.78098C830.91 8.60098 831.433 9.63295 832.2 10.424C832.252 10.679 832.3 10.887 832.334 11.099C832.627 13.225 832.781 15.3679 832.795 17.514C832.804 19.122 832.744 20.731 832.673 22.338C832.62 23.516 832.496 24.69 832.41 25.867C832.431 26.0368 832.468 26.2042 832.521 26.367C832.775 25.0413 832.947 23.701 833.035 22.354C833.135 21.109 833.153 19.854 833.16 18.604C833.168 17.318 833.13 16.03 833.091 14.744C833.052 13.458 832.834 12.2 832.791 10.944C832.916 10.895 832.983 10.844 833.044 10.844C834.573 11.018 836.106 11.163 837.628 11.389C838.405 11.5116 839.169 11.7079 839.909 11.975C840.738 12.2066 841.506 12.6192 842.157 13.183C842.113 14.239 842.09 15.274 842.02 16.306C841.887 17.3126 841.812 18.3258 841.793 19.341C841.958 18.7214 842.085 18.0922 842.172 17.457C842.264 16.784 842.293 16.102 842.392 15.43C842.483 14.81 842.427 14.171 842.581 13.54C843.649 14.1484 844.503 15.0713 845.027 16.183C845.552 17.2947 845.72 18.541 845.51 19.752C844.027 20.1234 842.604 20.7043 841.285 21.477C839.932 22.268 838.642 23.165 837.278 24.046C837.319 23.724 837.34 23.446 837.39 23.181C837.557 22.268 837.741 21.358 837.902 20.444C837.917 20.2568 837.914 20.0685 837.892 19.882C837.479 21.482 837.122 23.082 836.612 24.595C835.685 25.514 834.774 26.374 833.912 27.282C833.05 28.19 832.223 29.132 831.412 30.082C830.601 31.032 829.812 32.007 829.044 32.999C828.276 33.991 827.529 34.999 826.832 36.034C826.135 37.069 825.485 38.146 824.865 39.234C824.245 40.322 823.696 41.427 823.003 42.734C823.003 41.383 823.003 40.277 823.013 39.171C823.019 38.098 823.049 37.025 823.04 35.952C823.09 34.878 823.056 33.8018 822.94 32.733C822.782 33.5363 822.702 34.3532 822.701 35.172C822.692 36.138 822.672 37.103 822.652 38.072C822.616 39.789 822.563 41.506 822.547 43.223C822.548 43.723 822.463 44.2195 822.297 44.691C821.275 47.5968 820.595 50.6118 820.27 53.675C820.231 54.021 820.163 54.364 820.108 54.708C819.987 54.5217 819.915 54.3077 819.899 54.086C819.554 51.136 819.274 48.18 819.164 45.212C819.071 42.712 819.012 40.206 818.971 37.702C818.911 34.126 818.893 30.548 818.83 26.972C818.888 26.0542 818.814 25.1329 818.611 24.236C818.572 24.547 818.54 24.686 818.539 24.826C818.521 27.294 818.487 29.762 818.498 32.226C818.511 35.126 818.571 38.026 818.598 40.918C818.637 45.036 818.922 49.137 819.318 53.234C819.566 55.796 820.018 58.334 820.118 60.913C820.249 64.27 820.462 67.625 820.586 70.982C820.596 72.0904 820.548 73.1986 820.442 74.302C820.399 74.9085 820.232 75.4997 819.951 76.039C819.784 75.9207 819.653 75.7572 819.575 75.5675C819.497 75.3778 819.475 75.1698 819.511 74.968C819.505 72.6421 819.38 70.3181 819.137 68.005C818.57 62.5623 817.996 57.12 817.417 51.678C817.381 51.4492 817.333 51.2225 817.273 50.999C817.189 51.9978 817.201 53.0024 817.309 53.999C817.65 57.523 817.998 61.0466 818.353 64.57C818.644 67.418 818.909 70.27 819.016 73.128C819.063 73.6215 819.045 74.119 818.963 74.608C818.592 74.533 818.484 74.233 818.283 74.047C818.048 73.83 817.843 73.581 817.583 73.307C817.291 71.907 816.99 70.468 816.694 69.033C815.596 63.8155 814.807 58.5376 814.333 53.227C814.118 50.697 813.896 48.168 813.684 45.637C813.659 45.243 813.568 44.8561 813.413 44.493C813.407 44.924 813.394 45.101 813.404 45.277C813.512 47.061 813.615 48.846 813.734 50.63C814.041 55.5945 814.643 60.5365 815.534 65.43C815.934 67.575 816.373 69.712 816.789 71.854C816.832 72.078 816.969 72.311 816.798 72.554C816.723 72.496 816.643 72.465 816.62 72.41C816.537 72.2129 816.466 72.0108 816.408 71.805C815.308 67.694 814.208 63.58 813.317 59.416C813.242 59.064 813.161 58.716 813.082 58.362C813.009 58.5308 812.986 58.7174 813.017 58.899C813.381 61.3039 813.873 63.6877 814.491 66.04C814.917 67.777 815.376 69.506 815.808 71.24C815.852 71.417 816.019 71.631 815.744 71.828C815.574 71.728 815.39 71.618 815.212 71.502C815.034 71.386 814.861 71.26 814.666 71.124C814.566 70.784 814.458 70.445 814.366 70.1C812.918 64.5973 811.666 59.0496 810.611 53.457C808.86 44.5005 807.779 35.4261 807.376 26.309C807.173 21.9479 807.316 17.5775 807.803 13.239C807.829 13.029 807.815 12.814 807.82 12.602C807.54 13.3432 807.374 14.1222 807.325 14.913C806.95 18.1128 806.806 21.3355 806.895 24.556C806.97 29.137 807.311 33.703 807.825 38.256C808.695 45.9358 809.984 53.5622 811.688 61.101C812.357 64.067 813.111 67.014 813.816 69.972C813.868 70.192 814.063 70.427 813.823 70.7L810.568 69.286ZM821.26 79.613C821.365 79.5283 821.476 79.4517 821.593 79.384C822.626 78.879 823.524 78.1347 824.211 77.213C825.519 75.5382 826.356 73.5451 826.637 71.439C826.863 69.8795 826.893 68.2979 826.726 66.731C826.536 64.9529 826.25 63.1863 825.869 61.439C825.374 58.948 824.936 56.448 824.669 53.921C824.402 51.2148 824.371 48.4906 824.574 45.779C824.646 45.0679 824.761 44.3616 824.916 43.664C825.206 42.3722 825.599 41.1058 826.091 39.877C826.708 38.1193 827.575 36.4601 828.667 34.951C830.639 32.2702 832.78 29.7187 835.078 27.312C836.985 25.3679 839.151 23.6965 841.515 22.345C842.62 21.6805 843.801 21.152 845.033 20.771C845.718 20.5659 846.37 20.2656 846.971 19.879C847.566 19.478 848.229 19.1889 848.928 19.026C849.254 18.9181 849.601 18.8879 849.941 18.9377C850.282 18.9876 850.605 19.1162 850.887 19.3132C851.168 19.5103 851.4 19.7703 851.564 20.0727C851.727 20.3751 851.818 20.7114 851.828 21.055C851.843 21.1613 851.851 21.2686 851.85 21.376C851.833 22.125 851.862 22.876 851.783 23.623C851.359 27.3583 850.488 31.0292 849.189 34.557C848.283 37.081 847.369 39.602 846.494 42.136C845.758 44.264 845.1 46.42 844.357 48.546C843.028 52.3622 841.926 56.2537 841.057 60.2C840.616 62.189 840.111 64.164 839.495 66.109C838.168 70.5465 835.235 74.3302 831.268 76.721C829.099 78.0514 826.838 79.227 824.503 80.239C823.783 80.552 823.027 80.78 822.282 81.03C822.076 81.0813 821.865 81.1148 821.653 81.13C821.4 80.6623 821.265 80.1398 821.26 79.608V79.613ZM759.226 113.463C760.562 112.475 761.726 111.273 762.671 109.906C763.331 109.016 763.941 108.09 764.571 107.178C765.099 106.414 765.605 105.632 766.156 104.884C767.144 103.518 768.378 102.348 769.796 101.436C772.665 99.6382 776.014 98.7561 779.396 98.907C782.083 99.0103 784.73 99.5963 787.21 100.637C790.358 101.905 793.51 103.171 796.732 104.242C799.65 105.238 802.729 105.679 805.809 105.542C806.01 105.554 806.211 105.579 806.409 105.615C805.852 105.815 805.524 105.944 805.187 106.046C800.928 107.328 796.449 107.717 792.033 107.186C790.719 107.034 789.404 106.886 788.092 106.71C785.141 106.309 782.138 106.528 779.276 107.352C777.423 107.887 775.596 108.518 773.776 109.146C771.647 109.879 769.54 110.678 767.41 111.409C765.117 112.219 762.765 112.85 760.374 113.295C759.994 113.356 759.609 113.402 759.226 113.458V113.463ZM821.192 78.528C821.314 78.058 821.381 77.787 821.456 77.518C821.882 76.0368 822.066 74.4968 822.002 72.957C821.829 69.491 821.51 66.038 821.184 62.584C820.817 59.1655 820.869 55.715 821.337 52.309C821.458 51.496 821.637 50.691 821.788 49.883C822.282 47.243 823.125 44.6803 824.293 42.262C824.408 42.025 824.55 41.801 824.715 41.508C824.732 41.6051 824.734 41.7041 824.723 41.802C824.204 43.2138 823.888 44.6922 823.784 46.193C823.561 48.7604 823.573 51.3429 823.822 53.908C824.062 56.508 824.522 59.08 825.013 61.645C825.287 63.085 825.56 64.527 825.75 65.98C826.116 68.2846 826.005 70.6399 825.424 72.9C824.956 74.6362 824.045 76.2212 822.781 77.5C822.345 77.9686 821.799 78.3203 821.192 78.523V78.528Z" fill="url(#paint0_linear)"/>
<path opacity="0.8" d="M171.373 371.108C171.399 372.176 171.412 373.245 171.404 374.308C171.342 382.518 170.943 390.715 170.296 398.897C169.851 404.523 169.317 410.143 168.733 415.756C168.262 420.275 167.689 424.784 167.101 429.289C166.625 432.937 166.089 436.578 165.525 440.214C164.935 444.021 164.309 447.823 163.646 451.619C162.939 455.646 162.206 459.67 161.413 463.681C160.57 467.94 159.681 472.19 158.745 476.429C156.634 485.984 154.323 495.491 151.669 504.911C150.548 508.892 149.405 512.867 148.212 516.827C147.15 520.35 146.032 523.856 144.891 527.354C143.906 530.373 142.883 533.38 141.821 536.374C140.501 540.074 139.177 543.774 137.744 547.438C136.042 551.785 134.275 556.107 132.444 560.402C129.444 567.469 126.119 574.38 122.47 581.137C118.929 587.824 114.908 594.246 110.439 600.352C107.864 603.929 105.002 607.29 101.882 610.403C100.157 612.105 98.3293 613.699 96.4079 615.175C94.9785 616.259 93.4711 617.236 91.8979 618.097C91.7869 618.158 91.6779 618.221 91.5639 618.273C91.4642 618.339 91.3489 618.377 91.2296 618.384C91.1103 618.391 90.9913 618.367 90.8846 618.313C90.778 618.259 90.6874 618.178 90.6221 618.078C90.5568 617.978 90.5191 617.862 90.5129 617.743C90.1923 615.994 90.0223 614.221 90.0049 612.443C89.9563 607.63 90.2712 602.82 90.9469 598.054C91.3089 595.263 91.7099 592.475 92.1889 589.702C92.8649 585.802 93.5689 581.895 94.3729 578.015C95.2879 573.595 96.2799 569.189 97.3209 564.797C98.4089 560.206 99.5609 555.629 100.748 551.062C101.788 547.062 102.905 543.075 104.004 539.087C104.539 537.146 105.104 535.213 105.664 533.28C106.36 530.895 107.064 528.512 107.776 526.131C108.376 524.112 108.986 522.095 109.607 520.08C110.297 517.841 110.997 515.605 111.707 513.371C112.355 511.317 113.001 509.262 113.664 507.212C114.385 504.983 115.122 502.759 115.857 500.534C116.542 498.459 117.225 496.383 117.927 494.313C118.775 491.813 119.639 489.313 120.502 486.819C121.31 484.486 122.115 482.153 122.943 479.828C123.987 476.895 125.044 473.966 126.113 471.043C127.322 467.736 128.527 464.426 129.775 461.133C131.47 456.666 133.188 452.207 134.929 447.754C136.635 443.407 138.35 439.063 140.137 434.754C142.507 429.031 144.918 423.326 147.371 417.638C150.811 409.652 154.433 401.749 158.237 393.929C161.616 386.969 165.104 380.066 168.937 373.342C169.505 372.342 170.097 371.362 170.687 370.378C170.787 370.214 170.861 369.994 171.235 370C171.299 370.367 171.345 370.737 171.373 371.108ZM107.835 602.535C111.304 598.099 114.487 593.446 117.365 588.605C121.288 582.027 124.87 575.252 128.095 568.305C130.354 563.493 132.495 558.63 134.47 553.694C136.19 549.387 137.857 545.059 139.47 540.71C140.677 537.469 141.807 534.198 142.913 530.921C144.089 527.435 145.226 523.935 146.325 520.421C147.377 517.059 148.381 513.682 149.367 510.3C152.714 498.818 155.617 487.222 158.176 475.54C158.987 471.837 159.76 468.125 160.495 464.406C161.277 460.441 162.012 456.465 162.728 452.487C163.316 449.22 163.871 445.949 164.392 442.672C164.918 439.364 165.411 436.051 165.872 432.733C166.346 429.369 166.816 426.005 167.212 422.633C167.748 418.073 168.264 413.51 168.693 408.94C169.161 403.962 169.585 398.979 169.909 393.991C170.247 388.799 170.456 383.598 170.697 378.4C170.797 376.264 170.832 374.126 170.897 371.989C170.908 371.802 170.879 371.615 170.812 371.44C170.719 371.589 170.62 371.74 170.534 371.89C167.383 377.515 164.367 383.212 161.487 388.98C157.645 396.659 154.018 404.439 150.523 412.28C147.528 419.002 144.631 425.766 141.833 432.571C139.857 437.403 137.891 442.239 135.974 447.093C134.264 451.422 132.617 455.775 130.962 460.124C129.782 463.225 128.621 466.332 127.478 469.447C126.511 472.073 125.569 474.709 124.627 477.347C123.622 480.161 122.626 482.977 121.637 485.796C120.879 487.963 120.137 490.137 119.403 492.31C118.613 494.633 117.828 496.957 117.047 499.282C116.438 501.101 115.847 502.926 115.247 504.75C114.603 506.723 113.963 508.697 113.327 510.673C112.784 512.366 112.248 514.06 111.721 515.757C111.116 517.69 110.516 519.628 109.921 521.57C109.445 523.118 108.976 524.668 108.514 526.221C107.804 528.603 107.099 530.986 106.4 533.37C105.805 535.409 105.222 537.45 104.649 539.495C103.898 542.176 103.149 544.858 102.427 547.546C101.688 550.296 100.956 553.046 100.264 555.81C99.2639 559.823 98.2429 563.834 97.3259 567.868C96.2659 572.531 95.2519 577.205 94.3259 581.896C93.5729 585.706 92.9339 589.541 92.3259 593.377C91.6609 597.571 91.1699 601.79 90.9079 606.031C90.7074 608.808 90.6963 611.595 90.8749 614.373C90.8899 614.573 90.9149 614.767 90.9349 614.963H91.0269C91.1089 614.508 91.1939 614.052 91.2729 613.596C91.5919 611.735 91.8889 609.871 92.2299 608.015C92.7979 604.921 93.3729 601.828 93.9799 598.741C95.7505 589.741 97.7095 580.782 99.8569 571.865C101.452 565.292 103.125 558.737 104.792 552.182C105.623 548.92 106.503 545.67 107.392 542.423C108.242 539.313 109.124 536.211 110.002 533.108C110.744 530.491 111.495 527.876 112.254 525.262C113.079 522.437 113.919 519.617 114.773 516.803C115.498 514.394 116.231 511.987 116.973 509.582C117.779 506.982 118.603 504.391 119.424 501.797C120.065 499.773 120.704 497.749 121.362 495.73C122.18 493.218 123.008 490.709 123.845 488.203C124.519 486.174 125.199 484.147 125.884 482.121C126.624 479.948 127.373 477.778 128.132 475.611C128.932 473.324 129.735 471.04 130.54 468.757C131.298 466.624 132.065 464.493 132.84 462.366C133.665 460.106 134.498 457.85 135.34 455.597C136.293 453.049 137.256 450.505 138.229 447.965C139.217 445.397 140.217 442.834 141.229 440.277C142.32 437.53 143.413 434.783 144.547 432.054C146.147 428.192 147.766 424.334 149.424 420.495C151.96 414.62 154.578 408.782 157.448 403.06C157.548 402.867 157.584 402.592 157.89 402.604C158.115 402.782 157.99 402.955 157.915 403.122C157.415 404.209 156.915 405.291 156.426 406.382C154.155 411.463 151.862 416.534 149.626 421.631C148.156 424.986 146.753 428.371 145.362 431.759C143.988 435.104 142.652 438.459 141.325 441.828C140.125 444.87 138.944 447.92 137.782 450.977C136.782 453.607 135.805 456.247 134.833 458.888C133.78 461.751 132.738 464.618 131.705 467.488C130.788 470.049 129.894 472.618 129.005 475.188C128.035 477.98 127.074 480.775 126.121 483.574C125.313 485.957 124.526 488.347 123.738 490.737C122.877 493.35 122.016 495.964 121.173 498.583C120.379 501.053 119.604 503.53 118.828 506.006C118.108 508.302 117.393 510.6 116.684 512.899C116.19 514.507 115.717 516.122 115.234 517.734C114.734 519.392 114.234 521.048 113.746 522.707C113.184 524.607 112.626 526.507 112.073 528.407C111.431 530.628 110.796 532.851 110.167 535.076C109.7 536.726 109.24 538.378 108.787 540.032C107.951 543.099 107.12 546.165 106.295 549.232C105.601 551.832 104.92 554.434 104.251 557.039C102.038 565.648 99.9639 574.29 98.0299 582.966C96.9919 587.633 96.0019 592.311 95.0599 597.002C94.2999 600.747 93.6019 604.502 92.9199 608.267C92.3869 611.207 91.9199 614.159 91.4199 617.106C91.4069 617.182 91.4059 617.26 91.3909 617.433C91.5909 617.345 91.7389 617.291 91.8769 617.215C93.6601 616.212 95.3566 615.061 96.9489 613.776C99.5103 611.714 101.893 609.439 104.072 606.976C104.393 606.61 104.678 606.213 104.923 605.791C107.314 601.757 109.454 597.591 111.486 593.366C114.37 587.366 117.026 581.273 119.498 575.098C121.285 570.632 123.007 566.139 124.707 561.639C125.929 558.404 127.091 555.145 128.237 551.881C129.477 548.348 130.689 544.807 131.874 541.26C132.913 538.159 133.927 535.05 134.916 531.931C136.024 528.455 137.113 524.973 138.183 521.485C139.013 518.779 139.806 516.061 140.6 513.344C141.539 510.128 142.468 506.909 143.388 503.688C144.129 501.07 144.843 498.444 145.552 495.817C146.477 492.384 147.41 488.954 148.294 485.51C149.494 480.833 150.66 476.146 151.826 471.46C153.745 463.75 155.482 455.998 157.163 448.233C157.972 444.5 158.75 440.757 159.499 437.006C160.18 433.629 160.837 430.247 161.468 426.861C162.04 423.816 162.59 420.767 163.117 417.714C163.629 414.77 164.121 411.823 164.593 408.873C164.983 406.452 165.354 404.028 165.707 401.6C166.107 398.847 166.489 396.091 166.868 393.335C167.108 391.591 167.326 389.844 167.559 388.099C167.597 387.774 167.678 387.456 167.8 387.152C167.7 388.305 167.606 389.46 167.486 390.611C167.301 392.392 167.104 394.172 166.897 395.953C166.74 397.295 166.562 398.636 166.382 399.976C166.165 401.596 165.945 403.216 165.71 404.834C165.454 406.592 165.183 408.348 164.91 410.104C164.678 411.611 164.446 413.119 164.2 414.624C163.915 416.362 163.622 418.099 163.319 419.834C162.959 421.91 162.592 423.985 162.219 426.059C161.937 427.623 161.655 429.186 161.346 430.744C160.413 435.45 159.492 440.159 158.519 444.857C157.737 448.63 156.924 452.399 156.056 456.157C154.468 463.024 152.849 469.883 151.2 476.734C150.206 480.847 149.128 484.94 148.056 489.034C147.131 492.567 146.181 496.091 145.206 499.604C144.144 503.439 143.06 507.268 141.953 511.091C140.933 514.61 139.888 518.123 138.819 521.628C137.814 524.938 136.787 528.242 135.737 531.539C134.733 534.701 133.708 537.856 132.661 541.005C131.661 544.019 130.643 547.029 129.592 550.026C128.364 553.526 127.127 557.026 125.83 560.502C124.186 564.902 122.53 569.302 120.788 573.672C117.438 582.089 113.832 590.395 109.709 598.472C109.015 599.83 108.289 601.172 107.578 602.521L107.339 602.976L107.415 603.048C107.562 602.87 107.701 602.703 107.835 602.535Z" fill="url(#paint1_linear)"/>
<path opacity="0.8" d="M152.815 430.317C152.501 431.048 152.168 431.773 151.875 432.517C150.576 435.805 149.284 439.094 147.998 442.386C146.88 445.256 145.771 448.13 144.672 451.008C143.697 453.563 142.733 456.122 141.779 458.685C140.937 460.937 140.104 463.193 139.279 465.451C138.569 467.401 137.879 469.359 137.191 471.315C136.553 473.123 135.912 474.931 135.291 476.745C134.612 478.722 133.951 480.706 133.286 482.688C132.686 484.477 132.086 486.265 131.495 488.057C130.979 489.625 130.479 491.198 129.971 492.769C129.449 494.384 128.919 495.998 128.402 497.615C127.856 499.322 127.316 501.031 126.782 502.742C126.206 504.572 125.633 506.403 125.063 508.234C124.592 509.751 124.131 511.27 123.668 512.789C123.177 514.399 122.688 516.009 122.2 517.618C121.7 519.274 121.203 520.931 120.709 522.589C120.176 524.383 119.643 526.176 119.109 527.969C118.574 529.778 118.048 531.59 117.519 533.402C116.933 535.41 116.349 537.419 115.766 539.427C115.346 540.877 114.934 542.327 114.52 543.781C113.878 546.035 113.237 548.289 112.595 550.542C112.157 552.086 111.721 553.629 111.286 555.173C110.631 557.488 109.976 559.803 109.321 562.119C108.855 563.786 108.39 565.453 107.926 567.119C107.185 569.786 106.445 572.453 105.707 575.119C105.211 576.923 104.72 578.729 104.235 580.537C102.302 587.771 100.496 595.038 98.8163 602.337C98.3443 604.375 97.8813 606.416 97.4273 608.458C97.3728 608.568 97.3499 608.69 97.3612 608.812C97.3725 608.934 97.4176 609.05 97.4913 609.147C97.5956 608.966 97.6869 608.777 97.7643 608.582C97.9393 608.027 98.1173 607.472 98.2553 606.907C99.3043 602.63 100.326 598.346 101.392 594.072C102.42 589.952 103.463 585.835 104.548 581.729C105.612 577.699 106.728 573.684 107.837 569.666C108.779 566.255 109.731 562.847 110.694 559.442C111.61 556.188 112.53 552.934 113.455 549.681C114.327 546.61 115.203 543.54 116.081 540.47C116.961 537.418 117.859 534.37 118.75 531.322C119.442 528.952 120.128 526.58 120.83 524.213C121.469 522.058 122.13 519.907 122.775 517.754C123.264 516.128 123.745 514.499 124.24 512.875C124.832 510.934 125.435 508.998 126.034 507.06C126.475 505.633 126.914 504.205 127.362 502.78C127.905 501.055 128.452 499.332 129.003 497.61C129.409 496.338 129.817 495.065 130.225 493.792C130.751 492.161 131.28 490.531 131.811 488.901C132.293 487.423 132.778 485.944 133.266 484.465C133.861 482.675 134.461 480.886 135.066 479.099C135.609 477.49 136.153 475.882 136.709 474.278C137.337 472.466 137.972 470.657 138.614 468.849C139.201 467.189 139.793 465.531 140.389 463.875C141.043 462.075 141.702 460.275 142.366 458.475C143.092 456.515 143.826 454.557 144.566 452.601C145.358 450.501 146.159 448.401 146.953 446.295C147.679 444.369 148.403 442.441 149.125 440.513C150.021 438.131 150.918 435.748 151.814 433.366C152.162 432.44 152.508 431.513 152.85 430.584C152.873 430.511 152.891 430.435 152.904 430.359L152.815 430.317Z" fill="url(#paint2_linear)"/>
<path opacity="0.8" d="M46.2207 342.441C43.3892 343.289 40.4893 343.889 37.5537 344.234C36.5237 344.337 35.4889 344.387 34.4537 344.382C32.1997 344.339 29.9518 344.133 27.7277 343.764C25.3554 343.39 23.0232 342.795 20.7617 341.987C19.3277 341.482 18.0067 340.701 16.8737 339.687C16.5737 339.411 16.2587 339.155 15.9497 338.887C15.222 338.252 14.3511 337.803 13.4117 337.579C12.6937 337.41 11.9667 337.263 11.2357 337.166C8.0376 336.699 5.01259 335.42 2.44974 333.451C1.74114 332.941 1.15629 332.278 0.738453 331.511C0.320611 330.744 0.0804562 329.893 0.0357418 329.021C-0.081173 327.727 0.089574 326.424 0.535742 325.204C1.28244 323.149 2.41777 321.257 3.87974 319.631C5.10299 318.292 6.49496 317.118 8.02074 316.137C9.16674 315.392 10.3007 314.627 11.4267 313.852C11.8382 313.629 12.188 313.308 12.4447 312.917C12.2647 312.509 12.0607 312.078 11.8827 311.637C11.5377 310.781 11.1827 309.928 10.8767 309.058C10.5002 307.932 10.3447 306.743 10.4187 305.558C10.5193 303.897 10.9558 302.274 11.7017 300.787C12.3963 299.294 13.655 298.137 15.2017 297.57C16.8582 296.921 18.6225 296.59 20.4017 296.595C22.1765 296.592 23.9458 296.791 25.6757 297.187C28.336 297.829 30.91 298.786 33.3427 300.039C34.4617 300.608 35.5497 301.239 36.6557 301.834C36.7997 301.911 36.9557 302.082 37.1707 301.848C37.0207 301.535 36.8707 301.206 36.7067 300.884C36.1389 299.762 35.6943 298.583 35.3807 297.365C35.0191 296.081 34.9285 294.736 35.1147 293.415C35.236 292.437 35.6145 291.508 36.2118 290.723C36.8091 289.939 37.6038 289.326 38.5147 288.949C39.194 288.661 39.8997 288.439 40.6217 288.287C41.951 287.939 43.3434 287.907 44.6873 288.194C46.0312 288.48 47.2892 289.078 48.3607 289.938C49.7788 291.069 51.0346 292.39 52.0927 293.863C53.207 295.384 54.2122 296.983 55.1007 298.646C55.2214 298.999 55.4316 299.314 55.7107 299.561C55.8103 299.204 55.8178 298.827 55.7327 298.466C55.6947 297.395 55.6047 296.325 55.6107 295.254C55.6237 294.176 55.9099 293.119 56.4427 292.181C56.7771 291.493 57.3186 290.926 57.9913 290.561C58.664 290.196 59.4342 290.05 60.1937 290.145C60.9658 290.227 61.7248 290.403 62.4537 290.67C63.8878 291.156 65.3528 291.545 66.8387 291.836C68.4467 292.136 70.0747 292.126 71.6917 292.268C74.0669 292.428 76.3514 293.242 78.2917 294.621C79.601 295.591 80.7683 296.739 81.7597 298.032C81.9077 298.22 81.9947 298.499 82.3437 298.503L82.6567 298.072C83.7593 296.535 85.1522 295.229 86.7567 294.227C88.389 293.209 90.1513 292.416 91.9957 291.869C94.0522 291.233 96.229 291.088 98.3517 291.445C99.5517 291.645 100.752 291.873 101.94 292.145C103.603 292.521 105.329 292.529 106.996 292.169C108.442 291.869 109.896 291.602 111.358 291.385C113.147 291.084 114.976 291.108 116.758 291.454C119.336 292.024 121.707 293.296 123.607 295.129C124.718 296.175 125.509 297.516 125.885 298.995C126.118 299.928 126.245 300.885 126.264 301.846C126.222 302.228 126.267 302.615 126.395 302.977C126.571 302.998 126.748 303.008 126.925 303.007C127.81 302.956 128.698 302.919 129.581 302.833C131.421 302.65 133.278 302.697 135.107 302.971C138.809 303.468 142.212 305.273 144.7 308.059C146.161 309.597 147.132 311.536 147.49 313.627C147.552 314.018 147.661 314.402 147.744 314.768C148.132 314.802 148.524 314.762 148.897 314.648C150.824 314.267 152.811 314.301 154.724 314.748C157.271 315.397 159.696 316.456 161.904 317.883C163.954 319.208 165.897 320.69 167.718 322.316C168.711 323.202 169.698 324.095 170.699 324.972C172.899 326.895 175.025 328.897 177.318 330.71C177.777 331.081 178.211 331.482 178.618 331.91C178.924 332.23 179.203 332.576 179.45 332.944C179.861 333.522 180.075 334.217 180.059 334.926C180.042 335.635 179.797 336.32 179.36 336.878C178.706 337.779 177.876 338.537 176.919 339.105C176.064 339.664 175.099 340.029 174.089 340.176C173.079 340.324 172.049 340.249 171.071 339.958C170.539 339.803 170.005 339.658 169.471 339.505C168.3 339.167 167.131 338.822 165.958 338.491C165.758 338.434 165.537 338.329 165.301 338.543L165.731 339.827C165.692 340.323 165.464 340.785 165.094 341.117C164.168 342.021 163.167 342.847 162.104 343.584C160.139 344.833 158.113 345.983 156.034 347.029C155.669 347.206 155.29 347.352 154.902 347.468C153.19 347.963 151.383 348.035 149.637 347.678C147.015 347.207 144.476 346.353 142.102 345.144C141.809 344.996 141.511 344.858 141.235 344.725C139.462 346.425 137.983 348.408 136.859 350.592C137.139 350.679 137.42 350.758 137.696 350.852C138.506 351.114 139.27 351.504 139.958 352.007C141.234 352.895 142.378 353.959 143.358 355.166C143.752 355.755 144.305 356.22 144.953 356.507C145.601 356.794 146.318 356.891 147.019 356.787C147.971 356.677 148.937 356.694 149.898 356.659C150.491 356.653 151.081 356.745 151.643 356.934C152.089 357.031 152.511 357.22 152.881 357.488C153.251 357.756 153.561 358.098 153.792 358.492C154.024 358.886 154.171 359.324 154.225 359.777C154.278 360.231 154.238 360.691 154.105 361.128C153.946 361.773 153.725 362.402 153.445 363.004C153.223 363.471 152.961 363.919 152.663 364.341C151.837 365.526 150.865 366.601 149.769 367.541C147.888 369.211 145.829 370.67 143.629 371.89C140.183 373.829 136.737 375.768 133.291 377.705C131.422 378.752 129.524 379.751 127.67 380.824C124.801 382.446 122.198 384.497 119.95 386.906C117.382 389.689 114.209 391.844 110.677 393.206C107.525 394.387 104.229 395.136 100.877 395.434C99.5176 395.585 98.1925 395.959 96.9547 396.54C95.4113 397.215 94.174 398.44 93.4837 399.976C93.0917 400.85 92.7677 401.757 92.4607 402.665C92.1887 403.465 91.9897 404.298 91.7447 405.111C90.8082 408.378 90.06 411.696 89.5037 415.049C89.0757 417.412 88.7957 419.796 88.5527 422.185C88.2987 424.685 88.0367 427.185 87.9167 429.692C87.8727 430.615 87.7947 431.536 87.7427 432.458C87.6697 433.749 87.5707 435.039 87.5427 436.332C87.4907 439.032 87.4787 441.727 87.4507 444.425C87.4457 444.868 87.4097 445.314 87.4507 445.754C87.6507 448.147 87.6507 450.554 87.9617 452.941C88.1457 454.332 88.2687 455.732 88.4397 457.125C88.6777 459.068 88.9477 461.008 89.1787 462.952C89.3397 464.309 89.4487 465.673 89.5977 467.032C89.8977 469.786 90.2467 472.532 90.5157 475.294C90.7487 477.683 90.9807 480.078 91.0727 482.476C91.2947 488.238 91.5827 494 91.4817 499.77C91.4477 501.77 91.4227 503.761 91.3537 505.755C91.3077 507.121 91.1647 508.483 91.1167 509.849C91.0297 512.323 90.9917 514.798 90.9167 517.273C90.8487 519.415 90.7787 521.557 90.6667 523.697C90.5197 526.497 90.3227 529.302 90.1667 532.105C90.0377 534.354 89.8987 536.605 89.8197 538.856C89.7197 541.551 89.6697 544.249 89.6297 546.946C89.5757 550.646 89.5247 554.338 89.5237 558.034C89.5237 561.582 89.5957 565.134 89.6237 568.68C89.6637 573.485 89.9417 578.285 89.8427 583.093C89.7887 585.716 89.8517 588.342 89.8807 590.966C89.9301 595.55 89.9887 600.134 90.0567 604.717C90.1027 607.637 90.2027 610.556 90.2497 613.476C90.2687 614.695 90.2167 615.915 90.1877 617.134C90.161 617.261 90.117 617.383 90.0567 617.497L89.6307 617.536C89.5055 617.406 89.4111 617.25 89.3546 617.078C89.2982 616.907 89.2811 616.725 89.3047 616.546C89.3107 615.623 89.3587 614.699 89.3417 613.776C89.2417 608.713 89.0717 603.652 89.0797 598.586C89.0877 593.67 88.9688 588.754 88.9197 583.837C88.8987 581.805 88.9407 579.772 88.9097 577.737C88.8287 572.563 88.5947 567.391 88.6387 562.214C88.6577 559.886 88.6387 557.557 88.6507 555.229C88.6617 552.789 88.6877 550.35 88.7057 547.911C88.7057 547.282 88.6957 546.654 88.7107 546.026C88.7634 543.846 88.8217 541.666 88.8857 539.487C88.9267 538.01 88.9427 536.53 89.0297 535.055C89.1887 532.363 89.4167 529.675 89.5697 526.983C89.7371 524.032 89.8747 521.08 89.9827 518.126C90.0547 516.205 90.0497 514.282 90.0957 512.361C90.1267 511.105 90.1787 509.85 90.2367 508.595C90.3367 506.307 90.4947 504.02 90.5567 501.731C90.6127 499.664 90.6167 497.594 90.5687 495.521C90.3877 487.91 90.2587 480.295 89.3237 472.721C89.0387 470.411 88.8237 468.092 88.5727 465.778C88.4617 464.749 88.3607 463.719 88.2317 462.693C87.9917 460.787 87.7317 458.884 87.4867 456.979C87.2517 455.146 87.0407 453.311 86.7867 451.479C86.4659 449.36 86.2918 447.222 86.2657 445.079C86.2657 444.118 86.2957 443.157 86.2777 442.196C86.2167 438.98 86.2497 435.766 86.4647 432.555C86.5767 430.897 86.6807 429.236 86.8647 427.585C87.0897 425.562 87.2057 423.534 87.2517 421.504C87.3127 418.769 87.3147 416.033 87.2887 413.298C87.3174 410.562 87.145 407.827 86.7727 405.116C86.4973 403.399 86.0501 401.714 85.4377 400.087C85.1451 399.283 84.6622 398.563 84.0304 397.986C83.3987 397.409 82.6368 396.994 81.8097 396.776C80.4707 396.362 79.1017 396.046 77.7447 395.69C77.5307 395.633 77.3137 395.587 77.0947 395.553C74.6095 395.171 72.1789 394.493 69.8547 393.533C65.7209 391.888 61.947 389.454 58.7437 386.366C56.3264 384.009 54.4471 381.157 53.2347 378.006C51.6783 373.846 50.7557 369.476 50.4977 365.042C50.2457 361.502 50.1397 357.953 49.9257 354.411C49.8167 352.604 49.6607 350.798 49.4417 349.002C49.1346 346.843 48.6421 344.715 47.9697 342.64C47.8959 342.443 47.8121 342.249 47.7187 342.06C47.1487 342.206 46.6847 342.322 46.2207 342.441ZM140.81 366.046C140.734 366.405 140.41 366.556 140.173 366.764C139.087 367.706 137.987 368.632 136.896 369.569C136.737 369.705 136.596 369.869 136.326 370.135C137.059 369.964 137.626 369.826 138.191 369.701C139.774 369.351 141.364 369.035 142.938 368.654C145.06 368.152 147.069 367.255 148.859 366.01C150.237 365.016 151.449 363.809 152.451 362.436C152.86 361.909 153.138 361.292 153.261 360.636C153.385 360.213 153.369 359.76 153.214 359.347C153.058 358.933 152.773 358.582 152.4 358.345C152.029 358.433 151.938 358.745 151.749 358.959C151.132 359.642 150.533 360.342 149.912 361.021C149.749 361.166 149.572 361.294 149.383 361.402C149.35 361.37 149.318 361.338 149.283 361.302C149.499 361.054 149.706 360.802 149.935 360.561C150.644 359.814 151.298 359.017 151.893 358.176C151.62 357.944 151.3 357.773 150.954 357.676C150.609 357.579 150.247 357.559 149.893 357.615C149.249 358.504 148.512 359.32 147.693 360.05C147.562 359.803 147.793 359.735 147.879 359.618C148.01 359.441 148.172 359.286 148.315 359.118C148.435 358.978 148.55 358.834 148.662 358.687C148.795 358.51 148.925 358.33 149.048 358.146C149.148 357.997 149.234 357.839 149.375 357.604C149.001 357.597 148.713 357.579 148.426 357.589C147.726 357.616 147.026 357.657 146.326 357.689C145.752 357.724 145.177 357.629 144.646 357.409C144.114 357.19 143.639 356.853 143.257 356.424C142.98 356.124 142.714 355.824 142.457 355.509C141.924 354.864 141.32 354.281 140.657 353.77C140.521 353.762 140.385 353.787 140.261 353.841C140.136 353.895 140.026 353.978 139.94 354.083C139.282 354.676 138.64 355.283 137.99 355.883C137.749 356.166 137.472 356.415 137.165 356.623C137.291 356.308 137.479 356.022 137.719 355.782C137.887 355.582 138.061 355.394 138.238 355.206C138.438 354.991 138.645 354.778 138.857 354.573C139.043 354.394 139.24 354.226 139.434 354.056C139.654 353.863 139.877 353.673 140.094 353.486C139.684 352.914 139.127 352.465 138.482 352.186C137.792 351.781 137.013 351.551 136.214 351.518C134.196 353.987 130.039 363.486 129.562 366.689C129.796 366.702 129.82 366.489 129.897 366.364C130.449 365.491 130.979 364.603 131.532 363.731C131.664 363.523 131.763 363.259 132.056 363.199L132.086 363.224C132.015 363.429 131.929 363.627 131.826 363.817C130.703 365.555 129.748 367.388 128.777 369.211C128.605 369.538 128.459 369.878 128.341 370.227C128.005 371.203 127.686 372.185 127.366 373.167C127.319 373.362 127.283 373.559 127.257 373.758C127.609 373.383 127.914 372.968 128.168 372.52C128.441 372.12 128.702 371.72 128.968 371.327C129.234 370.934 129.512 370.537 129.792 370.147C130.072 369.757 130.358 369.372 130.648 368.99C130.938 368.608 131.232 368.228 131.531 367.853C131.83 367.478 132.14 367.111 132.445 366.742C132.728 366.4 133.007 366.056 133.296 365.721C133.609 365.357 133.929 365 134.25 364.643C134.571 364.286 134.893 363.931 135.22 363.58C135.547 363.229 135.879 362.88 136.213 362.537C136.547 362.194 136.88 361.847 137.227 361.516C137.545 361.154 137.91 360.836 138.313 360.571C138.352 360.901 138.125 360.994 138.001 361.141C137.835 361.341 137.641 361.511 137.461 361.696C137.306 361.855 137.153 362.015 137 362.175C136.847 362.335 136.693 362.494 136.541 362.655C136.363 362.843 136.187 363.031 136.01 363.22C135.859 363.382 135.71 363.543 135.558 363.706C135.383 363.897 135.21 364.089 135.037 364.28C134.888 364.445 134.737 364.611 134.594 364.78C134.451 364.949 134.294 365.11 134.155 365.28C133.987 365.48 133.824 365.68 133.655 365.88L133.229 366.39C133.087 366.56 132.944 366.729 132.803 366.899C132.638 367.099 132.472 367.299 132.311 367.499C132.172 367.672 132.04 367.85 131.903 368.023C131.766 368.196 131.624 368.368 131.488 368.543C131.33 368.743 131.176 368.954 131.02 369.16C130.886 369.337 130.751 369.512 130.62 369.69C130.489 369.868 130.359 370.048 130.229 370.228C130.078 370.437 129.929 370.645 129.776 370.856C129.648 371.037 129.526 371.222 129.4 371.404C129.254 371.617 129.107 371.829 128.961 372.043C128.836 372.225 128.711 372.408 128.588 372.592C128.465 372.776 128.342 372.96 128.22 373.145C128.079 373.361 127.936 373.577 127.799 373.796C127.662 373.955 127.571 374.148 127.533 374.354C127.852 374.446 127.979 374.225 128.148 374.118C129.205 373.445 130.243 372.74 131.314 372.09C132.226 371.529 133.215 371.101 134.249 370.82C134.993 370.605 135.676 370.217 136.242 369.688C137.574 368.522 138.958 367.416 140.329 366.295C140.48 366.2 140.644 366.126 140.815 366.073L140.81 366.046ZM79.2097 354.846C79.2356 355.324 79.2319 355.803 79.1987 356.28C78.8897 358.692 78.5367 361.099 78.2307 363.511C78.0601 364.864 77.9234 366.221 77.8207 367.583C77.6667 369.605 77.5487 371.629 77.4277 373.653C77.3967 374.168 77.3907 374.687 77.4067 375.203C77.4717 377.303 77.4817 379.414 77.6397 381.511C77.8108 383.796 78.3225 386.043 79.1577 388.177C79.9361 390.222 81.1755 392.059 82.7797 393.547C83.0183 393.801 83.3094 394 83.6326 394.13C83.9559 394.261 84.3037 394.319 84.6517 394.301L85.8097 393.879C85.8741 393.792 85.9076 393.685 85.9051 393.577C85.9026 393.468 85.8641 393.363 85.7957 393.279C84.9857 391.577 84.4624 389.752 84.2467 387.879C83.8929 385.132 83.7458 382.362 83.8067 379.593C83.8067 377.455 83.9177 375.316 84.0407 373.181C84.1337 371.564 84.3257 369.954 84.4677 368.34C84.5417 367.496 84.5937 366.651 84.6677 365.808C84.7327 365.113 84.8197 364.42 84.9067 363.727C84.9137 363.67 84.9967 363.627 85.0447 363.57L85.0137 363.546C85.0589 364.172 85.0324 364.801 84.9347 365.421C84.8217 366.11 84.7847 366.813 84.7407 367.511C84.6217 369.425 84.5407 371.342 84.4017 373.256C84.1649 376.906 84.1336 380.566 84.3077 384.219C84.3745 386.325 84.6727 388.417 85.1967 390.457C85.4042 391.165 85.6495 391.862 85.9317 392.544C86.0325 392.756 86.1545 392.957 86.2957 393.144C86.4164 393.22 86.5595 393.251 86.7007 393.233C86.8419 393.215 86.9723 393.148 87.0697 393.044C87.3996 392.692 87.6454 392.269 87.7887 391.808C88.2414 390.635 88.5334 389.406 88.6567 388.154C88.8007 386.573 88.8977 384.988 88.9967 383.403C89.2157 379.454 89.2157 375.495 88.9967 371.546C88.9257 370.072 88.7677 368.6 88.6137 367.131C88.4827 365.883 88.3197 364.637 88.1357 363.395C87.931 361.82 87.6132 360.261 87.1847 358.731C87.0157 358.166 86.9017 357.584 86.7667 357.01C86.0054 353.729 84.7264 350.589 82.9777 347.71C81.8155 345.861 80.4193 344.17 78.8237 342.678C78.7165 342.614 78.6002 342.568 78.4787 342.539C78.4738 343.794 78.3668 345.047 78.1587 346.284C77.8097 344.868 78.2757 343.433 78.0857 342.012C77.4642 341.356 76.7459 340.798 75.9557 340.359C75.8474 340.88 75.8631 341.419 76.0017 341.932C76.2159 343.432 76.3162 344.946 76.3017 346.461C76.3737 347.604 76.3446 348.752 76.2147 349.89C76.1905 350.259 76.1879 350.628 76.2067 350.997C76.1467 352.173 76.0737 353.348 75.9997 354.611C75.892 354.314 75.8554 353.996 75.8927 353.682C75.8453 353.39 75.8423 353.092 75.8837 352.798C75.9926 351.955 76.0197 351.104 75.9647 350.256C75.9917 348.817 76.0517 347.374 75.9807 345.938C75.9057 344.429 75.6957 342.926 75.5387 341.422C75.4897 340.946 75.4207 340.473 75.3587 339.978C74.3728 339.321 73.3051 338.795 72.1827 338.414C70.7013 337.94 69.1436 337.751 67.5917 337.856C66.2272 337.933 64.8682 338.089 63.5217 338.323C63.4324 338.357 63.348 338.402 63.2707 338.458C63.178 338.872 63.1828 339.302 63.2847 339.714C63.4891 341.327 63.5633 342.954 63.5067 344.579C63.5067 345.094 63.4597 345.61 63.4387 346.127C63.3587 348.045 63.2804 349.963 63.2037 351.881C63.1907 352.213 63.2037 352.546 63.2037 352.881C63.1757 355.171 63.1537 357.461 63.1147 359.751C63.0787 361.93 62.9817 364.109 62.9887 366.287C62.9957 368.43 63.0227 370.579 63.1797 372.715C63.3491 375.518 63.7844 378.299 64.4797 381.02C64.9051 382.666 65.486 384.267 66.2147 385.803C67.4594 388.332 69.2179 390.575 71.3777 392.386C72.6818 393.494 74.2802 394.198 75.9777 394.412C76.0077 394.412 76.0427 394.38 76.0927 394.353C76.0518 394.261 76.0001 394.173 75.9387 394.093C74.1302 392.132 72.6787 389.87 71.6497 387.409C70.3819 384.495 69.4353 381.451 68.8267 378.332C68.4387 376.413 68.1467 374.482 67.9267 372.532C67.6838 370.329 67.565 368.114 67.5707 365.897C67.5707 364.315 67.6637 362.733 67.7707 361.151C67.8998 362.093 67.9266 363.047 67.8507 363.995C67.8167 364.176 67.7943 364.359 67.7837 364.543C67.8977 366.422 67.7947 368.314 68.0837 370.184C68.1104 370.367 68.1271 370.551 68.1337 370.736C68.2427 372.616 68.4766 374.487 68.8337 376.336C69.2807 378.958 69.9385 381.539 70.8007 384.055C71.5329 386.227 72.4869 388.317 73.6477 390.293C74.2508 391.269 74.9165 392.204 75.6407 393.093C75.9994 393.566 76.452 393.959 76.97 394.248C77.488 394.537 78.0603 394.716 78.6507 394.773C79.4197 394.859 80.1977 394.873 80.9727 394.902C81.0884 394.882 81.2004 394.845 81.3047 394.791C81.2257 394.679 81.1857 394.572 81.1047 394.519C78.8065 392.874 76.997 390.637 75.8687 388.046C74.993 386.17 74.3244 384.205 73.8747 382.184C73.4576 380.311 73.1451 378.415 72.9387 376.507C72.6747 374.223 72.6637 371.935 72.6277 369.646C72.6087 368.472 72.7367 367.295 72.7997 366.106C72.8357 366.167 72.8907 366.217 72.8907 366.267C72.8987 367.596 72.8997 368.926 72.9037 370.255C72.9037 370.808 72.8807 371.364 72.9197 371.915C73.0197 373.315 73.1137 374.715 73.2667 376.115C73.5764 379.502 74.3254 382.834 75.4947 386.027C76.1632 387.831 77.0768 389.535 78.2097 391.09C78.9613 392.1 79.8514 392.999 80.8537 393.76C81.2554 394.088 81.722 394.326 82.2227 394.46C82.4671 394.498 82.7136 394.52 82.9607 394.525C82.8827 394.364 82.8607 394.262 82.8037 394.21C80.3613 392.024 78.669 389.124 77.9667 385.922C77.4318 383.808 77.13 381.641 77.0667 379.461C77.0207 377.91 76.9757 376.356 76.9987 374.805C77.0187 373.515 77.1367 372.226 77.2147 370.937C77.2687 370.052 77.3347 369.169 77.3857 368.284C77.5187 365.96 77.8537 363.659 78.2017 361.36C78.4387 359.791 78.6417 358.217 78.8597 356.646C78.9357 356.099 79.0057 355.551 79.0897 355.005C79.0977 354.953 79.1897 354.914 79.2417 354.869L79.2097 354.846ZM50.1067 303.161C51.9777 306.044 53.7167 309.002 55.2987 312.053C55.7577 312.938 56.2117 313.826 56.6727 314.709C56.8087 314.969 56.9617 315.22 57.1017 315.466C57.5976 315.681 58.1172 315.837 58.6497 315.929C58.5687 315.518 58.4146 315.125 58.1947 314.769C58.0177 314.363 57.8137 313.969 57.6217 313.569C57.4457 313.203 57.2677 312.838 57.0937 312.469C56.9047 312.069 56.7067 311.669 56.5347 311.269C56.2817 310.888 56.1391 310.444 56.1227 309.987C56.7289 311.012 57.28 312.069 57.7737 313.152C58.2631 314.144 58.7511 315.137 59.2377 316.13C60.4197 316.603 61.5987 317.03 62.7377 317.545C63.9167 318.072 65.0817 318.637 66.2127 319.258C67.3037 319.858 68.3447 320.546 69.3967 321.189C69.459 321.14 69.4993 321.068 69.5089 320.99C69.5184 320.911 69.4965 320.832 69.4477 320.769C69.0257 319.949 68.5977 319.132 68.1757 318.311C68.0617 318.089 67.9617 317.859 67.8507 317.62C68.1507 317.51 68.1827 317.754 68.2427 317.864C68.8977 319.064 69.5427 320.264 70.1717 321.478C70.3484 321.843 70.5951 322.169 70.8977 322.438C73.7856 325.037 76.2732 328.049 78.2797 331.376C79.8063 333.82 81.1436 336.377 82.2797 339.025C82.4407 339.394 82.6157 339.756 82.7717 340.096C82.8557 340.096 82.8977 340.113 82.9037 340.103C82.923 340.071 82.9334 340.034 82.9337 339.997C82.9207 339.555 82.9087 339.112 82.8877 338.669C82.8777 338.448 82.8527 338.227 82.8317 338.007C82.7777 337.456 82.7317 336.907 82.6667 336.355C82.4827 334.706 82.3117 333.055 82.1037 331.408C81.9277 330.018 81.7197 328.632 81.5037 327.247C80.9971 323.929 80.3212 320.638 79.4787 317.389C79.1027 315.964 78.6787 314.551 78.2857 313.13C78.2219 312.846 78.1731 312.558 78.1397 312.268L78.1197 312.286C78.3017 312.308 78.3277 312.458 78.3767 312.595C79.0511 314.51 79.6243 316.458 80.0937 318.433C80.8504 321.518 81.4794 324.628 81.9807 327.765C82.3277 329.953 82.6447 332.144 82.8637 334.35C83.0907 336.629 83.3147 338.907 83.4487 341.193C83.4513 341.452 83.489 341.709 83.5607 341.958C83.9237 342.996 84.3107 344.026 84.8337 345.158C84.9277 344.834 85.0029 344.505 85.0587 344.172C85.2517 342.15 85.4777 340.129 85.6027 338.102C85.7857 335.153 85.8867 332.202 86.0327 329.246C86.2204 326.035 86.2341 322.816 86.0737 319.604C85.9517 317.539 85.7207 315.481 85.5547 313.419C85.4247 311.796 85.1807 310.19 84.9027 308.588C84.5678 306.582 84.0449 304.613 83.3407 302.705C82.2895 299.921 80.4981 297.477 78.1597 295.636C76.627 294.464 74.8362 293.675 72.9367 293.336C71.8415 293.165 70.7352 293.074 69.6267 293.064C68.2995 292.985 66.9799 292.808 65.6787 292.535C65.521 292.514 65.3619 292.504 65.2027 292.505C65.8747 294.25 66.5567 295.912 67.1547 297.605C67.7666 299.301 68.2101 301.054 68.4787 302.837C68.0097 301.719 67.7787 300.529 67.3787 299.39C66.9657 298.205 66.5717 297.013 66.1207 295.843C65.6697 294.673 65.1557 293.527 64.6517 292.329L62.8047 291.755C62.6137 291.955 62.7467 292.07 62.8047 292.196C63.2787 293.278 63.7567 294.358 64.2277 295.441C64.2823 295.525 64.3093 295.625 64.3048 295.725C64.3003 295.825 64.2646 295.922 64.2027 296.001C63.5608 294.464 62.8182 292.97 61.9797 291.53C61.3481 291.222 60.6582 291.051 59.9557 291.03C59.3785 290.982 58.8007 291.115 58.3024 291.41C57.8041 291.706 57.41 292.149 57.1747 292.678C56.7705 293.431 56.5388 294.264 56.4967 295.117C56.4354 296.633 56.536 298.151 56.7967 299.645C56.9517 300.555 57.1547 301.457 57.3327 302.363C57.4097 302.763 57.3607 303.103 56.9247 303.263C56.5677 303.243 56.4137 302.994 56.2697 302.729C55.7217 301.722 55.1877 300.709 54.6207 299.714C53.8717 298.397 53.1297 297.075 52.3207 295.793C51.3442 294.222 50.1677 292.784 48.8207 291.516C48.4387 291.165 48.0381 290.835 47.6207 290.527C46.6664 289.789 45.5545 289.28 44.3715 289.042C43.1886 288.804 41.9666 288.842 40.8007 289.153C40.4057 289.246 40.0097 289.34 39.6247 289.466C38.4994 289.754 37.5094 290.424 36.8245 291.362C36.1397 292.3 35.8028 293.448 35.8717 294.607C35.8672 295.495 35.9888 296.38 36.2327 297.234C36.7991 299.228 37.6459 301.131 38.7477 302.886C38.9753 303.225 39.2777 303.507 39.6317 303.71C40.7037 304.433 41.8087 305.11 42.8407 305.891C45.3487 307.782 47.8207 309.722 50.3127 311.636C51.4847 312.536 52.6747 313.415 53.8457 314.318C54.6003 314.869 55.494 315.198 56.4257 315.268C56.4287 315.153 56.4142 315.037 56.3827 314.926C54.3567 311.026 52.2767 307.15 49.9287 303.426C49.8123 303.202 49.7163 302.968 49.6417 302.726L49.6617 302.706C49.9137 302.757 49.9907 302.987 50.1067 303.161ZM124.5 311.731C124.427 311.933 124.335 312.128 124.225 312.312C121.671 315.806 119.433 319.512 117.075 323.132C116.856 323.469 116.675 323.832 116.475 324.179C116.76 324.368 116.923 324.155 117.093 324.065C118.692 323.216 120.372 322.528 122.107 322.009C123.451 321.601 124.833 321.333 126.233 321.209C126.681 321.223 127.125 321.124 127.526 320.922C128.212 319.915 128.972 318.822 129.704 317.722C130.933 315.83 132.346 314.063 133.923 312.449C134.495 311.872 135.083 311.311 135.687 310.766C137.229 309.418 139.156 308.588 141.195 308.391C141.932 308.3 142.681 308.391 143.375 308.656C143.575 308.73 143.775 308.807 144.09 308.925C144.043 308.802 143.983 308.684 143.913 308.573C141.52 305.954 138.272 304.276 134.752 303.84C133.911 303.712 133.061 303.661 132.211 303.686C130.291 303.758 128.367 303.802 126.453 303.961C123.911 304.171 121.397 304.634 118.948 305.344C117.848 305.66 116.73 305.909 115.6 306.089C114.282 306.283 112.942 306.252 111.635 305.997C110.115 305.687 108.613 305.298 107.135 304.831C105.964 304.496 104.796 304.148 103.618 303.831C102.372 303.48 101.082 303.312 99.7877 303.331C98.36 303.372 96.9593 303.73 95.6876 304.381C94.4159 305.031 93.3054 305.957 92.4367 307.091C90.0072 310.187 88.3606 313.823 87.6367 317.691C87.4267 318.627 87.2677 319.576 87.1367 320.527C87.0823 321.078 87.0599 321.632 87.0697 322.185C87.0227 324.549 86.9857 326.912 86.9307 329.276C86.9037 330.421 86.8527 331.565 86.7987 332.709C86.6987 334.849 86.6347 336.993 86.4617 339.127C86.2697 341.482 85.9917 343.827 85.7087 346.177C85.6065 346.907 85.6673 347.65 85.8867 348.353C86.4247 350.041 86.8927 351.753 87.3867 353.453C87.4267 353.588 87.4807 353.718 87.5567 353.933C87.6567 353.785 87.7567 353.708 87.7567 353.633C87.7757 353.227 87.7567 352.82 87.7757 352.414C87.8757 350.164 87.9147 347.914 88.0857 345.667C88.3524 342.134 88.7617 338.618 89.3137 335.12C89.3797 334.695 89.4807 334.276 89.5707 333.83C89.6964 334.071 89.7251 334.351 89.6507 334.612C89.3907 336.733 89.0877 338.85 88.8587 340.975C88.6797 342.625 88.5727 344.283 88.4587 345.94C88.3517 347.56 88.2717 349.182 88.1977 350.804C88.1487 351.873 88.1377 352.943 88.0977 354.013C88.0129 355.639 88.1386 357.269 88.4717 358.862C88.5717 359.291 88.6717 359.717 88.8137 360.296C88.8927 359.287 88.9687 358.442 89.0237 357.596C89.1967 354.943 89.5167 352.306 89.8707 349.672C90.4907 345.058 91.3607 340.491 92.4257 335.962C93.9466 329.337 95.9821 322.841 98.5137 316.532C99.544 313.96 100.723 311.449 102.044 309.013C102.253 308.577 102.517 308.169 102.83 307.799C102.964 308.076 102.789 308.239 102.701 308.418C101.855 310.143 100.961 311.845 100.166 313.592C98.0429 318.349 96.2637 323.251 94.8417 328.262C93.0608 334.359 91.6723 340.563 90.6847 346.837C90.2447 349.645 89.8687 352.46 89.6167 355.293C89.4897 356.726 89.3167 358.156 89.3097 359.598C89.2699 360.079 89.2726 360.562 89.3177 361.042C89.4115 360.812 89.4861 360.574 89.5407 360.331C89.9867 357.231 90.4117 354.12 90.8657 351.017C91.0467 349.782 91.2887 348.555 91.5117 347.273C91.587 347.407 91.6338 347.555 91.6491 347.708C91.6645 347.861 91.648 348.015 91.6007 348.161C91.1507 351.338 90.6887 354.513 90.2337 357.689C90.2037 357.903 90.2127 358.123 90.1927 358.581C90.3927 358.233 90.4747 358.095 90.5507 357.953C90.5857 357.888 90.6067 357.817 90.6357 357.753C91.1017 356.667 91.6547 355.609 92.0107 354.488C92.307 353.383 92.5467 352.264 92.7287 351.134C94.3424 343.617 96.801 336.306 100.058 329.341C101.091 327.091 102.149 324.854 103.358 322.692C103.516 322.409 103.609 322.072 103.921 321.892L103.978 321.942C103.942 322.273 103.814 322.588 103.61 322.851C100.919 327.987 98.5843 333.302 96.6237 338.759C95.1112 343.04 93.8956 347.421 92.9857 351.869C92.9607 352.07 92.9471 352.272 92.9447 352.474C93.1447 352.082 93.2777 351.86 93.3837 351.628C94.465 349.279 95.6718 346.99 96.9987 344.771C98.4521 342.325 99.9761 339.925 101.571 337.571C103.9 334.14 106.788 331.124 110.115 328.648C111.696 327.432 113.34 326.299 115.04 325.255C115.229 325.142 115.41 325.013 115.567 324.91C117.632 321.41 119.867 318.066 122.123 314.733C122.743 313.815 123.423 312.94 124.083 312.049C124.189 311.906 124.283 311.734 124.51 311.749L124.5 311.731ZM106.638 366.212C106.686 366.541 106.646 366.878 106.52 367.186C106.104 368.643 105.607 370.075 105.032 371.476C103.622 375.131 102.028 378.712 100.257 382.205C98.1699 386.208 95.6609 389.975 92.7727 393.444C92.6377 393.606 92.4247 393.734 92.4727 394.055C93.131 394.049 93.7775 393.879 94.3537 393.561C94.842 393.299 95.3163 393.011 95.7747 392.7C103.572 387.473 109.59 379.992 113.025 371.255C114.248 368.162 115.301 365.012 116.287 361.837C116.309 361.769 116.343 361.704 116.396 361.581C116.453 361.69 116.483 361.811 116.485 361.934C116.486 362.057 116.458 362.178 116.404 362.288C115.827 364.157 115.276 366.035 114.662 367.888C113.909 370.169 113.022 372.404 112.006 374.58C108.171 382.561 102.148 389.289 94.6377 393.979C94.5177 394.052 94.4127 394.151 94.2597 394.269C94.3725 394.327 94.4926 394.368 94.6167 394.393C95.728 394.441 96.8367 394.251 97.8687 393.836C98.2407 393.673 98.6177 393.521 98.9817 393.342C103.145 391.313 106.933 388.589 110.182 385.287C112.376 383.03 114.227 380.463 115.674 377.667C116.274 376.525 116.84 375.367 117.423 374.209C117.604 374.309 117.544 374.449 117.494 374.569C115.282 380.173 111.628 385.092 106.902 388.827C104.197 391.014 101.222 392.843 98.0487 394.267C97.8487 394.352 97.6637 394.467 97.2987 394.652C98.3211 394.704 99.346 394.671 100.363 394.552C101.937 394.352 103.503 394.078 105.073 393.839C106.86 393.522 108.571 392.87 110.115 391.916C114.205 389.543 117.501 386.011 119.588 381.767C120.876 379.147 121.966 376.433 122.849 373.65C123.918 370.424 124.964 367.191 126.07 363.978C127.227 360.622 128.653 357.378 130.134 354.148C131.893 350.321 133.722 346.528 135.622 342.767C135.788 342.44 135.936 342.104 136.122 341.719C135.286 341.104 134.37 340.605 133.4 340.236C132.015 339.686 130.573 339.296 129.1 339.073C128.954 339.373 128.812 339.625 128.705 339.892C127.249 343.529 126.014 347.245 124.848 350.983C123.814 354.296 122.814 357.62 121.796 360.937C121.656 361.394 121.496 361.844 121.313 362.373C121.138 362.063 121.289 361.855 121.347 361.643C123.206 354.837 125.221 348.079 127.654 341.452C127.883 340.828 128.143 340.216 128.374 339.592C128.425 339.406 128.461 339.217 128.482 339.025C128.253 338.979 128.022 338.948 127.789 338.934C126.532 338.961 125.271 338.945 124.022 339.059C123.177 339.147 122.345 339.328 121.541 339.599C120.034 340.09 118.554 340.663 117.126 341.179C116.92 341.474 116.799 341.82 116.775 342.179C116.173 345.336 115.391 348.455 114.433 351.522C114.345 351.799 114.25 352.074 114.148 352.381C113.848 352.181 113.999 351.958 114.048 351.787C114.388 350.501 114.778 349.229 115.091 347.938C115.525 346.144 115.91 344.338 116.307 342.538C116.377 342.224 116.4 341.9 116.442 341.598C116.318 341.547 116.242 341.485 116.188 341.498C115.288 341.684 114.388 341.879 113.454 342.08C113.379 342.288 113.316 342.5 113.266 342.715C112.975 344.464 112.577 346.193 112.074 347.892C112.011 348.086 111.909 348.264 111.774 348.416C112.134 346.389 112.674 344.403 112.9 342.394C112.834 342.318 112.747 342.264 112.65 342.239C112.552 342.214 112.45 342.22 112.356 342.255C110.891 342.459 109.457 342.846 108.088 343.405C106.459 344.105 104.857 344.866 103.273 345.662C101.7 346.488 100.227 347.49 98.8807 348.649C98.5668 348.907 98.3181 349.234 98.1547 349.606C94.6458 357.192 92.0607 365.171 90.4547 373.373C90.4077 373.627 90.3547 373.879 90.2957 374.132C90.1067 374.998 90.0294 375.885 90.0657 376.771C90.1007 377.728 90.0657 378.688 90.0657 379.832C90.4173 378.857 90.685 377.853 90.8657 376.832C91.1247 375.869 91.3587 374.9 91.6187 373.937C91.8877 372.937 92.1697 371.944 92.4557 370.95C92.7317 369.992 93.0187 369.037 93.3047 368.082C93.5907 367.127 93.8727 366.171 94.1727 365.221C94.4248 364.266 94.7401 363.329 95.1167 362.416C95.1677 362.525 95.1923 362.645 95.1883 362.765C95.1843 362.886 95.1519 363.004 95.0937 363.109C94.0437 366.802 92.9867 370.493 91.9547 374.191C91.0712 377.319 90.4125 380.507 89.9837 383.729C89.867 384.608 89.8066 385.494 89.8027 386.381C89.7663 387.377 89.6637 388.37 89.4957 389.353C89.4237 389.902 89.3367 390.453 89.2887 391.002C89.2392 391.481 89.2792 391.965 89.4067 392.429C89.4642 392.757 89.622 393.058 89.8583 393.292C90.0946 393.526 90.3977 393.681 90.7257 393.735C91.2962 393.537 91.7656 393.122 92.0327 392.58C92.9377 391.141 93.8597 389.711 94.7177 388.244C98.319 381.993 101.089 375.298 102.957 368.329C103.803 365.267 104.492 362.17 105.057 359.045C105.186 358.33 105.271 357.606 105.399 356.725C105.498 357.172 105.512 357.635 105.438 358.087C104.827 362.363 103.899 366.587 102.66 370.725C100.496 378.19 97.2645 385.304 93.0667 391.845C92.8548 392.106 92.6974 392.407 92.6037 392.73C92.7237 392.699 92.8037 392.702 92.8317 392.667C92.9837 392.507 93.1317 392.341 93.2697 392.167C95.5426 389.297 97.5754 386.244 99.3477 383.04C101.153 379.646 102.773 376.156 104.201 372.587C105.07 370.589 105.825 368.543 106.461 366.458C106.486 366.37 106.591 366.304 106.661 366.228L106.638 366.212ZM84.4377 346.872C82.6794 341.69 80.3945 336.703 77.6187 331.987C76.2003 329.69 74.5842 327.522 72.7887 325.506C70.3331 322.828 67.3741 320.66 64.0807 319.126C60.623 317.443 56.9614 316.216 53.1877 315.475C50.7247 314.99 48.2457 314.586 45.8167 313.939C41.3521 312.757 37.0042 311.172 32.8267 309.202C32.1597 308.886 31.5197 308.514 30.8707 308.161C30.7137 308.065 30.5618 307.961 30.4157 307.849C30.7377 307.654 30.9497 307.89 31.1677 307.98C33.8977 309.11 36.6547 310.171 39.4497 311.128C42.4769 312.206 45.5737 313.077 48.7187 313.735C49.8417 313.957 50.9667 314.167 52.0917 314.374C52.2794 314.386 52.4678 314.381 52.6547 314.361C52.4177 314.166 52.2887 314.053 52.1547 313.949C50.0927 312.387 48.0167 310.843 45.9717 309.261C42.6233 306.642 39.0994 304.255 35.4247 302.117C32.5622 300.416 29.4858 299.105 26.2767 298.217C24.8119 297.833 23.3125 297.597 21.8007 297.511C20.6215 297.427 19.4365 297.471 18.2667 297.642C17.135 297.82 16.0333 298.153 14.9927 298.632C14.0727 299.041 13.3092 299.736 12.8157 300.614C11.6024 302.627 11.0992 304.988 11.3867 307.32C11.613 308.633 12.0272 309.906 12.6167 311.1C12.8167 311.538 13.0137 311.976 13.2077 312.414C13.3407 312.662 13.3763 312.951 13.3074 313.224C13.2386 313.497 13.0704 313.734 12.8357 313.889C12.4897 314.166 12.1477 314.451 11.7817 314.699C10.5284 315.55 9.26974 316.392 8.00574 317.227C6.71332 318.091 5.53473 319.113 4.49774 320.271C3.21577 321.709 2.1981 323.362 1.49174 325.154C0.978965 326.428 0.789665 327.81 0.940741 329.175C1.04584 330.327 1.55648 331.405 2.38174 332.216C2.64007 332.481 2.92301 332.72 3.22674 332.931C5.6489 334.712 8.47358 335.868 11.4497 336.294C12.1077 336.373 12.7577 336.526 13.4077 336.664C14.6082 336.922 15.7211 337.486 16.6377 338.303C16.7487 338.403 16.8657 338.493 16.9707 338.596C18.3677 339.929 20.0637 340.908 21.9167 341.451C24.384 342.224 26.9149 342.778 29.4797 343.104C31.2769 343.322 33.0838 343.448 34.8937 343.484C36.4469 343.498 37.9977 343.362 39.5247 343.078C42.3727 342.616 45.1307 341.768 47.9247 341.067C51.6477 340.132 55.3607 339.153 59.0957 338.267C61.7547 337.628 64.4586 337.194 67.1837 336.967C70.7025 336.691 74.2299 337.382 77.3837 338.967C78.583 339.553 79.6543 340.372 80.5357 341.374C81.6071 342.55 82.5356 343.848 83.3017 345.242C83.6587 345.907 84.0317 346.563 84.4887 347.388C84.488 347.215 84.4709 347.042 84.4377 346.872ZM103.959 344.312C106.117 343.169 108.389 342.256 110.738 341.587C111.882 341.293 113.038 341.036 114.186 340.767C115.838 340.366 117.444 339.792 118.976 339.054C119.976 338.582 120.995 338.139 122.014 337.702C122.764 337.389 123.542 337.15 124.338 336.987C125.572 336.725 126.85 336.751 128.072 337.064C128.751 337.233 129.419 337.444 130.072 337.697C132.983 338.881 135.788 340.313 138.454 341.977C139.816 342.795 141.17 343.632 142.572 344.377C144.836 345.56 147.268 346.388 149.783 346.832C151.239 347.122 152.74 347.103 154.189 346.775C154.763 346.636 155.319 346.431 155.847 346.165C157.805 345.2 159.67 344.072 161.526 342.929C162.559 342.214 163.534 341.417 164.441 340.546C164.603 340.362 164.737 340.156 164.841 339.934C164.704 339.376 164.418 338.866 164.013 338.459C163.828 338.279 163.66 338.081 163.513 337.869C163.473 337.816 163.446 337.755 163.431 337.69C163.417 337.625 163.416 337.558 163.429 337.493C163.442 337.428 163.468 337.367 163.506 337.312C163.544 337.258 163.593 337.212 163.65 337.178C164.006 337.089 164.382 337.12 164.719 337.268C166.815 337.864 168.912 338.456 171.01 339.045C171.433 339.175 171.866 339.272 172.305 339.336C173.373 339.478 174.46 339.321 175.445 338.882C176.468 338.446 177.388 337.798 178.145 336.982C178.418 336.681 178.657 336.351 178.858 335.997C179.07 335.647 179.182 335.244 179.18 334.834C179.178 334.424 179.063 334.023 178.848 333.674C178.708 333.415 178.54 333.171 178.348 332.948C177.963 332.5 177.545 332.08 177.099 331.693C173.672 328.929 170.451 325.93 167.157 323.015C165.045 321.104 162.751 319.403 160.309 317.936C158.517 316.897 156.59 316.109 154.583 315.595C152.743 315.154 150.827 315.128 148.976 315.518C146.944 315.92 144.968 316.564 143.09 317.437C142.483 317.711 141.896 318.025 141.332 318.378C139.713 319.345 138.044 320.225 136.332 321.016C135.56 321.374 134.734 321.602 133.888 321.692C132.269 321.9 130.641 321.856 129.017 321.939C128.501 321.966 127.984 321.997 127.467 322.019C124.208 322.181 121.021 323.04 118.123 324.539C115.172 326.08 112.382 327.912 109.796 330.008C106.963 332.219 104.491 334.857 102.469 337.827C99.9031 341.537 97.5616 345.397 95.4567 349.387C95.1007 350.076 94.7727 350.78 94.4377 351.48C94.3617 351.638 94.3107 351.807 94.2487 351.971C96.9007 348.753 100.212 346.142 103.959 344.312ZM60.6847 386.587C58.8709 384.013 57.5761 381.11 56.8727 378.04C56.2366 375.497 55.761 372.917 55.4487 370.314C55.1013 366.932 54.9404 363.534 54.9667 360.134C54.9507 358.658 55.0377 357.18 55.0167 355.704C54.9877 353.672 54.9017 351.641 54.8367 349.609C54.8345 349.425 54.8141 349.241 54.7757 349.06C54.6395 348.296 54.5919 347.52 54.6337 346.745C54.7468 347.081 54.8101 347.432 54.8217 347.787C54.8777 348.15 54.9927 348.507 55.0217 348.872C55.1567 350.491 55.3117 352.11 55.3787 353.733C55.4357 355.133 55.3787 356.533 55.3787 357.942C55.3787 359.789 55.2997 361.642 55.4007 363.483C55.5197 365.657 55.5637 367.837 55.8557 370.003C56.0487 371.43 56.2257 372.859 56.5017 374.272C56.9616 376.967 57.7026 379.607 58.7127 382.147C59.6879 384.429 61.0507 386.524 62.7407 388.341C63.1144 388.75 63.5345 389.114 63.9927 389.425C66.0516 390.803 68.2563 391.95 70.5667 392.845C70.7357 392.91 70.9107 392.961 71.0837 393.018C71.2647 392.818 71.0497 392.751 70.9837 392.68C70.2067 391.89 69.3737 391.151 68.6417 390.322C66.776 388.161 65.3837 385.633 64.5547 382.901C63.9536 380.962 63.5023 378.979 63.2047 376.97C62.7302 373.529 62.5086 370.057 62.5417 366.583C62.5227 364.848 62.5647 363.111 62.5957 361.375C62.6477 358.532 62.6957 355.689 62.7767 352.846C62.8247 351.113 62.9034 349.379 63.0127 347.646C63.1559 345.138 63.1636 342.623 63.0357 340.114C63.0313 339.62 62.9818 339.127 62.8877 338.641C62.7739 338.557 62.6402 338.505 62.4999 338.489C62.3595 338.473 62.2174 338.494 62.0877 338.55C60.1407 338.976 58.1877 339.386 56.2517 339.85C53.9517 340.405 51.6717 341.009 49.3847 341.599C49.0677 341.681 48.7617 341.799 48.4067 341.918C48.5187 342.236 48.6127 342.511 48.7137 342.783C49.6009 345.214 50.1895 347.743 50.4667 350.316C50.7157 352.522 50.8377 354.733 50.9417 356.948C51.0557 359.384 51.1777 361.821 51.3337 364.255C51.5479 367.947 52.1738 371.603 53.1997 375.155C54.0809 378.334 55.6027 381.3 57.6717 383.869C58.4691 384.841 59.34 385.751 60.2767 386.589C60.4047 386.703 60.5527 386.796 60.6917 386.898L60.7917 386.769C60.7595 386.707 60.7237 386.646 60.6847 386.587ZM122.052 295.013C120.43 293.717 118.533 292.81 116.506 292.362C115.129 292.074 113.713 292.018 112.318 292.196C110.818 292.403 109.33 292.679 107.845 292.966C107.303 293.082 106.774 293.249 106.264 293.466C103.008 294.694 99.9924 296.485 97.3557 298.756C97.2347 298.865 97.1297 299.056 96.9027 298.982C97.5119 298.124 98.2957 297.405 99.2027 296.871C100.103 296.225 101.034 295.624 101.995 295.071C102.912 294.539 103.874 294.086 104.97 293.519L101.313 292.974C100.435 293.252 99.5958 293.637 98.8127 294.12C98.7997 293.757 99.0747 293.714 99.2527 293.589C99.4307 293.464 99.6287 293.355 99.8197 293.244C100.04 293.116 100.262 292.992 100.588 292.807C98.2442 292.095 95.7617 291.971 93.3587 292.444C90.4215 293.078 87.6815 294.414 85.3727 296.337C84.5024 297.085 83.7457 297.956 83.1267 298.922C83.0087 299.104 82.9207 299.306 82.8167 299.503C82.8877 299.665 82.9357 299.803 83.0057 299.929C84.2093 302.222 85.0612 304.683 85.5327 307.229C86.0517 309.653 86.2967 312.116 86.6017 314.57C86.6267 314.77 86.6677 314.97 86.7357 315.378C86.9117 314.952 87.0067 314.718 87.1037 314.485C88.2847 312.021 89.6283 309.639 91.1257 307.354C91.9295 306.245 92.8937 305.262 93.9867 304.437C95.1073 303.615 96.3815 303.026 97.7339 302.705C99.0862 302.384 100.489 302.338 101.86 302.569C103.281 302.808 104.685 303.145 106.06 303.577C107.694 304.039 109.332 304.484 110.97 304.932C111.144 304.98 111.326 304.999 111.542 305.039C112.446 303.647 113.423 302.304 114.471 301.016C114.691 301.136 114.559 301.253 114.491 301.354C113.83 302.334 113.159 303.308 112.507 304.294C112.397 304.404 112.311 304.535 112.256 304.68C112.2 304.825 112.176 304.98 112.184 305.135C112.97 305.29 113.773 305.34 114.573 305.282C116.189 305.112 117.786 304.787 119.34 304.31C121.044 303.822 122.786 303.474 124.547 303.27C124.808 303.222 125.065 303.155 125.317 303.07C125.502 299.835 124.757 297.04 122.052 295.009V295.013ZM136.789 342.045C136.673 342.003 136.552 341.977 136.429 341.97C136.3 342.187 136.154 342.397 136.042 342.623C133.501 347.797 131.016 352.997 128.742 358.298C127.198 361.898 125.907 365.598 124.701 369.324C123.962 371.608 123.241 373.899 122.456 376.167C121.586 378.762 120.459 381.264 119.092 383.635C117.386 386.549 115.086 389.07 112.341 391.035C112.071 391.228 111.812 391.435 111.55 391.635C111.537 391.645 111.55 391.682 111.542 391.719C111.831 391.69 112.108 391.59 112.35 391.428C116.214 389.513 119.494 386.597 121.85 382.985C123.267 380.773 124.445 378.418 125.367 375.958C126.531 373.038 127.447 370.034 128.421 367.048C129.13 364.871 129.848 362.693 130.669 360.556C132.443 356.044 134.773 351.772 137.604 347.836C138.356 346.737 139.192 345.698 140.104 344.728C140.204 344.628 140.285 344.502 140.47 344.265C139.187 343.487 137.99 342.759 136.789 342.041V342.045ZM129.183 320.97C130.658 320.918 132.134 320.87 133.609 320.801C134.424 320.764 135.222 320.556 135.951 320.19C137.404 319.468 138.878 318.772 140.268 317.94C141.953 316.948 143.739 316.137 145.595 315.519C145.94 315.401 146.283 315.277 146.645 315.149C146.727 314.861 146.74 314.559 146.685 314.264C146.63 313.97 146.507 313.693 146.326 313.455C145.379 311.979 143.918 310.907 142.226 310.447C141.139 310.214 140.013 310.226 138.932 310.482C137.434 310.768 136.064 311.519 135.017 312.627C133.522 314.11 132.172 315.732 130.985 317.472C130.333 318.456 129.656 319.425 128.995 320.404C128.915 320.522 128.859 320.657 128.745 320.874C128.888 320.918 129.034 320.949 129.183 320.966V320.97ZM148.86 366.87C146.616 368.309 144.12 369.309 141.504 369.817C139.736 370.193 137.977 370.611 136.228 371.071C134.157 371.638 132.214 372.597 130.503 373.894C128.448 375.409 126.628 377.219 125.103 379.266C124.909 379.536 124.734 379.818 124.578 380.111C124.204 380.791 123.84 381.476 123.478 382.162C123.442 382.256 123.417 382.353 123.405 382.453C123.651 382.533 123.772 382.364 123.905 382.265C125.422 381.148 127.018 380.141 128.679 379.252C133.517 376.554 138.35 373.847 143.179 371.13C145.121 370.059 146.951 368.795 148.641 367.358C148.829 367.196 149.002 367.018 149.182 366.847L149.064 366.772C148.994 366.799 148.926 366.829 148.86 366.864V366.87ZM97.6287 350.032C97.4097 349.827 97.3117 350.004 97.2237 350.09C95.7991 351.489 94.5863 353.089 93.6237 354.838C91.7379 358.314 90.4317 362.075 89.7567 365.972C89.5939 366.804 89.5488 367.655 89.6227 368.5C89.7437 369.86 89.8357 371.222 89.9467 372.583C89.9627 372.783 90.0157 372.983 90.0977 373.449C91.5684 365.346 94.1005 357.473 97.6287 350.032ZM88.9107 407.111C89.2669 403.805 89.9335 400.54 90.9017 397.359C90.9136 397.281 90.9136 397.202 90.9017 397.124C90.7527 396.995 90.7647 397.188 90.7237 397.245C90.6606 397.336 90.6076 397.434 90.5657 397.537C90.035 398.837 89.6146 400.18 89.3087 401.55C88.7852 403.704 88.4711 405.904 88.3707 408.119C88.2881 410.186 88.1964 412.252 88.0957 414.319C88.0627 415.019 87.9957 415.719 87.9697 416.419C87.9839 416.657 88.0173 416.893 88.0697 417.125C88.3962 416.378 88.5663 415.572 88.5697 414.757C88.7126 413.213 88.9676 411.682 89.3327 410.175C89.8637 408.024 90.3657 405.866 90.9067 403.718C91.1067 402.931 91.3547 402.156 91.6187 401.389C92.2108 399.554 93.2242 397.884 94.5777 396.511C94.3907 396.247 94.2347 396.377 94.1107 396.488C93.2865 397.233 92.5985 398.116 92.0777 399.097C91.2812 400.601 90.6729 402.197 90.2667 403.849C89.9197 405.208 89.6087 406.577 89.2807 407.941C89.1967 408.29 89.1057 408.641 89.0177 408.986C88.8451 408.377 88.8086 407.736 88.9107 407.111ZM86.6907 395.401C87.033 397.507 87.2524 399.631 87.3477 401.762C87.373 402.055 87.4242 402.345 87.5007 402.628C87.5376 402.724 87.5885 402.814 87.6517 402.895C87.9467 402.756 87.8517 402.511 87.8517 402.322C87.8627 399.931 87.5857 397.547 87.0267 395.222C86.9957 395.112 86.8637 395.031 86.6757 394.822C86.6797 395.118 86.6687 395.262 86.6907 395.401Z" fill="url(#paint3_linear)"/>
<defs>
<linearGradient id="paint0_linear" x1="-16260.7" y1="48505.2" x2="-55389.7" y2="48403.1" gradientUnits="userSpaceOnUse">
<stop stop-color="#E8C46F"/>
<stop offset="0.24" stop-color="#BB842C"/>
<stop offset="0.515" stop-color="#7D5723"/>
<stop offset="0.857" stop-color="#E8C46F"/>
</linearGradient>
<linearGradient id="paint1_linear" x1="7404.35" y1="31908" x2="24081.2" y2="31879.5" gradientUnits="userSpaceOnUse">
<stop stop-color="#E8C46F"/>
<stop offset="0.24" stop-color="#BB842C"/>
<stop offset="0.515" stop-color="#7D5723"/>
<stop offset="0.857" stop-color="#E8C46F"/>
</linearGradient>
<linearGradient id="paint2_linear" x1="5088.16" y1="23136.7" x2="16467.3" y2="23118.3" gradientUnits="userSpaceOnUse">
<stop stop-color="#E8C46F"/>
<stop offset="0.24" stop-color="#BB842C"/>
<stop offset="0.515" stop-color="#7D5723"/>
<stop offset="0.857" stop-color="#E8C46F"/>
</linearGradient>
<linearGradient id="paint3_linear" x1="16178.4" y1="42129.9" x2="53065.2" y2="42024.7" gradientUnits="userSpaceOnUse">
<stop stop-color="#E8C46F"/>
<stop offset="0.24" stop-color="#BB842C"/>
<stop offset="0.515" stop-color="#7D5723"/>
<stop offset="0.857" stop-color="#E8C46F"/>
</linearGradient>
</defs>
</svg>
