<svg width="92" height="87" viewBox="0 0 92 87" fill="none" xmlns="http://www.w3.org/2000/svg">
<path d="M20.9685 32.661L23.5923 37.511L23.318 37.6569L22.133 38.2922L22.286 38.5767L23.471 37.9424L23.7453 37.7956L24.1043 38.4655L23.8299 38.6124L22.646 39.2467L22.7979 39.5332L23.9829 38.8979L24.2572 38.7511L24.6162 39.4211L23.1569 40.2022L23.3109 40.4888L24.7692 39.7056L25.1271 40.3766L23.6688 41.1578L23.8228 41.4433L25.2801 40.6621L25.64 41.3331L24.1818 42.1143L24.3347 42.3988L25.793 41.6177L26.3029 42.5701L25.7043 42.8903L24.7865 43.3809L24.1889 43.7021L18.8606 33.8042L18.4863 34.0081L23.8626 43.9917C23.901 44.0615 23.9651 44.1135 24.0413 44.1367C24.1174 44.1599 24.1997 44.1525 24.2705 44.1161L24.9752 43.7398L25.1169 44.005L24.9711 44.0825L26.5007 46.2383L26.668 46.1485L28.4434 49.474L29.249 50.2796L26.9647 45.9915L27.133 45.9017L26.1856 43.4349L26.0408 43.5124L25.8981 43.2473L26.6027 42.871C26.6733 42.8321 26.7258 42.7668 26.7485 42.6895C26.7605 42.6513 26.7647 42.6112 26.7609 42.5714C26.757 42.5317 26.7452 42.4931 26.7261 42.458L21.3427 32.457L20.9685 32.661Z" fill="#232323"/>
<path d="M22.1532 28.6747C21.2038 29.5276 20.1447 30.2499 19.0041 30.8224L18.4942 29.8862C18.8654 29.7027 19.4977 29.3947 20.0239 29.1795C21.1762 28.5758 20.3615 27.8477 19.8822 28.3076C18.6546 29.2676 17.2761 30.0171 15.8031 30.5256C15.1565 30.6776 15.3952 31.8697 16.4567 31.1202C16.9666 30.7622 17.5397 30.4196 17.8844 30.2187L18.3943 31.1558C17.2932 31.8007 16.1111 32.2959 14.8791 32.6284C13.2302 32.9619 13.5616 34.7373 14.8282 34.1805C17.6907 32.9241 18.4993 34.0102 18.4993 34.0102L19.8383 33.2831L20.0137 33.1883L21.3527 32.4601C21.3527 32.4601 20.8795 31.1936 23.4942 29.4763C24.6394 28.7165 23.33 27.4724 22.1532 28.6747Z" fill="#232323"/>
<path d="M57.864 38.287L53.1149 41.0873L52.9579 40.8191L52.2797 39.6586L52.0014 39.8218L52.6785 40.9823L52.8355 41.2505L52.1788 41.6339L52.0228 41.3657L51.3456 40.2052L51.0642 40.3684L51.7454 41.5289L51.9014 41.7971L51.2457 42.1815L50.4105 40.7538L50.1301 40.918L50.9663 42.3457L50.3085 42.7281L49.4743 41.3004L49.1949 41.4646L50.0291 42.8923L49.3724 43.2768L48.5372 41.8491L48.2588 42.0122L49.093 43.4399L48.1599 43.9855L47.8182 43.3991L47.2941 42.5007L46.9463 41.9123L56.6413 36.224L56.4241 35.8579L46.6465 41.5982C46.6119 41.618 46.5817 41.6446 46.5575 41.6763C46.5333 41.708 46.5157 41.7442 46.5058 41.7828C46.4853 41.8611 46.4967 41.9443 46.5374 42.0143L46.9392 42.7047L46.6802 42.8556L46.5965 42.7139L44.4999 44.32L44.5957 44.4842L41.3376 46.381L40.5615 47.2151L44.762 44.7677L44.8578 44.9319L47.2869 43.8948L47.2043 43.753L47.4644 43.6011L47.8672 44.2904C47.9082 44.36 47.9751 44.4105 48.0532 44.4309C48.1314 44.4514 48.2144 44.4401 48.2843 44.3995L58.0782 38.649L57.864 38.287Z" fill="#232323"/>
<path d="M61.8886 39.3254C61.0024 38.4074 60.2418 37.3759 59.6268 36.258L60.5446 35.7154C60.7424 36.0795 61.0728 36.6995 61.3074 37.2176C61.9529 38.3464 62.6504 37.5051 62.1742 37.0432C61.1661 35.8504 60.3644 34.4975 59.8022 33.0406C59.6257 32.4012 58.4428 32.6826 59.2321 33.7167C59.6074 34.2092 59.9715 34.7732 60.1846 35.1097L59.2668 35.6532C58.5821 34.5763 58.0437 33.4131 57.6657 32.1941C57.2731 30.5625 55.511 30.9551 56.1137 32.2003C57.474 35.0138 56.4196 35.8592 56.4196 35.8592L57.1956 37.1706L57.2976 37.342L58.0747 38.6534C58.0747 38.6534 59.3229 38.1343 61.134 40.6807C61.9437 41.8106 63.1338 40.4574 61.8886 39.3254Z" fill="#232323"/>
<path d="M62.1378 17.3919L59.2457 20.4421L59.0744 20.2789L58.333 19.5651L58.1637 19.7435L58.9041 20.4513L59.0754 20.6154L58.6746 21.0346L58.5043 20.8704L57.764 20.1627L57.5926 20.3411L58.333 21.0488L58.5043 21.213L58.1046 21.6322L57.1919 20.7602L57.0216 20.9387L57.9343 21.8096L57.5325 22.2287L56.6208 21.3568L56.4505 21.5363L57.3622 22.4072L56.9614 22.8273L56.0436 21.9554L55.8743 22.1339L56.786 23.0058L56.217 23.6013L55.8427 23.2434L55.2696 22.6948L54.8964 22.3378L60.806 16.1315L60.5694 15.9092L54.6088 22.1706C54.5878 22.1926 54.5713 22.2184 54.5602 22.2468C54.5492 22.2751 54.5439 22.3054 54.5446 22.3358C54.5452 22.3661 54.5518 22.3961 54.5641 22.4239C54.5763 22.4518 54.594 22.4769 54.6159 22.4979L55.0555 22.9201L54.8974 23.0853L54.8066 22.9987L53.6074 24.617L53.7093 24.719L51.7198 26.7932L51.3271 27.5683L53.8909 24.8924L53.9928 24.9944L55.5551 23.7237L55.4644 23.637L55.6235 23.4708L56.063 23.892C56.1078 23.9341 56.1674 23.9569 56.2288 23.9554C56.2903 23.9539 56.3487 23.9281 56.3914 23.8838L62.3632 17.6132L62.1378 17.3919Z" fill="#232323"/>
<path d="M65.308 17.3059C64.4656 16.8194 63.6916 16.223 63.0063 15.5325L63.5642 14.9431C63.7854 15.1675 64.1577 15.555 64.4381 15.8833C65.152 16.5747 65.4834 15.812 65.0367 15.5774C64.0493 14.9149 63.179 14.0926 62.4618 13.1442C62.1987 12.7118 61.391 13.1667 62.1864 13.7561C62.5648 14.0375 62.9503 14.3751 63.1777 14.5719L62.6188 15.1634C61.8905 14.518 61.2513 13.7786 60.718 12.9647C60.0867 11.8481 58.8824 12.5089 59.5819 13.2952C61.1707 15.0716 60.5742 15.9119 60.5742 15.9119L61.4185 16.7104L61.5287 16.8124L62.3741 17.6108C62.3741 17.6108 63.1797 16.9674 65.0428 18.4532C65.8668 19.117 66.4573 17.8739 65.308 17.3059Z" fill="#232323"/>
<path d="M88.4573 23.4147L85.7518 23.6024L85.7416 23.4494L85.6988 22.7896L85.5397 22.8008L85.5826 23.4596L85.5927 23.6126L85.2195 23.637L85.2093 23.4841L85.1665 22.8253L85.0074 22.8345L85.0513 23.4943L85.0604 23.6472L84.6872 23.6717L84.6342 22.8559L84.4751 22.8671L84.5291 23.6829L84.1549 23.7074L84.1029 22.8916L83.9428 22.9028L83.9968 23.7186L83.6225 23.7431L83.5695 22.9273L83.4115 22.9385L83.4635 23.7543L82.9332 23.789L82.9118 23.4565L82.8791 22.9467L82.8567 22.6142L88.3737 22.243L88.3594 22.0391L82.7935 22.4133C82.7541 22.4164 82.7176 22.4347 82.6915 22.4643C82.6784 22.4789 82.6683 22.496 82.662 22.5146C82.6557 22.5332 82.6533 22.5528 82.6548 22.5724L82.6803 22.965L82.5324 22.9742V22.8936L81.2557 23.1394L81.2618 23.2322L79.4109 23.3505L78.8867 23.5473L81.273 23.3943L81.2791 23.4871L82.5732 23.5565V23.4759L82.7211 23.4657L82.7466 23.8583C82.7479 23.8779 82.7531 23.8969 82.7618 23.9144C82.7706 23.9319 82.7827 23.9475 82.7975 23.9603C82.8272 23.9867 82.866 24.0003 82.9056 23.998L88.4807 23.6238L88.4573 23.4147Z" fill="#232323"/>
<path d="M90.0044 24.757C89.816 24.1583 89.7084 23.5373 89.6842 22.9102L90.2064 22.8724C90.2135 23.0764 90.2227 23.4221 90.2064 23.7015C90.2421 24.3399 90.7346 24.1237 90.6265 23.8157C90.4458 23.07 90.391 22.2993 90.4644 21.5355C90.5276 21.2143 89.9453 21.0786 90.0646 21.7068C90.1217 22.0066 90.1584 22.335 90.1778 22.5298L89.6547 22.5675C89.5901 21.943 89.609 21.3127 89.7108 20.6932C89.8974 19.8865 89.0346 19.6734 89.0265 20.3536C89.0061 21.8914 88.3555 22.0311 88.3555 22.0311L88.4085 22.7786L88.4156 22.8806L88.4687 23.6281C88.4687 23.6281 89.1325 23.674 89.3691 25.1934C89.4772 25.8624 90.3032 25.5289 90.0044 24.757Z" fill="#232323"/>
<path d="M8.30904 38.4272L14.2237 42.1208L14.0137 42.4533L13.1071 43.8911L13.4528 44.1084L14.3594 42.6715L14.5694 42.339L15.3853 42.8489L15.1752 43.1804L14.2696 44.6172L14.6153 44.8375L15.5219 43.3986L15.7259 43.0672L16.5417 43.5771L15.425 45.3474L15.7728 45.5656L16.8874 43.7953L17.7032 44.3052L16.5876 46.0745L16.9343 46.2927L18.0489 44.5234L18.8647 45.0333L17.7491 46.8036L18.0948 47.0198L19.2104 45.2515L20.3669 45.9796L19.908 46.7047L19.2064 47.8173L18.7495 48.5423L6.71616 40.9858L6.43164 41.4427L18.5731 49.0655C18.6595 49.1193 18.7637 49.1369 18.863 49.1143C18.9623 49.0918 19.0486 49.031 19.1034 48.9451L19.6428 48.0916L19.9651 48.2956L19.8529 48.471L22.8786 49.8864L23.0071 49.6824L27.0341 52.2319L28.4231 52.6153L23.2294 49.3306L23.3568 49.1267L20.7768 47.0066L20.6657 47.182L20.3434 46.978L20.8829 46.1244C20.9365 46.0377 20.9537 45.9332 20.9308 45.8338C20.9202 45.7844 20.8998 45.7376 20.8707 45.6962C20.8416 45.6548 20.8045 45.6198 20.7615 45.5931L8.6007 37.9561L8.30904 38.4272Z" fill="url(#paint0_linear)"/>
<path d="M7.12522 33.3032C6.61302 34.8333 5.89937 36.2884 5.00307 37.6301L3.8599 36.9163C4.15359 36.4819 4.65634 35.7486 5.09995 35.1827C5.99021 33.8009 4.64002 33.5092 4.39936 34.3128C3.6497 36.1369 2.60014 37.8228 1.29415 39.3005C0.682281 39.8716 1.68472 41.0341 2.38428 39.5453C2.71775 38.8375 3.1379 38.0992 3.39182 37.6638L4.53601 38.3776C3.72835 39.774 2.7379 41.0563 1.5909 42.1906C-0.0152441 43.5866 1.45731 45.3315 2.50258 43.9242C4.86539 40.7557 6.42871 41.4482 6.42871 41.4482L7.44848 39.8165L7.58106 39.6034L8.60083 37.9667C8.60083 37.9667 7.2894 36.8694 9.09032 33.3512C9.88472 31.797 7.66876 31.2463 7.12522 33.3032Z" fill="url(#paint1_linear)"/>
<path d="M41.2322 24.9735L38.9704 31.5684L38.6002 31.4389L36.994 30.8811L36.8605 31.2676L38.4656 31.8254L38.8368 31.9549L38.5217 32.8625L38.1505 32.734L36.5464 32.1762L36.4097 32.5627L38.0159 33.1205L38.3871 33.25L38.0719 34.1576L36.0946 33.4713L35.961 33.8588L37.9373 34.5441L37.6212 35.4528L35.6449 34.7654L35.5113 35.1529L37.4866 35.8382L37.1715 36.7479L35.1941 36.0616L35.0616 36.447L37.0369 37.1344L36.5892 38.4254L35.7734 38.1429L34.5323 37.7105L33.7226 37.4301L38.3595 23.9976L37.8496 23.8232L33.178 37.374C33.161 37.4216 33.1537 37.4721 33.1565 37.5225C33.1593 37.5729 33.1722 37.6223 33.1944 37.6677C33.2164 37.7133 33.2471 37.754 33.2849 37.7876C33.3227 37.8212 33.3668 37.847 33.4146 37.8635L34.3681 38.1959L34.2437 38.5549L34.0469 38.4866L33.3524 41.7499L33.5788 41.8284L32.0084 46.3286L31.9492 47.7675L33.9735 41.965L34.1999 42.0446L35.6816 39.0505L35.4858 38.9822L35.6102 38.6222L36.5637 38.9547C36.6602 38.9873 36.7657 38.9807 36.8574 38.9363C36.903 38.9145 36.9439 38.8837 36.9775 38.8459C37.0111 38.8081 37.0369 38.7639 37.0532 38.716L41.7441 25.1438L41.2322 24.9735Z" fill="url(#paint2_linear)"/>
<path d="M45.9538 22.662C44.3488 22.5088 42.7714 22.1429 41.2628 21.5739L41.6972 20.2992C42.1867 20.4869 43.0138 20.8091 43.6644 21.115C45.2124 21.6688 45.1941 20.288 44.3538 20.236C42.4077 19.9168 40.5284 19.2758 38.7929 18.3392C38.0974 17.8691 37.1929 19.1122 38.8011 19.461C39.5659 19.6251 40.3797 19.8689 40.8621 20.0167L40.4266 21.2925C38.8821 20.8216 37.4074 20.1467 36.0416 19.2856C34.3192 18.0374 32.9527 19.8668 34.5547 20.5674C38.1749 22.1521 37.8547 23.8307 37.8547 23.8307L39.6781 24.4528L39.9167 24.5343L41.7401 25.1554C41.7401 25.1554 42.5131 23.6308 46.3474 24.5884C48.0443 25.0085 48.08 22.7253 45.9538 22.662Z" fill="url(#paint3_linear)"/>
<path d="M77.591 19.7947L74.1727 21.3611L74.085 21.1683L73.7057 20.3331L73.5017 20.4249L73.88 21.2591L73.9677 21.4518L73.4956 21.666L73.4079 21.4732L73.0296 20.6391L72.8256 20.7288L73.205 21.564L73.2927 21.7577L72.8205 21.9719L72.3534 20.944L72.1495 21.0347L72.6165 22.0627L72.1434 22.2768L71.6773 21.2489L71.4734 21.3407L71.9394 22.3676L71.4662 22.5827L71.0002 21.5538L70.7962 21.6456L71.2613 22.6735L70.5903 22.9794L70.3996 22.5583L70.1069 21.9117L69.9162 21.4916L76.8914 18.3119L76.7701 18.0488L69.7337 21.256C69.7087 21.267 69.6861 21.2829 69.6674 21.3028C69.6487 21.3226 69.6342 21.346 69.6246 21.3716C69.6151 21.3972 69.6109 21.4244 69.6121 21.4517C69.6133 21.479 69.6199 21.5057 69.6317 21.5303L69.856 22.027L69.6694 22.1116L69.6225 22.0096L68.0877 22.9529L68.1408 23.0712L65.7953 24.1287L65.2109 24.6386L68.2315 23.2742L68.2856 23.3914L70.0069 22.8581L69.96 22.7561L70.1477 22.6715L70.372 23.1681C70.3959 23.216 70.4376 23.2527 70.4883 23.2701C70.5134 23.2807 70.5405 23.2862 70.5678 23.2862C70.5951 23.2862 70.6222 23.2807 70.6474 23.2701L77.696 20.0578L77.591 19.7947Z" fill="url(#paint4_linear)"/>
<path d="M80.2502 20.7818C79.7125 20.096 79.2687 19.3415 78.9306 18.5383L79.5904 18.2323C79.6995 18.4934 79.8801 18.938 79.9983 19.3051C80.3573 20.1209 80.8896 19.5947 80.599 19.248C79.9999 18.3685 79.5518 17.3952 79.2733 16.3682C79.1988 15.9225 78.3769 16.0306 78.8399 16.7873C79.0602 17.1473 79.2672 17.5562 79.3885 17.7989L78.7277 18.1048C78.3387 17.3262 78.0548 16.4995 77.8833 15.6462C77.7314 14.5081 76.5087 14.6539 76.8299 15.5442C77.556 17.5491 76.7799 18.0477 76.7799 18.0477L77.2144 18.9921L77.2715 19.1154L77.7059 20.0598C77.7059 20.0598 78.59 19.7946 79.6435 21.6506C80.1095 22.4715 81.013 21.6363 80.2502 20.7818Z" fill="url(#paint5_linear)"/>
<path d="M89.8132 4.01733L87.9205 5.51742L87.8359 5.41034L87.4728 4.94736L87.3616 5.03506L87.7247 5.49804L87.8093 5.60002L87.5473 5.80397L87.4636 5.6969L87.0996 5.23392L86.9874 5.32162L87.3515 5.7846L87.4361 5.88658L87.174 6.09053L86.7263 5.52048L86.6142 5.6092L87.0629 6.17823L86.8008 6.38219L86.3531 5.81213L86.2409 5.89983L86.6896 6.46988L86.4275 6.67384L85.9788 6.10379L85.8687 6.19149L86.3154 6.76154L85.9432 7.05422L85.7606 6.81967L85.4792 6.46173L85.2956 6.2282L89.1595 3.17907L89.0443 3.03223L85.1457 6.10991C85.1279 6.12196 85.1135 6.13846 85.104 6.15778C85.0945 6.1771 85.0903 6.19856 85.0916 6.22004C85.0887 6.23802 85.0896 6.25643 85.0943 6.27402C85.0991 6.29161 85.1076 6.30797 85.1192 6.32202L85.3343 6.59736L85.2324 6.67894L85.1875 6.62183L84.3717 7.44479L84.4237 7.51006L83.1235 8.52983L82.8369 8.93774L84.5124 7.62427L84.5644 7.68954L85.5556 7.09399L85.5118 7.03688L85.6138 6.9553L85.8289 7.23064C85.8513 7.25783 85.8833 7.27534 85.9183 7.27952C85.9532 7.2837 85.9884 7.27423 86.0166 7.25307L89.9223 4.17131L89.8132 4.01733Z" fill="url(#paint6_linear)"/>
<path d="M91.6184 4.22672C91.1788 3.88153 90.7869 3.47964 90.4528 3.03154L90.8179 2.74091C90.926 2.88673 91.1065 3.13658 91.239 3.34665C91.5868 3.79739 91.8397 3.3905 91.6051 3.21918C91.3516 2.991 91.1173 2.74236 90.9045 2.47576C90.6931 2.20822 90.5035 1.92416 90.3375 1.62629C90.2233 1.35911 89.7257 1.55185 90.1336 1.95364C90.3253 2.14434 90.5181 2.36767 90.6302 2.50126L90.2651 2.7919C89.9032 2.36566 89.5997 1.89308 89.3627 1.38665C89.0934 0.701357 88.3531 0.978736 88.6896 1.4825C89.4483 2.62159 89.0414 3.05194 89.0414 3.05194L89.4565 3.57406L89.5105 3.64239L89.9266 4.16451C89.9266 4.16451 90.4365 3.8647 91.3757 4.86102C91.7938 5.30258 92.2303 4.64279 91.6184 4.22672Z" fill="url(#paint7_linear)"/>
<path d="M55.1176 64.1678L48.539 61.8621L48.6695 61.4919L49.2386 59.8898L48.8531 59.7542L48.2851 61.3552L48.1535 61.7254L47.247 61.4042L47.3785 61.034L47.9475 59.434L47.5621 59.2953L46.993 60.8974L46.8625 61.2675L45.9559 60.9463L46.6555 58.9741L46.269 58.8374L45.5705 60.8097L44.6649 60.4864L45.3645 58.5162L44.978 58.3795L44.2794 60.3497L43.3718 60.0285L44.0714 58.0563L43.689 57.9227L42.9884 59.8939L41.7004 59.437L41.988 58.6284L42.4285 57.3893L42.7151 56.5817L56.117 61.3094L56.2934 60.7995L42.7712 56.031C42.7236 56.0139 42.6731 56.0063 42.6225 56.0088C42.572 56.0113 42.5225 56.0237 42.4768 56.0454C42.4311 56.0672 42.3902 56.0977 42.3563 56.1353C42.3225 56.1729 42.2964 56.2168 42.2796 56.2645L41.9411 57.216L41.5821 57.0885L41.6525 56.8917L38.3892 56.1778L38.3097 56.4042L33.8227 54.8032L32.3848 54.7349L38.173 56.7979L38.0924 57.0243L41.0763 58.5254L41.1457 58.3296L41.5046 58.457L41.1661 59.4085C41.133 59.5049 41.1392 59.6104 41.1834 59.7022C41.2046 59.7481 41.2349 59.7893 41.2724 59.8233C41.3099 59.8573 41.3538 59.8834 41.4016 59.9L54.9422 64.6777L55.1176 64.1678Z" fill="url(#paint8_linear)"/>
<path d="M57.399 68.9048C57.5625 67.2982 57.9397 65.7206 58.5208 64.2138L59.7914 64.6574C59.6007 65.1449 59.2713 65.9699 58.9623 66.6195C58.3984 68.1634 59.7782 68.1491 59.8373 67.3139C60.17 65.3698 60.8248 63.4949 61.7749 61.7664C62.2501 61.074 61.0131 60.1613 60.6531 61.7664C60.4838 62.5302 60.236 63.343 60.0841 63.8233L58.8114 63.3797C59.2936 61.8394 59.9796 60.3705 60.851 59.012C62.1104 57.2987 60.2911 55.919 59.5793 57.517C57.9701 61.127 56.2936 60.7945 56.2936 60.7945L55.6593 62.6148L55.5767 62.8524L54.9424 64.6717C54.9424 64.6717 56.4618 65.4539 55.4788 69.2821C55.0382 70.976 57.3205 71.031 57.399 68.9048Z" fill="url(#paint9_linear)"/>
<path d="M7.18958 52.8617L12.7025 52.7801V53.086L12.7178 54.4311H13.04L13.0257 53.0881V52.7821L13.7865 52.774V53.085L13.7998 54.4281H14.1241L14.1098 53.083V52.777L14.8695 52.7689L14.8879 54.424H15.2122L15.1928 52.7689L15.9535 52.7617L15.9709 54.4158H16.2962L16.2778 52.7628L17.0386 52.7536L17.0569 54.4087H17.3792L17.3618 52.7536L18.4428 52.7424L18.4499 53.4205L18.4601 54.4607L18.4683 55.1388L7.22833 55.2816L7.23547 55.7069L18.5743 55.562C18.6142 55.5622 18.6536 55.5542 18.6902 55.5386C18.7269 55.523 18.76 55.5001 18.7875 55.4713C18.8441 55.4136 18.8756 55.3359 18.8752 55.2551L18.867 54.4566H19.1729V54.6218L21.7907 54.2649V54.0742L25.5639 54.0395L26.651 53.6989L21.7907 53.7448V53.5541L19.1658 53.2482V53.4124H18.8599L18.8517 52.6139C18.85 52.5334 18.8167 52.4568 18.7589 52.4007C18.7307 52.3723 18.697 52.3498 18.6598 52.3348C18.6227 52.3197 18.5828 52.3123 18.5427 52.313L7.18652 52.4558L7.18958 52.8617Z" fill="#232323"/>
<path d="M4.20479 49.9685C4.52073 51.205 4.6706 52.4779 4.65044 53.7539L3.5858 53.7713C3.59395 53.3572 3.61434 52.6546 3.66635 52.0886C3.66635 50.7884 2.64658 51.1709 2.82708 51.8113C3.11108 53.3449 3.13727 54.9151 2.90459 56.4574C2.7404 57.1008 3.90702 57.4414 3.73366 56.1514C3.65106 55.5396 3.61434 54.8675 3.59599 54.4688L4.66268 54.4515C4.72431 55.726 4.61628 57.003 4.34145 58.2491C3.87235 59.8654 5.59984 60.3906 5.69264 59.0129C5.90374 55.8944 7.23965 55.6834 7.23965 55.6834L7.21415 54.1598V53.961L7.18866 52.4313C7.18866 52.4313 5.84663 52.2651 5.53356 49.1548C5.39181 47.7811 3.68267 48.3655 4.20479 49.9685Z" fill="#232323"/>
<path d="M5.76864 66.7213L11.7792 63.1908L11.974 63.5314L12.8285 65.0009L13.1814 64.7969L12.3299 63.3275L12.133 62.9879L12.9631 62.5045L13.161 62.8441L14.0145 64.3126L14.3694 64.1086L13.5138 62.6391L13.317 62.2995L14.1471 61.8161L15.1995 63.6242L15.5544 63.4203L14.501 61.6122L15.3331 61.1298L16.3845 62.9379L16.7383 62.7339L15.6859 60.9269L16.5181 60.4415L17.5705 62.2506L17.9223 62.0466L16.8689 60.2273L18.0498 59.54L18.4811 60.2814L19.142 61.4184L19.5733 62.1588L7.30441 69.3298L7.57772 69.7938L19.9547 62.5585C20.0425 62.5068 20.1064 62.4225 20.1324 62.324C20.1583 62.2254 20.1443 62.1206 20.0934 62.0323L19.5835 61.1594L19.9119 60.9677L20.0139 61.1482L22.6653 59.1219L22.5449 58.9179L26.6679 56.5266L27.6499 55.4731L22.3349 58.5569L22.2135 58.353L19.1511 59.6563L19.2531 59.8357L18.9247 60.0275L18.4149 59.1545C18.3632 59.0667 18.2788 59.0029 18.1802 58.9771C18.0816 58.9513 17.9767 58.9656 17.8887 59.0169L5.49023 66.2573L5.76864 66.7213Z" fill="url(#paint10_linear)"/>
<path d="M0.678908 65.3999C1.79898 66.5617 2.75922 67.8676 3.53427 69.2832L2.37479 69.9674C2.12494 69.5065 1.70785 68.7213 1.41314 68.0666C0.597319 66.6389 -0.284783 67.7005 0.316884 68.2858C0.950272 69.0394 1.52023 69.844 2.02092 70.6915C2.51923 71.539 2.9476 72.4258 3.30177 73.3429C3.52204 74.1526 5.01805 73.7987 4.02275 72.4904C3.54957 71.8673 3.09067 71.1524 2.82145 70.7262L3.98297 70.0419C4.84695 71.4043 5.5253 72.8759 6.00009 74.4177C6.49366 76.4869 8.72187 75.9892 7.96315 74.4177C6.24789 70.8577 7.58583 69.792 7.58583 69.792L6.60685 68.1319L6.47836 67.9146L5.5004 66.2555C5.5004 66.2555 3.92077 66.9091 1.63443 63.6856C0.620777 62.2579 -0.892565 63.9671 0.678908 65.3999Z" fill="url(#paint11_linear)"/>
<path d="M22.0814 74.3034L23.9354 69.1107L24.2281 69.2127L25.4926 69.6706L25.6017 69.3647L24.3382 68.9068L24.0455 68.8048L24.3045 68.091L24.5962 68.1929L25.8597 68.6508L25.9709 68.3449L24.7063 67.888L24.4147 67.786L24.6727 67.0722L26.2299 67.6351L26.339 67.3292L24.7828 66.7673L25.0429 66.0534L26.598 66.6164L26.7082 66.3104L25.153 65.7485L25.411 65.0347L26.9672 65.5976L27.0763 65.2917L25.5211 64.7288L25.8883 63.709L26.5266 63.9405L27.5046 64.2943L28.142 64.5248L24.3382 75.1019L24.74 75.2447L28.5764 64.5738C28.5895 64.5371 28.5952 64.4983 28.5933 64.4594C28.5914 64.4206 28.5818 64.3825 28.5652 64.3474C28.5312 64.2741 28.4696 64.2173 28.3938 64.1893L27.6423 63.917L27.7442 63.6345L27.8993 63.6906L28.4805 61.1137L28.3021 61.0484L29.59 57.5057L29.6512 56.3687L27.992 60.9362L27.8136 60.872L26.6123 63.2256L26.7673 63.2817L26.6653 63.5652L25.9148 63.2929C25.8388 63.266 25.7552 63.2702 25.6822 63.3046C25.6093 63.3389 25.5528 63.4007 25.5252 63.4765L21.6807 74.1637L22.0814 74.3034Z" fill="#232323"/>
<path d="M18.3225 76.0841C19.5914 76.221 20.8363 76.5266 22.0243 76.9927L21.6684 77.9961C21.283 77.8432 20.6323 77.578 20.1204 77.3302C18.8967 76.8775 18.9048 77.9696 19.5667 78.0196C21.1026 78.2916 22.5825 78.8175 23.9456 79.5758C24.4901 79.9541 25.2183 78.9802 23.9507 78.6916C23.347 78.554 22.7055 78.3531 22.3262 78.2317L22.6831 77.2262C23.8987 77.6148 25.0571 78.1635 26.1279 78.8578C27.4771 79.8623 28.5754 78.4295 27.317 77.8585C24.4698 76.5695 24.74 75.2438 24.74 75.2438L23.3031 74.7339L23.1165 74.6676L21.6796 74.1577C21.6796 74.1577 21.0535 75.357 18.0309 74.5605C16.693 74.2077 16.642 76.0127 18.3225 76.0841Z" fill="#232323"/>
<path d="M33.7819 80.583L32.5806 73.7158L32.9671 73.6496L34.6436 73.363L34.5733 72.9612L32.8988 73.2467L32.5113 73.312L32.3492 72.3646L32.7367 72.2994L34.4111 72.0138L34.3438 71.6059L32.6683 71.8915L32.2808 71.9578L32.1187 71.0104L34.1817 70.6586L34.1123 70.2507L32.0504 70.6045L31.8892 69.6561L33.9512 69.3043L33.8809 68.8964L31.8209 69.2492L31.6578 68.2998L33.7208 67.948L33.6504 67.5452L31.5884 67.897L31.359 66.5499L32.2043 66.4061L33.5005 66.1858L34.3449 66.041L36.7648 80.0517L37.2951 79.9579L34.8476 65.831C34.8392 65.7812 34.8211 65.7335 34.7942 65.6907C34.7673 65.648 34.7323 65.6109 34.6911 65.5817C34.6499 65.5525 34.6033 65.5318 34.554 65.5207C34.5047 65.5095 34.4538 65.5082 34.404 65.5169L33.4087 65.6861L33.3445 65.3109L33.5484 65.2762L32.5796 62.0792L32.343 62.12L31.5476 57.4199L30.9052 56.1309L31.9321 62.1893L31.6945 62.2301L31.8413 65.5668L32.0453 65.5322L32.1095 65.9074L31.1142 66.0767C31.0138 66.0949 30.9246 66.1518 30.8659 66.2352C30.8071 66.3186 30.7835 66.4217 30.8001 66.5224L33.2476 80.6717L33.7819 80.583Z" fill="url(#paint12_linear)"/>
<path d="M30.7618 84.8867C32.2424 84.2454 33.8017 83.804 35.3987 83.5742L35.6333 84.8999C35.1142 84.9713 34.2331 85.0866 33.5162 85.1345C31.8927 85.3955 32.578 86.5958 33.3367 86.2369C35.1952 85.577 37.1509 85.2324 39.1229 85.2171C39.9581 85.2936 40.1509 83.768 38.5763 84.2422C37.8268 84.4676 36.9967 84.6501 36.5031 84.7521L36.2686 83.4264C37.8477 83.0947 39.464 82.9746 41.0748 83.0694C43.1847 83.3325 43.4998 81.0707 41.758 81.2338C37.8227 81.5928 37.2935 79.9673 37.2935 79.9673L35.3957 80.3028L35.1479 80.3456L33.2501 80.6811C33.2501 80.6811 33.3092 82.3903 29.4891 83.4019C27.7983 83.8404 28.8691 85.8565 30.7618 84.8867Z" fill="url(#paint13_linear)"/>
<path d="M43.7597 72.6996L40.679 68.1269L40.937 67.9546L42.0588 67.2071L41.8793 66.9399L40.7575 67.6853L40.4985 67.8577L40.0763 67.2254L40.3353 67.0531L41.4571 66.3076L41.2776 66.0374L40.1558 66.7838L39.8968 66.9562L39.4746 66.3239L40.8513 65.4061L40.6708 65.1369L39.2952 66.0547L38.873 65.4214L40.2497 64.5036L40.0692 64.2344L38.6935 65.1522L38.2703 64.5189L39.647 63.6011L39.4665 63.3329L38.0908 64.2507L37.4902 63.3513L38.0551 62.975L38.9199 62.3978L39.4838 62.0215L45.7442 71.3565L46.0971 71.1189L39.7806 61.7013C39.7356 61.6344 39.6659 61.588 39.5869 61.5721C39.5078 61.5563 39.4257 61.5723 39.3584 61.6166L38.6945 62.0603L38.5273 61.8094L38.6639 61.7176L36.9303 59.7209L36.7722 59.8229L34.6837 56.684L33.8047 55.96L36.4979 60.0054L36.3399 60.1074L37.5218 62.4702L37.6584 62.3794L37.8257 62.6293L37.1608 63.0729C37.1277 63.0951 37.0994 63.1237 37.0775 63.1569C37.0556 63.1902 37.0406 63.2275 37.0333 63.2666C37.0249 63.3058 37.0246 63.3462 37.0323 63.3855C37.04 63.4247 37.0556 63.462 37.0782 63.4951L43.4008 72.929L43.7597 72.6996Z" fill="#232323"/>
<path d="M42.9639 76.7819C43.8267 75.8417 44.8109 75.0207 45.8906 74.3406L46.4872 75.2227C46.1354 75.4419 45.5357 75.8091 45.033 76.0742C43.9449 76.788 44.829 77.4325 45.2594 76.9288C46.3885 75.8527 47.6897 74.9731 49.109 74.3263C49.7372 74.1122 49.3854 72.9486 48.4003 73.7981C47.9322 74.206 47.3897 74.5996 47.0664 74.8321L46.4698 73.949C47.5032 73.2003 48.6319 72.5929 49.8259 72.143C51.4351 71.6525 50.9334 69.9178 49.724 70.5929C46.9971 72.1226 46.0905 71.1171 46.0905 71.1171L44.827 71.9706L44.6628 72.0828L43.4003 72.9363C43.4003 72.9363 43.9938 74.1509 41.5596 76.113C40.4858 76.9808 41.9094 78.0923 42.9639 76.7819Z" fill="#232323"/>
<path d="M30.7738 57.927C33.3493 57.927 35.4372 55.8391 35.4372 53.2635C35.4372 50.688 33.3493 48.6001 30.7738 48.6001C28.1982 48.6001 26.1104 50.688 26.1104 53.2635C26.1104 55.8391 28.1982 57.927 30.7738 57.927Z" fill="#232323"/>
<defs>
<linearGradient id="paint0_linear" x1="2415.77" y1="1068.8" x2="2890.02" y2="1068.8" gradientUnits="userSpaceOnUse">
<stop stop-color="#E8C46F"/>
<stop offset="0.24" stop-color="#BB842C"/>
<stop offset="0.515" stop-color="#7D5723"/>
<stop offset="0.857" stop-color="#E8C46F"/>
</linearGradient>
<linearGradient id="paint1_linear" x1="-3922.79" y1="14.0538" x2="-3860.03" y2="-86.6813" gradientUnits="userSpaceOnUse">
<stop stop-color="#E8C46F"/>
<stop offset="0.24" stop-color="#BB842C"/>
<stop offset="0.515" stop-color="#7D5723"/>
<stop offset="0.857" stop-color="#E8C46F"/>
</linearGradient>
<linearGradient id="paint2_linear" x1="2302.44" y1="5431.11" x2="2350.23" y2="5636.87" gradientUnits="userSpaceOnUse">
<stop stop-color="#E8C46F"/>
<stop offset="0.24" stop-color="#BB842C"/>
<stop offset="0.515" stop-color="#7D5723"/>
<stop offset="0.857" stop-color="#E8C46F"/>
</linearGradient>
<linearGradient id="paint3_linear" x1="1021.26" y1="994.318" x2="1205.44" y2="1057.13" gradientUnits="userSpaceOnUse">
<stop stop-color="#E8C46F"/>
<stop offset="0.24" stop-color="#BB842C"/>
<stop offset="0.515" stop-color="#7D5723"/>
<stop offset="0.857" stop-color="#E8C46F"/>
</linearGradient>
<linearGradient id="paint4_linear" x1="-3779.74" y1="8246.65" x2="-3859.65" y2="8367.93" gradientUnits="userSpaceOnUse">
<stop stop-color="#E8C46F"/>
<stop offset="0.24" stop-color="#BB842C"/>
<stop offset="0.515" stop-color="#7D5723"/>
<stop offset="0.857" stop-color="#E8C46F"/>
</linearGradient>
<linearGradient id="paint5_linear" x1="-51.002" y1="1299.99" x2="-38.5282" y2="1327.09" gradientUnits="userSpaceOnUse">
<stop stop-color="#E8C46F"/>
<stop offset="0.24" stop-color="#BB842C"/>
<stop offset="0.515" stop-color="#7D5723"/>
<stop offset="0.857" stop-color="#E8C46F"/>
</linearGradient>
<linearGradient id="paint6_linear" x1="-642.366" y1="4602.4" x2="-660.099" y2="4652.26" gradientUnits="userSpaceOnUse">
<stop stop-color="#E8C46F"/>
<stop offset="0.24" stop-color="#BB842C"/>
<stop offset="0.515" stop-color="#7D5723"/>
<stop offset="0.857" stop-color="#E8C46F"/>
</linearGradient>
<linearGradient id="paint7_linear" x1="315.721" y1="791.024" x2="325.842" y2="803.765" gradientUnits="userSpaceOnUse">
<stop stop-color="#E8C46F"/>
<stop offset="0.24" stop-color="#BB842C"/>
<stop offset="0.515" stop-color="#7D5723"/>
<stop offset="0.857" stop-color="#E8C46F"/>
</linearGradient>
<linearGradient id="paint8_linear" x1="-12048.7" y1="8410.26" x2="-12551.7" y2="8523.54" gradientUnits="userSpaceOnUse">
<stop stop-color="#E8C46F"/>
<stop offset="0.24" stop-color="#BB842C"/>
<stop offset="0.515" stop-color="#7D5723"/>
<stop offset="0.857" stop-color="#E8C46F"/>
</linearGradient>
<linearGradient id="paint9_linear" x1="1928.1" y1="4330.72" x2="1895.77" y2="4423.5" gradientUnits="userSpaceOnUse">
<stop stop-color="#E8C46F"/>
<stop offset="0.24" stop-color="#BB842C"/>
<stop offset="0.515" stop-color="#7D5723"/>
<stop offset="0.857" stop-color="#E8C46F"/>
</linearGradient>
<linearGradient id="paint10_linear" x1="-3436.01" y1="1710.32" x2="-3214.84" y2="1286.7" gradientUnits="userSpaceOnUse">
<stop stop-color="#E8C46F"/>
<stop offset="0.24" stop-color="#BB842C"/>
<stop offset="0.515" stop-color="#7D5723"/>
<stop offset="0.857" stop-color="#E8C46F"/>
</linearGradient>
<linearGradient id="paint11_linear" x1="-5674.45" y1="5101.58" x2="-5732.84" y2="5002.57" gradientUnits="userSpaceOnUse">
<stop stop-color="#E8C46F"/>
<stop offset="0.24" stop-color="#BB842C"/>
<stop offset="0.515" stop-color="#7D5723"/>
<stop offset="0.857" stop-color="#E8C46F"/>
</linearGradient>
<linearGradient id="paint12_linear" x1="-8779.34" y1="7048.84" x2="-8872.98" y2="6944.55" gradientUnits="userSpaceOnUse">
<stop stop-color="#E8C46F"/>
<stop offset="0.24" stop-color="#BB842C"/>
<stop offset="0.515" stop-color="#7D5723"/>
<stop offset="0.857" stop-color="#E8C46F"/>
</linearGradient>
<linearGradient id="paint13_linear" x1="-1796.05" y1="3500.42" x2="-1994.58" y2="3535.51" gradientUnits="userSpaceOnUse">
<stop stop-color="#E8C46F"/>
<stop offset="0.24" stop-color="#BB842C"/>
<stop offset="0.515" stop-color="#7D5723"/>
<stop offset="0.857" stop-color="#E8C46F"/>
</linearGradient>
</defs>
</svg>
