<svg width="398" height="87" viewBox="0 0 398 87" fill="none" xmlns="http://www.w3.org/2000/svg">
<path d="M153.291 79.7098H151.61L150.129 75.353L148.652 79.7098H147.01L149.338 73.2993H150.93L153.291 79.7098Z" fill="#232323"/>
<path d="M157.929 79.7098H156.279V73.2993H157.929V79.7098Z" fill="#232323"/>
<path d="M167.423 79.7098H165.459L163.22 76.5608V79.7098H161.571V73.2993H163.22V76.266L165.534 73.2993H167.379L164.883 76.4031L167.423 79.7098Z" fill="#232323"/>
<path d="M176.883 79.7096H175.258V78.9544C175.016 79.2558 174.706 79.4958 174.354 79.6549C174.001 79.814 173.616 79.8877 173.23 79.87C172.791 79.8855 172.354 79.8055 171.948 79.6356C171.543 79.4657 171.18 79.2099 170.883 78.8859C170.296 78.2343 169.984 77.3805 170.013 76.5038C169.988 75.6109 170.313 74.7436 170.918 74.0867C171.211 73.7678 171.569 73.5158 171.969 73.3478C172.368 73.1798 172.798 73.0997 173.231 73.1129C173.612 73.0895 173.993 73.1574 174.343 73.3111C174.692 73.4647 175 73.6996 175.24 73.9962V73.2991H176.883V79.7096ZM175.258 76.5387C175.268 76.0225 175.075 75.523 174.721 75.1472C174.553 74.9601 174.347 74.8115 174.117 74.7115C173.886 74.6116 173.637 74.5625 173.385 74.5678C173.139 74.5607 172.893 74.6084 172.667 74.7075C172.441 74.8065 172.24 74.9545 172.078 75.1407C171.742 75.5145 171.561 76.0015 171.57 76.5038C171.562 77.0113 171.753 77.5018 172.1 77.872C172.263 78.0571 172.464 78.2047 172.69 78.3045C172.916 78.4043 173.161 78.4539 173.407 78.45C173.653 78.4513 173.896 78.4005 174.12 78.3008C174.345 78.2012 174.546 78.055 174.71 77.872C175.062 77.5178 175.259 77.0382 175.258 76.5387Z" fill="#232323"/>
<path d="M185.404 75.5188C185.415 75.844 185.352 76.1674 185.221 76.465C185.09 76.7626 184.893 77.0267 184.645 77.2375C184.152 77.6644 183.516 77.8894 182.864 77.8673H182.197V79.7101H180.548V73.2996H182.907C183.543 73.2708 184.168 73.4698 184.671 73.8609C184.914 74.061 185.106 74.3151 185.234 74.603C185.361 74.8908 185.419 75.2044 185.404 75.5188ZM182.728 74.6135H182.197V76.5534H182.714C182.976 76.564 183.231 76.4743 183.429 76.3025C183.522 76.2148 183.596 76.1078 183.643 75.989C183.691 75.8702 183.712 75.7424 183.706 75.6145C183.709 75.4837 183.687 75.3535 183.639 75.2316C183.592 75.1096 183.52 74.9984 183.429 74.9045C183.339 74.81 183.23 74.7353 183.109 74.6852C182.989 74.6351 182.859 74.6107 182.728 74.6135Z" fill="#232323"/>
<path d="M188.897 78.0957H190.42V79.9062C190.433 80.1022 190.404 80.2987 190.332 80.4818C190.261 80.6649 190.151 80.83 190.008 80.9654C189.695 81.2189 189.3 81.3474 188.897 81.3262V80.4675C188.993 80.481 189.091 80.4714 189.183 80.4394C189.274 80.4075 189.357 80.3541 189.424 80.2838C189.509 80.1057 189.545 79.9078 189.527 79.7109H188.897V78.0957Z" fill="#232323"/>
<path d="M210.679 79.7098H201.769V73.2993H203.419V78.3843H205.056V73.2993H206.591V78.3843H208.228V73.2993H209.877V78.3843H210.679V79.7098Z" fill="#232323"/>
<path d="M220.426 76.4691C220.445 76.9313 220.364 77.3922 220.187 77.8195C220.009 78.2468 219.741 78.6303 219.4 78.9431C218.698 79.5693 217.781 79.9013 216.841 79.8703C215.911 79.9042 215.003 79.576 214.31 78.9547C213.966 78.6409 213.695 78.256 213.515 77.8268C213.335 77.3976 213.251 76.9343 213.268 76.4691C213.256 76.0094 213.345 75.5526 213.53 75.1312C213.714 74.7097 213.988 74.3339 214.333 74.0301C215.038 73.4278 215.936 73.0988 216.863 73.1031C217.79 73.1073 218.684 73.4446 219.383 74.0534C219.722 74.3562 219.991 74.7292 220.171 75.1464C220.351 75.5635 220.438 76.0149 220.426 76.4691ZM214.963 76.5041C214.953 76.7569 214.994 77.0092 215.083 77.2462C215.171 77.4832 215.307 77.7 215.48 77.8839C215.852 78.2266 216.338 78.4168 216.844 78.4168C217.349 78.4168 217.835 78.2266 218.207 77.8839C218.38 77.6998 218.515 77.483 218.604 77.2461C218.693 77.0091 218.734 76.7569 218.724 76.5041C218.733 76.2503 218.692 75.9972 218.604 75.7593C218.515 75.5214 218.38 75.3033 218.207 75.1177C217.837 74.772 217.35 74.5796 216.844 74.5796C216.337 74.5796 215.85 74.772 215.48 75.1177C215.307 75.3032 215.172 75.5212 215.083 75.7591C214.994 75.9971 214.954 76.2503 214.963 76.5041Z" fill="#232323"/>
<path d="M237.238 79.71H230.458V78.3818H231.18L232.967 73.2969H234.719L236.505 78.3818H237.238V79.71ZM234.878 78.3818L233.836 75.2096L232.794 78.3818H234.878Z" fill="#232323"/>
<path d="M246.743 79.7096H245.117V78.9544C244.875 79.2558 244.565 79.4958 244.213 79.6549C243.861 79.814 243.476 79.8877 243.089 79.87C242.65 79.8855 242.213 79.8055 241.808 79.6356C241.403 79.4657 241.039 79.2099 240.742 78.8859C240.155 78.2343 239.843 77.3805 239.872 76.5038C239.847 75.6109 240.172 74.7436 240.777 74.0867C241.07 73.7678 241.429 73.5158 241.828 73.3478C242.227 73.1798 242.658 73.0997 243.091 73.1129C243.472 73.0895 243.853 73.1574 244.202 73.3111C244.551 73.4647 244.859 73.6996 245.099 73.9962V73.2991H246.748L246.743 79.7096ZM245.117 76.5387C245.127 76.0225 244.934 75.523 244.581 75.1472C244.413 74.9601 244.206 74.8115 243.976 74.7115C243.745 74.6116 243.496 74.5625 243.245 74.5678C242.998 74.5607 242.753 74.6084 242.527 74.7075C242.301 74.8065 242.099 74.9545 241.937 75.1407C241.602 75.5145 241.42 76.0015 241.429 76.5038C241.422 77.0113 241.612 77.5018 241.959 77.872C242.122 78.0571 242.324 78.2047 242.55 78.3045C242.775 78.4043 243.02 78.4539 243.267 78.45C243.512 78.4513 243.755 78.4005 243.98 78.3008C244.204 78.2012 244.405 78.055 244.569 77.872C244.921 77.5178 245.118 77.0382 245.117 76.5387Z" fill="#232323"/>
<path d="M255.264 75.5188C255.275 75.8439 255.213 76.1672 255.082 76.4648C254.951 76.7624 254.754 77.0265 254.506 77.2375C254.013 77.6648 253.377 77.8897 252.724 77.8673H252.057V79.7102H250.408V73.2997H252.767C253.403 73.2706 254.029 73.4696 254.531 73.8609C254.774 74.061 254.967 74.3152 255.094 74.603C255.221 74.8909 255.28 75.2045 255.264 75.5188ZM252.589 74.6136H252.057V76.5534H252.574C252.836 76.564 253.092 76.4743 253.29 76.3025C253.383 76.2148 253.456 76.1078 253.504 75.989C253.551 75.8702 253.573 75.7424 253.566 75.6145C253.57 75.4837 253.547 75.3535 253.5 75.2316C253.452 75.1097 253.381 74.9985 253.29 74.9046C253.199 74.81 253.09 74.7353 252.97 74.6852C252.849 74.6351 252.719 74.6107 252.589 74.6136Z" fill="#232323"/>
<path d="M259.742 73.2993L261.243 77.1247L262.639 73.2993H264.346L261.501 80.4573H259.849L260.415 79.0348L258.03 73.3032L259.742 73.2993Z" fill="#232323"/>
<path d="M267.988 74.0871C268.311 73.7625 268.697 73.5084 269.123 73.3408C269.549 73.1732 270.005 73.0957 270.462 73.1133C271.179 73.0995 271.883 73.3077 272.477 73.7094C273.082 74.1079 273.512 74.7222 273.68 75.4269H271.974C271.838 75.1327 271.611 74.8903 271.326 74.7355C271.042 74.5808 270.715 74.5221 270.394 74.5682C270.002 74.5611 269.62 74.6885 269.311 74.929C269.006 75.1643 268.799 75.5058 268.733 75.8859H270.989V77.099H268.733C268.829 77.4879 269.052 77.8332 269.368 78.0792C269.683 78.326 270.074 78.457 270.474 78.4504C270.792 78.4967 271.116 78.4318 271.391 78.2669C271.667 78.102 271.877 77.847 271.986 77.5452H273.692C273.516 78.2493 273.093 78.867 272.5 79.2858C271.82 79.7328 271.011 79.9425 270.2 79.8824C269.388 79.8223 268.619 79.4958 268.012 78.9535C267.686 78.6349 267.432 78.2516 267.264 77.8283C267.096 77.4051 267.019 76.9513 267.038 76.4963C267.027 76.0516 267.106 75.6092 267.269 75.1953C267.432 74.7815 267.677 74.4046 267.988 74.0871Z" fill="#232323"/>
<path d="M295.645 79.7099H284.595V71.4644H286.633V78.0042H288.671V71.4644H290.573V78.0042H292.611V71.4644H294.65V78.0042H295.645V79.7099Z" fill="#232323"/>
<path d="M305.151 79.7097H303.525V78.9545C303.283 79.2557 302.973 79.4956 302.621 79.6546C302.269 79.8137 301.884 79.8876 301.498 79.8701C301.059 79.8855 300.621 79.8055 300.216 79.6356C299.81 79.4657 299.447 79.21 299.15 78.8859C298.582 78.2134 298.274 77.3605 298.279 76.4807C298.285 75.6008 298.605 74.7519 299.181 74.0868C299.473 73.7679 299.832 73.5158 300.231 73.3478C300.63 73.1797 301.06 73.0997 301.493 73.113C301.874 73.0893 302.255 73.1572 302.605 73.3108C302.954 73.4645 303.262 73.6995 303.503 73.9963V73.2992H305.151V79.7097ZM303.525 76.5387C303.535 76.0225 303.342 75.5228 302.988 75.1472C302.82 74.9602 302.614 74.8116 302.383 74.7116C302.153 74.6116 301.903 74.5626 301.652 74.5679C301.405 74.5609 301.16 74.6086 300.934 74.7077C300.708 74.8067 300.507 74.9546 300.344 75.1408C300.01 75.5151 299.829 76.0018 299.838 76.5038C299.83 77.0115 300.02 77.5022 300.368 77.8721C300.531 78.0572 300.732 78.2048 300.958 78.3046C301.184 78.4044 301.428 78.454 301.675 78.4501C301.921 78.4514 302.164 78.4005 302.388 78.3009C302.612 78.2012 302.813 78.0551 302.976 77.8721C303.151 77.6969 303.289 77.4889 303.383 77.2601C303.477 77.0313 303.525 76.7861 303.525 76.5387Z" fill="#232323"/>
<path d="M315.129 77.3859C314.98 78.1239 314.566 78.7818 313.965 79.2353C313.351 79.6823 312.606 79.9137 311.847 79.8935C310.953 79.9303 310.08 79.6134 309.418 79.0115C309.085 78.6881 308.824 78.2969 308.655 77.8644C308.485 77.4318 308.41 76.968 308.434 76.504C308.411 76.0392 308.485 75.5747 308.653 75.1406C308.821 74.7066 309.078 74.3127 309.408 73.9848C310.07 73.3845 310.943 73.071 311.835 73.1131C312.599 73.0885 313.349 73.3157 313.971 73.7597C314.566 74.2163 314.972 74.8767 315.111 75.6142H313.451C313.32 75.287 313.088 75.0098 312.789 74.8225C312.491 74.6352 312.14 74.5474 311.789 74.5719C311.548 74.5599 311.309 74.6057 311.089 74.7053C310.87 74.805 310.678 74.9557 310.529 75.1448C310.241 75.5393 310.096 76.02 310.118 76.5078C310.097 77.0044 310.255 77.4919 310.564 77.8812C310.719 78.07 310.915 78.2202 311.138 78.3196C311.36 78.4191 311.603 78.4652 311.847 78.4541C312.197 78.4927 312.549 78.4072 312.842 78.2127C313.135 78.0182 313.35 77.727 313.451 77.3898L315.129 77.3859Z" fill="#232323"/>
<path d="M322.124 74.6249H320.819V79.7098H319.146V74.6249H317.829V73.2993H322.124V74.6249Z" fill="#232323"/>
<path d="M330.197 79.7101H328.526V76.9736L326.457 79.7101H324.546L326.607 77.1573C326.129 77.1335 325.68 76.9213 325.358 76.5673C325.036 76.2132 324.867 75.746 324.889 75.2679C324.869 74.9608 324.933 74.6541 325.074 74.3807C325.215 74.1073 325.428 73.8776 325.69 73.716C326.245 73.4172 326.871 73.2746 327.501 73.3035H330.204L330.197 79.7101ZM328.526 76.1253V74.5462H327.564C326.907 74.5462 326.579 74.7941 326.579 75.2898C326.571 75.4175 326.598 75.5448 326.657 75.6585C326.715 75.7723 326.803 75.8682 326.911 75.9365C327.13 76.0735 327.385 76.1412 327.643 76.1305L328.526 76.1253Z" fill="#232323"/>
<path d="M335.638 77.3278H334.149V71.4644H335.638V77.3278ZM335.638 79.7099H334.149V78.1064H335.638V79.7099Z" fill="#232323"/>
<path d="M133.961 52.5212C133.947 53.6055 133.713 54.6756 133.274 55.6669C132.794 56.7806 132.176 57.8293 131.433 58.7881C130.675 59.7827 129.814 60.6938 128.863 61.5059C127.967 62.2811 126.981 62.945 125.926 63.483C124.759 64.0832 123.537 64.5701 122.277 64.937C121.125 65.264 119.952 65.5105 118.766 65.6747C117.594 65.8346 116.413 65.9304 115.231 65.9615C114.037 65.9922 112.798 66.008 111.513 66.0091H109.849C109.436 66.0091 109.099 66.0091 108.84 66.0321C108.58 66.0551 108.372 66.0566 108.226 66.0566H107.812C107.49 66.0568 107.169 66.041 106.849 66.0091C106.542 65.9769 106.389 65.8342 106.389 65.5796C106.593 65.0023 106.879 64.4569 107.237 63.9599C107.941 62.7647 108.562 61.5225 109.096 60.2421C110.412 57.1603 111.659 54.3009 112.837 51.6638C114.014 49.0268 115.078 46.675 116.027 44.6085C116.975 42.5441 117.785 40.8059 118.459 39.3938C119.133 37.9817 119.623 36.9888 119.929 36.4152C119.351 36.0489 118.753 35.7145 118.139 35.4137C117.388 35.0453 116.613 34.7271 115.82 34.4612C114.917 34.1591 113.995 33.9203 113.059 33.7465C112.022 33.5512 110.97 33.4552 109.915 33.4597C108.84 33.4463 107.77 33.6074 106.747 33.9367C105.901 34.1929 105.129 34.6508 104.499 35.271C104.135 35.6646 103.826 36.1051 103.579 36.5809C103.383 36.9633 103.221 37.3626 103.097 37.7741C102.999 38.0912 102.937 38.4185 102.913 38.7496C102.898 39.0364 102.89 39.2266 102.89 39.3217C102.892 39.7733 103.011 40.2167 103.235 40.6085C103.444 40.9548 103.563 41.3484 103.579 41.7527C103.549 42.2391 103.355 42.701 103.028 43.0625C102.915 43.2489 102.761 43.4076 102.578 43.5273C102.396 43.6469 102.189 43.7244 101.973 43.7542C101.805 43.7599 101.637 43.7287 101.483 43.6627C101.328 43.5968 101.189 43.4976 101.077 43.3723C100.805 42.9664 100.684 42.4781 100.734 41.992C100.737 40.6364 100.97 39.2911 101.422 38.0134C101.959 36.5786 102.857 35.3065 104.03 34.3201C104.552 33.8523 105.131 33.4515 105.752 33.1268C106.405 32.7809 107.079 32.4785 107.772 32.2219C108.423 31.9792 109.089 31.7804 109.766 31.6268C110.307 31.4967 110.861 31.4247 111.418 31.4121C113.41 31.363 115.4 31.5692 117.34 32.0256C118.763 32.3955 120.135 32.94 121.424 33.6468L122.344 32.1452C122.741 31.4949 123.154 30.8513 123.584 30.2142C133.368 13.1391 129.306 16.4407 141.14 0.716269C141.253 0.527092 141.406 0.364934 141.588 0.241194C141.77 0.117454 141.977 0.0351271 142.195 0C142.195 0 142.93 0.177926 142.93 0.429462C142.918 0.874735 142.756 1.30291 142.469 1.6442C130.431 17.2105 134.542 13.9525 125.097 31.2158C124.913 31.5338 124.709 31.8671 124.484 32.2158C124.254 32.5655 124.024 32.8922 123.818 33.1928C123.613 33.4934 123.419 33.7649 123.268 34.0042C123.157 34.1601 123.065 34.3278 122.992 34.5041C124.436 35.4859 125.808 36.5689 127.099 37.745C128.428 38.9498 129.607 40.3097 130.611 41.7956C131.635 43.3174 132.453 44.9677 133.044 46.7037C133.671 48.5783 133.981 50.5445 133.961 52.5212ZM130.565 53.7605C130.569 52.1077 130.338 50.4627 129.877 48.8755C129.427 47.3256 128.787 45.8372 127.972 44.4444C127.155 43.0558 126.177 41.7687 125.057 40.61C123.928 39.4387 122.682 38.3847 121.34 37.4643C120.849 38.2915 120.275 39.3718 119.617 40.7051C118.96 42.0385 118.272 43.492 117.553 45.0656C116.837 46.6392 116.11 48.2834 115.372 49.9982C114.634 51.7129 113.945 53.3571 113.306 54.9307C112.665 56.5044 112.083 57.9579 111.562 59.2912C111.04 60.6245 110.658 61.7053 110.415 62.5336C110.721 62.5658 111.088 62.5964 111.516 62.6287C111.884 62.6604 112.358 62.6762 112.939 62.6762H115.097C115.74 62.6762 116.59 62.692 117.645 62.7237C118.7 62.7554 119.809 62.7473 120.972 62.6992C122.12 62.6533 123.264 62.5179 124.392 62.2943C125.395 62.1165 126.354 61.7445 127.214 61.1992C127.852 60.7905 128.399 60.2548 128.821 59.6256C129.24 59.0081 129.586 58.3448 129.854 57.6486C130.107 56.9859 130.292 56.2986 130.404 55.5979C130.505 54.9925 130.559 54.3803 130.565 53.7666V53.7605Z" fill="url(#paint0_linear)"/>
<path d="M148.948 63.3466C147.011 64.2867 144.881 64.7595 142.728 64.727C142.216 64.7452 141.704 64.6804 141.213 64.5353C139.826 65.3164 138.26 65.7269 136.668 65.727C136.122 65.7278 135.58 65.6392 135.062 65.4647C134.533 65.2849 134.054 64.9834 133.662 64.5844C133.219 64.1225 132.882 63.5691 132.676 62.9632C132.412 62.1806 132.288 61.3578 132.308 60.5322C132.302 59.7009 132.379 58.8712 132.538 58.0552C132.691 57.2924 132.905 56.4345 133.18 55.4815C133.394 54.7187 133.647 53.9641 133.938 53.2177C134.23 52.4713 134.528 51.7724 134.832 51.121C135.114 50.5162 135.428 49.9274 135.774 49.3572C136.029 48.9218 136.329 48.5142 136.668 48.1409C136.91 47.8995 137.189 47.6986 137.495 47.5459C137.851 47.3672 138.244 47.2773 138.642 47.2836C138.873 47.2654 139.105 47.3155 139.308 47.4278C139.432 47.5113 139.548 47.6068 139.653 47.713H139.789C140.279 47.2365 140.784 46.7677 141.305 46.3066C141.826 45.8457 142.386 45.4311 142.98 45.0673C143.594 44.6943 144.249 44.3908 144.931 44.1624C145.717 43.9113 146.538 43.7905 147.363 43.805C147.903 43.7911 148.439 43.8875 148.941 44.0882C149.442 44.2889 149.896 44.5897 150.277 44.9722C151.172 46.0983 151.592 47.529 151.448 48.96C151.425 50.2403 151.208 51.5098 150.805 52.7253C150.359 54.1294 149.759 55.4797 149.015 56.7515C148.251 58.0673 147.359 59.3044 146.352 60.4448C145.397 61.5423 144.283 62.4904 143.047 63.2577C143.193 63.3229 143.348 63.3628 143.507 63.3758C143.888 63.4307 144.272 63.4548 144.656 63.4478C146.209 63.3909 147.733 63.0095 149.13 62.3282C150.951 61.4885 152.669 60.4406 154.248 59.2055L154.662 59.7776C152.867 61.1346 150.955 62.329 148.948 63.3466ZM137.242 61.8696C136.895 61.1536 136.656 60.3902 136.532 59.6042C136.411 58.8561 136.372 58.097 136.417 57.3404C136.463 56.6119 136.515 55.9907 136.578 55.483H136.44C136.348 55.7683 136.233 56.1671 136.095 56.6748C135.921 57.4577 135.822 58.2552 135.797 59.0567C135.718 59.8571 135.788 60.6651 136.003 61.4402C136.154 61.9563 136.412 62.4349 136.76 62.8451C137.014 63.1426 137.337 63.372 137.702 63.5123C137.929 63.6042 138.169 63.6606 138.414 63.6794H138.874C138.173 63.2419 137.608 62.6179 137.242 61.8773V61.8696ZM147.777 50.5198C147.815 49.5289 147.577 48.547 147.089 47.6839C146.821 47.2962 146.454 46.9877 146.026 46.7907C145.598 46.5937 145.125 46.5155 144.656 46.5642C144.148 46.5948 143.647 46.6912 143.164 46.8511C142.513 47.0374 141.91 47.3623 141.397 47.8035C141.015 48.1425 140.676 48.5267 140.388 48.9477C139.977 49.532 139.623 50.1545 139.331 50.8066C138.962 51.6297 138.662 52.4824 138.437 53.3557C138.161 54.4107 137.985 55.489 137.909 56.5766C137.909 56.8619 137.909 57.3144 137.931 57.934C137.954 58.5983 138.07 59.256 138.276 59.888C138.498 60.587 138.856 61.2351 139.331 61.7945C139.888 62.4199 140.656 62.8185 141.489 62.9141C142.514 62.3684 143.413 61.6133 144.127 60.6978C144.914 59.7194 145.577 58.6473 146.101 57.5061C146.635 56.3512 147.05 55.1451 147.34 53.9063C147.615 52.8005 147.761 51.6668 147.777 50.5275V50.5198Z" fill="url(#paint1_linear)"/>
<path d="M175.085 63.3467C174.192 63.9983 173.266 64.6024 172.309 65.1565C171.42 65.6762 170.482 66.1076 169.509 66.4449C168.661 66.7462 167.77 66.9068 166.871 66.9203C166.305 66.9223 165.741 66.8501 165.194 66.7056C164.636 66.5508 164.119 66.2743 163.68 65.8958C163.143 65.4202 162.699 64.8479 162.372 64.2087C161.911 63.3039 161.571 62.3421 161.363 61.3482C160.933 59.475 160.635 58.0537 160.467 57.0844C160.299 56.115 160.139 55.3446 159.986 54.773C159.74 55.1227 159.504 55.4632 159.274 55.7975C158.988 56.2394 158.749 56.7103 158.562 57.2025C158.348 57.68 158.149 58.1646 157.966 58.6565C157.782 59.1503 157.613 59.5859 157.461 59.9663C157.277 60.4126 157.108 60.8405 156.956 61.2531C156.68 61.9852 156.458 62.5338 156.291 62.8988C156.15 63.2225 155.955 63.5201 155.716 63.7792C155.371 64.103 154.975 64.3688 154.545 64.566C154.131 64.8016 153.668 64.94 153.193 64.9709C152.932 64.9939 152.67 64.9446 152.435 64.8283C152.36 64.7649 152.301 64.6838 152.265 64.5922C152.229 64.5006 152.216 64.4015 152.228 64.3038C152.264 63.9932 152.341 63.6889 152.458 63.3988C152.611 62.954 152.871 62.2235 153.239 61.2071C153.422 60.7296 153.582 60.2843 153.72 59.8712C153.858 59.4586 153.995 59.046 154.133 58.6335C154.271 58.2209 154.415 57.7914 154.568 57.3451C154.722 56.8988 154.89 56.4095 155.074 55.8681C155.81 53.772 156.452 51.9136 157.002 50.2929C157.553 48.6722 157.95 47.5285 158.196 46.8619C158.409 46.2576 158.593 45.7412 158.746 45.3128C158.87 44.9325 159.073 44.5831 159.343 44.2882C159.544 44.05 159.785 43.8481 160.055 43.6916C160.346 43.5174 160.654 43.374 160.975 43.2637C161.283 43.1558 161.597 43.0677 161.917 42.9999C162.173 42.9425 162.433 42.9106 162.696 42.9048C162.91 42.9048 163.018 43.0812 163.018 43.4293C162.971 43.8404 162.862 44.2421 162.696 44.6211C162.481 45.1926 162.267 45.733 162.053 46.2422C161.534 47.5715 161.06 48.8184 160.631 49.9831C160.203 51.1477 159.82 52.2357 159.484 53.2469L159.713 53.2944C160.264 52.6912 160.769 52.1288 161.228 51.6073C161.687 51.0858 162.169 50.5618 162.673 50.0352C163.179 49.5107 163.736 48.9708 164.349 48.414C164.963 47.8573 165.68 47.2315 166.506 46.5321C167.115 46.0267 167.759 45.5654 168.434 45.1517C169.08 44.7529 169.755 44.4027 170.453 44.1042C171.083 43.8314 171.736 43.6159 172.404 43.46C172.953 43.3269 173.515 43.2549 174.079 43.2453C174.202 43.2453 174.354 43.2529 174.539 43.2698C174.722 43.2858 174.9 43.3341 175.065 43.4124C175.238 43.4946 175.388 43.6172 175.503 43.7698C175.636 43.9658 175.701 44.2004 175.687 44.437C175.566 45.2537 175.206 46.0163 174.653 46.6287C173.62 47.8463 172.385 48.8781 171.004 49.6794L170.728 49.2499C171.273 48.8553 171.688 48.3083 171.923 47.6778C172.101 47.2371 172.209 46.7714 172.243 46.2975C172.243 45.8527 171.937 45.6303 171.323 45.6303C170.591 45.6816 169.876 45.8672 169.211 46.1778C168.181 46.6323 167.223 47.2342 166.366 47.9646C165.691 48.5055 165.102 49.0168 164.598 49.4984C164.093 49.98 163.673 50.4089 163.335 50.7852C162.939 51.23 162.587 51.6431 162.28 52.0245H162.556C162.633 52.0223 162.709 52.0141 162.785 52C162.861 51.985 162.937 51.9768 163.015 51.9754C163.188 51.9831 163.356 52.0412 163.496 52.1426C163.6 52.2369 163.683 52.3509 163.742 52.4778C163.801 52.6047 163.834 52.742 163.84 52.8819L164.369 55.9494C164.567 57.1109 164.789 58.1989 165.035 59.2132C165.271 60.5603 165.786 61.843 166.549 62.9786C166.856 63.4214 167.27 63.7799 167.753 64.021C168.235 64.2622 168.77 64.3784 169.309 64.359C170.122 64.3612 170.929 64.2243 171.696 63.9541C172.455 63.686 173.186 63.3428 173.877 62.9295C174.535 62.5365 175.17 62.1069 175.78 61.6427C176.361 61.1979 176.866 60.7848 177.296 60.4034L177.708 61.2608C176.877 61.9847 176.003 62.68 175.085 63.3467Z" fill="url(#paint2_linear)"/>
<path d="M206.756 60.6777C206.175 61.0867 205.579 61.4993 204.966 61.9155C204.354 62.3316 203.864 62.6655 203.498 62.917C202.226 63.7943 200.9 64.5904 199.527 65.3005C198.815 65.719 198.028 65.9941 197.21 66.1103C196.842 66.1103 196.62 65.9671 196.544 65.6808C196.466 65.3856 196.428 65.0813 196.429 64.7759C196.459 64.4452 196.521 64.118 196.613 63.7989C196.735 63.3071 196.903 62.7115 197.118 62.0121C197.333 61.3127 197.562 60.5499 197.807 59.7237C198.05 58.8986 198.31 58.0565 198.587 57.1976C198.861 56.3091 199.129 55.4277 199.389 54.5534C199.65 53.6792 199.88 52.877 200.078 52.147C200.277 51.4149 200.446 50.7712 200.583 50.216C200.697 49.7857 200.782 49.3481 200.836 48.9061C200.834 48.7516 200.85 48.5973 200.882 48.446C200.911 48.3018 200.836 48.2313 200.652 48.2313C200.284 48.321 199.945 48.5014 199.665 48.7558C199.231 49.0693 198.824 49.4198 198.449 49.8034C197.899 50.375 197.203 51.1454 196.36 52.1148C195.342 53.3129 194.385 54.5614 193.492 55.8556C193.185 56.3014 192.841 56.8418 192.458 57.4768C192.076 58.1118 191.718 58.7314 191.385 59.3357C191.047 59.94 190.757 60.4707 190.512 60.9323C190.379 61.2056 190.225 61.4681 190.052 61.7176C189.899 61.871 189.676 62.0842 189.386 62.3311C189.096 62.578 188.773 62.8403 188.445 63.098C188.123 63.3422 187.786 63.5651 187.435 63.7652C187.158 63.9387 186.841 64.0375 186.515 64.052C186.392 64.052 186.331 63.9876 186.331 63.8603C186.332 63.7246 186.348 63.5894 186.377 63.4569C186.408 63.3127 186.454 63.1149 186.515 62.8603C186.576 62.6057 186.676 62.2728 186.813 61.8603C186.949 61.4477 187.119 60.9216 187.342 60.2866L190.233 51.7083C190.64 50.6104 190.948 49.478 191.153 48.3248C191.153 48.0702 191.076 47.9276 190.923 47.8954C190.402 47.8954 189.147 48.9598 187.159 51.0887C186.255 52.0309 185.426 53.0428 184.681 54.1148C183.916 55.2119 183.212 56.3004 182.57 57.3801C181.928 58.4599 181.354 59.4926 180.848 60.4783C180.344 61.463 179.938 62.3045 179.632 63.0029C179.472 63.2012 179.296 63.3849 179.104 63.552C178.865 63.7665 178.611 63.9653 178.346 64.1471C178.079 64.3329 177.795 64.4926 177.498 64.6241C177.231 64.7459 176.942 64.8106 176.648 64.8143C176.566 64.8258 176.481 64.8113 176.407 64.7728C176.333 64.7344 176.273 64.6738 176.234 64.5995C176.171 64.4405 176.14 64.2706 176.144 64.0995C176.154 63.9062 176.184 63.7145 176.234 63.5274C176.297 63.2749 176.381 62.9809 176.487 62.6455C176.594 62.3102 176.709 61.961 176.832 61.598C176.954 61.2329 177.076 60.8914 177.199 60.5734C177.506 59.7145 177.781 58.9359 178.026 58.2375C178.27 57.5397 178.486 56.8786 178.668 56.259C178.851 55.6393 179.027 55.032 179.196 54.4491C179.365 53.8663 179.54 53.2498 179.724 52.6086C179.816 52.2605 179.929 51.8157 180.067 51.2743C180.205 50.7328 180.359 50.1868 180.527 49.6301C180.696 49.0733 180.856 48.5564 181.009 48.058C181.127 47.6617 181.264 47.2717 181.421 46.8893C181.602 46.4186 181.875 45.9893 182.225 45.627C182.566 45.2717 182.943 44.9526 183.349 44.6745C183.704 44.4269 184.09 44.2268 184.497 44.0794C184.776 43.9701 185.07 43.9054 185.369 43.8877C185.583 43.8877 185.691 44.0625 185.691 44.4122C185.606 44.8954 185.491 45.3728 185.346 45.8417C185.142 46.5411 184.937 47.2241 184.733 47.8908C184.457 48.7824 184.15 49.7359 183.813 50.7513C183.475 51.7666 183.138 52.7196 182.802 53.6102C182.436 54.6572 182.053 55.6899 181.655 56.7084L181.839 56.851C182.145 56.3111 182.535 55.6976 183.009 55.0105C183.482 54.3234 183.987 53.6245 184.523 52.9138C185.057 52.1981 185.608 51.5074 186.175 50.8417C186.742 50.1746 187.283 49.5871 187.805 49.0779C189.364 47.5534 190.726 46.3141 191.889 45.3601C192.64 44.5962 193.627 44.1096 194.69 43.9797C194.884 43.9727 195.073 44.0415 195.218 44.1714C195.298 44.2708 195.358 44.3851 195.393 44.5079C195.429 44.6306 195.44 44.7592 195.425 44.8862C195.368 45.5345 195.236 46.1742 195.034 46.7926C194.774 47.7129 194.476 48.6976 194.139 49.7466C193.803 50.7957 193.466 51.8182 193.129 52.8141C192.791 53.8162 192.531 54.5867 192.349 55.1255H192.486C194.139 53.0938 195.631 51.3862 196.961 50.0028C198.063 48.8346 199.236 47.7363 200.474 46.7144C201.264 46.0524 202.117 45.4698 203.021 44.9751C203.505 44.6885 204.045 44.5096 204.604 44.4506C204.695 44.4427 204.786 44.4638 204.865 44.5109C204.943 44.5581 205.004 44.6287 205.04 44.7128C205.122 44.9169 205.161 45.1357 205.155 45.3555C205.132 45.7986 205.062 46.2381 204.948 46.6669C204.81 47.2548 204.626 47.9619 204.397 48.788C204.168 49.6142 203.908 50.5196 203.618 51.5043C203.327 52.489 203.028 53.5054 202.722 54.5534C202.63 54.9358 202.462 55.4921 202.218 56.2222C201.973 56.9522 201.736 57.7069 201.506 58.486C201.276 59.2651 201.071 59.988 200.893 60.6547C200.758 61.0734 200.665 61.5045 200.616 61.9415C200.612 62.1171 200.627 62.2925 200.662 62.4646C200.693 62.5919 200.816 62.6563 201.031 62.6563C201.503 62.6201 201.963 62.4902 202.385 62.2744C203.014 61.9874 203.628 61.6691 204.225 61.3204C204.882 60.94 205.585 60.5034 206.336 60.0105C207.086 59.5177 207.813 59.033 208.517 58.5565L208.929 59.1286L206.756 60.6777ZM207.629 38.2312C206.325 38.8007 204.984 39.2778 203.613 39.6591C201.933 40.1341 200.223 40.5009 198.495 40.7573C196.504 41.0515 194.494 41.1946 192.481 41.1852C191.565 41.1942 190.652 41.0654 189.774 40.8033C189.193 40.6437 188.625 40.4385 188.076 40.1898C188.549 39.421 189.138 38.7294 189.82 38.1392C190.681 38.484 191.584 38.709 192.506 38.8079C194.05 39.015 195.606 39.1104 197.164 39.0932C198.867 39.1106 200.57 39.0081 202.259 38.7864C203.512 38.617 204.754 38.3701 205.977 38.0471C206.842 37.8195 207.692 37.5414 208.524 37.2143C209.181 36.9444 209.695 36.745 210.058 36.6177L210.334 36.8079C209.471 37.3523 208.566 37.8282 207.629 38.2312Z" fill="url(#paint3_linear)"/>
<path d="M224.497 63.3467C222.56 64.287 220.43 64.7598 218.277 64.7271C217.765 64.7452 217.254 64.6805 216.762 64.5353C215.375 65.3163 213.811 65.7267 212.219 65.7271C211.673 65.7279 211.13 65.6393 210.612 65.4648C210.083 65.285 209.603 64.9835 209.211 64.5844C208.769 64.1222 208.432 63.5689 208.225 62.9632C207.962 62.1805 207.838 61.3578 207.859 60.5322C207.853 59.7011 207.929 58.8713 208.087 58.0552C208.241 57.2924 208.455 56.4345 208.73 55.4816C208.944 54.7188 209.196 53.9642 209.488 53.2177C209.779 52.4713 210.077 51.7724 210.382 51.1211C210.664 50.5166 210.978 49.9278 211.323 49.3573C211.579 48.9218 211.879 48.5142 212.219 48.141C212.46 47.8996 212.739 47.6986 213.044 47.5459C213.401 47.3673 213.795 47.2773 214.193 47.2836C214.424 47.2656 214.655 47.3157 214.857 47.4278C214.981 47.5114 215.097 47.6069 215.202 47.7131H215.34C215.828 47.2366 216.333 46.7678 216.854 46.3066C217.376 45.8454 217.937 45.4307 218.531 45.0674C219.145 44.6944 219.799 44.3909 220.48 44.1625C221.266 43.9113 222.088 43.7906 222.912 43.8051C223.452 43.7908 223.989 43.887 224.49 44.0877C224.991 44.2884 225.446 44.5895 225.827 44.9723C226.723 46.0975 227.144 47.5288 226.998 48.96C226.975 50.2404 226.759 51.5099 226.356 52.7254C225.91 54.1295 225.309 55.4797 224.566 56.7515C223.802 58.0673 222.91 59.3045 221.903 60.4448C220.946 61.5424 219.83 62.4906 218.592 63.2577C218.737 63.3229 218.893 63.3629 219.052 63.3758C219.432 63.4308 219.816 63.4549 220.199 63.4479C221.753 63.3908 223.277 63.0094 224.675 62.3283C226.495 61.4882 228.212 60.4403 229.791 59.2055L230.206 59.7776C228.413 61.1347 226.502 62.3291 224.497 63.3467ZM212.793 61.8697C212.445 61.154 212.205 60.3905 212.081 59.6043C211.96 58.8562 211.921 58.097 211.966 57.3405C212.012 56.612 212.064 55.9908 212.119 55.4831H211.981C211.889 55.7684 211.774 56.1672 211.638 56.6748C211.46 57.4573 211.358 58.2549 211.331 59.0568C211.251 59.8572 211.321 60.6656 211.538 61.4402C211.689 61.9568 211.947 62.4357 212.296 62.8451C212.548 63.1429 212.872 63.3723 213.236 63.5123C213.463 63.6042 213.703 63.6606 213.948 63.6795H214.408C213.713 63.2402 213.154 62.6162 212.793 61.8774V61.8697ZM223.327 50.5199C223.365 49.529 223.126 48.547 222.638 47.684C222.37 47.2961 222.003 46.9875 221.575 46.7905C221.147 46.5935 220.674 46.5154 220.205 46.5643C219.698 46.5948 219.196 46.6913 218.713 46.8511C218.062 47.0374 217.46 47.3624 216.946 47.8036C216.564 48.1425 216.226 48.5267 215.937 48.9478C215.526 49.5321 215.172 50.1546 214.88 50.8067C214.51 51.6295 214.211 52.4822 213.986 53.3558C213.711 54.4108 213.534 55.489 213.458 56.5767C213.458 56.862 213.458 57.3144 213.481 57.9341C213.503 58.5984 213.619 59.2562 213.825 59.8881C214.047 60.5871 214.406 61.2351 214.88 61.7945C215.438 62.42 216.206 62.8185 217.038 62.9142C218.063 62.3683 218.963 61.6132 219.678 60.6979C220.464 59.7187 221.127 58.6468 221.652 57.5061C222.184 56.3504 222.599 55.1445 222.891 53.9064C223.164 52.8004 223.311 51.6667 223.327 50.5275V50.5199Z" fill="url(#paint4_linear)"/>
<path d="M248.808 47.6668C248.792 49.2446 248.479 50.8053 247.888 52.2681C247.277 53.8393 246.516 55.3479 245.615 56.7727C244.754 58.1467 243.779 59.4458 242.701 60.6562C241.836 61.6548 240.867 62.5577 239.81 63.3495C238.971 63.9475 238.089 64.4812 237.17 64.9461C236.287 65.4178 235.303 65.6708 234.302 65.6838C234.077 65.7099 233.848 65.6895 233.631 65.6241C233.414 65.5587 233.213 65.4496 233.04 65.3035C232.819 65.072 232.695 64.7645 232.694 64.4446C232.713 63.699 232.893 62.9664 233.222 62.2973C233.593 61.505 234.047 60.7544 234.576 60.058C235.151 59.2982 235.77 58.574 236.432 57.8893C237.088 57.2036 237.785 56.5587 238.52 55.9583C239.63 55.049 240.786 54.1982 241.984 53.4092C243.042 52.7261 243.998 52.1464 244.854 51.6699C244.995 51.2385 245.072 50.7891 245.084 50.3355V49.0963C245.101 48.4923 245.024 47.8893 244.854 47.3094C244.733 46.903 244.524 46.5285 244.241 46.2128C244.003 45.957 243.702 45.7682 243.368 45.6652C243.033 45.5676 242.685 45.5191 242.336 45.5211C241.375 45.6171 240.461 45.9805 239.696 46.5702C238.35 47.5314 237.125 48.6515 236.047 49.9061C235.741 50.6382 235.396 51.5359 235.015 52.5993C234.634 53.6628 234.221 54.8386 233.776 56.127C233.331 57.4133 232.857 58.8034 232.352 60.2973C231.848 61.7912 231.337 63.3162 230.819 64.8725C230.329 66.304 229.847 67.7258 229.374 69.1379C228.9 70.5499 228.457 71.9002 228.043 73.1885C227.628 74.4748 227.254 75.6665 226.918 76.7637C226.583 77.8608 226.307 78.8057 226.092 79.5981C226.054 79.8352 226.031 80.0744 226.023 80.3144C226.008 80.6342 225.969 80.9526 225.908 81.2668C225.823 81.6166 225.692 81.9534 225.518 82.2684C225.24 82.7437 224.876 83.1633 224.444 83.5061C223.872 84.0084 223.142 84.2953 222.38 84.3175C222.259 84.3174 222.139 84.2918 222.028 84.2424C221.917 84.1929 221.818 84.1208 221.737 84.0306C221.527 83.76 221.428 83.4193 221.461 83.0782C221.484 82.6208 221.545 82.1662 221.645 81.7193C221.851 80.8329 222.127 79.9645 222.472 79.1226C223.269 76.8342 224.079 74.5628 224.905 72.3081C225.609 70.3654 226.366 68.2759 227.176 66.0397C227.986 63.8034 228.743 61.7145 229.448 59.7727C229.846 58.6623 230.204 57.6459 230.521 56.7236C230.838 55.8013 231.145 54.9036 231.441 54.0303C231.732 53.1571 232.039 52.2676 232.362 51.3616C232.685 50.4557 233.029 49.447 233.394 48.3355C233.731 47.4153 234.053 46.4699 234.359 45.4996C234.515 44.8395 234.795 44.2149 235.184 43.6591C235.623 43.1962 236.143 42.8164 236.718 42.5379C237.053 42.3493 237.415 42.2132 237.791 42.1345C237.891 42.1327 237.991 42.1405 238.09 42.1575C238.165 42.1744 238.205 42.2618 238.205 42.4198C238.181 42.6381 238.134 42.8534 238.067 43.0625C237.975 43.3968 237.86 43.8099 237.722 44.3017C237.586 44.7956 237.415 45.3263 237.218 45.8984C237.02 46.4705 236.828 47.0119 236.644 47.5196L236.874 47.5671C237.467 46.9589 238.104 46.395 238.779 45.88C239.481 45.3342 240.217 44.8327 240.981 44.3784C241.677 43.9595 242.406 43.6003 243.162 43.3048C243.759 43.0566 244.397 42.9188 245.043 42.8983C245.565 42.8551 246.09 42.9265 246.582 43.1078C247.074 43.289 247.52 43.5756 247.889 43.9474C248.614 45.0448 248.938 46.3583 248.808 47.6668ZM244.532 53.288C244.179 53.4361 243.834 53.6035 243.5 53.7895C243.056 54.0268 242.574 54.3126 242.053 54.6469C241.533 54.9813 240.99 55.3627 240.425 55.7911C239.879 56.203 239.366 56.6568 238.891 57.1485C238.492 57.5626 238.094 57.9915 237.696 58.4353C237.308 58.8669 236.956 59.3284 236.641 59.8157C236.347 60.2692 236.094 60.7475 235.883 61.2451C235.686 61.7132 235.585 62.2159 235.586 62.7237C235.586 63.2942 236.014 63.58 236.871 63.5811C237.365 63.5655 237.85 63.4436 238.293 63.2237C238.899 62.922 239.444 62.5101 239.9 62.009C240.313 61.5689 240.704 61.1082 241.07 60.6286C241.554 59.997 241.999 59.3362 242.402 58.65C242.87 57.8529 243.284 57.0248 243.641 56.1715C244.03 55.2411 244.328 54.2755 244.532 53.288Z" fill="url(#paint5_linear)"/>
<path d="M294.103 61.1533C293.302 61.846 292.466 62.4972 291.599 63.1042C290.704 63.7352 289.751 64.2781 288.752 64.7254C287.809 65.1591 286.784 65.3866 285.746 65.3926C284.212 65.3926 282.965 64.3517 282.005 62.2699C280.799 59.1952 280.049 55.9604 279.779 52.6686C279.258 53.3659 278.577 54.2862 277.737 55.4293C276.668 56.9553 275.723 58.5648 274.913 60.2423C274.564 60.9075 274.273 61.6012 274.042 62.3159C273.796 63.0634 273.567 63.7464 273.353 64.365C273.178 64.8925 272.973 65.4096 272.74 65.9141C272.54 66.3267 272.35 66.5276 272.166 66.5276C271.985 66.5486 271.801 66.5196 271.635 66.444C271.469 66.3683 271.327 66.2487 271.224 66.0982C271.048 65.7772 270.961 65.4149 270.973 65.0491C271.093 64.7331 271.391 64.1058 271.867 63.1671C272.342 62.2285 272.947 61.1242 273.68 59.8542C274.415 58.5843 275.256 57.1947 276.204 55.6855C277.152 54.1763 278.194 52.6614 279.329 51.141C278.87 47.8372 278.513 45.2084 278.255 43.2544C277.997 41.3004 277.837 40.0054 277.773 39.3694C277.733 38.765 277.602 38.1702 277.382 37.6056C277.268 37.3272 277.087 37.0815 276.855 36.8908C276.655 36.7684 276.425 36.7027 276.19 36.7006C275.96 36.7006 275.845 36.5104 275.845 36.1285C275.854 35.8926 275.901 35.6595 275.983 35.4384C276.074 35.1684 276.19 34.8739 276.327 34.5564C276.474 34.2202 276.644 33.8939 276.833 33.5794C277.031 33.2451 277.223 32.9521 277.407 32.6975C277.608 32.391 277.865 32.1243 278.163 31.9107C278.34 31.7696 278.552 31.679 278.776 31.6484C278.899 31.6484 279.045 31.6576 279.214 31.673C279.396 31.6958 279.566 31.7796 279.695 31.9107C279.884 32.1109 280.032 32.3459 280.131 32.6024C280.301 33.0468 280.417 33.5104 280.476 33.9828C280.627 34.9348 280.772 36.0084 280.911 37.2037C281.05 38.399 281.18 39.6061 281.301 40.8249C281.424 42.0519 281.538 43.2513 281.645 44.4231C281.751 45.5949 281.881 46.6435 282.036 47.5688C282.8 46.4247 283.604 45.2728 284.445 44.1133C285.287 42.9538 286.113 41.8418 286.924 40.7774C287.735 39.7129 288.477 38.7359 289.151 37.8463C289.825 36.9568 290.391 36.2257 290.849 35.6531C291.553 34.7328 292.234 33.9072 292.89 33.1761C293.546 32.445 294.044 32.0794 294.382 32.0794C294.61 32.0838 294.832 32.1501 295.025 32.2711C295.238 32.3984 295.347 32.6837 295.347 33.127C295.363 33.4961 295.292 33.8638 295.14 34.2006C294.971 34.5108 294.754 34.7923 294.497 35.035C294.206 35.3203 293.839 35.6618 293.396 36.0595C292.953 36.4573 292.41 36.9895 291.767 37.6562C291.369 38.0652 290.779 38.7165 289.999 39.6102C289.219 40.5038 288.377 41.5044 287.474 42.6117C286.573 43.7242 285.67 44.8837 284.766 46.0903C283.862 47.2968 283.089 48.4088 282.448 49.4262C282.786 51.8414 283.138 53.8986 283.505 55.598C283.789 57.0208 284.196 58.4161 284.721 59.7683C285.041 60.6505 285.532 61.4606 286.166 62.1518C286.397 62.3934 286.675 62.5859 286.983 62.7176C287.29 62.8494 287.621 62.9178 287.956 62.9187C288.618 62.9021 289.272 62.7649 289.885 62.5138C290.61 62.2337 291.308 61.8909 291.973 61.4892C292.659 61.0786 293.318 60.6247 293.947 60.1303C294.522 59.684 295.067 59.1987 295.576 58.6778L296.036 59.4447C295.511 59.9181 294.867 60.4877 294.103 61.1533Z" fill="url(#paint6_linear)"/>
<path d="M313.564 60.058C313.564 60.1858 313.166 60.5508 312.37 61.1531C311.387 61.8745 310.352 62.52 309.271 63.0841C307.908 63.8108 306.488 64.4264 305.026 64.9246C303.537 65.452 301.97 65.7258 300.391 65.7344C299.609 65.7944 298.824 65.6989 298.079 65.4535C297.335 65.2082 296.646 64.8178 296.053 64.305C295.523 63.6844 295.122 62.9643 294.874 62.1869C294.626 61.4094 294.535 60.5903 294.607 59.7773C294.679 58.0916 295.042 56.4311 295.681 54.8693C296.511 52.7405 297.682 50.7607 299.147 49.0073C299.994 47.9374 300.939 46.9484 301.969 46.0532C302.831 45.3005 303.761 44.6299 304.747 44.0502C305.537 43.5857 306.376 43.2102 307.248 42.9305C307.892 42.7161 308.564 42.5957 309.242 42.5732C309.877 42.516 310.515 42.6399 311.083 42.9305C311.265 43.0833 311.406 43.2785 311.494 43.499C311.582 43.7195 311.615 43.9583 311.589 44.1943C311.413 45.3269 310.875 46.372 310.055 47.1729C309.033 48.3999 307.709 49.8053 306.086 51.3892C305.443 52.0262 304.7 52.742 303.859 53.5364C303.017 54.3309 302.229 55.0932 301.495 55.8233C300.608 56.6505 299.721 57.4925 298.834 58.3494C298.7 59.0658 298.716 59.8023 298.882 60.5121C299.048 61.2218 299.36 61.8893 299.797 62.4721C300.239 62.8652 300.755 63.1665 301.315 63.3587C301.874 63.5509 302.466 63.6301 303.057 63.5918C304.297 63.5829 305.525 63.3491 306.682 62.9016C307.818 62.4805 308.922 61.9787 309.986 61.4C311.167 60.7528 312.288 60.003 313.337 59.1592C313.429 59.2935 313.507 59.4375 313.567 59.5887C313.596 59.7439 313.595 59.9031 313.564 60.058ZM307.688 46.3324C307.688 45.8247 307.55 45.5057 307.276 45.3784C306.987 45.2491 306.673 45.1842 306.356 45.1882C305.582 45.2472 304.834 45.4924 304.176 45.9029C303.208 46.4663 302.372 47.2297 301.722 48.1422C301.343 48.655 301.006 49.1971 300.713 49.7634C300.356 50.4422 300.042 51.1424 299.771 51.86C299.473 52.6449 299.227 53.4489 299.037 54.2665C298.84 55.0875 298.725 55.926 298.693 56.7696C299.306 56.2297 299.934 55.6735 300.575 55.1009C301.126 54.5896 301.723 54.0334 302.365 53.4321C303.007 52.8309 303.62 52.2118 304.205 51.5748C305.215 50.495 306.048 49.5262 306.707 48.6683C307.278 48.0165 307.623 47.1968 307.688 46.3324Z" fill="url(#paint7_linear)"/>
<path d="M335.114 59.9616C334.669 60.2807 334.194 60.6145 333.69 60.9632C333.186 61.3119 332.675 61.6616 332.156 62.0123C331.635 62.362 331.161 62.6636 330.733 62.9172C329.813 63.4898 329.033 63.9428 328.393 64.2761C327.753 64.6094 327.209 64.8712 326.762 65.0614C326.401 65.2242 326.024 65.3521 325.638 65.4433C325.367 65.5026 325.09 65.5344 324.813 65.5384C324.651 65.5579 324.488 65.5243 324.347 65.4427C324.206 65.3611 324.096 65.2358 324.032 65.0859C323.914 64.8067 323.852 64.5072 323.848 64.204C323.896 63.2231 324.042 62.2495 324.284 61.2975C324.574 59.9939 325.01 58.1508 325.592 55.7684L326.052 53.8619L325.867 53.7668C325.207 54.5128 324.587 55.2925 324.009 56.1027C323.293 57.0874 322.49 58.1196 321.598 59.1994C320.79 60.2234 319.919 61.1966 318.991 62.1135C318.351 62.7418 317.66 63.3158 316.925 63.8298C316.426 64.1857 315.877 64.4663 315.296 64.6626C314.873 64.7972 314.432 64.8695 313.988 64.8773C313.693 64.9064 313.396 64.8413 313.14 64.6914C312.885 64.5415 312.683 64.3145 312.564 64.043C312.314 63.4621 312.189 62.8349 312.198 62.2025C312.203 61.9455 312.226 61.6893 312.267 61.4356C312.311 61.1181 312.373 60.7853 312.449 60.434C312.524 60.0911 312.632 59.7562 312.771 59.434C312.894 59.1432 313.056 58.8706 313.253 58.6242C313.506 58.3632 313.8 58.1455 314.124 57.98C314.433 57.8168 314.756 57.6813 315.089 57.5751C315.089 57.798 315.081 58.1078 315.066 58.5046C315.05 58.8959 315.081 59.2877 315.158 59.6718C315.223 60.0273 315.355 60.3672 315.547 60.6733C315.635 60.8117 315.757 60.9243 315.903 60.9995C316.048 61.0747 316.211 61.1098 316.374 61.1012C316.604 61.1003 316.835 61.0845 317.063 61.0537C317.392 60.9898 317.705 60.8605 317.983 60.6733C318.459 60.3667 318.905 60.0154 319.314 59.6242C319.995 58.9783 320.639 58.2942 321.242 57.5751C321.976 56.7172 322.619 55.9544 323.17 55.2867C323.721 54.619 324.203 54.0158 324.617 53.4769C325.026 52.937 325.393 52.4447 325.718 51.9999C326.043 51.5551 326.341 51.1098 326.612 50.664C326.919 49.6159 327.256 48.6078 327.623 47.6394C327.967 46.7186 328.366 45.8188 328.816 44.9446C329.04 44.6503 329.332 44.4138 329.666 44.2544C330.008 44.0808 330.361 43.9271 330.721 43.7943C331.041 43.6758 331.372 43.588 331.709 43.532C331.936 43.4919 332.165 43.4679 332.396 43.46C332.733 43.46 332.9 43.6824 332.9 44.1271C332.876 44.517 332.799 44.9018 332.672 45.2713C332.518 45.7826 332.32 46.345 332.075 46.9585C331.831 47.572 331.563 48.2074 331.272 48.8649C330.98 49.5173 330.697 50.1308 330.422 50.7054C330.086 51.5623 329.75 52.5551 329.413 53.684C329.075 54.8128 328.768 55.9084 328.492 56.9708C328.217 58.0373 327.988 58.9908 327.805 59.8313C327.668 60.3709 327.576 60.9208 327.529 61.4755C327.529 61.6979 327.529 61.9448 327.552 62.2147C327.575 62.4847 327.773 62.6196 328.166 62.6196C328.682 62.5992 329.189 62.4773 329.658 62.2608C330.295 61.9872 330.916 61.6769 331.517 61.3313C332.189 60.9509 332.885 60.5225 333.604 60.046C334.324 59.5695 335.036 59.093 335.739 58.6165L336.152 59.1871C335.898 59.3875 335.552 59.6457 335.114 59.9616Z" fill="url(#paint8_linear)"/>
<path d="M348.808 54.434C348.756 55.3817 348.549 56.3145 348.194 57.1948C347.758 58.38 347.112 59.4775 346.289 60.4356C345.704 61.1716 345.076 61.8722 344.407 62.5338C343.739 63.1952 343.018 63.8005 342.251 64.3436C341.494 64.8801 340.669 65.3129 339.797 65.6304C338.891 65.954 337.935 66.1154 336.973 66.1074C336.63 66.1315 336.287 66.0622 335.98 65.9069C335.673 65.7517 335.413 65.5162 335.229 65.2255C334.865 64.6476 334.674 63.9776 334.679 63.2945C334.68 62.7766 334.718 62.2594 334.794 61.747C334.869 61.2224 334.984 60.6503 335.137 60.0307C335.291 59.4111 335.495 58.7204 335.751 57.9586C336.011 57.1948 336.325 56.3364 336.693 55.3834C336.906 54.8456 337.167 54.2321 337.473 53.5429C337.78 52.8537 338.116 52.1625 338.483 51.4693C338.849 50.7709 339.216 50.0879 339.584 49.4202C339.952 48.7525 340.304 48.1651 340.639 47.6579C340.958 47.1635 341.303 46.6864 341.673 46.2284C342.022 45.7862 342.406 45.3718 342.82 44.9891C343.166 44.6674 343.543 44.3798 343.944 44.1302C344.244 43.93 344.593 43.815 344.953 43.7974C345.1 43.7957 345.244 43.8368 345.368 43.9155C345.427 43.9541 345.475 44.0076 345.507 44.0706C345.539 44.1336 345.554 44.2039 345.55 44.2744C345.465 44.7285 345.268 45.1541 344.976 45.5122C344.595 46.0843 344.188 46.7392 343.762 47.4662C343.486 47.9437 343.248 48.389 343.05 48.8021C342.852 49.2152 342.66 49.6436 342.476 50.0874C342.292 50.5337 342.085 51.0168 341.855 51.5414C341.625 52.0659 341.358 52.7101 341.052 53.4724C341.636 52.8873 342.32 52.4111 343.072 52.0659C343.918 51.6647 344.844 51.4607 345.78 51.4693C346.578 51.4225 347.366 51.6593 348.006 52.138C348.302 52.437 348.527 52.7983 348.666 53.1954C348.805 53.5926 348.853 54.0157 348.808 54.434ZM345.182 57.0077C345.222 56.3646 345.07 55.7241 344.746 55.1672C344.481 54.7594 344.096 54.443 343.645 54.2607C343.177 54.0841 342.67 54.0349 342.176 54.1181C341.625 54.2025 341.091 54.3717 340.591 54.6196C340.103 55.9213 339.667 57.1283 339.285 58.2408C338.887 59.4395 338.693 60.696 338.71 61.9586C338.678 62.4097 338.827 62.8548 339.124 63.1964C339.32 63.3587 339.547 63.4803 339.791 63.554C340.035 63.6277 340.292 63.6522 340.545 63.6258C341.119 63.5966 341.667 63.3812 342.107 63.0123C342.692 62.5628 343.204 62.024 343.622 61.4157C344.088 60.7512 344.465 60.0295 344.746 59.2684C345.027 58.5472 345.176 57.7815 345.187 57.0077H345.182Z" fill="url(#paint9_linear)"/>
<path d="M377.041 50.2878C376.823 50.9139 376.403 51.4501 375.848 51.8123C375.043 52.3405 374.102 52.622 373.139 52.6222C372.71 52.6539 372.343 52.6702 372.038 52.6713H371.257C371.042 52.6734 370.827 52.6569 370.615 52.6222C370.585 53.3421 370.462 54.0552 370.248 54.7434C369.968 55.7048 369.599 56.6383 369.147 57.5317C368.625 58.568 368.026 59.5637 367.355 60.5103C366.658 61.5045 365.85 62.4158 364.946 63.2266C364.048 64.0327 363.035 64.6996 361.94 65.2051C360.834 65.7153 359.63 65.977 358.412 65.972C357.492 66.0296 356.57 65.8748 355.719 65.5195C354.868 65.1642 354.11 64.6179 353.504 63.9229C352.235 62.0997 351.635 59.8939 351.805 57.679C351.824 55.7409 352.118 53.8153 352.677 51.9596C353.276 49.9163 354.075 47.9372 355.064 46.0516C356.079 44.1069 357.27 42.2587 358.621 40.53C359.912 38.8581 361.357 37.3104 362.937 35.9073C364.346 34.6431 365.921 33.5771 367.618 32.7385C369.076 31.9955 370.685 31.5957 372.322 31.5698C372.652 31.5719 372.982 31.596 373.309 31.6419C373.653 31.6869 373.983 31.8091 374.273 31.9993C374.572 32.1983 374.816 32.4687 374.984 32.7861C375.188 33.2085 375.283 33.6751 375.26 34.1435C375.263 34.7685 375.129 35.3865 374.869 35.9548C374.633 36.4878 374.323 36.985 373.949 37.4319C373.64 37.8075 373.278 38.1366 372.875 38.4089C372.621 38.6031 372.32 38.7264 372.003 38.7662C371.819 38.7662 371.727 38.6558 371.727 38.4334C371.75 38.2247 371.812 38.0223 371.911 37.8368C372.069 37.3044 372.131 36.7482 372.095 36.1941C372.127 35.9038 372.082 35.6102 371.965 35.3425C371.848 35.0748 371.664 34.8423 371.429 34.668C370.971 34.3789 370.437 34.2302 369.895 34.2401C368.689 34.2504 367.502 34.5435 366.429 35.0959C365.226 35.7078 364.126 36.5043 363.17 37.4564C362.093 38.5196 361.132 39.6933 360.302 40.958C359.395 42.3275 358.604 43.7707 357.938 45.2724C357.249 46.8121 356.689 48.406 356.262 50.0378C355.842 51.6205 355.581 53.2409 355.481 54.8753C355.389 56.1126 355.397 57.3554 355.504 58.5915C355.583 59.6133 355.815 60.6175 356.193 61.5701C356.498 62.3491 356.996 63.0382 357.639 63.5732C358.279 64.0752 359.076 64.3364 359.889 64.3109C360.761 64.3242 361.619 64.0931 362.366 63.6437C363.116 63.1862 363.783 62.606 364.34 61.9275C364.937 61.2048 365.446 60.4134 365.855 59.5701C366.27 58.7307 366.622 57.8624 366.911 56.9719C367.17 56.1783 367.37 55.3661 367.507 54.5424C367.62 53.913 367.667 53.2735 367.645 52.6345C367.354 52.6356 367.064 52.6519 366.774 52.6835C366.491 52.716 366.205 52.7077 365.924 52.659C365.689 52.6228 365.467 52.5243 365.282 52.3737C365.188 52.2766 365.117 52.16 365.073 52.0323C365.029 51.9045 365.014 51.7687 365.029 51.6344C365.015 51.4126 365.059 51.191 365.155 50.9907C365.252 50.7904 365.398 50.6181 365.579 50.4903C365.928 50.2417 366.346 50.1081 366.774 50.1083C367.389 50.0995 368.004 50.1318 368.615 50.205C369.075 50.2679 369.655 50.3169 370.359 50.3476C371.155 50.3803 371.79 50.4044 372.263 50.4197C372.737 50.435 373.296 50.4427 373.94 50.4427C374.644 50.4427 375.254 50.4274 375.78 50.3952C376.306 50.3629 376.704 50.32 377.041 50.2878Z" fill="url(#paint10_linear)"/>
<path d="M395.378 61.417C394.322 62.2585 393.244 63.0612 392.143 63.825C391.139 64.526 390.097 65.1702 389.022 65.7545C388.312 66.1929 387.51 66.4621 386.68 66.5413C386.466 66.5476 386.255 66.4954 386.069 66.3902C385.883 66.2851 385.729 66.1309 385.624 65.9446C385.364 65.4882 385.237 64.968 385.258 64.4431C385.261 64.0607 385.284 63.6788 385.327 63.2989C385.371 62.8551 385.422 62.4185 385.48 61.9891C385.539 61.5596 385.608 61.1465 385.687 60.7498C385.763 60.3521 385.832 60.0264 385.894 59.7728H385.71C384.486 61.4062 383.006 62.8306 381.327 63.9906C380.109 64.9073 378.649 65.446 377.127 65.5397C376.674 65.6011 376.212 65.5251 375.802 65.3214C375.392 65.1177 375.052 64.7957 374.827 64.3971C374.419 63.4171 374.231 62.3595 374.276 61.2989C374.29 60.327 374.414 59.3597 374.644 58.4154C374.901 57.3129 375.254 56.2351 375.7 55.1945C376.165 54.1033 376.717 53.0513 377.351 52.0488C377.982 51.0499 378.721 50.124 379.555 49.288C381.164 47.5877 383.079 46.2057 385.2 45.2144C386.837 44.497 388.601 44.1162 390.388 44.0947C390.773 44.1029 391.157 44.1424 391.536 44.2128C392.004 44.2953 392.458 44.4397 392.888 44.6423C393.322 44.8418 393.712 45.1254 394.036 45.4766C394.364 45.8419 394.537 46.3204 394.519 46.811C394.523 47.106 394.5 47.4007 394.45 47.6914C394.407 47.9203 394.321 48.1389 394.197 48.3356C394.048 48.5557 393.879 48.7611 393.692 48.9491C393.477 49.1715 393.217 49.4245 392.911 49.7159C392.682 50.3816 392.398 51.0274 392.063 51.647C391.66 52.4225 391.314 53.2269 391.029 54.0534C390.325 56.0555 389.736 57.7707 389.263 59.1992C388.935 60.046 388.697 60.9244 388.551 61.8204C388.5 62.2884 388.588 62.7611 388.804 63.1793C388.875 63.2745 388.968 63.3518 389.075 63.405C389.181 63.4583 389.298 63.486 389.417 63.486C390.048 63.4648 390.666 63.3079 391.23 63.0259C391.942 62.693 392.625 62.3026 393.273 61.8587C393.976 61.3812 394.695 60.849 395.43 60.2621C396.165 59.6751 396.884 59.1128 397.588 58.5749L398 59.147C397.312 59.8178 396.438 60.5744 395.378 61.417ZM391.453 47.2865C391.378 47.0463 391.234 46.8332 391.04 46.673C390.817 46.4764 390.57 46.3085 390.305 46.173C390.044 46.0367 389.767 45.9336 389.48 45.8662C389.285 45.8152 389.085 45.7833 388.884 45.7711C388.125 45.766 387.369 45.8625 386.635 46.0579C385.909 46.2568 385.22 46.5701 384.592 46.9859C383.874 47.4648 383.219 48.0316 382.641 48.673C381.91 49.4884 381.25 50.3648 380.667 51.2926C380.261 51.9428 379.915 52.6287 379.634 53.3418C379.314 54.1362 379.023 54.9389 378.762 55.7497C378.514 56.5143 378.315 57.294 378.166 58.0841C378.043 58.6903 377.974 59.3062 377.959 59.9246C377.873 60.6637 378.079 61.407 378.532 61.9967C378.689 62.1639 378.878 62.2984 379.087 62.3926C379.296 62.4868 379.521 62.5389 379.75 62.5458C381.072 62.4242 382.314 61.8619 383.278 60.9492C384.851 59.5221 386.076 57.7527 386.858 55.7774C387.278 54.857 387.637 53.9096 387.931 52.9414C388.172 52.1248 388.455 51.3215 388.781 50.535C388.905 50.2084 389.051 49.8902 389.217 49.5825C389.413 49.2045 389.644 48.8452 389.905 48.5089C390.141 48.2021 390.402 47.9158 390.686 47.653C390.883 47.4376 391.155 47.3059 391.447 47.2849L391.453 47.2865Z" fill="url(#paint11_linear)"/>
<path d="M20.9685 32.661L23.5923 37.511L23.318 37.6569L22.133 38.2922L22.286 38.5767L23.471 37.9424L23.7453 37.7956L24.1043 38.4655L23.8299 38.6124L22.646 39.2467L22.7979 39.5332L23.9829 38.8979L24.2572 38.7511L24.6162 39.4211L23.1569 40.2022L23.3109 40.4888L24.7692 39.7056L25.1271 40.3766L23.6688 41.1578L23.8228 41.4433L25.2801 40.6621L25.64 41.3331L24.1818 42.1143L24.3347 42.3988L25.793 41.6177L26.3029 42.5701L25.7043 42.8903L24.7865 43.3809L24.1889 43.7021L18.8606 33.8042L18.4863 34.0081L23.8626 43.9917C23.901 44.0615 23.9651 44.1135 24.0413 44.1367C24.1174 44.1599 24.1997 44.1525 24.2705 44.1161L24.9752 43.7398L25.1169 44.005L24.9711 44.0825L26.5007 46.2383L26.668 46.1485L28.4434 49.474L29.249 50.2796L26.9647 45.9915L27.133 45.9017L26.1856 43.4349L26.0408 43.5124L25.8981 43.2473L26.6027 42.871C26.6733 42.8321 26.7258 42.7668 26.7485 42.6895C26.7605 42.6513 26.7647 42.6112 26.7609 42.5714C26.757 42.5317 26.7452 42.4931 26.7261 42.458L21.3427 32.457L20.9685 32.661Z" fill="#232323"/>
<path d="M22.1532 28.6747C21.2038 29.5276 20.1447 30.2499 19.0041 30.8224L18.4942 29.8862C18.8654 29.7027 19.4977 29.3947 20.0239 29.1795C21.1762 28.5758 20.3615 27.8477 19.8822 28.3076C18.6546 29.2676 17.2761 30.0171 15.8031 30.5256C15.1565 30.6776 15.3952 31.8697 16.4567 31.1202C16.9666 30.7622 17.5397 30.4196 17.8844 30.2187L18.3943 31.1558C17.2932 31.8007 16.1111 32.2959 14.8791 32.6284C13.2302 32.9619 13.5616 34.7373 14.8282 34.1805C17.6907 32.9241 18.4993 34.0102 18.4993 34.0102L19.8383 33.2831L20.0137 33.1883L21.3527 32.4601C21.3527 32.4601 20.8795 31.1936 23.4942 29.4763C24.6394 28.7165 23.33 27.4724 22.1532 28.6747Z" fill="#232323"/>
<path d="M57.864 38.287L53.1149 41.0873L52.9579 40.8191L52.2797 39.6586L52.0014 39.8218L52.6785 40.9823L52.8355 41.2505L52.1788 41.6339L52.0228 41.3657L51.3456 40.2052L51.0642 40.3684L51.7454 41.5289L51.9014 41.7971L51.2457 42.1815L50.4105 40.7538L50.1301 40.918L50.9663 42.3457L50.3085 42.7281L49.4743 41.3004L49.1949 41.4646L50.0291 42.8923L49.3724 43.2768L48.5372 41.8491L48.2588 42.0122L49.093 43.4399L48.1599 43.9855L47.8182 43.3991L47.2941 42.5007L46.9463 41.9123L56.6413 36.224L56.4241 35.8579L46.6465 41.5982C46.6119 41.618 46.5817 41.6446 46.5575 41.6763C46.5333 41.708 46.5157 41.7442 46.5058 41.7828C46.4853 41.8611 46.4967 41.9443 46.5374 42.0143L46.9392 42.7047L46.6802 42.8556L46.5965 42.7139L44.4999 44.32L44.5957 44.4842L41.3376 46.381L40.5615 47.2151L44.762 44.7677L44.8578 44.9319L47.2869 43.8948L47.2043 43.753L47.4644 43.6011L47.8672 44.2904C47.9082 44.36 47.9751 44.4105 48.0532 44.4309C48.1314 44.4514 48.2144 44.4401 48.2843 44.3995L58.0782 38.649L57.864 38.287Z" fill="#232323"/>
<path d="M61.8886 39.3254C61.0024 38.4074 60.2418 37.3759 59.6268 36.258L60.5446 35.7154C60.7424 36.0795 61.0728 36.6995 61.3074 37.2176C61.9529 38.3464 62.6504 37.5051 62.1742 37.0432C61.1661 35.8504 60.3644 34.4975 59.8022 33.0406C59.6257 32.4012 58.4428 32.6826 59.2321 33.7167C59.6074 34.2092 59.9715 34.7732 60.1846 35.1097L59.2668 35.6532C58.5821 34.5763 58.0437 33.4131 57.6657 32.1941C57.2731 30.5625 55.511 30.9551 56.1137 32.2003C57.474 35.0138 56.4196 35.8592 56.4196 35.8592L57.1956 37.1706L57.2976 37.342L58.0747 38.6534C58.0747 38.6534 59.3229 38.1343 61.134 40.6807C61.9437 41.8106 63.1338 40.4574 61.8886 39.3254Z" fill="#232323"/>
<path d="M62.1378 17.3919L59.2457 20.4421L59.0744 20.2789L58.333 19.5651L58.1637 19.7435L58.9041 20.4513L59.0754 20.6154L58.6746 21.0346L58.5043 20.8704L57.764 20.1627L57.5926 20.3411L58.333 21.0488L58.5043 21.213L58.1046 21.6322L57.1919 20.7602L57.0216 20.9387L57.9343 21.8096L57.5325 22.2287L56.6208 21.3568L56.4505 21.5363L57.3622 22.4072L56.9614 22.8273L56.0436 21.9554L55.8743 22.1339L56.786 23.0058L56.217 23.6013L55.8427 23.2434L55.2696 22.6948L54.8964 22.3378L60.806 16.1315L60.5694 15.9092L54.6088 22.1706C54.5878 22.1926 54.5713 22.2184 54.5602 22.2468C54.5492 22.2751 54.5439 22.3054 54.5446 22.3358C54.5452 22.3661 54.5518 22.3961 54.5641 22.4239C54.5763 22.4518 54.594 22.4769 54.6159 22.4979L55.0555 22.9201L54.8974 23.0853L54.8066 22.9987L53.6074 24.617L53.7093 24.719L51.7198 26.7932L51.3271 27.5683L53.8909 24.8924L53.9928 24.9944L55.5551 23.7237L55.4644 23.637L55.6235 23.4708L56.063 23.892C56.1078 23.9341 56.1674 23.9569 56.2288 23.9554C56.2903 23.9539 56.3487 23.9281 56.3914 23.8838L62.3632 17.6132L62.1378 17.3919Z" fill="#232323"/>
<path d="M65.308 17.3059C64.4656 16.8194 63.6916 16.223 63.0063 15.5325L63.5642 14.9431C63.7854 15.1675 64.1577 15.555 64.4381 15.8833C65.152 16.5747 65.4834 15.812 65.0367 15.5774C64.0493 14.9149 63.179 14.0926 62.4618 13.1442C62.1987 12.7118 61.391 13.1667 62.1864 13.7561C62.5648 14.0375 62.9503 14.3751 63.1777 14.5719L62.6188 15.1634C61.8905 14.518 61.2513 13.7786 60.718 12.9647C60.0867 11.8481 58.8824 12.5089 59.5819 13.2952C61.1707 15.0716 60.5742 15.9119 60.5742 15.9119L61.4185 16.7104L61.5287 16.8124L62.3741 17.6108C62.3741 17.6108 63.1797 16.9674 65.0428 18.4532C65.8668 19.117 66.4573 17.8739 65.308 17.3059Z" fill="#232323"/>
<path d="M88.4573 23.4147L85.7518 23.6024L85.7416 23.4494L85.6988 22.7896L85.5397 22.8008L85.5826 23.4596L85.5927 23.6126L85.2195 23.637L85.2093 23.4841L85.1665 22.8253L85.0074 22.8345L85.0513 23.4943L85.0604 23.6472L84.6872 23.6717L84.6342 22.8559L84.4751 22.8671L84.5291 23.6829L84.1549 23.7074L84.1029 22.8916L83.9428 22.9028L83.9968 23.7186L83.6225 23.7431L83.5695 22.9273L83.4115 22.9385L83.4635 23.7543L82.9332 23.789L82.9118 23.4565L82.8791 22.9467L82.8567 22.6142L88.3737 22.243L88.3594 22.0391L82.7935 22.4133C82.7541 22.4164 82.7176 22.4347 82.6915 22.4643C82.6784 22.4789 82.6683 22.496 82.662 22.5146C82.6557 22.5332 82.6533 22.5528 82.6548 22.5724L82.6803 22.965L82.5324 22.9742V22.8936L81.2557 23.1394L81.2618 23.2322L79.4109 23.3505L78.8867 23.5473L81.273 23.3943L81.2791 23.4871L82.5732 23.5565V23.4759L82.7211 23.4657L82.7466 23.8583C82.7479 23.8779 82.7531 23.8969 82.7618 23.9144C82.7706 23.9319 82.7827 23.9475 82.7975 23.9603C82.8272 23.9867 82.866 24.0003 82.9056 23.998L88.4807 23.6238L88.4573 23.4147Z" fill="#232323"/>
<path d="M90.0044 24.757C89.816 24.1583 89.7084 23.5373 89.6842 22.9102L90.2064 22.8724C90.2135 23.0764 90.2227 23.4221 90.2064 23.7015C90.2421 24.3399 90.7346 24.1237 90.6265 23.8157C90.4458 23.07 90.391 22.2993 90.4644 21.5355C90.5276 21.2143 89.9453 21.0786 90.0646 21.7068C90.1217 22.0066 90.1584 22.335 90.1778 22.5298L89.6547 22.5675C89.5901 21.943 89.609 21.3127 89.7108 20.6932C89.8974 19.8865 89.0346 19.6734 89.0265 20.3536C89.0061 21.8914 88.3555 22.0311 88.3555 22.0311L88.4085 22.7786L88.4156 22.8806L88.4687 23.6281C88.4687 23.6281 89.1325 23.674 89.3691 25.1934C89.4772 25.8624 90.3032 25.5289 90.0044 24.757Z" fill="#232323"/>
<path d="M8.30904 38.4272L14.2237 42.1208L14.0137 42.4533L13.1071 43.8911L13.4528 44.1084L14.3594 42.6715L14.5694 42.339L15.3853 42.8489L15.1752 43.1804L14.2696 44.6172L14.6153 44.8375L15.5219 43.3986L15.7259 43.0672L16.5417 43.5771L15.425 45.3474L15.7728 45.5656L16.8874 43.7953L17.7032 44.3052L16.5876 46.0745L16.9343 46.2927L18.0489 44.5234L18.8647 45.0333L17.7491 46.8036L18.0948 47.0198L19.2104 45.2515L20.3669 45.9796L19.908 46.7047L19.2064 47.8173L18.7495 48.5423L6.71616 40.9858L6.43164 41.4427L18.5731 49.0655C18.6595 49.1193 18.7637 49.1369 18.863 49.1143C18.9623 49.0918 19.0486 49.031 19.1034 48.9451L19.6428 48.0916L19.9651 48.2956L19.8529 48.471L22.8786 49.8864L23.0071 49.6824L27.0341 52.2319L28.4231 52.6153L23.2294 49.3306L23.3568 49.1267L20.7768 47.0066L20.6657 47.182L20.3434 46.978L20.8829 46.1244C20.9365 46.0377 20.9537 45.9332 20.9308 45.8338C20.9202 45.7844 20.8998 45.7376 20.8707 45.6962C20.8416 45.6548 20.8045 45.6198 20.7615 45.5931L8.6007 37.9561L8.30904 38.4272Z" fill="url(#paint12_linear)"/>
<path d="M7.12522 33.3032C6.61302 34.8333 5.89937 36.2884 5.00307 37.6301L3.8599 36.9163C4.15359 36.4819 4.65634 35.7486 5.09995 35.1827C5.99021 33.8009 4.64002 33.5092 4.39936 34.3128C3.6497 36.1369 2.60014 37.8228 1.29415 39.3005C0.682281 39.8716 1.68472 41.0341 2.38428 39.5453C2.71775 38.8375 3.1379 38.0992 3.39182 37.6638L4.53601 38.3776C3.72835 39.774 2.7379 41.0563 1.5909 42.1906C-0.0152441 43.5866 1.45731 45.3315 2.50258 43.9242C4.86539 40.7557 6.42871 41.4482 6.42871 41.4482L7.44848 39.8165L7.58106 39.6034L8.60083 37.9667C8.60083 37.9667 7.2894 36.8694 9.09032 33.3512C9.88472 31.797 7.66876 31.2463 7.12522 33.3032Z" fill="url(#paint13_linear)"/>
<path d="M41.2322 24.9735L38.9704 31.5684L38.6002 31.4389L36.994 30.8811L36.8605 31.2676L38.4656 31.8254L38.8368 31.9549L38.5217 32.8625L38.1505 32.734L36.5464 32.1762L36.4097 32.5627L38.0159 33.1205L38.3871 33.25L38.0719 34.1576L36.0946 33.4713L35.961 33.8588L37.9373 34.5441L37.6212 35.4528L35.6449 34.7654L35.5113 35.1529L37.4866 35.8382L37.1715 36.7479L35.1941 36.0616L35.0616 36.447L37.0369 37.1344L36.5892 38.4254L35.7734 38.1429L34.5323 37.7105L33.7226 37.4301L38.3595 23.9976L37.8496 23.8232L33.178 37.374C33.161 37.4216 33.1537 37.4721 33.1565 37.5225C33.1593 37.5729 33.1722 37.6223 33.1944 37.6677C33.2164 37.7133 33.2471 37.754 33.2849 37.7876C33.3227 37.8212 33.3668 37.847 33.4146 37.8635L34.3681 38.1959L34.2437 38.5549L34.0469 38.4866L33.3524 41.7499L33.5788 41.8284L32.0084 46.3286L31.9492 47.7675L33.9735 41.965L34.1999 42.0446L35.6816 39.0505L35.4858 38.9822L35.6102 38.6222L36.5637 38.9547C36.6602 38.9873 36.7657 38.9807 36.8574 38.9363C36.903 38.9145 36.9439 38.8837 36.9775 38.8459C37.0111 38.8081 37.0369 38.7639 37.0532 38.716L41.7441 25.1438L41.2322 24.9735Z" fill="url(#paint14_linear)"/>
<path d="M45.9538 22.662C44.3488 22.5088 42.7714 22.1429 41.2628 21.5739L41.6972 20.2992C42.1867 20.4869 43.0138 20.8091 43.6644 21.115C45.2124 21.6688 45.1941 20.288 44.3538 20.236C42.4077 19.9168 40.5284 19.2758 38.7929 18.3392C38.0974 17.8691 37.1929 19.1122 38.8011 19.461C39.5659 19.6251 40.3797 19.8689 40.8621 20.0167L40.4266 21.2925C38.8821 20.8216 37.4074 20.1467 36.0416 19.2856C34.3192 18.0374 32.9527 19.8668 34.5547 20.5674C38.1749 22.1521 37.8547 23.8307 37.8547 23.8307L39.6781 24.4528L39.9167 24.5343L41.7401 25.1554C41.7401 25.1554 42.5131 23.6308 46.3474 24.5884C48.0443 25.0085 48.08 22.7253 45.9538 22.662Z" fill="url(#paint15_linear)"/>
<path d="M77.591 19.7947L74.1727 21.3611L74.085 21.1683L73.7057 20.3331L73.5017 20.4249L73.88 21.2591L73.9677 21.4518L73.4956 21.666L73.4079 21.4732L73.0296 20.6391L72.8256 20.7288L73.205 21.564L73.2927 21.7577L72.8205 21.9719L72.3534 20.944L72.1495 21.0347L72.6165 22.0627L72.1434 22.2768L71.6773 21.2489L71.4734 21.3407L71.9394 22.3676L71.4662 22.5827L71.0002 21.5538L70.7962 21.6456L71.2613 22.6735L70.5903 22.9794L70.3996 22.5583L70.1069 21.9117L69.9162 21.4916L76.8914 18.3119L76.7701 18.0488L69.7337 21.256C69.7087 21.267 69.6861 21.2829 69.6674 21.3028C69.6487 21.3226 69.6342 21.346 69.6246 21.3716C69.6151 21.3972 69.6109 21.4244 69.6121 21.4517C69.6133 21.479 69.6199 21.5057 69.6317 21.5303L69.856 22.027L69.6694 22.1116L69.6225 22.0096L68.0877 22.9529L68.1408 23.0712L65.7953 24.1287L65.2109 24.6386L68.2315 23.2742L68.2856 23.3914L70.0069 22.8581L69.96 22.7561L70.1477 22.6715L70.372 23.1681C70.3959 23.216 70.4376 23.2527 70.4883 23.2701C70.5134 23.2807 70.5405 23.2862 70.5678 23.2862C70.5951 23.2862 70.6222 23.2807 70.6474 23.2701L77.696 20.0578L77.591 19.7947Z" fill="url(#paint16_linear)"/>
<path d="M80.2502 20.7818C79.7125 20.096 79.2687 19.3415 78.9306 18.5383L79.5904 18.2323C79.6995 18.4934 79.8801 18.938 79.9983 19.3051C80.3573 20.1209 80.8896 19.5947 80.599 19.248C79.9999 18.3685 79.5518 17.3952 79.2733 16.3682C79.1988 15.9225 78.3769 16.0306 78.8399 16.7873C79.0602 17.1473 79.2672 17.5562 79.3885 17.7989L78.7277 18.1048C78.3387 17.3262 78.0548 16.4995 77.8833 15.6462C77.7314 14.5081 76.5087 14.6539 76.8299 15.5442C77.556 17.5491 76.7799 18.0477 76.7799 18.0477L77.2144 18.9921L77.2715 19.1154L77.7059 20.0598C77.7059 20.0598 78.59 19.7946 79.6435 21.6506C80.1095 22.4715 81.013 21.6363 80.2502 20.7818Z" fill="url(#paint17_linear)"/>
<path d="M89.8132 4.01733L87.9205 5.51742L87.8359 5.41034L87.4728 4.94736L87.3616 5.03506L87.7247 5.49804L87.8093 5.60002L87.5473 5.80397L87.4636 5.6969L87.0996 5.23392L86.9874 5.32162L87.3515 5.7846L87.4361 5.88658L87.174 6.09053L86.7263 5.52048L86.6142 5.6092L87.0629 6.17823L86.8008 6.38219L86.3531 5.81213L86.2409 5.89983L86.6896 6.46988L86.4275 6.67384L85.9788 6.10379L85.8687 6.19149L86.3154 6.76154L85.9432 7.05422L85.7606 6.81967L85.4792 6.46173L85.2956 6.2282L89.1595 3.17907L89.0443 3.03223L85.1457 6.10991C85.1279 6.12196 85.1135 6.13846 85.104 6.15778C85.0945 6.1771 85.0903 6.19856 85.0916 6.22004C85.0887 6.23802 85.0896 6.25643 85.0943 6.27402C85.0991 6.29161 85.1076 6.30797 85.1192 6.32202L85.3343 6.59736L85.2324 6.67894L85.1875 6.62183L84.3717 7.44479L84.4237 7.51006L83.1235 8.52983L82.8369 8.93774L84.5124 7.62427L84.5644 7.68954L85.5556 7.09399L85.5118 7.03688L85.6138 6.9553L85.8289 7.23064C85.8513 7.25783 85.8833 7.27534 85.9183 7.27952C85.9532 7.2837 85.9884 7.27423 86.0166 7.25307L89.9223 4.17131L89.8132 4.01733Z" fill="url(#paint18_linear)"/>
<path d="M91.6184 4.22672C91.1788 3.88153 90.7869 3.47964 90.4528 3.03154L90.8179 2.74091C90.926 2.88673 91.1065 3.13658 91.239 3.34665C91.5868 3.79739 91.8397 3.3905 91.6051 3.21918C91.3516 2.991 91.1173 2.74236 90.9045 2.47576C90.6931 2.20822 90.5035 1.92416 90.3375 1.62629C90.2233 1.35911 89.7257 1.55185 90.1336 1.95364C90.3253 2.14434 90.5181 2.36767 90.6302 2.50126L90.2651 2.7919C89.9032 2.36566 89.5997 1.89308 89.3627 1.38665C89.0934 0.701357 88.3531 0.978736 88.6896 1.4825C89.4483 2.62159 89.0414 3.05194 89.0414 3.05194L89.4565 3.57406L89.5105 3.64239L89.9266 4.16451C89.9266 4.16451 90.4365 3.8647 91.3757 4.86102C91.7938 5.30258 92.2303 4.64279 91.6184 4.22672Z" fill="url(#paint19_linear)"/>
<path d="M55.1176 64.1678L48.539 61.8621L48.6695 61.4919L49.2386 59.8898L48.8531 59.7542L48.2851 61.3552L48.1535 61.7254L47.247 61.4042L47.3785 61.034L47.9475 59.434L47.5621 59.2953L46.993 60.8974L46.8625 61.2675L45.9559 60.9463L46.6555 58.9741L46.269 58.8374L45.5705 60.8097L44.6649 60.4864L45.3645 58.5162L44.978 58.3795L44.2794 60.3497L43.3718 60.0285L44.0714 58.0563L43.689 57.9227L42.9884 59.8939L41.7004 59.437L41.988 58.6284L42.4285 57.3893L42.7151 56.5817L56.117 61.3094L56.2934 60.7995L42.7712 56.031C42.7236 56.0139 42.6731 56.0063 42.6225 56.0088C42.572 56.0113 42.5225 56.0237 42.4768 56.0454C42.4311 56.0672 42.3902 56.0977 42.3563 56.1353C42.3225 56.1729 42.2964 56.2168 42.2796 56.2645L41.9411 57.216L41.5821 57.0885L41.6525 56.8917L38.3892 56.1778L38.3097 56.4042L33.8227 54.8032L32.3848 54.7349L38.173 56.7979L38.0924 57.0243L41.0763 58.5254L41.1457 58.3296L41.5046 58.457L41.1661 59.4085C41.133 59.5049 41.1392 59.6104 41.1834 59.7022C41.2046 59.7481 41.2349 59.7893 41.2724 59.8233C41.3099 59.8573 41.3538 59.8834 41.4016 59.9L54.9422 64.6777L55.1176 64.1678Z" fill="url(#paint20_linear)"/>
<path d="M57.399 68.9048C57.5625 67.2982 57.9397 65.7206 58.5208 64.2138L59.7914 64.6574C59.6007 65.1449 59.2713 65.9699 58.9623 66.6195C58.3984 68.1634 59.7782 68.1491 59.8373 67.3139C60.17 65.3698 60.8248 63.4949 61.7749 61.7664C62.2501 61.074 61.0131 60.1613 60.6531 61.7664C60.4838 62.5302 60.236 63.343 60.0841 63.8233L58.8114 63.3797C59.2936 61.8394 59.9796 60.3705 60.851 59.012C62.1104 57.2987 60.2911 55.919 59.5793 57.517C57.9701 61.127 56.2936 60.7945 56.2936 60.7945L55.6593 62.6148L55.5767 62.8524L54.9424 64.6717C54.9424 64.6717 56.4618 65.4539 55.4788 69.2821C55.0382 70.976 57.3205 71.031 57.399 68.9048Z" fill="url(#paint21_linear)"/>
<path d="M7.18958 52.8617L12.7025 52.7801V53.086L12.7178 54.4311H13.04L13.0257 53.0881V52.7821L13.7865 52.774V53.085L13.7998 54.4281H14.1241L14.1098 53.083V52.777L14.8695 52.7689L14.8879 54.424H15.2122L15.1928 52.7689L15.9535 52.7617L15.9709 54.4158H16.2962L16.2778 52.7628L17.0386 52.7536L17.0569 54.4087H17.3792L17.3618 52.7536L18.4428 52.7424L18.4499 53.4205L18.4601 54.4607L18.4683 55.1388L7.22833 55.2816L7.23547 55.7069L18.5743 55.562C18.6142 55.5622 18.6536 55.5542 18.6902 55.5386C18.7269 55.523 18.76 55.5001 18.7875 55.4713C18.8441 55.4136 18.8756 55.3359 18.8752 55.2551L18.867 54.4566H19.1729V54.6218L21.7907 54.2649V54.0742L25.5639 54.0395L26.651 53.6989L21.7907 53.7448V53.5541L19.1658 53.2482V53.4124H18.8599L18.8517 52.6139C18.85 52.5334 18.8167 52.4568 18.7589 52.4007C18.7307 52.3723 18.697 52.3498 18.6598 52.3348C18.6227 52.3197 18.5828 52.3123 18.5427 52.313L7.18652 52.4558L7.18958 52.8617Z" fill="#232323"/>
<path d="M4.20479 49.9685C4.52073 51.205 4.6706 52.4779 4.65044 53.7539L3.5858 53.7713C3.59395 53.3572 3.61434 52.6546 3.66635 52.0886C3.66635 50.7884 2.64658 51.1709 2.82708 51.8113C3.11108 53.3449 3.13727 54.9151 2.90459 56.4574C2.7404 57.1008 3.90702 57.4414 3.73366 56.1514C3.65106 55.5396 3.61434 54.8675 3.59599 54.4688L4.66268 54.4515C4.72431 55.726 4.61628 57.003 4.34145 58.2491C3.87235 59.8654 5.59984 60.3906 5.69264 59.0129C5.90374 55.8944 7.23965 55.6834 7.23965 55.6834L7.21415 54.1598V53.961L7.18866 52.4313C7.18866 52.4313 5.84663 52.2651 5.53356 49.1548C5.39181 47.7811 3.68267 48.3655 4.20479 49.9685Z" fill="#232323"/>
<path d="M5.76864 66.7213L11.7792 63.1908L11.974 63.5314L12.8285 65.0009L13.1814 64.7969L12.3299 63.3275L12.133 62.9879L12.9631 62.5045L13.161 62.8441L14.0145 64.3126L14.3694 64.1086L13.5138 62.6391L13.317 62.2995L14.1471 61.8161L15.1995 63.6242L15.5544 63.4203L14.501 61.6122L15.3331 61.1298L16.3845 62.9379L16.7383 62.7339L15.6859 60.9269L16.5181 60.4415L17.5705 62.2506L17.9223 62.0466L16.8689 60.2273L18.0498 59.54L18.4811 60.2814L19.142 61.4184L19.5733 62.1588L7.30441 69.3298L7.57772 69.7938L19.9547 62.5585C20.0425 62.5068 20.1064 62.4225 20.1324 62.324C20.1583 62.2254 20.1443 62.1206 20.0934 62.0323L19.5835 61.1594L19.9119 60.9677L20.0139 61.1482L22.6653 59.1219L22.5449 58.9179L26.6679 56.5266L27.6499 55.4731L22.3349 58.5569L22.2135 58.353L19.1511 59.6563L19.2531 59.8357L18.9247 60.0275L18.4149 59.1545C18.3632 59.0667 18.2788 59.0029 18.1802 58.9771C18.0816 58.9513 17.9767 58.9656 17.8887 59.0169L5.49023 66.2573L5.76864 66.7213Z" fill="url(#paint22_linear)"/>
<path d="M0.678908 65.3999C1.79898 66.5617 2.75922 67.8676 3.53427 69.2832L2.37479 69.9674C2.12494 69.5065 1.70785 68.7213 1.41314 68.0666C0.597319 66.6389 -0.284783 67.7005 0.316884 68.2858C0.950272 69.0394 1.52023 69.844 2.02092 70.6915C2.51923 71.539 2.9476 72.4258 3.30177 73.3429C3.52204 74.1526 5.01805 73.7987 4.02275 72.4904C3.54957 71.8673 3.09067 71.1524 2.82145 70.7262L3.98297 70.0419C4.84695 71.4043 5.5253 72.8759 6.00009 74.4177C6.49366 76.4869 8.72187 75.9892 7.96315 74.4177C6.24789 70.8577 7.58583 69.792 7.58583 69.792L6.60685 68.1319L6.47836 67.9146L5.5004 66.2555C5.5004 66.2555 3.92077 66.9091 1.63443 63.6856C0.620777 62.2579 -0.892565 63.9671 0.678908 65.3999Z" fill="url(#paint23_linear)"/>
<path d="M22.0814 74.3034L23.9354 69.1107L24.2281 69.2127L25.4926 69.6706L25.6017 69.3647L24.3382 68.9068L24.0455 68.8048L24.3045 68.091L24.5962 68.1929L25.8597 68.6508L25.9709 68.3449L24.7063 67.888L24.4147 67.786L24.6727 67.0722L26.2299 67.6351L26.339 67.3292L24.7828 66.7673L25.0429 66.0534L26.598 66.6164L26.7082 66.3104L25.153 65.7485L25.411 65.0347L26.9672 65.5976L27.0763 65.2917L25.5211 64.7288L25.8883 63.709L26.5266 63.9405L27.5046 64.2943L28.142 64.5248L24.3382 75.1019L24.74 75.2447L28.5764 64.5738C28.5895 64.5371 28.5952 64.4983 28.5933 64.4594C28.5914 64.4206 28.5818 64.3825 28.5652 64.3474C28.5312 64.2741 28.4696 64.2173 28.3938 64.1893L27.6423 63.917L27.7442 63.6345L27.8993 63.6906L28.4805 61.1137L28.3021 61.0484L29.59 57.5057L29.6512 56.3687L27.992 60.9362L27.8136 60.872L26.6123 63.2256L26.7673 63.2817L26.6653 63.5652L25.9148 63.2929C25.8388 63.266 25.7552 63.2702 25.6822 63.3046C25.6093 63.3389 25.5528 63.4007 25.5252 63.4765L21.6807 74.1637L22.0814 74.3034Z" fill="#232323"/>
<path d="M18.3225 76.0841C19.5914 76.221 20.8363 76.5266 22.0243 76.9927L21.6684 77.9961C21.283 77.8432 20.6323 77.578 20.1204 77.3302C18.8967 76.8775 18.9048 77.9696 19.5667 78.0196C21.1026 78.2916 22.5825 78.8175 23.9456 79.5758C24.4901 79.9541 25.2183 78.9802 23.9507 78.6916C23.347 78.554 22.7055 78.3531 22.3262 78.2317L22.6831 77.2262C23.8987 77.6148 25.0571 78.1635 26.1279 78.8578C27.4771 79.8623 28.5754 78.4295 27.317 77.8585C24.4698 76.5695 24.74 75.2438 24.74 75.2438L23.3031 74.7339L23.1165 74.6676L21.6796 74.1577C21.6796 74.1577 21.0535 75.357 18.0309 74.5605C16.693 74.2077 16.642 76.0127 18.3225 76.0841Z" fill="#232323"/>
<path d="M33.7819 80.583L32.5806 73.7158L32.9671 73.6496L34.6436 73.363L34.5733 72.9612L32.8988 73.2467L32.5113 73.312L32.3492 72.3646L32.7367 72.2994L34.4111 72.0138L34.3438 71.6059L32.6683 71.8915L32.2808 71.9578L32.1187 71.0104L34.1817 70.6586L34.1123 70.2507L32.0504 70.6045L31.8892 69.6561L33.9512 69.3043L33.8809 68.8964L31.8209 69.2492L31.6578 68.2998L33.7208 67.948L33.6504 67.5452L31.5884 67.897L31.359 66.5499L32.2043 66.4061L33.5005 66.1858L34.3449 66.041L36.7648 80.0517L37.2951 79.9579L34.8476 65.831C34.8392 65.7812 34.8211 65.7335 34.7942 65.6907C34.7673 65.648 34.7323 65.6109 34.6911 65.5817C34.6499 65.5525 34.6033 65.5318 34.554 65.5207C34.5047 65.5095 34.4538 65.5082 34.404 65.5169L33.4087 65.6861L33.3445 65.3109L33.5484 65.2762L32.5796 62.0792L32.343 62.12L31.5476 57.4199L30.9052 56.1309L31.9321 62.1893L31.6945 62.2301L31.8413 65.5668L32.0453 65.5322L32.1095 65.9074L31.1142 66.0767C31.0138 66.0949 30.9246 66.1518 30.8659 66.2352C30.8071 66.3186 30.7835 66.4217 30.8001 66.5224L33.2476 80.6717L33.7819 80.583Z" fill="url(#paint24_linear)"/>
<path d="M30.7618 84.8867C32.2424 84.2454 33.8017 83.804 35.3987 83.5742L35.6333 84.8999C35.1142 84.9713 34.2331 85.0866 33.5162 85.1345C31.8927 85.3955 32.578 86.5958 33.3367 86.2369C35.1952 85.577 37.1509 85.2324 39.1229 85.2171C39.9581 85.2936 40.1509 83.768 38.5763 84.2422C37.8268 84.4676 36.9967 84.6501 36.5031 84.7521L36.2686 83.4264C37.8477 83.0947 39.464 82.9746 41.0748 83.0694C43.1847 83.3325 43.4998 81.0707 41.758 81.2338C37.8227 81.5928 37.2935 79.9673 37.2935 79.9673L35.3957 80.3028L35.1479 80.3456L33.2501 80.6811C33.2501 80.6811 33.3092 82.3903 29.4891 83.4019C27.7983 83.8404 28.8691 85.8565 30.7618 84.8867Z" fill="url(#paint25_linear)"/>
<path d="M43.7597 72.6996L40.679 68.1269L40.937 67.9546L42.0588 67.2071L41.8793 66.9399L40.7575 67.6853L40.4985 67.8577L40.0763 67.2254L40.3353 67.0531L41.4571 66.3076L41.2776 66.0374L40.1558 66.7838L39.8968 66.9562L39.4746 66.3239L40.8513 65.4061L40.6708 65.1369L39.2952 66.0547L38.873 65.4214L40.2497 64.5036L40.0692 64.2344L38.6935 65.1522L38.2703 64.5189L39.647 63.6011L39.4665 63.3329L38.0908 64.2507L37.4902 63.3513L38.0551 62.975L38.9199 62.3978L39.4838 62.0215L45.7442 71.3565L46.0971 71.1189L39.7806 61.7013C39.7356 61.6344 39.6659 61.588 39.5869 61.5721C39.5078 61.5563 39.4257 61.5723 39.3584 61.6166L38.6945 62.0603L38.5273 61.8094L38.6639 61.7176L36.9303 59.7209L36.7722 59.8229L34.6837 56.684L33.8047 55.96L36.4979 60.0054L36.3399 60.1074L37.5218 62.4702L37.6584 62.3794L37.8257 62.6293L37.1608 63.0729C37.1277 63.0951 37.0994 63.1237 37.0775 63.1569C37.0556 63.1902 37.0406 63.2275 37.0333 63.2666C37.0249 63.3058 37.0246 63.3462 37.0323 63.3855C37.04 63.4247 37.0556 63.462 37.0782 63.4951L43.4008 72.929L43.7597 72.6996Z" fill="#232323"/>
<path d="M42.9639 76.7819C43.8267 75.8417 44.8109 75.0207 45.8906 74.3406L46.4872 75.2227C46.1354 75.4419 45.5357 75.8091 45.033 76.0742C43.9449 76.788 44.829 77.4325 45.2594 76.9288C46.3885 75.8527 47.6897 74.9731 49.109 74.3263C49.7372 74.1122 49.3854 72.9486 48.4003 73.7981C47.9322 74.206 47.3897 74.5996 47.0664 74.8321L46.4698 73.949C47.5032 73.2003 48.6319 72.5929 49.8259 72.143C51.4351 71.6525 50.9334 69.9178 49.724 70.5929C46.9971 72.1226 46.0905 71.1171 46.0905 71.1171L44.827 71.9706L44.6628 72.0828L43.4003 72.9363C43.4003 72.9363 43.9938 74.1509 41.5596 76.113C40.4858 76.9808 41.9094 78.0923 42.9639 76.7819Z" fill="#232323"/>
<path d="M30.7738 57.927C33.3493 57.927 35.4372 55.8391 35.4372 53.2635C35.4372 50.688 33.3493 48.6001 30.7738 48.6001C28.1982 48.6001 26.1104 50.688 26.1104 53.2635C26.1104 55.8391 28.1982 57.927 30.7738 57.927Z" fill="#232323"/>
<defs>
<linearGradient id="paint0_linear" x1="89.2811" y1="23.3875" x2="638.777" y2="20.5178" gradientUnits="userSpaceOnUse">
<stop stop-color="#E8C46F"/>
<stop offset="0.24" stop-color="#BB842C"/>
<stop offset="0.515" stop-color="#7D5723"/>
<stop offset="0.857" stop-color="#E8C46F"/>
</linearGradient>
<linearGradient id="paint1_linear" x1="2141.43" y1="2896.62" x2="6721.29" y2="2872.22" gradientUnits="userSpaceOnUse">
<stop stop-color="#E8C46F"/>
<stop offset="0.24" stop-color="#BB842C"/>
<stop offset="0.515" stop-color="#7D5723"/>
<stop offset="0.857" stop-color="#E8C46F"/>
</linearGradient>
<linearGradient id="paint2_linear" x1="2442.47" y1="3172.09" x2="7663.08" y2="3143.15" gradientUnits="userSpaceOnUse">
<stop stop-color="#E8C46F"/>
<stop offset="0.24" stop-color="#BB842C"/>
<stop offset="0.515" stop-color="#7D5723"/>
<stop offset="0.857" stop-color="#E8C46F"/>
</linearGradient>
<linearGradient id="paint3_linear" x1="3248.39" y1="3815.06" x2="10252.5" y2="3772.65" gradientUnits="userSpaceOnUse">
<stop stop-color="#E8C46F"/>
<stop offset="0.24" stop-color="#BB842C"/>
<stop offset="0.515" stop-color="#7D5723"/>
<stop offset="0.857" stop-color="#E8C46F"/>
</linearGradient>
<linearGradient id="paint4_linear" x1="2216.32" y1="2902.26" x2="6794.64" y2="2877.91" gradientUnits="userSpaceOnUse">
<stop stop-color="#E8C46F"/>
<stop offset="0.24" stop-color="#BB842C"/>
<stop offset="0.515" stop-color="#7D5723"/>
<stop offset="0.857" stop-color="#E8C46F"/>
</linearGradient>
<linearGradient id="paint5_linear" x1="2682.94" y1="5776.6" x2="8292.2" y2="5757.6" gradientUnits="userSpaceOnUse">
<stop stop-color="#E8C46F"/>
<stop offset="0.24" stop-color="#BB842C"/>
<stop offset="0.515" stop-color="#7D5723"/>
<stop offset="0.857" stop-color="#E8C46F"/>
</linearGradient>
<linearGradient id="paint6_linear" x1="2522.98" y1="4458.1" x2="7657.56" y2="4438.83" gradientUnits="userSpaceOnUse">
<stop stop-color="#E8C46F"/>
<stop offset="0.24" stop-color="#BB842C"/>
<stop offset="0.515" stop-color="#7D5723"/>
<stop offset="0.857" stop-color="#E8C46F"/>
</linearGradient>
<linearGradient id="paint7_linear" x1="2002.51" y1="3063.97" x2="5895.79" y2="3047.33" gradientUnits="userSpaceOnUse">
<stop stop-color="#E8C46F"/>
<stop offset="0.24" stop-color="#BB842C"/>
<stop offset="0.515" stop-color="#7D5723"/>
<stop offset="0.857" stop-color="#E8C46F"/>
</linearGradient>
<linearGradient id="paint8_linear" x1="2464.98" y1="2927.41" x2="7372.19" y2="2899.63" gradientUnits="userSpaceOnUse">
<stop stop-color="#E8C46F"/>
<stop offset="0.24" stop-color="#BB842C"/>
<stop offset="0.515" stop-color="#7D5723"/>
<stop offset="0.857" stop-color="#E8C46F"/>
</linearGradient>
<linearGradient id="paint9_linear" x1="1605.96" y1="2965.44" x2="4503.79" y2="2955.85" gradientUnits="userSpaceOnUse">
<stop stop-color="#E8C46F"/>
<stop offset="0.24" stop-color="#BB842C"/>
<stop offset="0.515" stop-color="#7D5723"/>
<stop offset="0.857" stop-color="#E8C46F"/>
</linearGradient>
<linearGradient id="paint10_linear" x1="2621.82" y1="4401.18" x2="7797.5" y2="4381.35" gradientUnits="userSpaceOnUse">
<stop stop-color="#E8C46F"/>
<stop offset="0.24" stop-color="#BB842C"/>
<stop offset="0.515" stop-color="#7D5723"/>
<stop offset="0.857" stop-color="#E8C46F"/>
</linearGradient>
<linearGradient id="paint11_linear" x1="2507.03" y1="2991.93" x2="7368.38" y2="2965.09" gradientUnits="userSpaceOnUse">
<stop stop-color="#E8C46F"/>
<stop offset="0.24" stop-color="#BB842C"/>
<stop offset="0.515" stop-color="#7D5723"/>
<stop offset="0.857" stop-color="#E8C46F"/>
</linearGradient>
<linearGradient id="paint12_linear" x1="2415.77" y1="1068.8" x2="2890.02" y2="1068.8" gradientUnits="userSpaceOnUse">
<stop stop-color="#E8C46F"/>
<stop offset="0.24" stop-color="#BB842C"/>
<stop offset="0.515" stop-color="#7D5723"/>
<stop offset="0.857" stop-color="#E8C46F"/>
</linearGradient>
<linearGradient id="paint13_linear" x1="-3922.79" y1="14.0538" x2="-3860.03" y2="-86.6813" gradientUnits="userSpaceOnUse">
<stop stop-color="#E8C46F"/>
<stop offset="0.24" stop-color="#BB842C"/>
<stop offset="0.515" stop-color="#7D5723"/>
<stop offset="0.857" stop-color="#E8C46F"/>
</linearGradient>
<linearGradient id="paint14_linear" x1="2302.44" y1="5431.11" x2="2350.23" y2="5636.87" gradientUnits="userSpaceOnUse">
<stop stop-color="#E8C46F"/>
<stop offset="0.24" stop-color="#BB842C"/>
<stop offset="0.515" stop-color="#7D5723"/>
<stop offset="0.857" stop-color="#E8C46F"/>
</linearGradient>
<linearGradient id="paint15_linear" x1="1021.26" y1="994.318" x2="1205.44" y2="1057.13" gradientUnits="userSpaceOnUse">
<stop stop-color="#E8C46F"/>
<stop offset="0.24" stop-color="#BB842C"/>
<stop offset="0.515" stop-color="#7D5723"/>
<stop offset="0.857" stop-color="#E8C46F"/>
</linearGradient>
<linearGradient id="paint16_linear" x1="-3779.74" y1="8246.65" x2="-3859.65" y2="8367.93" gradientUnits="userSpaceOnUse">
<stop stop-color="#E8C46F"/>
<stop offset="0.24" stop-color="#BB842C"/>
<stop offset="0.515" stop-color="#7D5723"/>
<stop offset="0.857" stop-color="#E8C46F"/>
</linearGradient>
<linearGradient id="paint17_linear" x1="-51.002" y1="1299.99" x2="-38.5282" y2="1327.09" gradientUnits="userSpaceOnUse">
<stop stop-color="#E8C46F"/>
<stop offset="0.24" stop-color="#BB842C"/>
<stop offset="0.515" stop-color="#7D5723"/>
<stop offset="0.857" stop-color="#E8C46F"/>
</linearGradient>
<linearGradient id="paint18_linear" x1="-642.366" y1="4602.4" x2="-660.099" y2="4652.26" gradientUnits="userSpaceOnUse">
<stop stop-color="#E8C46F"/>
<stop offset="0.24" stop-color="#BB842C"/>
<stop offset="0.515" stop-color="#7D5723"/>
<stop offset="0.857" stop-color="#E8C46F"/>
</linearGradient>
<linearGradient id="paint19_linear" x1="315.721" y1="791.024" x2="325.842" y2="803.765" gradientUnits="userSpaceOnUse">
<stop stop-color="#E8C46F"/>
<stop offset="0.24" stop-color="#BB842C"/>
<stop offset="0.515" stop-color="#7D5723"/>
<stop offset="0.857" stop-color="#E8C46F"/>
</linearGradient>
<linearGradient id="paint20_linear" x1="-12048.7" y1="8410.26" x2="-12551.7" y2="8523.54" gradientUnits="userSpaceOnUse">
<stop stop-color="#E8C46F"/>
<stop offset="0.24" stop-color="#BB842C"/>
<stop offset="0.515" stop-color="#7D5723"/>
<stop offset="0.857" stop-color="#E8C46F"/>
</linearGradient>
<linearGradient id="paint21_linear" x1="1928.1" y1="4330.72" x2="1895.77" y2="4423.5" gradientUnits="userSpaceOnUse">
<stop stop-color="#E8C46F"/>
<stop offset="0.24" stop-color="#BB842C"/>
<stop offset="0.515" stop-color="#7D5723"/>
<stop offset="0.857" stop-color="#E8C46F"/>
</linearGradient>
<linearGradient id="paint22_linear" x1="-3436.01" y1="1710.32" x2="-3214.84" y2="1286.7" gradientUnits="userSpaceOnUse">
<stop stop-color="#E8C46F"/>
<stop offset="0.24" stop-color="#BB842C"/>
<stop offset="0.515" stop-color="#7D5723"/>
<stop offset="0.857" stop-color="#E8C46F"/>
</linearGradient>
<linearGradient id="paint23_linear" x1="-5674.45" y1="5101.58" x2="-5732.84" y2="5002.57" gradientUnits="userSpaceOnUse">
<stop stop-color="#E8C46F"/>
<stop offset="0.24" stop-color="#BB842C"/>
<stop offset="0.515" stop-color="#7D5723"/>
<stop offset="0.857" stop-color="#E8C46F"/>
</linearGradient>
<linearGradient id="paint24_linear" x1="-8779.34" y1="7048.84" x2="-8872.98" y2="6944.55" gradientUnits="userSpaceOnUse">
<stop stop-color="#E8C46F"/>
<stop offset="0.24" stop-color="#BB842C"/>
<stop offset="0.515" stop-color="#7D5723"/>
<stop offset="0.857" stop-color="#E8C46F"/>
</linearGradient>
<linearGradient id="paint25_linear" x1="-1796.05" y1="3500.42" x2="-1994.58" y2="3535.51" gradientUnits="userSpaceOnUse">
<stop stop-color="#E8C46F"/>
<stop offset="0.24" stop-color="#BB842C"/>
<stop offset="0.515" stop-color="#7D5723"/>
<stop offset="0.857" stop-color="#E8C46F"/>
</linearGradient>
</defs>
</svg>
