<svg width="407" height="89" viewBox="0 0 407 89" fill="none" xmlns="http://www.w3.org/2000/svg">
<path d="M156.757 81.5125H155.038L153.524 77.0571L152.014 81.5125H150.334L152.714 74.957H154.342L156.757 81.5125Z" fill="white"/>
<path d="M161.501 81.5125H159.813V74.957H161.501V81.5125Z" fill="white"/>
<path d="M171.209 81.5125H169.2L166.911 78.2923V81.5125H165.225V74.957H166.911V77.9908L169.277 74.957H171.164L168.611 78.131L171.209 81.5125Z" fill="white"/>
<path d="M180.883 81.5132H179.22V80.7409C178.973 81.0491 178.656 81.2945 178.296 81.4572C177.935 81.6199 177.542 81.6953 177.147 81.6772C176.698 81.693 176.25 81.6113 175.836 81.4375C175.422 81.2638 175.05 81.0022 174.746 80.6708C174.146 80.0045 173.827 79.1314 173.856 78.2348C173.831 77.3218 174.163 76.4348 174.782 75.7631C175.082 75.4371 175.448 75.1793 175.857 75.0075C176.265 74.8357 176.705 74.7538 177.148 74.7673C177.538 74.7434 177.927 74.8128 178.284 74.9699C178.642 75.1271 178.956 75.3673 179.202 75.6706V74.9577H180.883V81.5132ZM179.22 78.2705C179.23 77.7427 179.033 77.2319 178.671 76.8476C178.5 76.6563 178.289 76.5043 178.053 76.4021C177.817 76.2998 177.562 76.2497 177.305 76.2551C177.053 76.2478 176.802 76.2966 176.571 76.3979C176.34 76.4992 176.134 76.6505 175.968 76.841C175.625 77.2232 175.44 77.7212 175.449 78.2348C175.441 78.7539 175.636 79.2555 175.991 79.634C176.158 79.8233 176.364 79.9742 176.594 80.0763C176.825 80.1783 177.076 80.2291 177.328 80.2251C177.579 80.2265 177.828 80.1744 178.057 80.0725C178.287 79.9706 178.492 79.8212 178.66 79.634C179.02 79.2718 179.222 78.7814 179.22 78.2705Z" fill="white"/>
<path d="M189.597 77.2272C189.608 77.5598 189.544 77.8905 189.41 78.1949C189.275 78.4992 189.074 78.7693 188.82 78.9848C188.316 79.4214 187.666 79.6514 186.999 79.6289H186.317V81.5134H184.631V74.9579H187.043C187.693 74.9284 188.333 75.1319 188.847 75.5318C189.095 75.7365 189.292 75.9964 189.423 76.2907C189.553 76.5851 189.612 76.9058 189.597 77.2272ZM186.861 76.3015H186.317V78.2852H186.846C187.114 78.2961 187.375 78.2043 187.577 78.0287C187.673 77.939 187.747 77.8296 187.796 77.7081C187.845 77.5866 187.867 77.4559 187.86 77.3251C187.864 77.1913 187.841 77.0582 187.792 76.9335C187.744 76.8088 187.671 76.6951 187.577 76.5991C187.485 76.5024 187.374 76.426 187.25 76.3748C187.127 76.3235 186.994 76.2986 186.861 76.3015Z" fill="white"/>
<path d="M193.169 79.8623H194.725V81.7138C194.739 81.9141 194.709 82.1151 194.636 82.3024C194.564 82.4896 194.45 82.6585 194.305 82.7969C193.985 83.0561 193.58 83.1876 193.169 83.1658V82.2877C193.267 82.3015 193.367 82.2917 193.461 82.259C193.554 82.2264 193.639 82.1718 193.707 82.0999C193.795 81.9178 193.831 81.7153 193.813 81.5141H193.169V79.8623Z" fill="white"/>
<path d="M215.443 81.5125H206.331V74.957H208.019V80.157H209.693V74.957H211.263V80.157H212.937V74.957H214.623V80.157H215.443V81.5125Z" fill="white"/>
<path d="M225.41 78.1991C225.43 78.6717 225.346 79.143 225.165 79.58C224.984 80.0169 224.71 80.4091 224.361 80.729C223.643 81.3693 222.706 81.7088 221.744 81.6772C220.793 81.7118 219.865 81.3761 219.156 80.7409C218.804 80.42 218.527 80.0264 218.343 79.5874C218.159 79.1485 218.073 78.6747 218.09 78.1991C218.078 77.7289 218.169 77.2618 218.358 76.8309C218.546 76.3999 218.827 76.0155 219.18 75.7049C219.9 75.089 220.818 74.7525 221.766 74.7569C222.714 74.7612 223.629 75.1062 224.344 75.7287C224.69 76.0384 224.965 76.4198 225.149 76.8464C225.333 77.273 225.422 77.7346 225.41 78.1991ZM219.824 78.2348C219.814 78.4934 219.855 78.7514 219.946 78.9937C220.037 79.236 220.175 79.4578 220.353 79.6459C220.732 79.9963 221.23 80.1908 221.747 80.1908C222.263 80.1908 222.761 79.9963 223.141 79.6459C223.318 79.4576 223.456 79.2358 223.547 78.9936C223.638 78.7513 223.68 78.4933 223.67 78.2348C223.679 77.9753 223.637 77.7164 223.547 77.4731C223.456 77.2298 223.318 77.0069 223.141 76.8171C222.763 76.4635 222.264 76.2668 221.747 76.2668C221.229 76.2668 220.731 76.4635 220.353 76.8171C220.175 77.0067 220.037 77.2296 219.946 77.473C219.856 77.7163 219.814 77.9753 219.824 78.2348Z" fill="white"/>
<path d="M242.603 81.5132H235.669V80.155H236.407L238.235 74.9551H240.026L241.853 80.155H242.603V81.5132ZM240.189 80.155L239.123 76.911L238.057 80.155H240.189Z" fill="white"/>
<path d="M252.323 81.5132H250.661V80.7409C250.413 81.0491 250.096 81.2945 249.736 81.4572C249.376 81.6199 248.982 81.6953 248.587 81.6772C248.138 81.693 247.691 81.6113 247.276 81.4375C246.862 81.2638 246.49 81.0022 246.187 80.6708C245.586 80.0045 245.267 79.1314 245.297 78.2348C245.271 77.3218 245.604 76.4348 246.223 75.7631C246.522 75.4371 246.889 75.1793 247.297 75.0075C247.705 74.8357 248.146 74.7538 248.588 74.7673C248.978 74.7434 249.368 74.8128 249.725 74.9699C250.082 75.1271 250.397 75.3673 250.642 75.6706V74.9577H252.328L252.323 81.5132ZM250.661 78.2705C250.671 77.7427 250.474 77.2319 250.112 76.8476C249.94 76.6563 249.729 76.5043 249.494 76.4021C249.258 76.2998 249.003 76.2497 248.746 76.2551C248.493 76.2478 248.243 76.2966 248.012 76.3979C247.78 76.4992 247.574 76.6505 247.409 76.841C247.066 77.2232 246.88 77.7212 246.889 78.2348C246.882 78.7539 247.076 79.2555 247.431 79.634C247.598 79.8233 247.804 79.9742 248.035 80.0763C248.266 80.1783 248.516 80.2291 248.768 80.2251C249.019 80.2265 249.268 80.1744 249.498 80.0725C249.727 79.9706 249.932 79.8212 250.1 79.634C250.46 79.2718 250.662 78.7814 250.661 78.2705Z" fill="white"/>
<path d="M261.036 77.2273C261.047 77.5597 260.984 77.8903 260.85 78.1946C260.715 78.4989 260.514 78.769 260.261 78.9849C259.757 79.4218 259.106 79.6518 258.439 79.6289H257.756V81.5134H256.07V74.9579H258.482C259.133 74.9282 259.773 75.1317 260.286 75.5319C260.535 75.7365 260.732 75.9964 260.862 76.2908C260.992 76.5851 261.052 76.9058 261.036 77.2273ZM258.3 76.3016H257.756V78.2853H258.285C258.553 78.2961 258.815 78.2044 259.017 78.0287C259.112 77.939 259.187 77.8296 259.236 77.7081C259.285 77.5866 259.307 77.4559 259.3 77.3252C259.303 77.1914 259.28 77.0582 259.232 76.9336C259.183 76.8089 259.11 76.6952 259.017 76.5991C258.925 76.5024 258.813 76.426 258.69 76.3748C258.566 76.3236 258.434 76.2986 258.3 76.3016Z" fill="white"/>
<path d="M265.616 74.957L267.15 78.8689L268.579 74.957H270.324L267.415 82.2769H265.725L266.304 80.8222L263.865 74.961L265.616 74.957Z" fill="white"/>
<path d="M274.048 75.763C274.378 75.4311 274.773 75.1712 275.209 74.9998C275.644 74.8284 276.11 74.7492 276.578 74.7671C277.311 74.753 278.031 74.966 278.638 75.3768C279.257 75.7843 279.697 76.4124 279.868 77.133H278.124C277.985 76.8322 277.753 76.5843 277.461 76.4261C277.17 76.2679 276.836 76.2078 276.508 76.2549C276.108 76.2477 275.717 76.378 275.401 76.6239C275.088 76.8645 274.877 77.2138 274.81 77.6025H277.116V78.843H274.81C274.907 79.2407 275.136 79.5938 275.459 79.8454C275.781 80.0977 276.181 80.2317 276.59 80.225C276.915 80.2723 277.246 80.206 277.528 80.0373C277.809 79.8686 278.024 79.608 278.136 79.2992H279.88C279.7 80.0193 279.268 80.651 278.662 81.0793C277.967 81.5364 277.139 81.7508 276.309 81.6894C275.479 81.6279 274.693 81.2939 274.072 80.7394C273.739 80.4137 273.479 80.0217 273.307 79.5888C273.136 79.156 273.057 78.6919 273.076 78.2267C273.065 77.7719 273.145 77.3195 273.312 76.8963C273.479 76.473 273.729 76.0877 274.048 75.763Z" fill="white"/>
<path d="M302.331 81.5131H291.03V73.0811H293.114V79.7688H295.199V73.0811H297.144V79.7688H299.228V73.0811H301.312V79.7688H302.331V81.5131Z" fill="white"/>
<path d="M312.052 81.5133H310.388V80.741C310.141 81.049 309.824 81.2943 309.464 81.457C309.104 81.6197 308.711 81.6951 308.316 81.6773C307.867 81.6931 307.419 81.6112 307.005 81.4375C306.59 81.2638 306.218 81.0022 305.914 80.6709C305.334 79.9832 305.019 79.1109 305.024 78.2112C305.03 77.3115 305.357 76.4434 305.946 75.7632C306.246 75.4371 306.612 75.1793 307.02 75.0075C307.428 74.8356 307.868 74.7538 308.311 74.7674C308.7 74.7432 309.09 74.8126 309.448 74.9697C309.805 75.1268 310.12 75.3672 310.366 75.6706V74.9578H312.052V81.5133ZM310.388 78.2706C310.399 77.7427 310.202 77.2317 309.839 76.8476C309.668 76.6564 309.457 76.5044 309.221 76.4022C308.985 76.2999 308.73 76.2498 308.473 76.2552C308.221 76.248 307.97 76.2968 307.739 76.3981C307.508 76.4994 307.302 76.6507 307.136 76.841C306.794 77.2238 306.609 77.7216 306.618 78.2349C306.61 78.754 306.804 79.2558 307.16 79.6341C307.327 79.8234 307.533 79.9743 307.764 80.0764C307.995 80.1784 308.245 80.2292 308.497 80.2252C308.748 80.2265 308.996 80.1745 309.226 80.0726C309.455 79.9707 309.66 79.8212 309.828 79.6341C310.006 79.4549 310.148 79.2422 310.244 79.0083C310.34 78.7743 310.389 78.5236 310.388 78.2706Z" fill="white"/>
<path d="M322.254 79.136C322.102 79.8906 321.679 80.5633 321.064 81.0271C320.436 81.4842 319.675 81.7209 318.898 81.7002C317.984 81.7378 317.091 81.4138 316.414 80.7983C316.073 80.4675 315.807 80.0675 315.633 79.6252C315.46 79.1829 315.383 78.7085 315.408 78.2341C315.384 77.7588 315.46 77.2838 315.631 76.8399C315.803 76.396 316.066 75.9933 316.404 75.6579C317.081 75.044 317.973 74.7235 318.886 74.7665C319.667 74.7414 320.434 74.9737 321.069 75.4278C321.679 75.8947 322.094 76.57 322.236 77.3242H320.538C320.404 76.9896 320.167 76.7061 319.862 76.5145C319.556 76.323 319.198 76.2333 318.838 76.2583C318.593 76.246 318.347 76.2928 318.123 76.3947C317.899 76.4967 317.703 76.6507 317.55 76.8441C317.256 77.2476 317.108 77.7391 317.13 78.238C317.108 78.7458 317.27 79.2443 317.586 79.6425C317.744 79.8355 317.945 79.9891 318.173 80.0908C318.4 80.1925 318.649 80.2396 318.898 80.2283C319.255 80.2677 319.615 80.1803 319.915 79.9814C320.215 79.7825 320.435 79.4847 320.538 79.1399L322.254 79.136Z" fill="white"/>
<path d="M329.408 76.3126H328.074V81.5125H326.363V76.3126H325.017V74.957H329.408V76.3126Z" fill="white"/>
<path d="M337.664 81.5132H335.955V78.7149L333.839 81.5132H331.885L333.993 78.9027C333.504 78.8784 333.045 78.6614 332.715 78.2994C332.386 77.9373 332.213 77.4595 332.235 76.9706C332.215 76.6565 332.281 76.3429 332.425 76.0634C332.569 75.7838 332.787 75.5488 333.055 75.3836C333.623 75.078 334.263 74.9322 334.907 74.9617H337.671L337.664 81.5132ZM335.955 77.8474V76.2326H334.971C334.3 76.2326 333.964 76.4861 333.964 76.9931C333.956 77.1236 333.984 77.2538 334.043 77.3701C334.103 77.4864 334.193 77.5845 334.304 77.6543C334.527 77.7944 334.788 77.8636 335.052 77.8527L335.955 77.8474Z" fill="white"/>
<path d="M343.227 79.0771H341.705V73.0811H343.227V79.0771ZM343.227 81.5131H341.705V79.8732H343.227V81.5131Z" fill="white"/>
<path d="M136.99 53.7089C136.976 54.8176 136.737 55.912 136.287 56.9257C135.797 58.0646 135.164 59.137 134.405 60.1175C133.63 61.1346 132.749 62.0663 131.776 62.8968C130.861 63.6895 129.852 64.3684 128.773 64.9185C127.579 65.5323 126.33 66.0302 125.042 66.4054C123.864 66.7399 122.664 66.9919 121.451 67.1598C120.253 67.3234 119.046 67.4213 117.836 67.4531C116.616 67.4845 115.349 67.5007 114.034 67.5017H112.332C111.911 67.5017 111.566 67.5017 111.3 67.5253C111.035 67.5488 110.822 67.5503 110.673 67.5503H110.25C109.921 67.5506 109.592 67.5344 109.265 67.5017C108.951 67.4688 108.794 67.3229 108.794 67.0626C109.003 66.4722 109.295 65.9145 109.661 65.4063C110.381 64.184 111.016 62.9137 111.562 61.6044C112.908 58.4529 114.183 55.5288 115.388 52.8321C116.592 50.1354 117.68 47.7305 118.65 45.6173C119.619 43.5062 120.449 41.7286 121.138 40.2846C121.827 38.8406 122.328 37.8253 122.64 37.2387C122.049 36.864 121.438 36.5221 120.81 36.2145C120.042 35.8378 119.25 35.5124 118.438 35.2405C117.515 34.9316 116.572 34.6873 115.615 34.5096C114.555 34.3099 113.479 34.2117 112.4 34.2163C111.301 34.2026 110.207 34.3674 109.161 34.7041C108.295 34.9661 107.506 35.4344 106.862 36.0686C106.49 36.4711 106.173 36.9216 105.921 37.4081C105.72 37.7991 105.555 38.2075 105.428 38.6283C105.327 38.9525 105.264 39.2872 105.24 39.6258C105.224 39.9191 105.216 40.1136 105.216 40.2109C105.218 40.6727 105.34 41.1261 105.569 41.5268C105.783 41.8809 105.904 42.2834 105.921 42.6968C105.89 43.1943 105.692 43.6666 105.358 44.0363C105.241 44.2269 105.084 44.3892 104.898 44.5116C104.711 44.6339 104.5 44.7132 104.279 44.7437C104.107 44.7495 103.935 44.7176 103.777 44.6501C103.619 44.5826 103.477 44.4812 103.363 44.3531C103.084 43.938 102.96 43.4386 103.011 42.9415C103.014 41.5553 103.252 40.1796 103.715 38.873C104.265 37.4058 105.183 36.1049 106.382 35.0962C106.916 34.6178 107.508 34.2079 108.143 33.8759C108.81 33.5221 109.501 33.213 110.209 32.9506C110.874 32.7023 111.555 32.499 112.248 32.342C112.801 32.2089 113.368 32.1353 113.937 32.1224C115.974 32.0723 118.009 32.2831 119.993 32.7498C121.448 33.128 122.851 33.6849 124.169 34.4076L125.111 32.8721C125.516 32.2071 125.939 31.5489 126.378 30.8975C136.384 13.4362 132.23 16.8125 144.331 0.732466C144.447 0.539011 144.603 0.373187 144.789 0.246648C144.976 0.12011 145.188 0.0359215 145.41 0C145.41 0 146.161 0.181949 146.161 0.439173C146.149 0.894516 145.984 1.33238 145.691 1.68138C133.381 17.5997 137.584 14.2681 127.926 31.9217C127.738 32.2469 127.529 32.5877 127.299 32.9443C127.063 33.3019 126.828 33.636 126.618 33.9434C126.408 34.2508 126.21 34.5284 126.055 34.7731C125.942 34.9325 125.847 35.104 125.772 35.2844C127.249 36.2884 128.653 37.3959 129.973 38.5985C131.331 39.8306 132.537 41.2213 133.564 42.7408C134.611 44.2969 135.447 45.9845 136.052 47.7598C136.694 49.6768 137.011 51.6875 136.99 53.7089ZM133.517 54.9762C133.522 53.286 133.285 51.6038 132.813 49.9807C132.353 48.3957 131.699 46.8738 130.865 45.4495C130.03 44.0294 129.03 42.7132 127.885 41.5284C126.73 40.3305 125.456 39.2527 124.083 38.3115C123.581 39.1574 122.994 40.2621 122.322 41.6256C121.65 42.9891 120.946 44.4755 120.211 46.0847C119.479 47.6939 118.735 49.3753 117.98 51.1288C117.225 52.8823 116.521 54.5637 115.868 56.1729C115.212 57.7821 114.618 59.2685 114.084 60.632C113.551 61.9955 113.16 63.1007 112.911 63.9476C113.225 63.9806 113.6 64.0119 114.037 64.0449C114.414 64.0773 114.899 64.0935 115.493 64.0935H117.7C118.357 64.0935 119.226 64.1097 120.305 64.1421C121.384 64.1745 122.518 64.1662 123.707 64.117C124.882 64.07 126.051 63.9316 127.204 63.703C128.23 63.5211 129.21 63.1408 130.09 62.5831C130.743 62.1652 131.302 61.6174 131.734 60.9739C132.162 60.3425 132.516 59.6642 132.79 58.9522C133.049 58.2745 133.238 57.5717 133.353 56.8551C133.456 56.2361 133.511 55.61 133.517 54.9824V54.9762Z" fill="url(#paint0_linear)"/>
<path d="M152.315 64.7788C150.335 65.7402 148.156 66.2236 145.955 66.1904C145.431 66.2089 144.908 66.1427 144.405 65.9943C142.987 66.7931 141.386 67.2129 139.758 67.213C139.2 67.2138 138.645 67.1232 138.116 66.9448C137.575 66.7609 137.084 66.4526 136.684 66.0445C136.231 65.5722 135.887 65.0063 135.675 64.3867C135.406 63.5863 135.278 62.745 135.299 61.9007C135.294 61.0507 135.372 60.2022 135.534 59.3677C135.691 58.5876 135.91 57.7103 136.191 56.7358C136.41 55.9558 136.668 55.1841 136.966 54.4208C137.264 53.6575 137.569 52.9428 137.881 52.2767C138.168 51.6582 138.49 51.0561 138.844 50.473C139.104 50.0278 139.411 49.6109 139.758 49.2293C140.005 48.9824 140.291 48.7769 140.604 48.6207C140.967 48.4381 141.37 48.3461 141.777 48.3525C142.013 48.3339 142.25 48.3852 142.457 48.4999C142.584 48.5854 142.703 48.6831 142.81 48.7917H142.95C143.451 48.3044 143.967 47.825 144.5 47.3534C145.033 46.8821 145.606 46.4581 146.212 46.0861C146.841 45.7047 147.51 45.3944 148.207 45.1607C149.011 44.9039 149.851 44.7805 150.695 44.7953C151.247 44.7811 151.796 44.8796 152.308 45.0848C152.82 45.2901 153.285 45.5977 153.675 45.9889C154.59 47.1405 155.019 48.6035 154.872 50.0668C154.848 51.3761 154.626 52.6743 154.214 53.9173C153.758 55.3531 153.144 56.7339 152.384 58.0345C151.603 59.3801 150.691 60.6452 149.661 61.8113C148.685 62.9336 147.545 63.9032 146.281 64.6878C146.43 64.7545 146.589 64.7953 146.752 64.8086C147.141 64.8648 147.534 64.8894 147.927 64.8823C149.515 64.824 151.073 64.434 152.502 63.7373C154.364 62.8787 156.12 61.8071 157.736 60.544L158.159 61.129C156.323 62.5168 154.368 63.7382 152.315 64.7788ZM140.345 63.2684C139.99 62.5361 139.745 61.7555 139.619 60.9518C139.495 60.1868 139.455 59.4104 139.501 58.6368C139.548 57.8918 139.601 57.2565 139.666 56.7374H139.524C139.43 57.0291 139.313 57.4369 139.172 57.9561C138.994 58.7567 138.892 59.5722 138.867 60.3919C138.787 61.2103 138.858 62.0366 139.077 62.8292C139.232 63.357 139.496 63.8464 139.852 64.2659C140.111 64.5701 140.442 64.8047 140.815 64.9482C141.048 65.0422 141.293 65.0998 141.543 65.1191H142.014C141.297 64.6717 140.719 64.0336 140.345 63.2762V63.2684ZM151.118 51.6619C151.157 50.6486 150.913 49.6445 150.414 48.7619C150.14 48.3654 149.765 48.0499 149.327 47.8485C148.89 47.647 148.406 47.567 147.927 47.6169C147.407 47.6481 146.894 47.7467 146.4 47.9102C145.735 48.1007 145.119 48.433 144.594 48.8842C144.203 49.2308 143.857 49.6237 143.562 50.0543C143.141 50.6518 142.779 51.2884 142.481 51.9552C142.103 52.7969 141.797 53.6689 141.567 54.562C141.285 55.6408 141.104 56.7434 141.027 57.8557C141.027 58.1474 141.027 58.6101 141.049 59.2438C141.073 59.9231 141.191 60.5957 141.402 61.2419C141.629 61.9568 141.996 62.6195 142.481 63.1915C143.051 63.8311 143.837 64.2387 144.688 64.3365C145.736 63.7785 146.655 63.0063 147.385 62.0701C148.19 61.0695 148.868 59.9732 149.404 58.8062C149.95 57.6251 150.374 56.3918 150.671 55.125C150.952 53.9942 151.102 52.8348 151.118 51.6698V51.6619Z" fill="url(#paint1_linear)"/>
<path d="M179.045 64.7792C178.132 65.4455 177.184 66.0633 176.206 66.6299C175.296 67.1613 174.337 67.6025 173.342 67.9474C172.475 68.2556 171.564 68.4198 170.644 68.4336C170.066 68.4356 169.489 68.3618 168.93 68.214C168.359 68.0558 167.83 67.7729 167.382 67.3859C166.832 66.8996 166.378 66.3143 166.044 65.6606C165.572 64.7354 165.225 63.7518 165.012 62.7355C164.573 60.8199 164.267 59.3665 164.096 58.3752C163.925 57.384 163.76 56.5961 163.603 56.0116C163.353 56.3692 163.111 56.7174 162.876 57.0593C162.583 57.5112 162.339 57.9927 162.148 58.496C161.928 58.9843 161.725 59.4799 161.538 59.9829C161.35 60.4879 161.177 60.9334 161.022 61.3223C160.834 61.7787 160.661 62.2163 160.506 62.6382C160.224 63.3869 159.997 63.9479 159.825 64.3212C159.681 64.6521 159.482 64.9564 159.237 65.2215C158.884 65.5526 158.48 65.8243 158.04 66.0261C157.616 66.2669 157.143 66.4085 156.657 66.4401C156.39 66.4636 156.122 66.4132 155.882 66.2943C155.805 66.2294 155.745 66.1465 155.708 66.0528C155.671 65.9592 155.658 65.8578 155.67 65.7579C155.707 65.4403 155.786 65.1291 155.906 64.8325C156.062 64.3776 156.329 63.6305 156.704 62.5912C156.891 62.1029 157.055 61.6475 157.196 61.2251C157.338 60.8032 157.477 60.3813 157.618 59.9593C157.759 59.5374 157.907 59.0983 158.064 58.6419C158.221 58.1854 158.393 57.6851 158.581 57.1315C159.333 54.9879 159.99 53.0875 160.553 51.4302C161.115 49.7728 161.522 48.6033 161.773 47.9216C161.992 47.3036 162.179 46.7756 162.336 46.3374C162.462 45.9486 162.67 45.5913 162.946 45.2897C163.152 45.0461 163.398 44.8397 163.674 44.6796C163.972 44.5015 164.287 44.3549 164.615 44.242C164.93 44.1317 165.252 44.0416 165.578 43.9722C165.84 43.9136 166.107 43.881 166.375 43.875C166.594 43.875 166.704 44.0554 166.704 44.4114C166.656 44.8318 166.545 45.2426 166.375 45.6301C166.155 46.2146 165.936 46.7672 165.718 47.2879C165.187 48.6472 164.702 49.9224 164.264 51.1133C163.826 52.3043 163.435 53.4169 163.091 54.451L163.324 54.4996C163.888 53.8827 164.404 53.3076 164.874 52.7743C165.343 52.2411 165.836 51.7052 166.351 51.1667C166.869 50.6303 167.438 50.0782 168.066 49.5088C168.693 48.9395 169.427 48.2996 170.271 47.5844C170.894 47.0675 171.553 46.5957 172.242 46.1728C172.903 45.7649 173.594 45.4068 174.308 45.1015C174.952 44.8226 175.62 44.6021 176.303 44.4428C176.864 44.3067 177.439 44.233 178.016 44.2232C178.141 44.2232 178.297 44.231 178.486 44.2483C178.673 44.2646 178.855 44.314 179.024 44.3941C179.201 44.4782 179.354 44.6036 179.471 44.7596C179.608 44.96 179.674 45.1999 179.66 45.4419C179.536 46.277 179.169 47.0569 178.602 47.6832C177.546 48.9283 176.284 49.9834 174.871 50.8028L174.589 50.3636C175.146 49.9601 175.571 49.4007 175.811 48.756C175.992 48.3053 176.103 47.8291 176.138 47.3444C176.138 46.8895 175.825 46.6621 175.197 46.6621C174.449 46.7146 173.717 46.9044 173.038 47.222C171.984 47.6868 171.004 48.3023 170.128 49.0493C169.438 49.6024 168.835 50.1252 168.32 50.6177C167.804 51.1102 167.374 51.5488 167.029 51.9336C166.623 52.3885 166.264 52.8109 165.95 53.2009H166.232C166.311 53.1987 166.389 53.1903 166.466 53.1758C166.543 53.1606 166.622 53.1521 166.701 53.1507C166.878 53.1586 167.05 53.218 167.194 53.3217C167.299 53.4182 167.385 53.5347 167.445 53.6645C167.505 53.7942 167.539 53.9347 167.545 54.0777L168.086 57.2146C168.289 58.4024 168.516 59.515 168.767 60.5522C169.008 61.9298 169.535 63.2415 170.315 64.4027C170.63 64.8556 171.053 65.2221 171.546 65.4687C172.04 65.7154 172.587 65.8342 173.138 65.8143C173.969 65.8167 174.795 65.6766 175.579 65.4003C176.355 65.1261 177.102 64.7751 177.809 64.3525C178.482 63.9507 179.132 63.5114 179.755 63.0366C180.349 62.5818 180.866 62.1594 181.305 61.7693L181.727 62.6461C180.877 63.3864 179.983 64.0974 179.045 64.7792Z" fill="url(#paint2_linear)"/>
<path d="M211.431 62.0494C210.837 62.4677 210.227 62.8896 209.6 63.3152C208.974 63.7407 208.474 64.0821 208.099 64.3394C206.798 65.2365 205.442 66.0505 204.039 66.7767C203.31 67.2047 202.505 67.4861 201.669 67.6048C201.292 67.6048 201.065 67.4585 200.988 67.1657C200.908 66.8637 200.869 66.5526 200.87 66.2403C200.901 65.9021 200.964 65.5675 201.059 65.2412C201.183 64.7383 201.355 64.1292 201.575 63.414C201.794 62.6988 202.029 61.9187 202.279 61.0739C202.528 60.23 202.794 59.369 203.077 58.4906C203.357 57.582 203.631 56.6807 203.898 55.7866C204.164 54.8926 204.399 54.0723 204.602 53.3258C204.806 52.5771 204.978 51.9189 205.118 51.3511C205.235 50.9111 205.321 50.4636 205.377 50.0117C205.375 49.8536 205.391 49.6958 205.424 49.5411C205.453 49.3937 205.377 49.3215 205.188 49.3215C204.813 49.4133 204.466 49.5977 204.18 49.8579C203.735 50.1785 203.319 50.5369 202.936 50.9292C202.374 51.5137 201.661 52.3016 200.8 53.2928C199.759 54.5181 198.78 55.7948 197.867 57.1182C197.553 57.5741 197.201 58.1268 196.81 58.7761C196.419 59.4254 196.053 60.0591 195.712 60.677C195.367 61.295 195.07 61.8377 194.819 62.3098C194.683 62.5892 194.526 62.8577 194.349 63.1128C194.192 63.2697 193.965 63.4877 193.668 63.7402C193.372 63.9927 193.041 64.2609 192.705 64.5244C192.376 64.7742 192.032 65.0021 191.673 65.2067C191.39 65.3841 191.066 65.4852 190.732 65.5C190.607 65.5 190.544 65.4341 190.544 65.304C190.545 65.1652 190.561 65.0269 190.591 64.8915C190.622 64.744 190.669 64.5417 190.732 64.2813C190.795 64.021 190.897 63.6806 191.036 63.2587C191.176 62.8368 191.35 62.2988 191.577 61.6495L194.534 52.8772C194.951 51.7544 195.266 50.5964 195.475 49.4172C195.475 49.1569 195.397 49.011 195.24 48.9781C194.706 48.9781 193.423 50.0666 191.391 52.2435C190.466 53.2071 189.619 54.2418 188.856 55.3381C188.074 56.46 187.355 57.5731 186.698 58.6773C186.041 59.7815 185.454 60.8376 184.937 61.8455C184.421 62.8525 184.007 63.713 183.693 64.4272C183.53 64.6299 183.349 64.8178 183.153 64.9887C182.909 65.2081 182.65 65.4114 182.379 65.5972C182.106 65.7872 181.815 65.9506 181.511 66.085C181.238 66.2096 180.942 66.2758 180.642 66.2795C180.558 66.2913 180.471 66.2765 180.396 66.2372C180.32 66.1978 180.258 66.1359 180.219 66.0599C180.154 65.8973 180.123 65.7235 180.126 65.5486C180.137 65.3509 180.168 65.1549 180.219 64.9636C180.283 64.7053 180.369 64.4047 180.478 64.0617C180.586 63.7188 180.704 63.3617 180.83 62.9905C180.955 62.6172 181.08 62.268 181.205 61.9428C181.519 61.0645 181.801 60.2682 182.051 59.5541C182.3 58.8404 182.521 58.1644 182.708 57.5308C182.895 56.8971 183.075 56.276 183.247 55.68C183.42 55.084 183.599 54.4535 183.787 53.7979C183.881 53.4418 183.997 52.987 184.138 52.4333C184.279 51.8797 184.436 51.3213 184.609 50.752C184.781 50.1826 184.944 49.654 185.101 49.1443C185.222 48.7391 185.363 48.3402 185.523 47.9492C185.707 47.4679 185.987 47.0288 186.345 46.6583C186.694 46.2951 187.079 45.9687 187.495 45.6843C187.858 45.4311 188.252 45.2265 188.668 45.0758C188.953 44.964 189.254 44.8978 189.56 44.8797C189.778 44.8797 189.89 45.0585 189.89 45.4161C189.802 45.9102 189.684 46.3984 189.537 46.8779C189.328 47.5931 189.119 48.2916 188.91 48.9734C188.627 49.8851 188.313 50.8602 187.968 51.8985C187.623 52.9368 187.279 53.9113 186.935 54.8221C186.561 55.8928 186.169 56.9489 185.762 57.9903L185.95 58.1362C186.264 57.5841 186.662 56.9567 187.147 56.254C187.631 55.5514 188.147 54.8367 188.695 54.11C189.241 53.378 189.805 52.6717 190.384 51.991C190.964 51.3088 191.518 50.708 192.051 50.1873C193.646 48.6283 195.038 47.361 196.228 46.3854C196.995 45.6043 198.005 45.1066 199.092 44.9738C199.29 44.9667 199.484 45.037 199.631 45.1699C199.714 45.2714 199.775 45.3884 199.811 45.5139C199.847 45.6395 199.858 45.771 199.843 45.9008C199.785 46.5638 199.65 47.2179 199.443 47.8503C199.178 48.7914 198.873 49.7984 198.529 50.8712C198.185 51.944 197.84 52.9896 197.495 54.008C197.15 55.0327 196.884 55.8206 196.698 56.3717H196.838C198.529 54.294 200.054 52.5478 201.415 51.1331C202.541 49.9385 203.74 48.8154 205.006 47.7704C205.814 47.0934 206.687 46.4976 207.612 45.9917C208.106 45.6987 208.658 45.5157 209.23 45.4553C209.323 45.4473 209.416 45.4689 209.496 45.5171C209.577 45.5653 209.639 45.6375 209.676 45.7235C209.76 45.9322 209.8 46.1559 209.793 46.3807C209.77 46.8339 209.699 47.2833 209.582 47.7217C209.44 48.323 209.253 49.046 209.018 49.8909C208.784 50.7358 208.519 51.6617 208.222 52.6686C207.924 53.6755 207.618 54.7149 207.306 55.7866C207.212 56.1777 207.04 56.7465 206.79 57.4931C206.54 58.2397 206.297 59.0114 206.062 59.8081C205.827 60.6049 205.618 61.3441 205.435 62.0259C205.297 62.454 205.202 62.8949 205.152 63.3418C205.148 63.5213 205.163 63.7007 205.199 63.8767C205.231 64.0068 205.356 64.0727 205.576 64.0727C206.059 64.0357 206.529 63.9029 206.961 63.6822C207.604 63.3888 208.232 63.0632 208.843 62.7066C209.514 62.3176 210.233 61.8711 211.001 61.3672C211.768 60.8632 212.512 60.3675 213.231 59.8803L213.653 60.4653L211.431 62.0494ZM212.323 39.0953C210.99 39.6777 209.618 40.1656 208.217 40.5555C206.498 41.0413 204.75 41.4164 202.983 41.6785C200.947 41.9794 198.891 42.1257 196.833 42.1161C195.896 42.1253 194.963 41.9937 194.065 41.7256C193.471 41.5624 192.89 41.3526 192.329 41.0982C192.812 40.3121 193.414 39.6048 194.112 39.0012C194.992 39.3538 195.916 39.5839 196.858 39.685C198.437 39.8969 200.029 39.9944 201.622 39.9768C203.364 39.9946 205.105 39.8898 206.832 39.6631C208.114 39.4898 209.383 39.2374 210.634 38.9071C211.518 38.6744 212.388 38.39 213.239 38.0554C213.91 37.7794 214.436 37.5755 214.808 37.4453L215.09 37.6398C214.207 38.1965 213.282 38.6832 212.323 39.0953Z" fill="url(#paint3_linear)"/>
<path d="M229.573 64.7788C227.593 65.7404 225.415 66.2239 223.213 66.1904C222.69 66.209 222.166 66.1428 221.664 65.9944C220.246 66.793 218.646 67.2127 217.018 67.2131C216.459 67.214 215.904 67.1233 215.374 66.9449C214.833 66.761 214.343 66.4526 213.942 66.0446C213.49 65.5719 213.145 65.0061 212.934 64.3867C212.665 63.5863 212.538 62.745 212.559 61.9008C212.553 61.0508 212.631 60.2023 212.793 59.3677C212.949 58.5877 213.169 57.7104 213.45 56.7359C213.668 55.9558 213.927 55.1842 214.225 54.4209C214.523 53.6576 214.827 52.9429 215.139 52.2768C215.427 51.6586 215.749 51.0565 216.102 50.4731C216.363 50.0278 216.67 49.6109 217.018 49.2293C217.265 48.9824 217.55 48.7769 217.862 48.6208C218.226 48.4381 218.629 48.3461 219.037 48.3526C219.273 48.3341 219.509 48.3854 219.716 48.5C219.843 48.5854 219.961 48.6831 220.069 48.7917H220.21C220.709 48.3045 221.225 47.8251 221.758 47.3535C222.291 46.8818 222.865 46.4578 223.472 46.0862C224.1 45.7048 224.769 45.3944 225.466 45.1608C226.269 44.904 227.11 44.7805 227.953 44.7954C228.505 44.7808 229.054 44.8791 229.566 45.0844C230.079 45.2896 230.544 45.5975 230.933 45.9889C231.85 47.1396 232.28 48.6032 232.131 50.0669C232.108 51.3762 231.886 52.6744 231.474 53.9174C231.018 55.3532 230.404 56.734 229.644 58.0345C228.863 59.3801 227.951 60.6452 226.921 61.8114C225.942 62.9338 224.801 63.9034 223.535 64.6879C223.684 64.7545 223.843 64.7954 224.005 64.8086C224.394 64.8649 224.786 64.8895 225.179 64.8823C226.767 64.8239 228.326 64.4339 229.755 63.7374C231.617 62.8784 233.373 61.8068 234.988 60.5441L235.411 61.1291C233.578 62.5169 231.624 63.7383 229.573 64.7788ZM217.605 63.2684C217.249 62.5366 217.003 61.7558 216.877 60.9518C216.753 60.1868 216.713 59.4105 216.759 58.6368C216.806 57.8918 216.86 57.2566 216.916 56.7375H216.775C216.681 57.0292 216.563 57.437 216.424 57.9561C216.242 58.7563 216.137 59.5719 216.11 60.3919C216.028 61.2105 216.1 62.0371 216.322 62.8293C216.475 63.3576 216.739 63.8472 217.096 64.266C217.355 64.5704 217.685 64.8051 218.058 64.9482C218.29 65.0422 218.536 65.0999 218.786 65.1192H219.256C218.545 64.67 217.974 64.0319 217.605 63.2763V63.2684ZM228.377 51.662C228.416 50.6487 228.172 49.6445 227.672 48.7619C227.399 48.3654 227.023 48.0498 226.586 47.8483C226.148 47.6468 225.664 47.5669 225.185 47.617C224.666 47.6482 224.153 47.7468 223.659 47.9103C222.993 48.1008 222.377 48.4331 221.852 48.8843C221.462 49.2309 221.115 49.6238 220.82 50.0543C220.4 50.6519 220.038 51.2885 219.739 51.9553C219.361 52.7966 219.055 53.6687 218.825 54.562C218.543 55.6409 218.363 56.7435 218.285 57.8557C218.285 58.1475 218.285 58.6102 218.309 59.2438C218.331 59.9231 218.449 60.5959 218.66 61.242C218.887 61.9569 219.254 62.6196 219.739 63.1916C220.309 63.8312 221.095 64.2387 221.946 64.3365C222.994 63.7783 223.914 63.0062 224.645 62.0701C225.449 61.0688 226.127 59.9727 226.664 58.8062C227.208 57.6244 227.632 56.3912 227.931 55.1251C228.211 53.9941 228.36 52.8348 228.377 51.6698V51.662Z" fill="url(#paint4_linear)"/>
<path d="M254.434 48.7445C254.417 50.358 254.097 51.954 253.492 53.4499C252.868 55.0567 252.089 56.5993 251.168 58.0564C250.288 59.4614 249.291 60.7899 248.188 62.0277C247.304 63.0488 246.313 63.9722 245.231 64.7818C244.374 65.3934 243.472 65.9392 242.532 66.4146C241.629 66.8969 240.623 67.1556 239.599 67.169C239.369 67.1956 239.136 67.1748 238.914 67.1079C238.692 67.041 238.486 66.9294 238.308 66.78C238.082 66.5434 237.956 66.2289 237.955 65.9017C237.974 65.1393 238.158 64.3901 238.495 63.7059C238.874 62.8957 239.339 62.1281 239.88 61.416C240.467 60.639 241.101 59.8983 241.778 59.1982C242.448 58.497 243.161 57.8375 243.912 57.2235C245.047 56.2937 246.23 55.4236 247.456 54.6168C248.537 53.9183 249.515 53.3254 250.39 52.8382C250.534 52.3971 250.613 51.9374 250.625 51.4736V50.2063C250.643 49.5887 250.564 48.9721 250.39 48.3791C250.266 47.9635 250.052 47.5805 249.763 47.2577C249.519 46.9961 249.212 46.803 248.87 46.6977C248.527 46.5979 248.172 46.5482 247.815 46.5503C246.832 46.6485 245.897 47.0201 245.115 47.6231C243.739 48.6061 242.486 49.7515 241.384 51.0345C241.07 51.7831 240.719 52.7012 240.329 53.7886C239.938 54.8761 239.516 56.0786 239.061 57.396C238.606 58.7114 238.121 60.133 237.606 61.6607C237.09 63.1883 236.567 64.7478 236.037 66.3393C235.536 67.8032 235.044 69.2571 234.56 70.7011C234.076 72.1451 233.622 73.5259 233.198 74.8434C232.775 76.1588 232.392 77.3775 232.049 78.4994C231.706 79.6214 231.424 80.5875 231.203 81.3979C231.165 81.6404 231.141 81.885 231.133 82.1304C231.118 82.4575 231.078 82.783 231.015 83.1044C230.929 83.462 230.795 83.8065 230.617 84.1286C230.332 84.6146 229.96 85.0437 229.519 85.3943C228.933 85.9079 228.186 86.2013 227.408 86.224C227.284 86.2239 227.161 86.1977 227.048 86.1472C226.935 86.0967 226.833 86.0229 226.751 85.9307C226.536 85.6539 226.435 85.3055 226.468 84.9567C226.491 84.489 226.554 84.024 226.656 83.567C226.866 82.6606 227.149 81.7726 227.502 80.9117C228.316 78.5716 229.146 76.2487 229.989 73.9431C230.71 71.9564 231.484 69.8197 232.312 67.5329C233.14 65.2461 233.915 63.1099 234.635 61.1242C235.043 59.9887 235.409 58.9493 235.733 58.0062C236.057 57.063 236.371 56.145 236.674 55.252C236.971 54.359 237.285 53.4493 237.615 52.5229C237.946 51.5965 238.297 50.565 238.671 49.4284C239.016 48.4873 239.345 47.5206 239.657 46.5283C239.817 45.8533 240.103 45.2146 240.501 44.6462C240.951 44.1728 241.482 43.7844 242.069 43.4997C242.412 43.3068 242.782 43.1676 243.167 43.0872C243.27 43.0854 243.372 43.0932 243.473 43.1107C243.55 43.1279 243.591 43.2174 243.591 43.3789C243.566 43.6021 243.518 43.8223 243.45 44.0361C243.356 44.378 243.238 44.8004 243.097 45.3034C242.957 45.8084 242.783 46.3511 242.581 46.9361C242.378 47.5212 242.182 48.0748 241.994 48.594L242.229 48.6426C242.836 48.0206 243.487 47.444 244.177 46.9173C244.896 46.3592 245.648 45.8464 246.43 45.3818C247.141 44.9534 247.887 44.5861 248.66 44.2839C249.271 44.0301 249.922 43.8892 250.583 43.8683C251.117 43.824 251.654 43.8971 252.157 44.0824C252.66 44.2677 253.116 44.5608 253.494 44.9411C254.235 46.0633 254.567 47.4064 254.434 48.7445ZM250.061 54.4929C249.7 54.6443 249.347 54.8155 249.005 55.0057C248.551 55.2483 248.058 55.5406 247.526 55.8825C246.994 56.2244 246.439 56.6145 245.86 57.0526C245.302 57.4738 244.778 57.9379 244.292 58.4406C243.884 58.8641 243.477 59.3028 243.07 59.7566C242.674 60.1979 242.313 60.6699 241.991 61.1681C241.691 61.6319 241.431 62.1211 241.216 62.6299C241.015 63.1085 240.911 63.6226 240.912 64.1419C240.912 64.7254 241.35 65.0176 242.226 65.0187C242.732 65.0028 243.228 64.8781 243.68 64.6532C244.301 64.3447 244.858 63.9235 245.324 63.411C245.747 62.961 246.146 62.4899 246.521 61.9994C247.016 61.3535 247.47 60.6779 247.882 59.9761C248.362 59.161 248.785 58.3142 249.149 57.4415C249.547 56.4901 249.852 55.5027 250.061 54.4929Z" fill="url(#paint5_linear)"/>
<path d="M300.754 62.5363C299.935 63.2447 299.08 63.9106 298.193 64.5314C297.278 65.1766 296.304 65.7318 295.282 66.1892C294.317 66.6327 293.269 66.8653 292.208 66.8715C290.639 66.8715 289.364 65.8071 288.382 63.6782C287.149 60.5339 286.382 57.226 286.107 53.8597C285.573 54.5728 284.877 55.5139 284.017 56.6829C282.924 58.2434 281.959 59.8893 281.13 61.6047C280.773 62.285 280.475 62.9944 280.239 63.7252C279.988 64.4896 279.753 65.188 279.535 65.8206C279.356 66.36 279.146 66.8889 278.907 67.4048C278.704 67.8267 278.509 68.0322 278.321 68.0322C278.136 68.0536 277.948 68.024 277.778 67.9466C277.608 67.8692 277.463 67.7469 277.358 67.593C277.178 67.2648 277.089 66.8943 277.101 66.5202C277.224 66.1971 277.529 65.5556 278.015 64.5957C278.501 63.6358 279.119 62.5065 279.869 61.2079C280.621 59.9092 281.481 58.4882 282.451 56.9449C283.42 55.4015 284.485 53.8524 285.645 52.2976C285.177 48.9191 284.811 46.2308 284.548 44.2326C284.284 42.2345 284.12 40.9102 284.055 40.2598C284.014 39.6417 283.879 39.0335 283.655 38.4561C283.539 38.1714 283.353 37.9202 283.116 37.7252C282.911 37.6 282.676 37.5328 282.436 37.5307C282.201 37.5307 282.084 37.3362 282.084 36.9457C282.092 36.7044 282.14 36.4661 282.225 36.2399C282.317 35.9638 282.436 35.6627 282.576 35.338C282.727 34.9942 282.9 34.6604 283.094 34.3389C283.296 33.997 283.492 33.6974 283.68 33.4371C283.886 33.1236 284.148 32.8509 284.453 32.6325C284.635 32.4881 284.851 32.3955 285.081 32.3643C285.206 32.3643 285.355 32.3737 285.528 32.3894C285.715 32.4127 285.888 32.4984 286.02 32.6325C286.213 32.8372 286.364 33.0774 286.466 33.3398C286.64 33.7942 286.759 34.2683 286.819 34.7514C286.973 35.7249 287.122 36.8228 287.264 38.0451C287.406 39.2675 287.539 40.5018 287.662 41.7482C287.788 43.003 287.905 44.2295 288.014 45.4278C288.123 46.6261 288.256 47.6984 288.414 48.6447C289.196 47.4746 290.017 46.2967 290.878 45.111C291.738 43.9252 292.583 42.7881 293.412 41.6996C294.242 40.6111 295.001 39.612 295.69 38.7023C296.379 37.7926 296.958 37.045 297.426 36.4595C298.146 35.5184 298.842 34.674 299.514 33.9264C300.185 33.1788 300.694 32.805 301.04 32.805C301.272 32.8095 301.5 32.8773 301.697 33.001C301.915 33.1312 302.026 33.423 302.026 33.8762C302.042 34.2537 301.97 34.6297 301.815 34.9741C301.642 35.2913 301.42 35.5793 301.157 35.8274C300.859 36.1191 300.484 36.4683 300.031 36.8751C299.578 37.2818 299.023 37.8261 298.366 38.5078C297.958 38.9261 297.355 39.5922 296.557 40.506C295.759 41.4199 294.899 42.4431 293.975 43.5755C293.053 44.7131 292.13 45.8988 291.206 47.1327C290.281 48.3665 289.491 49.5036 288.836 50.544C289.181 53.0138 289.541 55.1176 289.916 56.8554C290.206 58.3103 290.623 59.7373 291.16 61.12C291.487 62.0221 291.989 62.8505 292.638 63.5574C292.874 63.8045 293.158 64.0013 293.473 64.136C293.787 64.2708 294.126 64.3407 294.468 64.3416C295.145 64.3247 295.814 64.1844 296.441 63.9275C297.182 63.6412 297.896 63.2906 298.576 62.8798C299.277 62.4599 299.952 61.9958 300.594 61.4902C301.183 61.0338 301.739 60.5375 302.26 60.0049L302.73 60.7891C302.194 61.2732 301.535 61.8556 300.754 62.5363Z" fill="url(#paint6_linear)"/>
<path d="M320.655 61.4166C320.655 61.5473 320.247 61.9206 319.433 62.5364C318.428 63.2741 317.369 63.9342 316.265 64.5111C314.87 65.2543 313.419 65.8837 311.923 66.3932C310.401 66.9326 308.798 67.2125 307.183 67.2214C306.384 67.2827 305.581 67.185 304.819 66.9341C304.058 66.6832 303.354 66.284 302.748 65.7596C302.206 65.125 301.796 64.3886 301.542 63.5936C301.288 62.7986 301.195 61.9609 301.269 61.1295C301.342 59.4057 301.714 57.7077 302.367 56.1105C303.216 53.9336 304.413 51.909 305.911 50.116C306.778 49.0219 307.744 48.0106 308.797 47.0951C309.678 46.3254 310.629 45.6396 311.638 45.0468C312.446 44.5718 313.303 44.1878 314.196 43.9018C314.854 43.6825 315.541 43.5595 316.235 43.5363C316.884 43.4779 317.537 43.6046 318.117 43.9018C318.303 44.058 318.447 44.2577 318.538 44.4831C318.628 44.7086 318.661 44.9528 318.635 45.1942C318.455 46.3524 317.904 47.4211 317.066 48.2401C316.02 49.4949 314.667 50.9321 313.007 52.5517C312.349 53.2032 311.59 53.9351 310.73 54.7476C309.869 55.56 309.063 56.3395 308.313 57.0861C307.405 57.932 306.498 58.7931 305.591 59.6693C305.454 60.4019 305.471 61.1551 305.64 61.8809C305.81 62.6067 306.129 63.2893 306.576 63.8853C307.028 64.2872 307.556 64.5954 308.128 64.7919C308.7 64.9885 309.306 65.0695 309.909 65.0303C311.178 65.0212 312.434 64.7821 313.617 64.3245C314.778 63.8938 315.907 63.3807 316.995 62.7889C318.203 62.1271 319.35 61.3603 320.423 60.4975C320.517 60.6348 320.596 60.7821 320.658 60.9366C320.687 61.0954 320.686 61.2582 320.655 61.4166ZM314.646 47.3806C314.646 46.8614 314.505 46.5352 314.224 46.405C313.928 46.2728 313.607 46.2064 313.283 46.2105C312.492 46.2709 311.727 46.5216 311.054 46.9414C310.064 47.5175 309.209 48.2982 308.545 49.2313C308.157 49.7557 307.812 50.3101 307.513 50.8892C307.148 51.5833 306.826 52.2994 306.55 53.0333C306.245 53.8359 305.994 54.658 305.798 55.4941C305.597 56.3337 305.48 57.1911 305.447 58.0538C306.074 57.5017 306.716 56.9329 307.372 56.3474C307.935 55.8246 308.545 55.2557 309.202 54.6409C309.859 54.0261 310.486 53.393 311.084 52.7415C312.116 51.6373 312.969 50.6466 313.642 49.7693C314.227 49.1028 314.579 48.2645 314.646 47.3806Z" fill="url(#paint7_linear)"/>
<path d="M342.69 61.3172C342.236 61.6435 341.75 61.9848 341.235 62.3414C340.719 62.698 340.197 63.0556 339.666 63.4142C339.133 63.7718 338.648 64.0803 338.211 64.3396C337.27 64.9252 336.472 65.3884 335.817 65.7292C335.163 66.0701 334.607 66.3378 334.15 66.5323C333.78 66.6987 333.395 66.8295 333.001 66.9228C332.723 66.9834 332.441 67.016 332.157 67.0201C331.991 67.04 331.824 67.0057 331.68 66.9222C331.536 66.8387 331.423 66.7107 331.358 66.5574C331.238 66.2718 331.174 65.9655 331.17 65.6555C331.219 64.6524 331.369 63.6568 331.616 62.6833C331.913 61.3502 332.359 59.4654 332.953 57.0291L333.424 55.0795L333.234 54.9823C332.56 55.7452 331.926 56.5425 331.335 57.371C330.603 58.378 329.781 59.4335 328.869 60.5377C328.043 61.5849 327.152 62.5801 326.203 63.5177C325.548 64.1602 324.842 64.7472 324.09 65.2728C323.58 65.6368 323.019 65.9238 322.425 66.1245C321.992 66.2621 321.541 66.3361 321.087 66.3441C320.785 66.3738 320.482 66.3072 320.22 66.1539C319.959 66.0006 319.753 65.7685 319.631 65.4908C319.375 64.8969 319.247 64.2555 319.256 63.6087C319.262 63.346 319.285 63.084 319.327 62.8245C319.372 62.4998 319.435 62.1595 319.514 61.8003C319.59 61.4496 319.7 61.1071 319.843 60.7777C319.968 60.4802 320.134 60.2015 320.335 59.9495C320.594 59.6826 320.895 59.46 321.226 59.2908C321.542 59.1239 321.872 58.9853 322.213 58.8767C322.213 59.1047 322.205 59.4215 322.189 59.8272C322.173 60.2274 322.205 60.6281 322.283 61.0208C322.35 61.3843 322.485 61.7319 322.682 62.045C322.771 62.1865 322.896 62.3016 323.045 62.3786C323.194 62.4555 323.36 62.4914 323.527 62.4826C323.763 62.4817 323.998 62.4654 324.231 62.434C324.568 62.3687 324.888 62.2364 325.172 62.045C325.659 61.7314 326.115 61.3722 326.534 60.9722C327.23 60.3117 327.889 59.612 328.505 58.8767C329.256 57.9994 329.913 57.2194 330.477 56.5366C331.041 55.8538 331.534 55.2369 331.956 54.6859C332.374 54.1338 332.75 53.6303 333.082 53.1755C333.415 52.7206 333.719 52.2652 333.997 51.8093C334.31 50.7376 334.655 49.7066 335.03 48.7164C335.383 47.7747 335.79 46.8545 336.25 45.9606C336.48 45.6597 336.778 45.4177 337.119 45.2548C337.47 45.0772 337.83 44.9201 338.198 44.7843C338.526 44.6631 338.864 44.5733 339.208 44.5161C339.441 44.4751 339.675 44.4505 339.911 44.4424C340.256 44.4424 340.427 44.6698 340.427 45.1247C340.402 45.5234 340.323 45.9169 340.193 46.2947C340.037 46.8175 339.833 47.3926 339.583 48.02C339.333 48.6474 339.059 49.2972 338.761 49.9696C338.463 50.6367 338.174 51.264 337.893 51.8517C337.55 52.7279 337.206 53.7432 336.86 54.8976C336.515 56.052 336.202 57.1724 335.919 58.2588C335.638 59.3494 335.404 60.3244 335.217 61.1839C335.077 61.7357 334.982 62.298 334.934 62.8653C334.934 63.0927 334.934 63.3452 334.958 63.6213C334.981 63.8973 335.184 64.0353 335.585 64.0353C336.113 64.0145 336.632 63.8897 337.111 63.6683C337.763 63.3886 338.398 63.0712 339.012 62.7178C339.699 62.3289 340.411 61.8908 341.147 61.4035C341.883 60.9162 342.611 60.429 343.33 59.9417L343.752 60.5251C343.493 60.7301 343.139 60.9941 342.69 61.3172Z" fill="url(#paint8_linear)"/>
<path d="M356.696 55.6653C356.643 56.6344 356.431 57.5882 356.068 58.4885C355.622 59.7005 354.962 60.8228 354.12 61.8026C353.522 62.5552 352.879 63.2717 352.196 63.9482C351.513 64.6246 350.775 65.2436 349.991 65.799C349.216 66.3476 348.373 66.7902 347.481 67.1149C346.555 67.4457 345.577 67.6108 344.594 67.6027C344.243 67.6272 343.891 67.5564 343.578 67.3976C343.264 67.2388 342.998 66.9981 342.81 66.7008C342.438 66.1098 342.243 65.4246 342.247 64.7262C342.248 64.1965 342.287 63.6676 342.365 63.1436C342.442 62.6072 342.559 62.0222 342.716 61.3885C342.873 60.7549 343.082 60.0485 343.343 59.2695C343.609 58.4885 343.93 57.6107 344.307 56.6361C344.525 56.0861 344.791 55.4588 345.105 54.754C345.419 54.0493 345.763 53.3424 346.137 52.6335C346.511 51.9193 346.887 51.2208 347.263 50.538C347.639 49.8552 347.999 49.2545 348.342 48.7359C348.668 48.2304 349.021 47.7424 349.399 47.2741C349.757 46.8219 350.149 46.3981 350.572 46.0068C350.927 45.6778 351.312 45.3837 351.722 45.1285C352.029 44.9238 352.386 44.8061 352.754 44.7881C352.904 44.7864 353.051 44.8284 353.178 44.9089C353.238 44.9484 353.287 45.0031 353.32 45.0675C353.353 45.1319 353.368 45.2038 353.364 45.2759C353.278 45.7403 353.076 46.1755 352.778 46.5417C352.387 47.1267 351.971 47.7964 351.535 48.5399C351.253 49.0282 351.011 49.4835 350.808 49.906C350.605 50.3284 350.409 50.7665 350.221 51.2203C350.033 51.6767 349.821 52.1708 349.586 52.7072C349.351 53.2436 349.078 53.9023 348.764 54.6819C349.362 54.0836 350.061 53.5966 350.83 53.2436C351.695 52.8333 352.642 52.6247 353.6 52.6335C354.415 52.5856 355.221 52.8278 355.875 53.3173C356.178 53.6231 356.409 53.9925 356.551 54.3987C356.692 54.8049 356.742 55.2375 356.696 55.6653ZM352.988 58.2971C353.029 57.6395 352.874 56.9846 352.542 56.415C352.271 55.998 351.878 55.6745 351.416 55.488C350.937 55.3075 350.419 55.2571 349.914 55.3422C349.35 55.4286 348.804 55.6016 348.293 55.855C347.794 57.1861 347.348 58.4205 346.957 59.5581C346.551 60.7839 346.352 62.0688 346.369 63.36C346.337 63.8213 346.49 64.2764 346.792 64.6258C346.994 64.7918 347.226 64.9161 347.475 64.9915C347.725 65.0669 347.987 65.0919 348.246 65.0649C348.833 65.035 349.393 64.8147 349.843 64.4376C350.442 63.9779 350.965 63.4269 351.393 62.8048C351.869 62.1253 352.255 61.3873 352.542 60.609C352.829 59.8715 352.982 59.0885 352.993 58.2971H352.988Z" fill="url(#paint9_linear)"/>
<path d="M385.568 51.4254C385.344 52.0657 384.915 52.614 384.347 52.9844C383.524 53.5246 382.562 53.8124 381.577 53.8126C381.138 53.845 380.763 53.8617 380.451 53.8628H379.653C379.433 53.8649 379.213 53.8481 378.996 53.8126C378.966 54.5488 378.839 55.278 378.621 55.9817C378.334 56.965 377.957 57.9195 377.495 58.8332C376.961 59.8929 376.349 60.9111 375.663 61.8791C374.95 62.8957 374.123 63.8277 373.199 64.6568C372.281 65.4811 371.245 66.1632 370.125 66.6801C368.994 67.2017 367.763 67.4694 366.517 67.4643C365.576 67.5232 364.634 67.3649 363.764 67.0016C362.893 66.6382 362.118 66.0796 361.498 65.3689C360.2 63.5044 359.586 61.2488 359.76 58.9837C359.78 57.0018 360.081 55.0327 360.653 53.135C361.265 51.0455 362.082 49.0217 363.093 47.0934C364.132 45.1047 365.349 43.2148 366.731 41.447C368.051 39.7372 369.529 38.1546 371.144 36.7197C372.585 35.427 374.195 34.3368 375.931 33.4793C377.422 32.7195 379.068 32.3107 380.741 32.2842C381.079 32.2863 381.417 32.3109 381.751 32.3579C382.103 32.4039 382.44 32.5288 382.737 32.7234C383.042 32.9269 383.292 33.2034 383.464 33.528C383.672 33.9599 383.769 34.437 383.747 34.916C383.749 35.5551 383.613 36.1872 383.347 36.7684C383.105 37.3134 382.788 37.8218 382.406 38.2788C382.09 38.6629 381.72 38.9994 381.308 39.2779C381.048 39.4765 380.74 39.6026 380.415 39.6433C380.227 39.6433 380.133 39.5304 380.133 39.303C380.157 39.0896 380.221 38.8826 380.321 38.6928C380.483 38.1484 380.546 37.5797 380.509 37.013C380.542 36.7161 380.496 36.4159 380.377 36.1422C380.257 35.8684 380.068 35.6306 379.829 35.4524C379.36 35.1568 378.814 35.0047 378.26 35.0148C377.026 35.0254 375.812 35.3251 374.715 35.89C373.485 36.5157 372.361 37.3302 371.383 38.3039C370.282 39.3911 369.299 40.5913 368.45 41.8846C367.522 43.2851 366.714 44.761 366.033 46.2966C365.328 47.8712 364.755 49.501 364.318 51.1698C363.889 52.7883 363.622 54.4453 363.52 56.1166C363.426 57.382 363.434 58.6528 363.543 59.9169C363.624 60.9619 363.861 61.9887 364.248 62.9629C364.56 63.7595 365.069 64.4641 365.727 65.0112C366.382 65.5246 367.196 65.7917 368.028 65.7657C368.919 65.7792 369.797 65.5429 370.561 65.0834C371.327 64.6155 372.009 64.0222 372.579 63.3283C373.19 62.5893 373.71 61.78 374.129 60.9176C374.552 60.0593 374.913 59.1713 375.208 58.2607C375.474 57.4491 375.678 56.6186 375.818 55.7763C375.934 55.1327 375.981 54.4787 375.959 53.8251C375.662 53.8263 375.364 53.843 375.068 53.8753C374.779 53.9085 374.486 53.9001 374.199 53.8502C373.958 53.8132 373.731 53.7125 373.542 53.5585C373.446 53.4592 373.373 53.34 373.329 53.2093C373.284 53.0787 373.269 52.9398 373.284 52.8025C373.27 52.5756 373.314 52.349 373.413 52.1442C373.511 51.9394 373.661 51.7632 373.847 51.6325C374.203 51.3782 374.63 51.2417 375.068 51.2419C375.697 51.2329 376.326 51.2659 376.95 51.3407C377.421 51.405 378.014 51.4552 378.734 51.4866C379.548 51.5201 380.198 51.5446 380.682 51.5603C381.166 51.576 381.737 51.5838 382.396 51.5838C383.116 51.5838 383.74 51.5681 384.278 51.5352C384.816 51.5023 385.222 51.4584 385.568 51.4254Z" fill="url(#paint10_linear)"/>
<path d="M404.318 62.8058C403.239 63.6663 402.136 64.4871 401.01 65.2682C399.984 65.9851 398.918 66.6438 397.818 67.2413C397.092 67.6897 396.273 67.965 395.423 68.0459C395.205 68.0524 394.989 67.999 394.799 67.8915C394.608 67.7839 394.451 67.6263 394.344 67.4358C394.078 66.969 393.948 66.4371 393.969 65.9003C393.972 65.5093 393.996 65.1187 394.04 64.7302C394.085 64.2764 394.137 63.83 394.197 63.3908C394.256 62.9516 394.327 62.5292 394.408 62.1235C394.486 61.7168 394.556 61.3837 394.62 61.1244H394.432C393.18 62.7947 391.667 64.2513 389.949 65.4376C388.704 66.375 387.211 66.9259 385.655 67.0217C385.191 67.0845 384.719 67.0067 384.299 66.7984C383.88 66.5902 383.533 66.2609 383.302 65.8532C382.885 64.8511 382.693 63.7696 382.739 62.685C382.754 61.6911 382.88 60.702 383.116 59.7363C383.378 58.6088 383.739 57.5067 384.195 56.4426C384.671 55.3267 385.235 54.2509 385.884 53.2257C386.529 52.2042 387.284 51.2574 388.138 50.4025C389.783 48.6638 391.741 47.2505 393.91 46.2368C395.584 45.5032 397.388 45.1138 399.216 45.0918C399.609 45.1001 400.002 45.1405 400.389 45.2126C400.867 45.2969 401.333 45.4446 401.772 45.6517C402.216 45.8558 402.615 46.1458 402.945 46.505C403.281 46.8785 403.458 47.3678 403.439 47.8695C403.444 48.1711 403.421 48.4726 403.369 48.7698C403.325 49.0039 403.238 49.2275 403.11 49.4285C402.959 49.6537 402.786 49.8637 402.594 50.0559C402.375 50.2833 402.108 50.5421 401.796 50.8401C401.561 51.5208 401.271 52.1813 400.928 52.8148C400.516 53.6079 400.163 54.4305 399.871 55.2757C399.151 57.323 398.549 59.0771 398.064 60.5378C397.73 61.4038 397.486 62.302 397.337 63.2183C397.284 63.6969 397.374 64.1803 397.596 64.6079C397.669 64.7053 397.763 64.7843 397.872 64.8388C397.981 64.8932 398.101 64.9216 398.223 64.9216C398.867 64.8999 399.5 64.7394 400.077 64.4511C400.804 64.1106 401.503 63.7114 402.166 63.2575C402.884 62.7692 403.619 62.2249 404.371 61.6247C405.123 61.0245 405.859 60.4495 406.578 59.8995L407 60.4845C406.296 61.1704 405.402 61.9442 404.318 62.8058ZM400.304 48.3557C400.227 48.1101 400.081 47.8922 399.882 47.7283C399.654 47.5274 399.402 47.3556 399.131 47.217C398.864 47.0777 398.58 46.9723 398.287 46.9034C398.087 46.8512 397.883 46.8186 397.677 46.8061C396.901 46.8009 396.128 46.8996 395.378 47.0994C394.635 47.3028 393.93 47.6231 393.289 48.0483C392.554 48.5381 391.884 49.1177 391.294 49.7736C390.546 50.6074 389.87 51.5037 389.275 52.4525C388.86 53.1173 388.506 53.8187 388.218 54.5479C387.891 55.3604 387.594 56.1812 387.327 57.0104C387.073 57.7922 386.869 58.5896 386.717 59.3975C386.591 60.0175 386.52 60.6473 386.505 61.2797C386.417 62.0354 386.628 62.7955 387.092 63.3986C387.252 63.5695 387.445 63.7071 387.658 63.8035C387.872 63.8998 388.103 63.9531 388.337 63.9601C389.689 63.8357 390.959 63.2607 391.944 62.3274C393.554 60.8681 394.806 59.0586 395.605 57.0386C396.035 56.0974 396.402 55.1286 396.703 54.1386C396.949 53.3034 397.239 52.482 397.572 51.6777C397.699 51.3437 397.848 51.0184 398.017 50.7037C398.218 50.3171 398.454 49.9496 398.722 49.6058C398.963 49.2921 399.23 48.9993 399.52 48.7306C399.722 48.5103 400 48.3756 400.298 48.3542L400.304 48.3557Z" fill="url(#paint11_linear)"/>
<path d="M21.4426 33.399L24.1258 38.3587L23.8452 38.5078L22.6335 39.1575L22.7899 39.4485L24.0017 38.7998L24.2822 38.6497L24.6493 39.3348L24.3687 39.485L23.158 40.1336L23.3134 40.4267L24.5252 39.777L24.8057 39.6268L25.1728 40.3119L23.6805 41.1108L23.8379 41.4038L25.3292 40.6029L25.6952 41.2891L24.204 42.0879L24.3615 42.3799L25.8517 41.5811L26.2198 42.2673L24.7285 43.0661L24.885 43.357L26.3762 42.5582L26.8976 43.5322L26.2855 43.8597L25.3469 44.3613L24.7358 44.6898L19.287 34.568L18.9043 34.7766L24.4021 44.9859C24.4414 45.0573 24.507 45.1105 24.5849 45.1342C24.6628 45.158 24.7468 45.1504 24.8193 45.1132L25.5399 44.7284L25.6848 44.9995L25.5357 45.0787L27.0999 47.2833L27.271 47.1915L29.0865 50.5922L29.9104 51.4161L27.5744 47.0309L27.7465 46.9392L26.7777 44.4165L26.6296 44.4958L26.4836 44.2247L27.2042 43.8399C27.2765 43.8001 27.3301 43.7333 27.3533 43.6542C27.3656 43.6153 27.3699 43.5742 27.3659 43.5335C27.362 43.4929 27.3499 43.4534 27.3304 43.4175L21.8253 33.1904L21.4426 33.399Z" fill="white"/>
<path d="M22.6546 29.3225C21.6837 30.1947 20.6007 30.9333 19.4343 31.5188L18.9129 30.5614C19.2925 30.3737 19.939 30.0588 20.4771 29.8387C21.6555 29.2214 20.8223 28.4768 20.3322 28.9471C19.0768 29.9288 17.6672 30.6953 16.1608 31.2153C15.4997 31.3707 15.7437 32.5897 16.8293 31.8233C17.3507 31.4572 17.9368 31.1068 18.2893 30.9014L18.8107 31.8598C17.6847 32.5192 16.4758 33.0256 15.216 33.3656C13.5298 33.7066 13.8687 35.5222 15.1639 34.9528C18.0911 33.668 18.9181 34.7787 18.9181 34.7787L20.2873 34.0351L20.4667 33.9381L21.8359 33.1935C21.8359 33.1935 21.3521 31.8983 24.0259 30.1422C25.197 29.3653 23.858 28.093 22.6546 29.3225Z" fill="white"/>
<path d="M59.1723 39.153L54.3158 42.0166L54.1552 41.7423L53.4617 40.5556L53.177 40.7224L53.8695 41.9092L54.0301 42.1835L53.3585 42.5756L53.1989 42.3013L52.5065 41.1145L52.2187 41.2814L52.9153 42.4681L53.0748 42.7424L52.4043 43.1356L51.5502 41.6756L51.2634 41.8435L52.1185 43.3035L51.4459 43.6945L50.5929 42.2346L50.3071 42.4024L51.1602 43.8624L50.4886 44.2556L49.6345 42.7956L49.3498 42.9625L50.2029 44.4224L49.2487 44.9803L48.8993 44.3807L48.3633 43.462L48.0077 42.8603L57.9219 37.0433L57.6998 36.6689L47.7011 42.5391C47.6657 42.5593 47.6348 42.5865 47.6101 42.6189C47.5854 42.6513 47.5674 42.6883 47.5572 42.7278C47.5362 42.8079 47.5479 42.893 47.5895 42.9645L48.0004 43.6705L47.7355 43.8249L47.65 43.6799L45.5059 45.3224L45.604 45.4903L42.2721 47.43L41.4785 48.283L45.7739 45.7802L45.872 45.9481L48.356 44.8875L48.2715 44.7426L48.5375 44.5872L48.9494 45.2921C48.9914 45.3633 49.0597 45.4149 49.1396 45.4358C49.2196 45.4567 49.3045 45.4452 49.3759 45.4037L59.3913 39.5232L59.1723 39.153Z" fill="white"/>
<path d="M63.2877 40.2143C62.3814 39.2755 61.6036 38.2207 60.9747 37.0774L61.9132 36.5226C62.1155 36.8949 62.4534 37.529 62.6933 38.0587C63.3534 39.2131 64.0667 38.3528 63.5797 37.8804C62.5488 36.6606 61.729 35.2772 61.154 33.7873C60.9736 33.1334 59.7639 33.4212 60.5711 34.4787C60.9548 34.9824 61.3271 35.559 61.5451 35.9032L60.6065 36.459C59.9063 35.3577 59.3558 34.1682 58.9693 32.9217C58.5678 31.2532 56.7658 31.6547 57.3821 32.928C58.7732 35.8052 57.6949 36.6697 57.6949 36.6697L58.4885 38.0107L58.5928 38.1859L59.3875 39.527C59.3875 39.527 60.6639 38.9962 62.516 41.6002C63.344 42.7556 64.561 41.3718 63.2877 40.2143Z" fill="white"/>
<path d="M63.5434 17.7848L60.5859 20.904L60.4107 20.7371L59.6526 20.0071L59.4795 20.1896L60.2366 20.9133L60.4117 21.0812L60.0019 21.5098L59.8278 21.3419L59.0706 20.6182L58.8955 20.8007L59.6526 21.5244L59.8278 21.6923L59.419 22.1209L58.4856 21.2293L58.3115 21.4118L59.2448 22.3024L58.8339 22.731L57.9016 21.8394L57.7275 22.0229L58.6598 22.9135L58.25 23.3431L57.3114 22.4515L57.1383 22.634L58.0706 23.5256L57.4887 24.1347L57.106 23.7686L56.5199 23.2076L56.1382 22.8426L62.1814 16.4959L61.9395 16.2686L55.8441 22.6716C55.8226 22.694 55.8058 22.7205 55.7945 22.7495C55.7832 22.7784 55.7778 22.8094 55.7784 22.8404C55.7791 22.8715 55.7859 22.9022 55.7984 22.9306C55.8109 22.9591 55.829 22.9848 55.8514 23.0063L56.3009 23.438L56.1393 23.607L56.0464 23.5183L54.8201 25.1733L54.9243 25.2776L52.8898 27.3987L52.4883 28.1913L55.11 25.4549L55.2142 25.5592L56.8119 24.2598L56.7191 24.1712L56.8817 24.0012L57.3312 24.4319C57.377 24.475 57.4379 24.4983 57.5008 24.4967C57.5637 24.4951 57.6234 24.4688 57.667 24.4235L63.7738 18.0111L63.5434 17.7848Z" fill="white"/>
<path d="M66.785 17.6978C65.9236 17.2002 65.1321 16.5904 64.4313 15.8843L65.0018 15.2815C65.2281 15.511 65.6087 15.9072 65.8955 16.243C66.6255 16.9501 66.9644 16.17 66.5076 15.9302C65.4978 15.2527 64.6079 14.4118 63.8745 13.442C63.6054 12.9998 62.7795 13.4649 63.5929 14.0677C63.9798 14.3555 64.374 14.7007 64.6065 14.9019L64.0351 15.5068C63.2903 14.8468 62.6366 14.0908 62.0912 13.2584C61.4457 12.1165 60.2141 12.7923 60.9295 13.5963C62.5542 15.4129 61.9442 16.2722 61.9442 16.2722L62.8076 17.0888L62.9203 17.1931L63.7848 18.0096C63.7848 18.0096 64.6086 17.3516 66.5139 18.871C67.3565 19.5499 67.9603 18.2786 66.785 17.6978Z" fill="white"/>
<path d="M90.4579 23.9439L87.6913 24.1358L87.6808 23.9793L87.637 23.3046L87.4744 23.3161L87.5181 23.9898L87.5286 24.1462L87.1469 24.1712L87.1365 24.0148L87.0927 23.3411L86.93 23.3505L86.9748 24.0252L86.9842 24.1817L86.6025 24.2067L86.5483 23.3724L86.3856 23.3839L86.4409 24.2182L86.0582 24.2432L86.005 23.4089L85.8413 23.4204L85.8965 24.2547L85.5138 24.2797L85.4596 23.4454L85.298 23.4569L85.3511 24.2912L84.8089 24.3266L84.787 23.9866L84.7536 23.4652L84.7306 23.1253L90.3724 22.7457L90.3578 22.5371L84.666 22.9198C84.6258 22.923 84.5884 22.9417 84.5617 22.972C84.5483 22.9869 84.538 23.0044 84.5316 23.0234C84.5251 23.0424 84.5226 23.0625 84.5242 23.0825L84.5502 23.484L84.399 23.4934V23.411L83.0934 23.6623L83.0997 23.7572L81.2069 23.8782L80.6709 24.0795L83.1111 23.923L83.1174 24.0179L84.4407 24.0888V24.0065L84.592 23.996L84.618 24.3975C84.6194 24.4175 84.6247 24.437 84.6336 24.4549C84.6426 24.4728 84.655 24.4887 84.6702 24.5018C84.7005 24.5288 84.7402 24.5427 84.7807 24.5404L90.4819 24.1577L90.4579 23.9439Z" fill="white"/>
<path d="M92.0398 25.3164C91.8471 24.7043 91.737 24.0691 91.7123 23.4278L92.2463 23.3893C92.2536 23.5978 92.2629 23.9513 92.2463 24.2371C92.2828 24.8899 92.7865 24.6688 92.6759 24.3539C92.4911 23.5913 92.435 22.8032 92.5101 22.0221C92.5748 21.6936 91.9793 21.5549 92.1013 22.1973C92.1597 22.5039 92.1972 22.8397 92.2171 23.0389L91.6821 23.0774C91.6161 22.4388 91.6354 21.7943 91.7395 21.1607C91.9303 20.3358 91.048 20.1179 91.0397 20.8135C91.0188 22.3861 90.3535 22.5289 90.3535 22.5289L90.4077 23.2933L90.415 23.3976L90.4693 24.162C90.4693 24.162 91.1482 24.2089 91.3901 25.7627C91.5006 26.4468 92.3453 26.1058 92.0398 25.3164Z" fill="white"/>
<path d="M8.497 39.2962L14.5454 43.0734L14.3306 43.4134L13.4035 44.8838L13.7571 45.1059L14.6841 43.6365L14.899 43.2966L15.7332 43.818L15.5184 44.1569L14.5924 45.6263L14.9459 45.8515L15.873 44.3801L16.0815 44.0411L16.9158 44.5626L15.7739 46.3729L16.1295 46.5961L17.2693 44.7857L18.1036 45.3071L16.9627 47.1165L17.3173 47.3396L18.4571 45.5303L19.2914 46.0517L18.1505 47.8621L18.504 48.0832L19.6449 46.2749L20.8275 47.0195L20.3582 47.7609L19.6407 48.8987L19.1735 49.6401L6.8681 41.9127L6.57715 42.3799L18.9931 50.1751C19.0815 50.2301 19.188 50.2481 19.2896 50.2251C19.3911 50.202 19.4795 50.1398 19.5354 50.052L20.0871 49.1792L20.4166 49.3878L20.3019 49.5671L23.396 51.0146L23.5274 50.806L27.6455 53.4131L29.0659 53.8052L23.7547 50.4462L23.8851 50.2377L21.2467 48.0696L21.133 48.249L20.8035 48.0404L21.3552 47.1676C21.41 47.0788 21.4276 46.972 21.4042 46.8704C21.3934 46.8198 21.3725 46.7719 21.3427 46.7296C21.313 46.6873 21.275 46.6515 21.2311 46.6242L8.79526 38.8145L8.497 39.2962Z" fill="url(#paint12_linear)"/>
<path d="M7.28598 34.0562C6.7622 35.6209 6.0324 37.1089 5.11584 38.4809L3.94682 37.7509C4.24715 37.3067 4.76127 36.5569 5.21491 35.9781C6.1253 34.5651 4.74458 34.2668 4.49847 35.0886C3.73186 36.9539 2.65857 38.6779 1.32304 40.1891C0.697344 40.7731 1.72245 41.9619 2.43784 40.4394C2.77884 39.7156 3.20849 38.9606 3.46815 38.5153L4.63822 39.2453C3.8123 40.6733 2.79945 41.9846 1.62651 43.1445C-0.0159545 44.5721 1.4899 46.3564 2.5588 44.9173C4.97505 41.6772 6.57371 42.3853 6.57371 42.3853L7.61655 40.7168L7.75212 40.4988L8.79496 38.8251C8.79496 38.8251 7.45387 37.703 9.29551 34.1052C10.1079 32.5159 7.84181 31.9528 7.28598 34.0562Z" fill="url(#paint13_linear)"/>
<path d="M42.1648 25.5386L39.8518 32.2826L39.4732 32.1502L37.8308 31.5798L37.6942 31.975L39.3356 32.5454L39.7152 32.6779L39.393 33.606L39.0134 33.4746L37.373 32.9042L37.2332 33.2994L38.8757 33.8698L39.2553 34.0023L38.9331 34.9304L36.911 34.2286L36.7744 34.6248L38.7954 35.3256L38.4721 36.2548L36.4511 35.5519L36.3145 35.9482L38.3345 36.649L38.0122 37.5792L35.9902 36.8774L35.8546 37.2716L37.8746 37.9744L37.4168 39.2947L36.5825 39.0058L35.3134 38.5636L34.4854 38.2768L39.2271 24.5406L38.7057 24.3623L33.9285 38.2195C33.9111 38.2681 33.9036 38.3198 33.9065 38.3713C33.9093 38.4229 33.9225 38.4734 33.9452 38.5198C33.9677 38.5664 33.9991 38.6081 34.0378 38.6424C34.0765 38.6768 34.1215 38.7032 34.1704 38.7201L35.1455 39.06L35.0183 39.4271L34.817 39.3572L34.1068 42.6943L34.3383 42.7746L32.7324 47.3766L32.6719 48.8481L34.7419 42.9143L34.9734 42.9957L36.4887 39.9339L36.2884 39.864L36.4156 39.4959L37.3907 39.8359C37.4894 39.8692 37.5973 39.8625 37.691 39.8171C37.7377 39.7948 37.7795 39.7633 37.8139 39.7247C37.8482 39.686 37.8746 39.6408 37.8913 39.5919L42.6883 25.7128L42.1648 25.5386Z" fill="url(#paint14_linear)"/>
<path d="M46.9933 23.1743C45.352 23.0175 43.7389 22.6433 42.1962 22.0616L42.6405 20.758C43.141 20.9499 43.9868 21.2794 44.6521 21.5923C46.2351 22.1585 46.2164 20.7465 45.3571 20.6934C43.367 20.3669 41.4452 19.7114 39.6705 18.7537C38.9593 18.2729 38.0343 19.5442 39.6788 19.9008C40.461 20.0687 41.2931 20.3179 41.7864 20.4692L41.3411 21.7737C39.7617 21.2922 38.2537 20.602 36.8569 19.7214C35.0956 18.445 33.6982 20.3159 35.3365 21.0323C39.0385 22.6529 38.7111 24.3694 38.7111 24.3694L40.5757 25.0055L40.8197 25.0889L42.6843 25.724C42.6843 25.724 43.4748 24.165 47.3958 25.1442C49.1311 25.5738 49.1676 23.2389 46.9933 23.1743Z" fill="url(#paint15_linear)"/>
<path d="M79.3446 20.2424L75.849 21.8442L75.7593 21.6471L75.3714 20.793L75.1628 20.8868L75.5497 21.7399L75.6394 21.937L75.1566 22.156L75.0669 21.9589L74.68 21.1058L74.4714 21.1976L74.8594 22.0517L74.949 22.2498L74.4662 22.4688L73.9886 21.4176L73.78 21.5105L74.2576 22.5616L73.7738 22.7806L73.2972 21.7294L73.0886 21.8233L73.5652 22.8734L73.0813 23.0935L72.6047 22.0413L72.3962 22.1351L72.8717 23.1863L72.1855 23.4991L71.9905 23.0684L71.6912 22.4073L71.4962 21.9776L78.6292 18.7261L78.5051 18.457L71.3096 21.7367C71.284 21.748 71.261 21.7643 71.2418 21.7846C71.2227 21.8049 71.2078 21.8288 71.1981 21.855C71.1884 21.8811 71.184 21.909 71.1852 21.9368C71.1864 21.9647 71.1933 21.9921 71.2053 22.0173L71.4347 22.5251L71.2439 22.6117L71.1959 22.5074L69.6264 23.472L69.6806 23.593L67.2821 24.6744L66.6846 25.1958L69.7735 23.8005L69.8287 23.9204L71.589 23.375L71.541 23.2708L71.7329 23.1842L71.9624 23.6921C71.9868 23.7411 72.0295 23.7785 72.0812 23.7963C72.107 23.8072 72.1346 23.8129 72.1626 23.8129C72.1905 23.8129 72.2182 23.8072 72.2439 23.7963L79.452 20.5114L79.3446 20.2424Z" fill="url(#paint16_linear)"/>
<path d="M82.0641 21.2517C81.5142 20.5504 81.0604 19.7789 80.7147 18.9575L81.3894 18.6446C81.501 18.9116 81.6856 19.3662 81.8066 19.7417C82.1736 20.5759 82.718 20.0378 82.4208 19.6833C81.8081 18.7839 81.35 17.7886 81.0651 16.7383C80.989 16.2826 80.1484 16.3931 80.6219 17.1669C80.8471 17.535 81.0588 17.9532 81.1829 18.2014L80.5072 18.5143C80.1094 17.718 79.819 16.8726 79.6437 16C79.4883 14.8362 78.238 14.9853 78.5665 15.8957C79.309 17.9459 78.5154 18.4559 78.5154 18.4559L78.9596 19.4215L79.018 19.5477L79.4623 20.5134C79.4623 20.5134 80.3664 20.2422 81.4436 22.1402C81.9202 22.9797 82.8442 22.1256 82.0641 21.2517Z" fill="url(#paint17_linear)"/>
<path d="M91.844 4.10796L89.9085 5.64197L89.8219 5.53248L89.4507 5.05903L89.337 5.14871L89.7083 5.62216L89.7948 5.72644L89.5268 5.93501L89.4413 5.82551L89.069 5.35207L88.9543 5.44175L89.3266 5.9152L89.4131 6.01948L89.1451 6.22805L88.6873 5.6451L88.5726 5.73583L89.0315 6.31773L88.7635 6.5263L88.3057 5.94335L88.1909 6.03304L88.6498 6.61598L88.3818 6.82455L87.9229 6.2416L87.8103 6.33129L88.2671 6.91423L87.8864 7.21353L87.6998 6.97368L87.4119 6.60764L87.2242 6.36883L91.1755 3.25075L91.0577 3.10059L87.0709 6.24786C87.0527 6.26018 87.038 6.27706 87.0283 6.29682C87.0186 6.31657 87.0143 6.33852 87.0157 6.36049C87.0126 6.37887 87.0136 6.39769 87.0184 6.41568C87.0233 6.43367 87.032 6.45041 87.0438 6.46477L87.2639 6.74633L87.1596 6.82976L87.1137 6.77136L86.2794 7.61293L86.3326 7.67967L85.003 8.72251L84.71 9.13964L86.4233 7.79647L86.4765 7.86321L87.4902 7.25419L87.4453 7.1958L87.5496 7.11237L87.7696 7.39394C87.7925 7.42174 87.8252 7.43965 87.861 7.44392C87.8967 7.4482 87.9327 7.43851 87.9615 7.41688L91.9556 4.26543L91.844 4.10796Z" fill="url(#paint18_linear)"/>
<path d="M93.6905 4.32215C93.2409 3.96916 92.8401 3.55818 92.4985 3.09995L92.8719 2.80274C92.9824 2.95187 93.167 3.20736 93.3025 3.42219C93.6581 3.88312 93.9168 3.46703 93.6769 3.29183C93.4177 3.05849 93.178 2.80423 92.9605 2.5316C92.7443 2.25801 92.5504 1.96752 92.3807 1.66293C92.2639 1.3897 91.755 1.5868 92.1721 1.99767C92.3682 2.19268 92.5653 2.42107 92.68 2.55768L92.3066 2.85489C91.9365 2.41901 91.6261 1.93575 91.3837 1.41786C91.1084 0.717074 90.3513 1.00072 90.6954 1.51588C91.4713 2.68073 91.0552 3.12081 91.0552 3.12081L91.4797 3.65474L91.5349 3.72461L91.9604 4.25854C91.9604 4.25854 92.4818 3.95195 93.4423 4.9708C93.8698 5.42234 94.3162 4.74763 93.6905 4.32215Z" fill="url(#paint19_linear)"/>
<path d="M56.3641 65.6189L49.6367 63.261L49.7702 62.8825L50.3521 61.2442L49.9579 61.1055L49.3771 62.7427L49.2425 63.1213L48.3155 62.7928L48.45 62.4142L49.0319 60.778L48.6377 60.6362L48.0558 62.2745L47.9223 62.6531L46.9952 62.3246L47.7106 60.3077L47.3154 60.168L46.601 62.1848L45.675 61.8542L46.3904 59.8395L45.9952 59.6998L45.2808 61.7145L44.3527 61.386L45.0681 59.3692L44.677 59.2326L43.9606 61.2484L42.6435 60.7812L42.9376 59.9542L43.3881 58.6872L43.6811 57.8612L57.386 62.6958L57.5665 62.1744L43.7385 57.2981C43.6898 57.2806 43.6381 57.2729 43.5865 57.2754C43.5348 57.2779 43.4841 57.2907 43.4374 57.3129C43.3907 57.3351 43.3488 57.3663 43.3142 57.4047C43.2796 57.4432 43.253 57.4881 43.2358 57.5369L42.8896 58.5099L42.5225 58.3795L42.5945 58.1783L39.2574 57.4483L39.1761 57.6798L34.5876 56.0425L33.1172 55.9727L39.0363 58.0823L38.9539 58.3138L42.0053 59.8489L42.0762 59.6487L42.4433 59.779L42.097 60.752C42.0632 60.8505 42.0696 60.9584 42.1148 61.0523C42.1365 61.0993 42.1675 61.1414 42.2058 61.1761C42.2441 61.2109 42.2891 61.2376 42.3379 61.2546L56.1847 66.1403L56.3641 65.6189Z" fill="url(#paint20_linear)"/>
<path d="M58.6968 70.4625C58.8639 68.8195 59.2497 67.2063 59.8439 65.6654L61.1433 66.1191C60.9482 66.6175 60.6114 67.4612 60.2954 68.1255C59.7187 69.7043 61.1297 69.6897 61.1902 68.8356C61.5304 66.8476 62.2001 64.9302 63.1716 63.1626C63.6575 62.4545 62.3926 61.5212 62.0245 63.1626C61.8513 63.9437 61.5979 64.7748 61.4426 65.266L60.1411 64.8124C60.6342 63.2373 61.3357 61.7352 62.2268 60.3459C63.5147 58.594 61.6543 57.183 60.9264 58.8171C59.2808 62.5088 57.5663 62.1688 57.5663 62.1688L56.9177 64.0303L56.8332 64.2732L56.1846 66.1337C56.1846 66.1337 57.7384 66.9335 56.7331 70.8483C56.2826 72.5805 58.6165 72.6368 58.6968 70.4625Z" fill="url(#paint21_linear)"/>
<path d="M7.35176 54.0572L12.9893 53.9738V54.2866L13.005 55.6621H13.3345L13.3199 54.2887V53.9758L14.0979 53.9675V54.2856L14.1114 55.659H14.443L14.4284 54.2835V53.9706L15.2053 53.9623L15.2241 55.6548H15.5557L15.5359 53.9623L16.3139 53.955L16.3316 55.6465H16.6643L16.6455 53.956L17.4235 53.9467L17.4422 55.6392H17.7718L17.754 53.9467L18.8594 53.9352L18.8667 54.6287L18.8772 55.6924L18.8855 56.3858L7.39139 56.5318L7.39869 56.9667L18.994 56.8186C19.0347 56.8187 19.075 56.8106 19.1125 56.7946C19.15 56.7787 19.1838 56.7552 19.2119 56.7258C19.2698 56.6669 19.3021 56.5874 19.3016 56.5047L19.2933 55.6882H19.6061V55.8571L22.2831 55.4921V55.2971L26.1416 55.2617L27.2532 54.9134L22.2831 54.9603V54.7653L19.5988 54.4524V54.6203H19.286L19.2776 53.8038C19.2759 53.7215 19.2418 53.6432 19.1827 53.5858C19.1538 53.5567 19.1194 53.5338 19.0814 53.5184C19.0434 53.5029 19.0026 53.4954 18.9616 53.4961L7.34863 53.6421L7.35176 54.0572Z" fill="white"/>
<path d="M4.29893 51.0986C4.62202 52.363 4.77528 53.6647 4.75466 54.9696L3.66594 54.9873C3.67428 54.5639 3.69513 53.8454 3.74832 53.2666C3.74832 51.937 2.70548 52.3281 2.89007 52.983C3.18048 54.5513 3.20727 56.157 2.96932 57.7341C2.80143 58.3922 3.99443 58.7405 3.81714 57.4213C3.73268 56.7956 3.69513 56.1084 3.67636 55.7006L4.76717 55.6829C4.83019 56.9862 4.71972 58.2922 4.43868 59.5664C3.95897 61.2193 5.72553 61.7563 5.82043 60.3475C6.03629 57.1585 7.40241 56.9426 7.40241 56.9426L7.37634 55.3846V55.1813L7.35027 53.617C7.35027 53.617 5.9779 53.447 5.65775 50.2664C5.51279 48.8617 3.765 49.4592 4.29893 51.0986Z" fill="white"/>
<path d="M5.89895 68.23L12.0454 64.6197L12.2446 64.968L13.1185 66.4707L13.4793 66.2622L12.6086 64.7595L12.4073 64.4122L13.2562 63.9179L13.4585 64.2652L14.3313 65.7668L14.6942 65.5583L13.8193 64.0555L13.618 63.7083L14.4669 63.214L15.5431 65.0629L15.906 64.8544L14.8287 63.0054L15.6797 62.5121L16.7549 64.3611L17.1167 64.1525L16.0405 62.3046L16.8915 61.8082L17.9677 63.6582L18.3275 63.4497L17.2502 61.5892L18.4578 60.8864L18.8989 61.6445L19.5747 62.8073L20.0158 63.5644L7.46946 70.8976L7.74895 71.3721L20.4058 63.9732C20.4956 63.9203 20.5609 63.8341 20.5875 63.7333C20.6141 63.6325 20.5997 63.5253 20.5476 63.4351L20.0262 62.5424L20.362 62.3463L20.4663 62.5309L23.1777 60.4588L23.0546 60.2502L27.2708 57.8048L28.275 56.7275L22.8398 59.8811L22.7157 59.6725L19.5841 61.0053L19.6884 61.1888L19.3526 61.3848L18.8311 60.4922C18.7783 60.4023 18.692 60.3371 18.5912 60.3107C18.4903 60.2843 18.3831 60.2989 18.293 60.3514L5.61426 67.7555L5.89895 68.23Z" fill="url(#paint22_linear)"/>
<path d="M0.69426 66.879C1.83966 68.0671 2.82161 69.4026 3.61419 70.8501L2.42849 71.5499C2.17299 71.0785 1.74647 70.2755 1.44509 69.606C0.610826 68.1461 -0.291223 69.2317 0.32405 69.8302C0.971761 70.6008 1.55461 71.4236 2.06662 72.2903C2.5762 73.157 3.01425 74.0638 3.37643 75.0017C3.60168 75.8297 5.13152 75.4678 4.11371 74.1299C3.62984 73.4927 3.16056 72.7617 2.88525 72.3257L4.07304 71.626C4.95655 73.0192 5.65025 74.5241 6.13577 76.1008C6.6405 78.2167 8.9191 77.7078 8.14323 76.1008C6.38918 72.4603 7.75737 71.3705 7.75737 71.3705L6.75625 69.6728L6.62486 69.4507L5.62478 67.754C5.62478 67.754 4.00943 68.4224 1.67139 65.126C0.634815 63.666 -0.912749 65.4138 0.69426 66.879Z" fill="url(#paint23_linear)"/>
<path d="M22.5817 75.9839L24.4776 70.6738L24.7769 70.7781L26.07 71.2463L26.1816 70.9334L24.8895 70.4652L24.5902 70.3609L24.8551 69.6309L25.1533 69.7352L26.4454 70.2035L26.5591 69.8906L25.266 69.4234L24.9677 69.3191L25.2316 68.5891L26.824 69.1648L26.9356 68.8519L25.3442 68.2773L25.6101 67.5473L27.2004 68.123L27.3131 67.8102L25.7227 67.2355L25.9866 66.5056L27.5779 67.0812L27.6895 66.7684L26.0992 66.1927L26.4746 65.1499L27.1274 65.3866L28.1275 65.7485L28.7793 65.9841L24.8895 76.8004L25.3004 76.9464L29.2235 66.0342C29.2369 65.9968 29.2428 65.957 29.2408 65.9173C29.2389 65.8776 29.2291 65.8386 29.2121 65.8027C29.1773 65.7278 29.1143 65.6697 29.0369 65.6411L28.2683 65.3626L28.3726 65.0738L28.5311 65.1311L29.1255 62.4959L28.943 62.4291L30.2601 58.8063L30.3227 57.6436L28.626 62.3144L28.4435 62.2487L27.215 64.6556L27.3735 64.7129L27.2693 65.0028L26.5017 64.7244C26.424 64.6969 26.3385 64.7011 26.2639 64.7363C26.1893 64.7715 26.1316 64.8346 26.1034 64.9121L22.1719 75.841L22.5817 75.9839Z" fill="white"/>
<path d="M18.7372 77.8049C20.0348 77.9449 21.3078 78.2574 22.5227 78.734L22.1588 79.7602C21.7646 79.6038 21.0992 79.3326 20.5757 79.0792C19.3243 78.6162 19.3327 79.7331 20.0095 79.7842C21.5801 80.0623 23.0935 80.6001 24.4874 81.3755C25.0443 81.7624 25.7889 80.7665 24.4926 80.4714C23.8753 80.3306 23.2193 80.1252 22.8314 80.0011L23.1964 78.9728C24.4395 79.3702 25.6241 79.9313 26.7191 80.6414C28.0988 81.6686 29.2219 80.2034 27.935 79.6194C25.0234 78.3013 25.2998 76.9456 25.2998 76.9456L23.8304 76.4242L23.6396 76.3564L22.1702 75.835C22.1702 75.835 21.5299 77.0613 18.439 76.2469C17.0708 75.8861 17.0186 77.7319 18.7372 77.8049Z" fill="white"/>
<path d="M34.5458 82.4055L33.3173 75.383L33.7125 75.3152L35.427 75.0222L35.355 74.6113L33.6427 74.9033L33.2464 74.9701L33.0806 74.0013L33.4769 73.9345L35.1892 73.6425L35.1204 73.2254L33.407 73.5174L33.0107 73.5852L32.8449 72.6164L34.9546 72.2566L34.8837 71.8395L32.775 72.2013L32.6103 71.2315L34.7189 70.8717L34.6469 70.4546L32.5404 70.8154L32.3736 69.8445L34.4832 69.4848L34.4112 69.0728L32.3026 69.4326L32.068 68.055L32.9325 67.908L34.2579 67.6827L35.1214 67.5347L37.5961 81.8622L38.1383 81.7662L35.6355 67.3198C35.6269 67.2689 35.6084 67.2202 35.5809 67.1764C35.5535 67.1327 35.5176 67.0948 35.4755 67.065C35.4333 67.0351 35.3857 67.0139 35.3353 67.0025C35.2849 66.9911 35.2328 66.9898 35.1819 66.9986L34.1641 67.1718L34.0984 66.788L34.307 66.7525L33.3163 63.4832L33.0743 63.525L32.2609 58.7185L31.6039 57.4004L32.6541 63.5959L32.4111 63.6376L32.5613 67.0497L32.7698 67.0143L32.8355 67.398L31.8177 67.5712C31.7151 67.5897 31.6239 67.648 31.5638 67.7332C31.5037 67.8185 31.4795 67.924 31.4965 68.0269L33.9993 82.4962L34.5458 82.4055Z" fill="url(#paint24_linear)"/>
<path d="M31.4571 86.806C32.9712 86.1502 34.5658 85.6989 36.1989 85.4639L36.4387 86.8196C35.9079 86.8926 35.0069 87.0104 34.2738 87.0594C32.6136 87.3264 33.3144 88.5538 34.0903 88.1867C35.9908 87.512 37.9907 87.1595 40.0073 87.1439C40.8614 87.2221 41.0585 85.662 39.4484 86.147C38.6819 86.3774 37.833 86.5641 37.3283 86.6684L37.0884 85.3127C38.7033 84.9735 40.3561 84.8507 42.0033 84.9477C44.1609 85.2167 44.4832 82.9037 42.702 83.0706C38.6777 83.4377 38.1365 81.7754 38.1365 81.7754L36.1958 82.1185L35.9424 82.1623L34.0016 82.5054C34.0016 82.5054 34.0621 84.2532 30.1557 85.2877C28.4267 85.7361 29.5216 87.7978 31.4571 86.806Z" fill="url(#paint25_linear)"/>
<path d="M44.7485 74.3427L41.5981 69.6667L41.8619 69.4904L43.0091 68.726L42.8255 68.4528L41.6784 69.2151L41.4135 69.3914L40.9818 68.7448L41.2467 68.5686L42.3938 67.8062L42.2103 67.5299L41.0631 68.2933L40.7983 68.4695L40.3665 67.8229L41.7744 66.8844L41.5898 66.6091L40.183 67.5476L39.7512 66.9L41.1591 65.9615L40.9745 65.6862L39.5677 66.6247L39.1349 65.9771L40.5428 65.0386L40.3582 64.7643L38.9514 65.7029L38.3372 64.7831L38.9149 64.3983L39.7992 63.808L40.3759 63.4232L46.7779 72.9693L47.1387 72.7263L40.6794 63.0958C40.6333 63.0274 40.5622 62.9799 40.4813 62.9637C40.4005 62.9475 40.3165 62.9638 40.2476 63.0092L39.5687 63.4628L39.3977 63.2063L39.5375 63.1125L37.7647 61.0706L37.603 61.1749L35.4673 57.965L34.5684 57.2246L37.3225 61.3615L37.1609 61.4658L38.3695 63.8821L38.5092 63.7893L38.6803 64.0447L38.0003 64.4984C37.9665 64.5211 37.9376 64.5503 37.9152 64.5843C37.8928 64.6184 37.8775 64.6565 37.87 64.6965C37.8614 64.7365 37.8611 64.7779 37.869 64.818C37.8769 64.8582 37.8928 64.8963 37.9159 64.9301L44.3814 74.5774L44.7485 74.3427Z" fill="white"/>
<path d="M43.9359 78.5176C44.8182 77.5562 45.8247 76.7166 46.9288 76.0211L47.5389 76.9231C47.1791 77.1474 46.5659 77.5228 46.0518 77.7939C44.9391 78.5239 45.8432 79.183 46.2833 78.6678C47.438 77.5674 48.7686 76.6679 50.22 76.0065C50.8624 75.7875 50.5026 74.5976 49.4952 75.4663C49.0166 75.8834 48.4618 76.286 48.1312 76.5237L47.5212 75.6206C48.5779 74.8551 49.7321 74.2339 50.9531 73.7738C52.5987 73.2722 52.0857 71.4983 50.8489 72.1887C48.0603 73.7529 47.1332 72.7247 47.1332 72.7247L45.8412 73.5975L45.6733 73.7123L44.3822 74.5851C44.3822 74.5851 44.9892 75.8271 42.4999 77.8335C41.4018 78.721 42.8576 79.8577 43.9359 78.5176Z" fill="white"/>
<path d="M31.4691 59.237C34.1029 59.237 36.238 57.1019 36.238 54.4681C36.238 51.8343 34.1029 49.6992 31.4691 49.6992C28.8353 49.6992 26.7002 51.8343 26.7002 54.4681C26.7002 57.1019 28.8353 59.237 31.4691 59.237Z" fill="white"/>
<defs>
<linearGradient id="paint0_linear" x1="91.2997" y1="23.9164" x2="653.221" y2="20.9818" gradientUnits="userSpaceOnUse">
<stop stop-color="#E8C46F"/>
<stop offset="0.24" stop-color="#BB842C"/>
<stop offset="0.515" stop-color="#7D5723"/>
<stop offset="0.857" stop-color="#E8C46F"/>
</linearGradient>
<linearGradient id="paint1_linear" x1="2189.85" y1="2962.12" x2="6873.28" y2="2937.17" gradientUnits="userSpaceOnUse">
<stop stop-color="#E8C46F"/>
<stop offset="0.24" stop-color="#BB842C"/>
<stop offset="0.515" stop-color="#7D5723"/>
<stop offset="0.857" stop-color="#E8C46F"/>
</linearGradient>
<linearGradient id="paint2_linear" x1="2497.7" y1="3243.82" x2="7836.36" y2="3214.23" gradientUnits="userSpaceOnUse">
<stop stop-color="#E8C46F"/>
<stop offset="0.24" stop-color="#BB842C"/>
<stop offset="0.515" stop-color="#7D5723"/>
<stop offset="0.857" stop-color="#E8C46F"/>
</linearGradient>
<linearGradient id="paint3_linear" x1="3321.84" y1="3901.33" x2="10484.3" y2="3857.96" gradientUnits="userSpaceOnUse">
<stop stop-color="#E8C46F"/>
<stop offset="0.24" stop-color="#BB842C"/>
<stop offset="0.515" stop-color="#7D5723"/>
<stop offset="0.857" stop-color="#E8C46F"/>
</linearGradient>
<linearGradient id="paint4_linear" x1="2266.44" y1="2967.89" x2="6948.28" y2="2942.98" gradientUnits="userSpaceOnUse">
<stop stop-color="#E8C46F"/>
<stop offset="0.24" stop-color="#BB842C"/>
<stop offset="0.515" stop-color="#7D5723"/>
<stop offset="0.857" stop-color="#E8C46F"/>
</linearGradient>
<linearGradient id="paint5_linear" x1="2743.61" y1="5907.23" x2="8479.71" y2="5887.8" gradientUnits="userSpaceOnUse">
<stop stop-color="#E8C46F"/>
<stop offset="0.24" stop-color="#BB842C"/>
<stop offset="0.515" stop-color="#7D5723"/>
<stop offset="0.857" stop-color="#E8C46F"/>
</linearGradient>
<linearGradient id="paint6_linear" x1="2580.03" y1="4558.91" x2="7830.72" y2="4539.21" gradientUnits="userSpaceOnUse">
<stop stop-color="#E8C46F"/>
<stop offset="0.24" stop-color="#BB842C"/>
<stop offset="0.515" stop-color="#7D5723"/>
<stop offset="0.857" stop-color="#E8C46F"/>
</linearGradient>
<linearGradient id="paint7_linear" x1="2047.8" y1="3133.26" x2="6029.12" y2="3116.24" gradientUnits="userSpaceOnUse">
<stop stop-color="#E8C46F"/>
<stop offset="0.24" stop-color="#BB842C"/>
<stop offset="0.515" stop-color="#7D5723"/>
<stop offset="0.857" stop-color="#E8C46F"/>
</linearGradient>
<linearGradient id="paint8_linear" x1="2520.72" y1="2993.61" x2="7538.9" y2="2965.2" gradientUnits="userSpaceOnUse">
<stop stop-color="#E8C46F"/>
<stop offset="0.24" stop-color="#BB842C"/>
<stop offset="0.515" stop-color="#7D5723"/>
<stop offset="0.857" stop-color="#E8C46F"/>
</linearGradient>
<linearGradient id="paint9_linear" x1="1642.27" y1="3032.5" x2="4605.64" y2="3022.69" gradientUnits="userSpaceOnUse">
<stop stop-color="#E8C46F"/>
<stop offset="0.24" stop-color="#BB842C"/>
<stop offset="0.515" stop-color="#7D5723"/>
<stop offset="0.857" stop-color="#E8C46F"/>
</linearGradient>
<linearGradient id="paint10_linear" x1="2681.1" y1="4500.7" x2="7973.82" y2="4480.42" gradientUnits="userSpaceOnUse">
<stop stop-color="#E8C46F"/>
<stop offset="0.24" stop-color="#BB842C"/>
<stop offset="0.515" stop-color="#7D5723"/>
<stop offset="0.857" stop-color="#E8C46F"/>
</linearGradient>
<linearGradient id="paint11_linear" x1="2563.72" y1="3059.59" x2="7535" y2="3032.14" gradientUnits="userSpaceOnUse">
<stop stop-color="#E8C46F"/>
<stop offset="0.24" stop-color="#BB842C"/>
<stop offset="0.515" stop-color="#7D5723"/>
<stop offset="0.857" stop-color="#E8C46F"/>
</linearGradient>
<linearGradient id="paint12_linear" x1="2470.4" y1="1092.96" x2="2955.37" y2="1092.96" gradientUnits="userSpaceOnUse">
<stop stop-color="#E8C46F"/>
<stop offset="0.24" stop-color="#BB842C"/>
<stop offset="0.515" stop-color="#7D5723"/>
<stop offset="0.857" stop-color="#E8C46F"/>
</linearGradient>
<linearGradient id="paint13_linear" x1="-4011.5" y1="14.3715" x2="-3947.31" y2="-88.6416" gradientUnits="userSpaceOnUse">
<stop stop-color="#E8C46F"/>
<stop offset="0.24" stop-color="#BB842C"/>
<stop offset="0.515" stop-color="#7D5723"/>
<stop offset="0.857" stop-color="#E8C46F"/>
</linearGradient>
<linearGradient id="paint14_linear" x1="2354.51" y1="5553.93" x2="2403.38" y2="5764.34" gradientUnits="userSpaceOnUse">
<stop stop-color="#E8C46F"/>
<stop offset="0.24" stop-color="#BB842C"/>
<stop offset="0.515" stop-color="#7D5723"/>
<stop offset="0.857" stop-color="#E8C46F"/>
</linearGradient>
<linearGradient id="paint15_linear" x1="1044.35" y1="1016.8" x2="1232.7" y2="1081.03" gradientUnits="userSpaceOnUse">
<stop stop-color="#E8C46F"/>
<stop offset="0.24" stop-color="#BB842C"/>
<stop offset="0.515" stop-color="#7D5723"/>
<stop offset="0.857" stop-color="#E8C46F"/>
</linearGradient>
<linearGradient id="paint16_linear" x1="-3865.21" y1="8433.13" x2="-3946.93" y2="8557.16" gradientUnits="userSpaceOnUse">
<stop stop-color="#E8C46F"/>
<stop offset="0.24" stop-color="#BB842C"/>
<stop offset="0.515" stop-color="#7D5723"/>
<stop offset="0.857" stop-color="#E8C46F"/>
</linearGradient>
<linearGradient id="paint17_linear" x1="-52.1561" y1="1329.39" x2="-39.4002" y2="1357.1" gradientUnits="userSpaceOnUse">
<stop stop-color="#E8C46F"/>
<stop offset="0.24" stop-color="#BB842C"/>
<stop offset="0.515" stop-color="#7D5723"/>
<stop offset="0.857" stop-color="#E8C46F"/>
</linearGradient>
<linearGradient id="paint18_linear" x1="-656.892" y1="4706.47" x2="-675.026" y2="4757.46" gradientUnits="userSpaceOnUse">
<stop stop-color="#E8C46F"/>
<stop offset="0.24" stop-color="#BB842C"/>
<stop offset="0.515" stop-color="#7D5723"/>
<stop offset="0.857" stop-color="#E8C46F"/>
</linearGradient>
<linearGradient id="paint19_linear" x1="322.861" y1="808.912" x2="333.211" y2="821.94" gradientUnits="userSpaceOnUse">
<stop stop-color="#E8C46F"/>
<stop offset="0.24" stop-color="#BB842C"/>
<stop offset="0.515" stop-color="#7D5723"/>
<stop offset="0.857" stop-color="#E8C46F"/>
</linearGradient>
<linearGradient id="paint20_linear" x1="-12321.1" y1="8600.44" x2="-12835.5" y2="8716.29" gradientUnits="userSpaceOnUse">
<stop stop-color="#E8C46F"/>
<stop offset="0.24" stop-color="#BB842C"/>
<stop offset="0.515" stop-color="#7D5723"/>
<stop offset="0.857" stop-color="#E8C46F"/>
</linearGradient>
<linearGradient id="paint21_linear" x1="1971.7" y1="4428.65" x2="1938.64" y2="4523.53" gradientUnits="userSpaceOnUse">
<stop stop-color="#E8C46F"/>
<stop offset="0.24" stop-color="#BB842C"/>
<stop offset="0.515" stop-color="#7D5723"/>
<stop offset="0.857" stop-color="#E8C46F"/>
</linearGradient>
<linearGradient id="paint22_linear" x1="-3513.71" y1="1748.99" x2="-3287.54" y2="1315.8" gradientUnits="userSpaceOnUse">
<stop stop-color="#E8C46F"/>
<stop offset="0.24" stop-color="#BB842C"/>
<stop offset="0.515" stop-color="#7D5723"/>
<stop offset="0.857" stop-color="#E8C46F"/>
</linearGradient>
<linearGradient id="paint23_linear" x1="-5802.77" y1="5216.95" x2="-5862.48" y2="5115.69" gradientUnits="userSpaceOnUse">
<stop stop-color="#E8C46F"/>
<stop offset="0.24" stop-color="#BB842C"/>
<stop offset="0.515" stop-color="#7D5723"/>
<stop offset="0.857" stop-color="#E8C46F"/>
</linearGradient>
<linearGradient id="paint24_linear" x1="-8977.87" y1="7208.23" x2="-9073.63" y2="7101.58" gradientUnits="userSpaceOnUse">
<stop stop-color="#E8C46F"/>
<stop offset="0.24" stop-color="#BB842C"/>
<stop offset="0.515" stop-color="#7D5723"/>
<stop offset="0.857" stop-color="#E8C46F"/>
</linearGradient>
<linearGradient id="paint25_linear" x1="-1836.66" y1="3579.58" x2="-2039.68" y2="3615.45" gradientUnits="userSpaceOnUse">
<stop stop-color="#E8C46F"/>
<stop offset="0.24" stop-color="#BB842C"/>
<stop offset="0.515" stop-color="#7D5723"/>
<stop offset="0.857" stop-color="#E8C46F"/>
</linearGradient>
</defs>
</svg>
