<svg width="298" height="85" viewBox="0 0 298 85" fill="none" xmlns="http://www.w3.org/2000/svg">
<path d="M33.961 52.5212C33.947 53.6055 33.7133 54.6756 33.2738 55.6669C32.794 56.7806 32.1756 57.8293 31.4333 58.7881C30.6753 59.7827 29.8136 60.6938 28.8627 61.5059C27.9671 62.2811 26.9809 62.945 25.9256 63.483C24.7586 64.0832 23.5367 64.5701 22.2768 64.937C21.1251 65.264 19.952 65.5105 18.766 65.6747C17.5937 65.8346 16.4135 65.9304 15.2307 65.9615C14.0375 65.9922 12.7982 66.008 11.5129 66.0091H9.84876C9.43618 66.0091 9.09876 66.0091 8.83955 66.0321C8.58035 66.0551 8.37175 66.0566 8.22605 66.0566H7.81193C7.49027 66.0568 7.1688 66.041 6.84873 66.0091C6.54198 65.9769 6.38861 65.8342 6.38861 65.5796C6.59316 65.0023 6.87873 64.4569 7.23677 63.9599C7.94078 62.7647 8.56188 61.5225 9.09569 60.2421C10.4117 57.1603 11.6586 54.3009 12.8365 51.6638C14.0144 49.0268 15.0778 46.675 16.0267 44.6085C16.9746 42.5441 17.7854 40.8059 18.4593 39.3938C19.1331 37.9817 19.6229 36.9888 19.9286 36.4152C19.3508 36.0489 18.7532 35.7145 18.1387 35.4137C17.3876 35.0453 16.6129 34.7271 15.8197 34.4612C14.9171 34.1591 13.9947 33.9203 13.0589 33.7465C12.0223 33.5512 10.9695 33.4552 9.91471 33.4597C8.84012 33.4463 7.77049 33.6074 6.7475 33.9367C5.90105 34.1929 5.12946 34.6508 4.49902 35.271C4.1352 35.6646 3.8257 36.1051 3.57877 36.5809C3.38254 36.9633 3.22134 37.3626 3.09716 37.7741C2.99866 38.0912 2.9369 38.4185 2.91311 38.7496C2.89777 39.0364 2.8901 39.2266 2.8901 39.3217C2.89175 39.7733 3.01068 40.2167 3.23521 40.6085C3.44445 40.9548 3.56263 41.3484 3.57877 41.7527C3.54918 42.2391 3.35501 42.701 3.02814 43.0625C2.91459 43.2489 2.76098 43.4076 2.57846 43.5273C2.39595 43.6469 2.1891 43.7244 1.97291 43.7542C1.80477 43.7599 1.63742 43.7287 1.48266 43.6627C1.3279 43.5968 1.18949 43.4976 1.0772 43.3723C0.805202 42.9664 0.683674 42.4781 0.733641 41.992C0.736712 40.6364 0.969559 39.2911 1.42229 38.0134C1.95943 36.5786 2.85748 35.3065 4.02969 34.3201C4.552 33.8523 5.1306 33.4515 5.7521 33.1268C6.40466 32.7809 7.07946 32.4785 7.77206 32.2219C8.42263 31.9792 9.08875 31.7804 9.76593 31.6268C10.3073 31.4967 10.8611 31.4247 11.4178 31.4121C13.4098 31.363 15.4 31.5692 17.3396 32.0256C18.7628 32.3955 20.1346 32.94 21.424 33.6468L22.3443 32.1452C22.741 31.4949 23.1541 30.8513 23.5836 30.2142C33.368 13.1391 29.306 16.4407 41.1397 0.716269C41.2527 0.527092 41.4057 0.364934 41.588 0.241194C41.7703 0.117454 41.9774 0.0351271 42.1949 0C42.1949 0 42.9296 0.177926 42.9296 0.429462C42.9179 0.874735 42.7557 1.30291 42.4695 1.6442C30.4314 17.2105 34.5424 13.9525 25.0974 31.2158C24.9133 31.5338 24.7088 31.8671 24.4839 32.2158C24.2538 32.5655 24.0237 32.8922 23.8182 33.1928C23.6127 33.4934 23.4194 33.7649 23.2676 34.0042C23.1573 34.1601 23.0647 34.3278 22.9915 34.5041C24.4356 35.4859 25.8081 36.5689 27.0989 37.745C28.4276 38.9498 29.6068 40.3097 30.6112 41.7956C31.6347 43.3174 32.4526 44.9677 33.0438 46.7037C33.6711 48.5783 33.9811 50.5445 33.961 52.5212ZM30.5652 53.7605C30.5694 52.1077 30.3375 50.4627 29.8766 48.8755C29.4267 47.3256 28.7869 45.8372 27.9716 44.4444C27.155 43.0558 26.1768 41.7687 25.0575 40.61C23.9276 39.4387 22.6819 38.3847 21.3397 37.4643C20.8489 38.2915 20.2747 39.3718 19.6173 40.7051C18.9598 42.0385 18.2716 43.492 17.5528 45.0656C16.8371 46.6392 16.1101 48.2834 15.3718 49.9982C14.6336 51.7129 13.9449 53.3571 13.3058 54.9307C12.6647 56.5044 12.0834 57.9579 11.562 59.2912C11.0405 60.6245 10.6581 61.7053 10.4147 62.5336C10.7215 62.5658 11.088 62.5964 11.5159 62.6287C11.8841 62.6604 12.3585 62.6762 12.9393 62.6762H15.0973C15.7404 62.6762 16.5896 62.692 17.6448 62.7237C18.7001 62.7554 19.809 62.7473 20.9716 62.6992C22.1204 62.6533 23.264 62.5179 24.3918 62.2943C25.3949 62.1165 26.3535 61.7445 27.214 61.1992C27.852 60.7905 28.3992 60.2548 28.8213 59.6256C29.2397 59.0081 29.5861 58.3448 29.8535 57.6486C30.1074 56.9859 30.2919 56.2986 30.4042 55.5979C30.5049 54.9925 30.5588 54.3803 30.5652 53.7666V53.7605Z" fill="url(#paint0_linear)"/>
<path d="M48.9475 63.3466C47.0108 64.2867 44.8807 64.7595 42.7281 64.727C42.216 64.7452 41.7043 64.6804 41.2128 64.5353C39.8255 65.3164 38.2603 65.7269 36.6683 65.727C36.1223 65.7278 35.5798 65.6392 35.0624 65.4647C34.5332 65.2849 34.0535 64.9834 33.6621 64.5844C33.2189 64.1225 32.8823 63.5691 32.6759 62.9632C32.4122 62.1806 32.2876 61.3578 32.3078 60.5322C32.3024 59.7009 32.3795 58.8712 32.5378 58.0552C32.6912 57.2924 32.9054 56.4345 33.1805 55.4815C33.3942 54.7187 33.6468 53.9641 33.9382 53.2177C34.2296 52.4713 34.5276 51.7724 34.8324 51.121C35.1136 50.5162 35.4279 49.9274 35.7741 49.3572C36.029 48.9218 36.3287 48.5142 36.6683 48.1409C36.9101 47.8995 37.1892 47.6986 37.495 47.5459C37.8506 47.3672 38.2442 47.2773 38.6422 47.2836C38.8734 47.2654 39.1049 47.3155 39.3079 47.4278C39.432 47.5113 39.5476 47.6068 39.6529 47.713H39.7895C40.2792 47.2365 40.7844 46.7677 41.3048 46.3066C41.8261 45.8457 42.3865 45.4311 42.9797 45.0673C43.5945 44.6943 44.2488 44.3908 44.9306 44.1624C45.7165 43.9113 46.5382 43.7905 47.3631 43.805C47.9027 43.7911 48.4395 43.8875 48.9405 44.0882C49.4416 44.2889 49.8965 44.5897 50.2773 44.9722C51.1718 46.0983 51.5917 47.529 51.4475 48.96C51.4245 50.2403 51.2078 51.5098 50.8049 52.7253C50.3588 54.1294 49.7585 55.4797 49.015 56.7515C48.2513 58.0673 47.3595 59.3044 46.3524 60.4448C45.3974 61.5423 44.2832 62.4904 43.0471 63.2577C43.1927 63.3229 43.3483 63.3628 43.5073 63.3758C43.8876 63.4307 44.2718 63.4548 44.6561 63.4478C46.2092 63.3909 47.7332 63.0095 49.13 62.3282C50.951 61.4885 52.6685 60.4406 54.2482 59.2055L54.6623 59.7776C52.8672 61.1346 50.9547 62.329 48.9475 63.3466ZM37.2419 61.8696C36.8949 61.1536 36.6556 60.3902 36.5318 59.6042C36.4105 58.8561 36.372 58.097 36.4167 57.3404C36.4627 56.6119 36.5149 55.9907 36.5778 55.483H36.4397C36.3477 55.7683 36.2327 56.1671 36.0946 56.6748C35.9212 57.4577 35.8216 58.2552 35.7971 59.0567C35.7182 59.8571 35.7879 60.6651 36.0026 61.4402C36.1542 61.9563 36.4123 62.4349 36.7603 62.8451C37.0136 63.1426 37.3373 63.372 37.702 63.5123C37.9292 63.6042 38.1693 63.6606 38.4137 63.6794H38.8738C38.173 63.2419 37.6079 62.6179 37.2419 61.8773V61.8696ZM47.7773 50.5198C47.8154 49.5289 47.5769 48.547 47.0886 47.6839C46.8209 47.2962 46.4538 46.9877 46.0258 46.7907C45.5978 46.5937 45.1247 46.5155 44.6561 46.5642C44.1483 46.5948 43.6466 46.6912 43.1637 46.8511C42.5129 47.0374 41.9102 47.3623 41.3968 47.8035C41.0151 48.1425 40.6762 48.5267 40.3876 48.9477C39.9766 49.532 39.6227 50.1545 39.3309 50.8066C38.9616 51.6297 38.6625 52.4824 38.4367 53.3557C38.1614 54.4107 37.9848 55.489 37.9091 56.5766C37.9091 56.8619 37.9091 57.3144 37.9305 57.934C37.9536 58.5983 38.0698 59.256 38.2756 59.888C38.4977 60.587 38.8564 61.2351 39.3309 61.7945C39.8884 62.4199 40.6565 62.8185 41.4889 62.9141C42.5138 62.3684 43.4126 61.6133 44.1269 60.6978C44.914 59.7194 45.577 58.6473 46.1009 57.5061C46.6346 56.3512 47.0499 55.1451 47.3401 53.9063C47.6148 52.8005 47.7614 51.6668 47.7773 50.5275V50.5198Z" fill="url(#paint1_linear)"/>
<path d="M75.0854 63.3467C74.1925 63.9983 73.2658 64.6024 72.3093 65.1565C71.4199 65.6762 70.4819 66.1076 69.5087 66.4449C68.6611 66.7462 67.77 66.9068 66.8706 66.9203C66.3048 66.9223 65.7413 66.8501 65.1942 66.7056C64.636 66.5508 64.119 66.2743 63.6804 65.8958C63.1426 65.4202 62.6988 64.8479 62.3721 64.2087C61.9108 63.3039 61.5715 62.3421 61.3629 61.3482C60.9335 59.475 60.6349 58.0537 60.4672 57.0844C60.2995 56.115 60.1389 55.3446 59.9856 54.773C59.7402 55.1227 59.504 55.4632 59.2739 55.7975C58.9878 56.2394 58.7492 56.7103 58.5623 57.2025C58.3475 57.68 58.1486 58.1646 57.9656 58.6565C57.7816 59.1503 57.6129 59.5859 57.461 59.9663C57.277 60.4126 57.1083 60.8405 56.9564 61.2531C56.6803 61.9852 56.4584 62.5338 56.2908 62.8988C56.1497 63.2225 55.9553 63.5201 55.7156 63.7792C55.3706 64.103 54.9754 64.3688 54.5453 64.566C54.1308 64.8016 53.6683 64.94 53.1926 64.9709C52.9317 64.9939 52.6695 64.9446 52.4349 64.8283C52.3596 64.7649 52.3012 64.6838 52.2651 64.5922C52.2289 64.5006 52.2161 64.4015 52.2278 64.3038C52.2638 63.9932 52.3412 63.6889 52.4579 63.3988C52.6113 62.954 52.8715 62.2235 53.2386 61.2071C53.4216 60.7296 53.5822 60.2843 53.7202 59.8712C53.8582 59.4586 53.9947 59.046 54.1328 58.6335C54.2708 58.2209 54.415 57.7914 54.5683 57.3451C54.7217 56.8988 54.8904 56.4095 55.0745 55.8681C55.8097 53.772 56.4523 51.9136 57.0024 50.2929C57.5525 48.6722 57.9503 47.5285 58.1957 46.8619C58.4094 46.2576 58.5929 45.7412 58.7463 45.3128C58.8696 44.9325 59.0731 44.5831 59.3429 44.2882C59.5442 44.05 59.7849 43.8481 60.0546 43.6916C60.3457 43.5174 60.6541 43.374 60.9749 43.2637C61.2828 43.1558 61.5974 43.0677 61.9166 42.9999C62.1725 42.9425 62.4335 42.9106 62.6957 42.9048C62.9104 42.9048 63.0178 43.0812 63.0178 43.4293C62.9706 43.8404 62.862 44.2421 62.6957 44.6211C62.481 45.1926 62.2668 45.733 62.0531 46.2422C61.5337 47.5715 61.0597 48.8184 60.6313 49.9831C60.2029 51.1477 59.8204 52.2357 59.484 53.2469L59.7126 53.2944C60.2637 52.6912 60.7688 52.1288 61.2279 51.6073C61.687 51.0858 62.1686 50.5618 62.6727 50.0352C63.1789 49.5107 63.7356 48.9708 64.3491 48.414C64.9626 47.8573 65.6804 47.2315 66.5056 46.5321C67.1145 46.0267 67.7588 45.5654 68.4335 45.1517C69.0799 44.7529 69.7551 44.4027 70.4535 44.1042C71.0832 43.8314 71.7361 43.6159 72.4044 43.46C72.9531 43.3269 73.5148 43.2549 74.0793 43.2453C74.202 43.2453 74.3538 43.2529 74.5394 43.2698C74.7218 43.2858 74.9 43.3341 75.0655 43.4124C75.2378 43.4946 75.3878 43.6172 75.5026 43.7698C75.6359 43.9658 75.7006 44.2004 75.6866 44.437C75.5662 45.2537 75.2064 46.0163 74.6529 46.6287C73.6195 47.8463 72.3855 48.8781 71.0041 49.6794L70.728 49.2499C71.2727 48.8553 71.6884 48.3083 71.9228 47.6778C72.1006 47.2371 72.2087 46.7714 72.2434 46.2975C72.2434 45.8527 71.9366 45.6303 71.3231 45.6303C70.5915 45.6816 69.8755 45.8672 69.2111 46.1778C68.1811 46.6323 67.2227 47.2342 66.366 47.9646C65.6912 48.5055 65.1017 49.0168 64.5976 49.4984C64.0935 49.98 63.6727 50.4089 63.3353 50.7852C62.9386 51.23 62.5868 51.6431 62.2801 52.0245H62.5562C62.6329 52.0223 62.7093 52.0141 62.7847 52C62.8605 51.985 62.9375 51.9768 63.0148 51.9754C63.1881 51.9831 63.3555 52.0412 63.4963 52.1426C63.5997 52.2369 63.6833 52.3509 63.7423 52.4778C63.8013 52.6047 63.8344 52.742 63.8399 52.8819L64.3691 55.9494C64.5674 57.1109 64.7893 58.1989 65.0347 59.2132C65.2706 60.5603 65.7863 61.843 66.5485 62.9786C66.8563 63.4214 67.2704 63.7799 67.7528 64.021C68.2352 64.2622 68.7704 64.3784 69.3093 64.359C70.1221 64.3612 70.9293 64.2243 71.6958 63.9541C72.4551 63.686 73.1857 63.3428 73.8768 62.9295C74.5349 62.5365 75.1703 62.1069 75.7802 61.6427C76.361 61.1979 76.8661 60.7848 77.2956 60.4034L77.7081 61.2608C76.8769 61.9847 76.0026 62.68 75.0854 63.3467Z" fill="url(#paint2_linear)"/>
<path d="M106.756 60.6777C106.175 61.0867 105.579 61.4993 104.966 61.9155C104.354 62.3316 103.864 62.6655 103.498 62.917C102.226 63.7943 100.9 64.5904 99.5275 65.3005C98.8152 65.719 98.0279 65.9941 97.21 66.1103C96.8419 66.1103 96.62 65.9671 96.5443 65.6808C96.4664 65.3856 96.4277 65.0813 96.4293 64.7759C96.4595 64.4452 96.5211 64.118 96.6133 63.7989C96.735 63.3071 96.9032 62.7115 97.1179 62.0121C97.3327 61.3127 97.5622 60.5499 97.8066 59.7237C98.05 58.8986 98.3102 58.0565 98.5873 57.1976C98.8613 56.3091 99.1287 55.4277 99.3894 54.5534C99.6502 53.6792 99.8797 52.877 100.078 52.147C100.277 51.4149 100.446 50.7712 100.583 50.216C100.697 49.7857 100.782 49.3481 100.836 48.9061C100.834 48.7516 100.85 48.5973 100.882 48.446C100.911 48.3018 100.836 48.2313 100.652 48.2313C100.284 48.321 99.9453 48.5014 99.6655 48.7558C99.2307 49.0693 98.8237 49.4198 98.4492 49.8034C97.8991 50.375 97.2028 51.1454 96.3603 52.1148C95.3422 53.3129 94.385 54.5614 93.4921 55.8556C93.1854 56.3014 92.8408 56.8418 92.4584 57.4768C92.076 58.1118 91.7181 58.7314 91.3847 59.3357C91.0473 59.94 90.7574 60.4707 90.512 60.9323C90.3791 61.2056 90.2253 61.4681 90.0519 61.7176C89.8986 61.871 89.6761 62.0842 89.3863 62.3311C89.0964 62.578 88.7728 62.8403 88.4445 63.098C88.1231 63.3422 87.786 63.5651 87.4353 63.7652C87.1585 63.9387 86.8414 64.0375 86.5151 64.052C86.3924 64.052 86.331 63.9876 86.331 63.8603C86.3321 63.7246 86.3475 63.5894 86.377 63.4569C86.4077 63.3127 86.4537 63.1149 86.5151 62.8603C86.5764 62.6057 86.6761 62.2728 86.8126 61.8603C86.9491 61.4477 87.1194 60.9216 87.3418 60.2866L90.2329 51.7083C90.6404 50.6104 90.9484 49.478 91.1531 48.3248C91.1531 48.0702 91.0765 47.9276 90.9231 47.8954C90.4016 47.8954 89.147 48.9598 87.1593 51.0887C86.2551 52.0309 85.4264 53.0428 84.6807 54.1148C83.9159 55.2119 83.2124 56.3004 82.5702 57.3801C81.9281 58.4599 81.354 59.4926 80.8478 60.4783C80.3437 61.463 79.9383 62.3045 79.6316 63.0029C79.4723 63.2012 79.2957 63.3849 79.104 63.552C78.8646 63.7665 78.6115 63.9653 78.3463 64.1471C78.0795 64.3329 77.7955 64.4926 77.4981 64.6241C77.2312 64.7459 76.9418 64.8106 76.6484 64.8143C76.5656 64.8258 76.4813 64.8113 76.4072 64.7728C76.333 64.7344 76.2726 64.6738 76.2343 64.5995C76.1712 64.4405 76.1404 64.2706 76.1438 64.0995C76.154 63.9062 76.1844 63.7145 76.2343 63.5274C76.2967 63.2749 76.381 62.9809 76.4874 62.6455C76.5937 62.3102 76.7087 61.961 76.8325 61.598C76.9541 61.2329 77.0763 60.8914 77.199 60.5734C77.5058 59.7145 77.7814 58.9359 78.0257 58.2375C78.2696 57.5397 78.4858 56.8786 78.6684 56.259C78.8509 55.6393 79.0273 55.032 79.196 54.4491C79.3647 53.8663 79.5395 53.2498 79.7236 52.6086C79.8156 52.2605 79.9291 51.8157 80.0672 51.2743C80.2052 50.7328 80.3586 50.1868 80.5273 49.6301C80.696 49.0733 80.8555 48.5564 81.0089 48.058C81.1267 47.6617 81.2644 47.2717 81.4215 46.8893C81.6016 46.4186 81.8749 45.9893 82.2251 45.627C82.5662 45.2717 82.9429 44.9526 83.3494 44.6745C83.7042 44.4269 84.0899 44.2268 84.4966 44.0794C84.7757 43.9701 85.0702 43.9054 85.3694 43.8877C85.5825 43.8877 85.6915 44.0625 85.6915 44.4122C85.6059 44.8954 85.4907 45.3728 85.3463 45.8417C85.1418 46.5411 84.9374 47.2241 84.7329 47.8908C84.4568 48.7824 84.15 49.7359 83.8126 50.7513C83.4752 51.7666 83.1383 52.7196 82.8018 53.6102C82.4358 54.6572 82.0534 55.6899 81.6546 56.7084L81.8386 56.851C82.1454 56.3111 82.5355 55.6976 83.0089 55.0105C83.4823 54.3234 83.9869 53.6245 84.5227 52.9138C85.0575 52.1981 85.6081 51.5074 86.1746 50.8417C86.7421 50.1746 87.2835 49.5871 87.805 49.0779C89.3643 47.5534 90.7258 46.3141 91.8894 45.3601C92.6398 44.5962 93.6271 44.1096 94.69 43.9797C94.8841 43.9727 95.0733 44.0415 95.2176 44.1714C95.298 44.2708 95.3578 44.3851 95.3933 44.5079C95.4289 44.6306 95.4395 44.7592 95.4247 44.8862C95.3676 45.5345 95.2363 46.1742 95.0335 46.7926C94.7738 47.7129 94.4758 48.6976 94.1394 49.7466C93.803 50.7957 93.4661 51.8182 93.1286 52.8141C92.7912 53.8162 92.5315 54.5867 92.3495 55.1255H92.486C94.1394 53.0938 95.6312 51.3862 96.9615 50.0028C98.0626 48.8346 99.2357 47.7363 100.474 46.7144C101.264 46.0524 102.117 45.4698 103.021 44.9751C103.505 44.6885 104.045 44.5096 104.604 44.4506C104.695 44.4427 104.786 44.4638 104.865 44.5109C104.943 44.5581 105.004 44.6287 105.04 44.7128C105.122 44.9169 105.161 45.1357 105.155 45.3555C105.132 45.7986 105.062 46.2381 104.948 46.6669C104.81 47.2548 104.626 47.9619 104.397 48.788C104.168 49.6142 103.908 50.5196 103.618 51.5043C103.327 52.489 103.028 53.5054 102.722 54.5534C102.63 54.9358 102.462 55.4921 102.218 56.2222C101.973 56.9522 101.736 57.7069 101.506 58.486C101.276 59.2651 101.071 59.988 100.893 60.6547C100.758 61.0734 100.665 61.5045 100.616 61.9415C100.612 62.1171 100.627 62.2925 100.662 62.4646C100.693 62.5919 100.816 62.6563 101.031 62.6563C101.503 62.6201 101.963 62.4902 102.385 62.2744C103.014 61.9874 103.628 61.6691 104.225 61.3204C104.882 60.94 105.585 60.5034 106.336 60.0105C107.086 59.5177 107.813 59.033 108.517 58.5565L108.929 59.1286L106.756 60.6777ZM107.629 38.2312C106.325 38.8007 104.984 39.2778 103.613 39.6591C101.933 40.1341 100.223 40.5009 98.4952 40.7573C96.5043 41.0515 94.4939 41.1946 92.4814 41.1852C91.565 41.1942 90.6524 41.0654 89.7743 40.8033C89.1931 40.6437 88.6254 40.4385 88.0764 40.1898C88.5493 39.421 89.1375 38.7294 89.8203 38.1392C90.6807 38.484 91.5843 38.709 92.5059 38.8079C94.0497 39.015 95.6064 39.1104 97.1639 39.0932C98.8674 39.1106 100.57 39.0081 102.259 38.7864C103.512 38.617 104.754 38.3701 105.977 38.0471C106.842 37.8195 107.692 37.5414 108.524 37.2143C109.181 36.9444 109.695 36.745 110.058 36.6177L110.334 36.8079C109.471 37.3523 108.566 37.8282 107.629 38.2312Z" fill="url(#paint3_linear)"/>
<path d="M124.497 63.3467C122.56 64.287 120.43 64.7598 118.277 64.7271C117.765 64.7452 117.254 64.6805 116.762 64.5353C115.375 65.3163 113.811 65.7267 112.219 65.7271C111.673 65.7279 111.13 65.6393 110.612 65.4648C110.083 65.285 109.603 64.9835 109.211 64.5844C108.769 64.1222 108.432 63.5689 108.225 62.9632C107.962 62.1805 107.838 61.3578 107.859 60.5322C107.853 59.7011 107.929 58.8713 108.087 58.0552C108.241 57.2924 108.455 56.4345 108.73 55.4816C108.944 54.7188 109.196 53.9642 109.488 53.2177C109.779 52.4713 110.077 51.7724 110.382 51.1211C110.664 50.5166 110.978 49.9278 111.323 49.3573C111.579 48.9218 111.879 48.5142 112.219 48.141C112.46 47.8996 112.739 47.6986 113.044 47.5459C113.401 47.3673 113.795 47.2773 114.193 47.2836C114.424 47.2656 114.655 47.3157 114.857 47.4278C114.981 47.5114 115.097 47.6069 115.202 47.7131H115.34C115.828 47.2366 116.333 46.7678 116.854 46.3066C117.376 45.8454 117.937 45.4307 118.531 45.0674C119.145 44.6944 119.799 44.3909 120.48 44.1625C121.266 43.9113 122.088 43.7906 122.912 43.8051C123.452 43.7908 123.989 43.887 124.49 44.0877C124.991 44.2884 125.446 44.5895 125.827 44.9723C126.723 46.0975 127.144 47.5288 126.998 48.96C126.975 50.2404 126.759 51.5099 126.356 52.7254C125.91 54.1295 125.309 55.4797 124.566 56.7515C123.802 58.0673 122.91 59.3045 121.903 60.4448C120.946 61.5424 119.83 62.4906 118.592 63.2577C118.737 63.3229 118.893 63.3629 119.052 63.3758C119.432 63.4308 119.816 63.4549 120.199 63.4479C121.753 63.3908 123.277 63.0094 124.675 62.3283C126.495 61.4882 128.212 60.4403 129.791 59.2055L130.206 59.7776C128.413 61.1347 126.502 62.3291 124.497 63.3467ZM112.793 61.8697C112.445 61.154 112.205 60.3905 112.081 59.6043C111.96 58.8562 111.921 58.097 111.966 57.3405C112.012 56.612 112.064 55.9908 112.119 55.4831H111.981C111.889 55.7684 111.774 56.1672 111.638 56.6748C111.46 57.4573 111.358 58.2549 111.331 59.0568C111.251 59.8572 111.321 60.6656 111.538 61.4402C111.689 61.9568 111.947 62.4357 112.296 62.8451C112.548 63.1429 112.872 63.3723 113.236 63.5123C113.463 63.6042 113.703 63.6606 113.948 63.6795H114.408C113.713 63.2402 113.154 62.6162 112.793 61.8774V61.8697ZM123.327 50.5199C123.365 49.529 123.126 48.547 122.638 47.684C122.37 47.2961 122.003 46.9875 121.575 46.7905C121.147 46.5935 120.674 46.5154 120.205 46.5643C119.698 46.5948 119.196 46.6913 118.713 46.8511C118.062 47.0374 117.46 47.3624 116.946 47.8036C116.564 48.1425 116.226 48.5267 115.937 48.9478C115.526 49.5321 115.172 50.1546 114.88 50.8067C114.51 51.6295 114.211 52.4822 113.986 53.3558C113.711 54.4108 113.534 55.489 113.458 56.5767C113.458 56.862 113.458 57.3144 113.481 57.9341C113.503 58.5984 113.619 59.2562 113.825 59.8881C114.047 60.5871 114.406 61.2351 114.88 61.7945C115.438 62.42 116.206 62.8185 117.038 62.9142C118.063 62.3683 118.963 61.6132 119.678 60.6979C120.464 59.7187 121.127 58.6468 121.652 57.5061C122.184 56.3504 122.599 55.1445 122.891 53.9064C123.164 52.8004 123.311 51.6667 123.327 50.5275V50.5199Z" fill="url(#paint4_linear)"/>
<path d="M148.808 47.6668C148.792 49.2446 148.479 50.8053 147.888 52.2681C147.277 53.8393 146.516 55.3479 145.615 56.7727C144.754 58.1467 143.779 59.4458 142.701 60.6562C141.836 61.6548 140.867 62.5577 139.81 63.3495C138.971 63.9475 138.089 64.4812 137.17 64.9461C136.287 65.4178 135.303 65.6708 134.302 65.6838C134.077 65.7099 133.848 65.6895 133.631 65.6241C133.414 65.5587 133.213 65.4496 133.04 65.3035C132.819 65.072 132.695 64.7645 132.694 64.4446C132.713 63.699 132.893 62.9664 133.222 62.2973C133.593 61.505 134.047 60.7544 134.576 60.058C135.151 59.2982 135.77 58.574 136.432 57.8893C137.088 57.2036 137.785 56.5587 138.52 55.9583C139.63 55.049 140.786 54.1982 141.984 53.4092C143.042 52.7261 143.998 52.1464 144.854 51.6699C144.995 51.2385 145.072 50.7891 145.084 50.3355V49.0963C145.101 48.4923 145.024 47.8893 144.854 47.3094C144.733 46.903 144.524 46.5285 144.241 46.2128C144.003 45.957 143.702 45.7682 143.368 45.6652C143.033 45.5676 142.685 45.5191 142.336 45.5211C141.375 45.6171 140.461 45.9805 139.696 46.5702C138.35 47.5314 137.125 48.6515 136.047 49.9061C135.741 50.6382 135.396 51.5359 135.015 52.5993C134.634 53.6628 134.221 54.8386 133.776 56.127C133.331 57.4133 132.857 58.8034 132.352 60.2973C131.848 61.7912 131.337 63.3162 130.819 64.8725C130.329 66.304 129.847 67.7258 129.374 69.1379C128.9 70.5499 128.457 71.9002 128.043 73.1885C127.628 74.4748 127.254 75.6665 126.918 76.7637C126.583 77.8608 126.307 78.8057 126.092 79.5981C126.054 79.8352 126.031 80.0744 126.023 80.3144C126.008 80.6342 125.969 80.9526 125.908 81.2668C125.823 81.6166 125.692 81.9534 125.518 82.2684C125.24 82.7437 124.876 83.1633 124.444 83.5061C123.872 84.0084 123.142 84.2953 122.38 84.3175C122.259 84.3174 122.139 84.2918 122.028 84.2424C121.917 84.1929 121.818 84.1208 121.737 84.0306C121.527 83.76 121.428 83.4193 121.461 83.0782C121.484 82.6208 121.545 82.1662 121.645 81.7193C121.851 80.8329 122.127 79.9645 122.472 79.1226C123.269 76.8342 124.079 74.5628 124.905 72.3081C125.609 70.3654 126.366 68.2759 127.176 66.0397C127.986 63.8034 128.743 61.7145 129.448 59.7727C129.846 58.6623 130.204 57.6459 130.521 56.7236C130.838 55.8013 131.145 54.9036 131.441 54.0303C131.732 53.1571 132.039 52.2676 132.362 51.3616C132.685 50.4557 133.029 49.447 133.394 48.3355C133.731 47.4153 134.053 46.4699 134.359 45.4996C134.515 44.8395 134.795 44.2149 135.184 43.6591C135.623 43.1962 136.143 42.8164 136.718 42.5379C137.053 42.3493 137.415 42.2132 137.791 42.1345C137.891 42.1327 137.991 42.1405 138.09 42.1575C138.165 42.1744 138.205 42.2618 138.205 42.4198C138.181 42.6381 138.134 42.8534 138.067 43.0625C137.975 43.3968 137.86 43.8099 137.722 44.3017C137.586 44.7956 137.415 45.3263 137.218 45.8984C137.02 46.4705 136.828 47.0119 136.644 47.5196L136.874 47.5671C137.467 46.9589 138.104 46.395 138.779 45.88C139.481 45.3342 140.217 44.8327 140.981 44.3784C141.677 43.9595 142.406 43.6003 143.162 43.3048C143.759 43.0566 144.397 42.9188 145.043 42.8983C145.565 42.8551 146.09 42.9265 146.582 43.1078C147.074 43.289 147.52 43.5756 147.889 43.9474C148.614 45.0448 148.938 46.3583 148.808 47.6668ZM144.532 53.288C144.179 53.4361 143.834 53.6035 143.5 53.7895C143.056 54.0268 142.574 54.3126 142.053 54.6469C141.533 54.9813 140.99 55.3627 140.425 55.7911C139.879 56.203 139.366 56.6568 138.891 57.1485C138.492 57.5626 138.094 57.9915 137.696 58.4353C137.308 58.8669 136.956 59.3284 136.641 59.8157C136.347 60.2692 136.094 60.7475 135.883 61.2451C135.686 61.7132 135.585 62.2159 135.586 62.7237C135.586 63.2942 136.014 63.58 136.871 63.5811C137.365 63.5655 137.85 63.4436 138.293 63.2237C138.899 62.922 139.444 62.5101 139.9 62.009C140.313 61.5689 140.704 61.1082 141.07 60.6286C141.554 59.997 141.999 59.3362 142.402 58.65C142.87 57.8529 143.284 57.0248 143.641 56.1715C144.03 55.2411 144.328 54.2755 144.532 53.288Z" fill="url(#paint5_linear)"/>
<path d="M194.103 61.1533C193.302 61.846 192.466 62.4972 191.599 63.1042C190.704 63.7352 189.751 64.2781 188.752 64.7254C187.809 65.1591 186.784 65.3866 185.746 65.3926C184.212 65.3926 182.965 64.3517 182.005 62.2699C180.799 59.1952 180.049 55.9604 179.779 52.6686C179.258 53.3659 178.577 54.2862 177.737 55.4293C176.668 56.9553 175.723 58.5648 174.913 60.2423C174.564 60.9075 174.273 61.6012 174.042 62.3159C173.796 63.0634 173.567 63.7464 173.353 64.365C173.178 64.8925 172.973 65.4096 172.74 65.9141C172.54 66.3267 172.35 66.5276 172.166 66.5276C171.985 66.5486 171.801 66.5196 171.635 66.444C171.469 66.3683 171.327 66.2487 171.224 66.0982C171.048 65.7772 170.961 65.4149 170.973 65.0491C171.093 64.7331 171.391 64.1058 171.867 63.1671C172.342 62.2285 172.947 61.1242 173.68 59.8542C174.415 58.5843 175.256 57.1947 176.204 55.6855C177.152 54.1763 178.194 52.6614 179.329 51.141C178.87 47.8372 178.513 45.2084 178.255 43.2544C177.997 41.3004 177.837 40.0054 177.773 39.3694C177.733 38.765 177.602 38.1702 177.382 37.6056C177.268 37.3272 177.087 37.0815 176.855 36.8908C176.655 36.7684 176.425 36.7027 176.19 36.7006C175.96 36.7006 175.845 36.5104 175.845 36.1285C175.854 35.8926 175.901 35.6595 175.983 35.4384C176.074 35.1684 176.19 34.8739 176.327 34.5564C176.474 34.2202 176.644 33.8939 176.833 33.5794C177.031 33.2451 177.223 32.9521 177.407 32.6975C177.608 32.391 177.865 32.1243 178.163 31.9107C178.34 31.7696 178.552 31.679 178.776 31.6484C178.899 31.6484 179.045 31.6576 179.214 31.673C179.396 31.6958 179.566 31.7796 179.695 31.9107C179.884 32.1109 180.032 32.3459 180.131 32.6024C180.301 33.0468 180.417 33.5104 180.476 33.9828C180.627 34.9348 180.772 36.0084 180.911 37.2037C181.05 38.399 181.18 39.6061 181.301 40.8249C181.424 42.0519 181.538 43.2513 181.645 44.4231C181.751 45.5949 181.881 46.6435 182.036 47.5688C182.8 46.4247 183.604 45.2728 184.445 44.1133C185.287 42.9538 186.113 41.8418 186.924 40.7774C187.735 39.7129 188.477 38.7359 189.151 37.8463C189.825 36.9568 190.391 36.2257 190.849 35.6531C191.553 34.7328 192.234 33.9072 192.89 33.1761C193.546 32.445 194.044 32.0794 194.382 32.0794C194.61 32.0838 194.832 32.1501 195.025 32.2711C195.238 32.3984 195.347 32.6837 195.347 33.127C195.363 33.4961 195.292 33.8638 195.14 34.2006C194.971 34.5108 194.754 34.7923 194.497 35.035C194.206 35.3203 193.839 35.6618 193.396 36.0595C192.953 36.4573 192.41 36.9895 191.767 37.6562C191.369 38.0652 190.779 38.7165 189.999 39.6102C189.219 40.5038 188.377 41.5044 187.474 42.6117C186.573 43.7242 185.67 44.8837 184.766 46.0903C183.862 47.2968 183.089 48.4088 182.448 49.4262C182.786 51.8414 183.138 53.8986 183.505 55.598C183.789 57.0208 184.196 58.4161 184.721 59.7683C185.041 60.6505 185.532 61.4606 186.166 62.1518C186.397 62.3934 186.675 62.5859 186.983 62.7176C187.29 62.8494 187.621 62.9178 187.956 62.9187C188.618 62.9021 189.272 62.7649 189.885 62.5138C190.61 62.2337 191.308 61.8909 191.973 61.4892C192.659 61.0786 193.318 60.6247 193.947 60.1303C194.522 59.684 195.067 59.1987 195.576 58.6778L196.036 59.4447C195.511 59.9181 194.867 60.4877 194.103 61.1533Z" fill="url(#paint6_linear)"/>
<path d="M213.564 60.058C213.564 60.1858 213.166 60.5508 212.37 61.1531C211.387 61.8745 210.352 62.52 209.271 63.0841C207.908 63.8108 206.488 64.4264 205.026 64.9246C203.537 65.452 201.97 65.7258 200.391 65.7344C199.609 65.7944 198.824 65.6989 198.079 65.4535C197.335 65.2082 196.646 64.8178 196.053 64.305C195.523 63.6844 195.122 62.9643 194.874 62.1869C194.626 61.4094 194.535 60.5903 194.607 59.7773C194.679 58.0916 195.042 56.4311 195.681 54.8693C196.511 52.7405 197.682 50.7607 199.147 49.0073C199.994 47.9374 200.939 46.9484 201.969 46.0532C202.831 45.3005 203.761 44.6299 204.747 44.0502C205.537 43.5857 206.376 43.2102 207.248 42.9305C207.892 42.7161 208.564 42.5957 209.242 42.5732C209.877 42.516 210.515 42.6399 211.083 42.9305C211.265 43.0833 211.406 43.2785 211.494 43.499C211.582 43.7195 211.615 43.9583 211.589 44.1943C211.413 45.3269 210.875 46.372 210.055 47.1729C209.033 48.3999 207.709 49.8053 206.086 51.3892C205.443 52.0262 204.7 52.742 203.859 53.5364C203.017 54.3309 202.229 55.0932 201.495 55.8233C200.608 56.6505 199.721 57.4925 198.834 58.3494C198.7 59.0658 198.716 59.8023 198.882 60.5121C199.048 61.2218 199.36 61.8893 199.797 62.4721C200.239 62.8652 200.755 63.1665 201.315 63.3587C201.874 63.5509 202.466 63.6301 203.057 63.5918C204.297 63.5829 205.525 63.3491 206.682 62.9016C207.818 62.4805 208.922 61.9787 209.986 61.4C211.167 60.7528 212.288 60.003 213.337 59.1592C213.429 59.2935 213.507 59.4375 213.567 59.5887C213.596 59.7439 213.595 59.9031 213.564 60.058ZM207.688 46.3324C207.688 45.8247 207.55 45.5057 207.276 45.3784C206.987 45.2491 206.673 45.1842 206.356 45.1882C205.582 45.2472 204.834 45.4924 204.176 45.9029C203.208 46.4663 202.372 47.2297 201.722 48.1422C201.343 48.655 201.006 49.1971 200.713 49.7634C200.356 50.4422 200.042 51.1424 199.771 51.86C199.473 52.6449 199.227 53.4489 199.037 54.2665C198.84 55.0875 198.725 55.926 198.693 56.7696C199.306 56.2297 199.934 55.6735 200.575 55.1009C201.126 54.5896 201.723 54.0334 202.365 53.4321C203.007 52.8309 203.62 52.2118 204.205 51.5748C205.215 50.495 206.048 49.5262 206.707 48.6683C207.278 48.0165 207.623 47.1968 207.688 46.3324Z" fill="url(#paint7_linear)"/>
<path d="M235.114 59.9616C234.669 60.2807 234.194 60.6145 233.69 60.9632C233.186 61.3119 232.675 61.6616 232.156 62.0123C231.635 62.362 231.161 62.6636 230.733 62.9172C229.813 63.4898 229.033 63.9428 228.393 64.2761C227.753 64.6094 227.209 64.8712 226.762 65.0614C226.401 65.2242 226.024 65.3521 225.638 65.4433C225.367 65.5026 225.09 65.5344 224.813 65.5384C224.651 65.5579 224.488 65.5243 224.347 65.4427C224.206 65.3611 224.096 65.2358 224.032 65.0859C223.914 64.8067 223.852 64.5072 223.848 64.204C223.896 63.2231 224.042 62.2495 224.284 61.2975C224.574 59.9939 225.01 58.1508 225.592 55.7684L226.052 53.8619L225.867 53.7668C225.207 54.5128 224.587 55.2925 224.009 56.1027C223.293 57.0874 222.49 58.1196 221.598 59.1994C220.79 60.2234 219.919 61.1966 218.991 62.1135C218.351 62.7418 217.66 63.3158 216.925 63.8298C216.426 64.1857 215.877 64.4663 215.296 64.6626C214.873 64.7972 214.432 64.8695 213.988 64.8773C213.693 64.9064 213.396 64.8413 213.14 64.6914C212.885 64.5415 212.683 64.3145 212.564 64.043C212.314 63.4621 212.189 62.8349 212.198 62.2025C212.203 61.9455 212.226 61.6893 212.267 61.4356C212.311 61.1181 212.373 60.7853 212.449 60.434C212.524 60.0911 212.632 59.7562 212.771 59.434C212.894 59.1432 213.056 58.8706 213.253 58.6242C213.506 58.3632 213.8 58.1455 214.124 57.98C214.433 57.8168 214.756 57.6813 215.089 57.5751C215.089 57.798 215.081 58.1078 215.066 58.5046C215.05 58.8959 215.081 59.2877 215.158 59.6718C215.223 60.0273 215.355 60.3672 215.547 60.6733C215.635 60.8117 215.757 60.9243 215.903 60.9995C216.048 61.0747 216.211 61.1098 216.374 61.1012C216.604 61.1003 216.835 61.0845 217.063 61.0537C217.392 60.9898 217.705 60.8605 217.983 60.6733C218.459 60.3667 218.905 60.0154 219.314 59.6242C219.995 58.9783 220.639 58.2942 221.242 57.5751C221.976 56.7172 222.619 55.9544 223.17 55.2867C223.721 54.619 224.203 54.0158 224.617 53.4769C225.026 52.937 225.393 52.4447 225.718 51.9999C226.043 51.5551 226.341 51.1098 226.612 50.664C226.919 49.6159 227.256 48.6078 227.623 47.6394C227.967 46.7186 228.366 45.8188 228.816 44.9446C229.04 44.6503 229.332 44.4138 229.666 44.2544C230.008 44.0808 230.361 43.9271 230.721 43.7943C231.041 43.6758 231.372 43.588 231.709 43.532C231.936 43.4919 232.165 43.4679 232.396 43.46C232.733 43.46 232.9 43.6824 232.9 44.1271C232.876 44.517 232.799 44.9018 232.672 45.2713C232.518 45.7826 232.32 46.345 232.075 46.9585C231.831 47.572 231.563 48.2074 231.272 48.8649C230.98 49.5173 230.697 50.1308 230.422 50.7054C230.086 51.5623 229.75 52.5551 229.413 53.684C229.075 54.8128 228.768 55.9084 228.492 56.9708C228.217 58.0373 227.988 58.9908 227.805 59.8313C227.668 60.3709 227.576 60.9208 227.529 61.4755C227.529 61.6979 227.529 61.9448 227.552 62.2147C227.575 62.4847 227.773 62.6196 228.166 62.6196C228.682 62.5992 229.189 62.4773 229.658 62.2608C230.295 61.9872 230.916 61.6769 231.517 61.3313C232.189 60.9509 232.885 60.5225 233.604 60.046C234.324 59.5695 235.036 59.093 235.739 58.6165L236.152 59.1871C235.898 59.3875 235.552 59.6457 235.114 59.9616Z" fill="url(#paint8_linear)"/>
<path d="M248.808 54.434C248.756 55.3817 248.549 56.3145 248.194 57.1948C247.758 58.38 247.112 59.4775 246.289 60.4356C245.704 61.1716 245.076 61.8722 244.407 62.5338C243.739 63.1952 243.018 63.8005 242.251 64.3436C241.494 64.8801 240.669 65.3129 239.797 65.6304C238.891 65.954 237.935 66.1154 236.973 66.1074C236.63 66.1315 236.287 66.0622 235.98 65.9069C235.673 65.7517 235.413 65.5162 235.229 65.2255C234.865 64.6476 234.674 63.9776 234.679 63.2945C234.68 62.7766 234.718 62.2594 234.794 61.747C234.869 61.2224 234.984 60.6503 235.137 60.0307C235.291 59.4111 235.495 58.7204 235.751 57.9586C236.011 57.1948 236.325 56.3364 236.693 55.3834C236.906 54.8456 237.167 54.2321 237.473 53.5429C237.78 52.8537 238.116 52.1625 238.483 51.4693C238.849 50.7709 239.216 50.0879 239.584 49.4202C239.952 48.7525 240.304 48.1651 240.639 47.6579C240.958 47.1635 241.303 46.6864 241.673 46.2284C242.022 45.7862 242.406 45.3718 242.82 44.9891C243.166 44.6674 243.543 44.3798 243.944 44.1302C244.244 43.93 244.593 43.815 244.953 43.7974C245.1 43.7957 245.244 43.8368 245.368 43.9155C245.427 43.9541 245.475 44.0076 245.507 44.0706C245.539 44.1336 245.554 44.2039 245.55 44.2744C245.465 44.7285 245.268 45.1541 244.976 45.5122C244.595 46.0843 244.188 46.7392 243.762 47.4662C243.486 47.9437 243.248 48.389 243.05 48.8021C242.852 49.2152 242.66 49.6436 242.476 50.0874C242.292 50.5337 242.085 51.0168 241.855 51.5414C241.625 52.0659 241.358 52.7101 241.052 53.4724C241.636 52.8873 242.32 52.4111 243.072 52.0659C243.918 51.6647 244.844 51.4607 245.78 51.4693C246.578 51.4225 247.366 51.6593 248.006 52.138C248.302 52.437 248.527 52.7983 248.666 53.1954C248.805 53.5926 248.853 54.0157 248.808 54.434ZM245.182 57.0077C245.222 56.3646 245.07 55.7241 244.746 55.1672C244.481 54.7594 244.096 54.443 243.645 54.2607C243.177 54.0841 242.67 54.0349 242.176 54.1181C241.625 54.2025 241.091 54.3717 240.591 54.6196C240.103 55.9213 239.667 57.1283 239.285 58.2408C238.887 59.4395 238.693 60.696 238.71 61.9586C238.678 62.4097 238.827 62.8548 239.124 63.1964C239.32 63.3587 239.547 63.4803 239.791 63.554C240.035 63.6277 240.292 63.6522 240.545 63.6258C241.119 63.5966 241.667 63.3812 242.107 63.0123C242.692 62.5628 243.204 62.024 243.622 61.4157C244.088 60.7512 244.465 60.0295 244.746 59.2684C245.027 58.5472 245.176 57.7815 245.187 57.0077H245.182Z" fill="url(#paint9_linear)"/>
<path d="M277.041 50.2878C276.823 50.9139 276.403 51.4501 275.848 51.8123C275.043 52.3405 274.102 52.622 273.139 52.6222C272.71 52.6539 272.343 52.6702 272.038 52.6713H271.257C271.042 52.6734 270.827 52.6569 270.615 52.6222C270.585 53.3421 270.462 54.0552 270.248 54.7434C269.968 55.7048 269.599 56.6383 269.147 57.5317C268.625 58.568 268.026 59.5637 267.355 60.5103C266.658 61.5045 265.85 62.4158 264.946 63.2266C264.048 64.0327 263.035 64.6996 261.94 65.2051C260.834 65.7153 259.63 65.977 258.412 65.972C257.492 66.0296 256.57 65.8748 255.719 65.5195C254.868 65.1642 254.11 64.6179 253.504 63.9229C252.235 62.0997 251.635 59.8939 251.805 57.679C251.824 55.7409 252.118 53.8153 252.677 51.9596C253.276 49.9163 254.075 47.9372 255.064 46.0516C256.079 44.1069 257.27 42.2587 258.621 40.53C259.912 38.8581 261.357 37.3104 262.937 35.9073C264.346 34.6431 265.921 33.5771 267.618 32.7385C269.076 31.9955 270.685 31.5957 272.322 31.5698C272.652 31.5719 272.982 31.596 273.309 31.6419C273.653 31.6869 273.983 31.8091 274.273 31.9993C274.572 32.1983 274.816 32.4687 274.984 32.7861C275.188 33.2085 275.283 33.6751 275.26 34.1435C275.263 34.7685 275.129 35.3865 274.869 35.9548C274.633 36.4878 274.323 36.985 273.949 37.4319C273.64 37.8075 273.278 38.1366 272.875 38.4089C272.621 38.6031 272.32 38.7264 272.003 38.7662C271.819 38.7662 271.727 38.6558 271.727 38.4334C271.75 38.2247 271.812 38.0223 271.911 37.8368C272.069 37.3044 272.131 36.7482 272.095 36.1941C272.127 35.9038 272.082 35.6102 271.965 35.3425C271.848 35.0748 271.664 34.8423 271.429 34.668C270.971 34.3789 270.437 34.2302 269.895 34.2401C268.689 34.2504 267.502 34.5435 266.429 35.0959C265.226 35.7078 264.126 36.5043 263.17 37.4564C262.093 38.5196 261.132 39.6933 260.302 40.958C259.395 42.3275 258.604 43.7707 257.938 45.2724C257.249 46.8121 256.689 48.406 256.262 50.0378C255.842 51.6205 255.581 53.2409 255.481 54.8753C255.389 56.1126 255.397 57.3554 255.504 58.5915C255.583 59.6133 255.815 60.6175 256.193 61.5701C256.498 62.3491 256.996 63.0382 257.639 63.5732C258.279 64.0752 259.076 64.3364 259.889 64.3109C260.761 64.3242 261.619 64.0931 262.366 63.6437C263.116 63.1862 263.783 62.606 264.34 61.9275C264.937 61.2048 265.446 60.4134 265.855 59.5701C266.27 58.7307 266.622 57.8624 266.911 56.9719C267.17 56.1783 267.37 55.3661 267.507 54.5424C267.62 53.913 267.667 53.2735 267.645 52.6345C267.354 52.6356 267.064 52.6519 266.774 52.6835C266.491 52.716 266.205 52.7077 265.924 52.659C265.689 52.6228 265.467 52.5243 265.282 52.3737C265.188 52.2766 265.117 52.16 265.073 52.0323C265.029 51.9045 265.014 51.7687 265.029 51.6344C265.015 51.4126 265.059 51.191 265.155 50.9907C265.252 50.7904 265.398 50.6181 265.579 50.4903C265.928 50.2417 266.346 50.1081 266.774 50.1083C267.389 50.0995 268.004 50.1318 268.615 50.205C269.075 50.2679 269.655 50.3169 270.359 50.3476C271.155 50.3803 271.79 50.4044 272.263 50.4197C272.737 50.435 273.296 50.4427 273.94 50.4427C274.644 50.4427 275.254 50.4274 275.78 50.3952C276.306 50.3629 276.704 50.32 277.041 50.2878Z" fill="url(#paint10_linear)"/>
<path d="M295.378 61.417C294.322 62.2585 293.244 63.0612 292.143 63.825C291.139 64.526 290.097 65.1702 289.022 65.7545C288.312 66.1929 287.51 66.4621 286.68 66.5413C286.466 66.5476 286.255 66.4954 286.069 66.3902C285.883 66.2851 285.729 66.1309 285.624 65.9446C285.364 65.4882 285.237 64.968 285.258 64.4431C285.261 64.0607 285.284 63.6788 285.327 63.2989C285.371 62.8551 285.422 62.4185 285.48 61.9891C285.539 61.5596 285.608 61.1465 285.687 60.7498C285.763 60.3521 285.832 60.0264 285.894 59.7728H285.71C284.486 61.4062 283.006 62.8306 281.327 63.9906C280.109 64.9073 278.649 65.446 277.127 65.5397C276.674 65.6011 276.212 65.5251 275.802 65.3214C275.392 65.1177 275.052 64.7957 274.827 64.3971C274.419 63.4171 274.231 62.3595 274.276 61.2989C274.29 60.327 274.414 59.3597 274.644 58.4154C274.901 57.3129 275.254 56.2351 275.7 55.1945C276.165 54.1033 276.717 53.0513 277.351 52.0488C277.982 51.0499 278.721 50.124 279.555 49.288C281.164 47.5877 283.079 46.2057 285.2 45.2144C286.837 44.497 288.601 44.1162 290.388 44.0947C290.773 44.1029 291.157 44.1424 291.536 44.2128C292.004 44.2953 292.458 44.4397 292.888 44.6423C293.322 44.8418 293.712 45.1254 294.036 45.4766C294.364 45.8419 294.537 46.3204 294.519 46.811C294.523 47.106 294.5 47.4007 294.45 47.6914C294.407 47.9203 294.321 48.1389 294.197 48.3356C294.048 48.5557 293.879 48.7611 293.692 48.9491C293.477 49.1715 293.217 49.4245 292.911 49.7159C292.682 50.3816 292.398 51.0274 292.063 51.647C291.66 52.4225 291.314 53.2269 291.029 54.0534C290.325 56.0555 289.736 57.7707 289.263 59.1992C288.935 60.046 288.697 60.9244 288.551 61.8204C288.5 62.2884 288.588 62.7611 288.804 63.1793C288.875 63.2745 288.968 63.3518 289.075 63.405C289.181 63.4583 289.298 63.486 289.417 63.486C290.048 63.4648 290.666 63.3079 291.23 63.0259C291.942 62.693 292.625 62.3026 293.273 61.8587C293.976 61.3812 294.695 60.849 295.43 60.2621C296.165 59.6751 296.884 59.1128 297.588 58.5749L298 59.147C297.312 59.8178 296.438 60.5744 295.378 61.417ZM291.453 47.2865C291.378 47.0463 291.234 46.8332 291.04 46.673C290.817 46.4764 290.57 46.3085 290.305 46.173C290.044 46.0367 289.767 45.9336 289.48 45.8662C289.285 45.8152 289.085 45.7833 288.884 45.7711C288.125 45.766 287.369 45.8625 286.635 46.0579C285.909 46.2568 285.22 46.5701 284.592 46.9859C283.874 47.4648 283.219 48.0316 282.641 48.673C281.91 49.4884 281.25 50.3648 280.667 51.2926C280.261 51.9428 279.915 52.6287 279.634 53.3418C279.314 54.1362 279.023 54.9389 278.762 55.7497C278.514 56.5143 278.315 57.294 278.166 58.0841C278.043 58.6903 277.974 59.3062 277.959 59.9246C277.873 60.6637 278.079 61.407 278.532 61.9967C278.689 62.1639 278.878 62.2984 279.087 62.3926C279.296 62.4868 279.521 62.5389 279.75 62.5458C281.072 62.4242 282.314 61.8619 283.278 60.9492C284.851 59.5221 286.076 57.7527 286.858 55.7774C287.278 54.857 287.637 53.9096 287.931 52.9414C288.172 52.1248 288.455 51.3215 288.781 50.535C288.905 50.2084 289.051 49.8902 289.217 49.5825C289.413 49.2045 289.644 48.8452 289.905 48.5089C290.141 48.2021 290.402 47.9158 290.686 47.653C290.883 47.4376 291.155 47.3059 291.447 47.2849L291.453 47.2865Z" fill="url(#paint11_linear)"/>
<defs>
<linearGradient id="paint0_linear" x1="-10.7189" y1="23.3875" x2="538.777" y2="20.5178" gradientUnits="userSpaceOnUse">
<stop stop-color="#E8C46F"/>
<stop offset="0.24" stop-color="#BB842C"/>
<stop offset="0.515" stop-color="#7D5723"/>
<stop offset="0.857" stop-color="#E8C46F"/>
</linearGradient>
<linearGradient id="paint1_linear" x1="2041.43" y1="2896.62" x2="6621.29" y2="2872.22" gradientUnits="userSpaceOnUse">
<stop stop-color="#E8C46F"/>
<stop offset="0.24" stop-color="#BB842C"/>
<stop offset="0.515" stop-color="#7D5723"/>
<stop offset="0.857" stop-color="#E8C46F"/>
</linearGradient>
<linearGradient id="paint2_linear" x1="2342.47" y1="3172.09" x2="7563.08" y2="3143.15" gradientUnits="userSpaceOnUse">
<stop stop-color="#E8C46F"/>
<stop offset="0.24" stop-color="#BB842C"/>
<stop offset="0.515" stop-color="#7D5723"/>
<stop offset="0.857" stop-color="#E8C46F"/>
</linearGradient>
<linearGradient id="paint3_linear" x1="3148.39" y1="3815.06" x2="10152.5" y2="3772.65" gradientUnits="userSpaceOnUse">
<stop stop-color="#E8C46F"/>
<stop offset="0.24" stop-color="#BB842C"/>
<stop offset="0.515" stop-color="#7D5723"/>
<stop offset="0.857" stop-color="#E8C46F"/>
</linearGradient>
<linearGradient id="paint4_linear" x1="2116.32" y1="2902.26" x2="6694.64" y2="2877.91" gradientUnits="userSpaceOnUse">
<stop stop-color="#E8C46F"/>
<stop offset="0.24" stop-color="#BB842C"/>
<stop offset="0.515" stop-color="#7D5723"/>
<stop offset="0.857" stop-color="#E8C46F"/>
</linearGradient>
<linearGradient id="paint5_linear" x1="2582.94" y1="5776.6" x2="8192.2" y2="5757.6" gradientUnits="userSpaceOnUse">
<stop stop-color="#E8C46F"/>
<stop offset="0.24" stop-color="#BB842C"/>
<stop offset="0.515" stop-color="#7D5723"/>
<stop offset="0.857" stop-color="#E8C46F"/>
</linearGradient>
<linearGradient id="paint6_linear" x1="2422.98" y1="4458.1" x2="7557.56" y2="4438.83" gradientUnits="userSpaceOnUse">
<stop stop-color="#E8C46F"/>
<stop offset="0.24" stop-color="#BB842C"/>
<stop offset="0.515" stop-color="#7D5723"/>
<stop offset="0.857" stop-color="#E8C46F"/>
</linearGradient>
<linearGradient id="paint7_linear" x1="1902.51" y1="3063.97" x2="5795.79" y2="3047.33" gradientUnits="userSpaceOnUse">
<stop stop-color="#E8C46F"/>
<stop offset="0.24" stop-color="#BB842C"/>
<stop offset="0.515" stop-color="#7D5723"/>
<stop offset="0.857" stop-color="#E8C46F"/>
</linearGradient>
<linearGradient id="paint8_linear" x1="2364.98" y1="2927.41" x2="7272.19" y2="2899.63" gradientUnits="userSpaceOnUse">
<stop stop-color="#E8C46F"/>
<stop offset="0.24" stop-color="#BB842C"/>
<stop offset="0.515" stop-color="#7D5723"/>
<stop offset="0.857" stop-color="#E8C46F"/>
</linearGradient>
<linearGradient id="paint9_linear" x1="1505.96" y1="2965.44" x2="4403.79" y2="2955.85" gradientUnits="userSpaceOnUse">
<stop stop-color="#E8C46F"/>
<stop offset="0.24" stop-color="#BB842C"/>
<stop offset="0.515" stop-color="#7D5723"/>
<stop offset="0.857" stop-color="#E8C46F"/>
</linearGradient>
<linearGradient id="paint10_linear" x1="2521.82" y1="4401.18" x2="7697.5" y2="4381.35" gradientUnits="userSpaceOnUse">
<stop stop-color="#E8C46F"/>
<stop offset="0.24" stop-color="#BB842C"/>
<stop offset="0.515" stop-color="#7D5723"/>
<stop offset="0.857" stop-color="#E8C46F"/>
</linearGradient>
<linearGradient id="paint11_linear" x1="2407.03" y1="2991.93" x2="7268.38" y2="2965.09" gradientUnits="userSpaceOnUse">
<stop stop-color="#E8C46F"/>
<stop offset="0.24" stop-color="#BB842C"/>
<stop offset="0.515" stop-color="#7D5723"/>
<stop offset="0.857" stop-color="#E8C46F"/>
</linearGradient>
</defs>
</svg>
