<svg width="62" height="62" viewBox="0 0 62 62" fill="none" xmlns="http://www.w3.org/2000/svg">
<g clip-path="url(#clip0)">
<path d="M0 48.5666C0 54.1632 16.6201 54.7666 23.7667 54.7666C32.6182 54.7666 39.8174 53.9069 43.7369 52.3982C45.1683 53.8062 47.0615 54.6476 49.0658 54.7666C49.9059 54.7666 49.8831 54.7222 55.3236 53.4977C58.3058 52.826 60.481 49.7426 61.4534 44.8177C62.3386 39.3678 62.1165 33.7953 60.8003 28.4332C57.9359 15.7138 51.0467 6.79205 45.1071 8.13332L40.0675 9.26998C37.9481 9.74738 36.2886 11.4741 35.1488 14.0564C27.7212 12.0393 26.9214 17.5666 19.7801 16.5436C13.5367 15.6518 13.4333 8.56628 13.4333 8.26662C13.4337 7.82606 13.1547 7.43373 12.7384 7.28946C12.3221 7.14519 11.8602 7.2807 11.5878 7.62698C11.3718 7.90185 6.5348 14.169 7.51337 21.6989C1.85277 22.5958 1.03333 23.716 1.03333 24.7999V28.3133C0.422016 28.6442 0.0296007 29.2721 0 29.9666L0 48.5666ZM10.2693 28.2657C18.0388 29.034 25.8596 29.1422 33.6474 28.5892C33.7569 29.6225 33.8944 30.6765 34.0804 31.7502C27.2046 32.149 9.0737 32.3764 3.1 30.319V26.8666C5.42747 27.6092 7.83337 28.0788 10.2693 28.2657ZM2.06667 48.5666V36.2234C6.42947 37.4108 10.9158 38.0853 15.4349 38.2333C15.8041 38.2564 16.1575 38.0807 16.3621 37.7725C16.5667 37.4644 16.5913 37.0705 16.4267 36.7392C16.2621 36.408 15.9332 36.1897 15.5641 36.1666C8.00937 35.6965 4.09097 34.7954 2.06667 34.0421V32.1366C8.27597 34.5216 27.4267 34.2239 34.4813 33.7992C35.7285 39.6159 38.2013 46.283 42.1218 50.7811C38.2912 52.0066 31.7533 52.7 23.7667 52.7C8.79883 52.7 2.06667 50.283 2.06667 48.5666ZM58.7843 28.8857C60.0383 33.9673 60.2561 39.2492 59.4249 44.4168C58.6334 48.4323 56.9739 51.0074 54.87 51.4817C50.7294 52.4117 44.4333 45.1049 41.6433 32.7452C38.8533 20.3855 41.4232 11.0814 45.5617 10.1493C45.8013 10.0962 46.0459 10.0695 46.2913 10.0698C50.4081 10.0698 56.1596 17.2318 58.7843 28.8857ZM40.5211 11.285L41.1473 11.1434C34.7004 20.9002 40.4467 46.4245 50.4566 52.4768L49.8294 52.6183C47.7245 53.0916 45.1205 51.4817 42.6839 48.1894C39.7184 43.8768 37.6514 39.0113 36.6058 33.883C36.1215 31.7233 35.7801 29.5341 35.5839 27.3295C34.8326 18.3447 37.1545 12.0434 40.5211 11.285ZM10.4563 14.1628C10.5596 18.9223 12.9012 22.2672 17.2401 23.7139C17.7823 23.8943 18.368 23.6009 18.5483 23.0588C18.7287 22.5166 18.4354 21.9309 17.8932 21.7506C13.4499 20.2688 12.4165 16.6542 12.5271 13.3289C13.7545 16.1886 16.4004 18.1879 19.4866 18.5876C27.3131 19.7087 28.1366 14.4397 34.4255 16.0042C33.5105 19.4328 33.189 22.9927 33.4748 26.5297C26.01 27.0562 18.5145 26.9691 11.0639 26.2694C9.12029 22.5116 8.8987 18.0963 10.4563 14.1628ZM7.90707 23.7294C8.11205 24.4947 8.36679 25.2458 8.66967 25.9779C6.90628 25.7961 5.17141 25.4012 3.503 24.802C4.92169 24.2659 6.40073 23.9057 7.90707 23.7294Z" fill="#474747"/>
<path d="M19.6329 38.2336C20.2036 38.2336 20.6663 37.771 20.6663 37.2003C20.6663 36.6296 20.2036 36.167 19.6329 36.167C19.0622 36.167 18.5996 36.6296 18.5996 37.2003C18.5996 37.771 19.0622 38.2336 19.6329 38.2336Z" fill="#474747"/>
<path d="M43.5412 23.0048C43.5983 23.5726 44.1049 23.9867 44.6727 23.9296C45.2405 23.8726 45.6546 23.366 45.5975 22.7981C45.1046 17.8671 46.0977 16.3067 46.7342 15.8159C47.2009 15.4931 47.7937 15.4125 48.3297 15.5989C48.8582 15.7979 49.4487 15.5357 49.6554 15.0101C49.8622 14.4845 49.6086 13.8903 49.0861 13.6759C47.8887 13.2261 46.5457 13.4048 45.5076 14.1522C43.7479 15.4759 43.0896 18.454 43.5412 23.0048Z" fill="#474747"/>
<path d="M52.1832 46.4261C53.381 46.8759 54.7245 46.6968 55.7626 45.9487C57.5193 44.625 58.1837 41.6469 57.726 37.0961C57.6689 36.5283 57.1623 36.1142 56.5945 36.1713C56.0266 36.2283 55.6126 36.7349 55.6696 37.3028C56.1636 42.2338 55.1695 43.7931 54.533 44.285C54.0669 44.6084 53.4743 44.6894 52.9385 44.503C52.595 44.3677 52.2054 44.426 51.9165 44.6558C51.6275 44.8857 51.4832 45.2522 51.5377 45.6173C51.5923 45.9825 51.8376 46.2908 52.1811 46.4261H52.1832Z" fill="#474747"/>
</g>
<defs>
<clipPath id="clip0">
<rect width="62" height="62" fill="white"/>
</clipPath>
</defs>
</svg>
