<svg width="62" height="62" viewBox="0 0 62 62" fill="none" xmlns="http://www.w3.org/2000/svg">
<g clip-path="url(#clip0)">
<path d="M10.6845 42.8451L8.12806 36.8797C7.33251 35.078 5.22704 34.2624 3.42536 35.0579C1.62368 35.8535 0.808048 37.9589 1.6036 39.7606C6.3125 50.1198 6.5419 51.242 8.63026 53.3283L17.0003 61.6983C17.194 61.8921 17.4568 62.001 17.7308 62.001H28.9332C29.5039 62.001 29.9665 61.5384 29.9665 60.9677C30.1055 58.8725 29.9907 56.7682 29.6245 54.7005C30.5394 54.7873 31.4604 54.7873 32.3752 54.7005C31.9299 56.5915 32.0332 57.753 32.0332 60.9667C32.0332 61.5374 32.4958 62 33.0665 62H44.273C44.5471 62 44.8098 61.891 45.0036 61.6972L53.3736 53.3272C55.4589 51.2409 55.6252 50.2572 60.4003 39.7596C60.9149 38.5941 60.7686 37.2426 60.0166 36.2142C59.2646 35.1857 58.021 34.6366 56.7544 34.7737C55.4877 34.9108 54.3904 35.7132 53.8758 36.8786L51.3152 42.8451C50.1157 42.0152 48.6249 41.7221 47.2005 42.036C47.6786 40.8633 48.0844 39.6624 48.4157 38.44C50.4668 38.0267 55.4361 36.2256 55.4361 28.4167C55.4361 25.7703 54.9753 22.5091 52.3434 22.1495C56.0635 16.3918 57.5501 9.47257 56.5232 2.69495L56.1099 0.809112C56.0044 0.334528 55.5823 -0.00233397 55.0962 1.21788e-05H6.90356C6.41933 9.52795e-05 6.00011 0.336423 5.89503 0.809112L5.46103 2.77245C4.45249 9.53057 5.94539 16.4244 9.65946 22.1598C7.05339 22.5484 6.60183 25.8003 6.60183 28.4208C6.60183 36.2328 11.5753 38.0308 13.6285 38.4441C13.9616 39.6699 14.3692 40.8743 14.8489 42.0505C13.4108 41.7165 11.8986 42.0051 10.6845 42.8451ZM27.8999 59.9333H18.1545L10.0945 51.8671C8.40706 50.1838 8.40913 49.7374 3.4853 38.905C3.26896 38.4149 3.33051 37.8467 3.64676 37.4143C3.96302 36.9819 4.48592 36.7511 5.01851 36.8087C5.5511 36.8664 6.01246 37.2039 6.2288 37.6939C10.4148 47.4631 8.78733 45.0833 16.9961 53.2973C17.2556 53.5659 17.6398 53.6736 18.0011 53.5791C18.3623 53.4845 18.6445 53.2024 18.739 52.8411C18.8336 52.4798 18.7259 52.0956 18.4573 51.8361C12.7967 46.1766 12.529 46.0195 11.6662 44.6979C12.8233 43.7372 14.4999 43.7346 15.66 44.6917C17.8123 46.6652 20.2987 48.2398 23.0029 49.3417C25.4199 50.1446 27.8999 53.2766 27.8999 57.66V59.9333ZM28.8888 52.5192C27.9289 50.1573 26.0355 48.2972 23.657 47.3794C21.6264 46.5579 19.742 45.4134 18.077 43.99C14.5265 37.6991 14.0697 30.1175 14.0646 22.8935C16.2542 19.035 21.9975 10.1349 30.9999 4.70478C40.0219 10.1752 45.7765 19.0888 47.9734 22.9576C47.9569 30.2942 47.5187 37.5276 44.0137 43.9208C42.3239 45.3736 40.4089 46.5418 38.3438 47.3794C35.9633 48.2991 34.0688 50.1618 33.1089 52.5264C31.7101 52.7396 30.2868 52.7372 28.8888 52.5192ZM50.3335 44.6927C49.4748 46.0092 49.2258 46.1476 43.5425 51.831C43.1509 52.2364 43.1565 52.8809 43.555 53.2795C43.9536 53.6781 44.5981 53.6837 45.0036 53.2921C53.1339 45.1629 51.5828 47.4682 55.7709 37.6939C55.9873 37.2039 56.4486 36.8664 56.9812 36.8087C57.5138 36.7511 58.0367 36.9819 58.353 37.4143C58.6692 37.8467 58.7308 38.4149 58.5144 38.905C53.664 49.5762 53.634 50.1425 51.9114 51.8671L43.8452 59.9333H34.0999V57.66C34.0646 55.4168 34.7893 53.2277 36.1562 51.4486C38.5794 48.4189 39.3523 50.5734 46.3397 44.6917C47.4986 43.7331 49.1752 43.7335 50.3335 44.6927ZM53.3695 28.4167C53.3695 33.6195 50.8471 35.4816 48.9716 36.1491C49.6697 32.4699 50.0185 28.7329 50.0132 24.9881C50.969 24.3092 51.8164 24.026 52.2865 24.2534C52.5397 24.3753 53.3695 25.0387 53.3695 28.4167ZM54.2695 2.06668C55.6381 8.97328 54.106 16.1388 50.0328 21.8819C49.9347 14.1639 47.8959 8.87635 43.7977 5.74121C43.3443 5.39452 42.6957 5.48103 42.349 5.93445C42.0023 6.38786 42.0888 7.03648 42.5422 7.38318C45.5296 9.66788 47.2418 13.4065 47.776 18.6982C43.6324 12.4052 37.2329 5.70195 30.5555 2.06668H54.2695ZM7.7323 2.06668H21.8259C19.5204 3.59379 17.464 5.46718 15.7293 7.62085C15.3726 8.06656 15.4447 8.71703 15.8905 9.07371C16.3362 9.4304 16.9866 9.35822 17.3433 8.91251C19.6531 6.06041 22.5626 3.75203 25.8652 2.15141C26.9149 2.56399 27.9424 3.031 28.9435 3.55055C20.2697 9.13468 14.73 17.4768 12.1302 22.1133C7.92939 16.3383 6.33482 9.06984 7.7323 2.06668ZM8.6685 28.4167C8.6685 25.0346 9.49516 24.3712 9.7535 24.2492C10.2144 24.0271 11.0793 24.3143 12.0268 24.9839C12.0216 28.7306 12.3707 32.4693 13.0695 36.1501C11.194 35.4867 8.6685 33.6257 8.6685 28.4167Z" fill="#474747"/>
<path d="M19.062 22.4595C20.1395 21.9179 21.3888 21.8293 22.5319 22.2136L26.5402 23.5497C26.891 23.6663 27.2773 23.587 27.5537 23.3416C27.83 23.0962 27.9545 22.722 27.8802 22.36C27.8059 21.9979 27.544 21.703 27.1933 21.5863L23.185 20.2533C21.5223 19.6948 19.7053 19.8239 18.1382 20.6119C17.805 20.7752 17.5849 21.1046 17.5616 21.475C17.5383 21.8454 17.7154 22.1998 18.0256 22.4035C18.3358 22.6072 18.7314 22.629 19.062 22.4605V22.4595Z" fill="#474747"/>
<path d="M35.1335 23.6024C35.3743 23.6024 35.1335 23.6592 39.4735 22.2136C40.6165 21.8283 41.8662 21.9169 42.9434 22.4595C43.2741 22.628 43.6697 22.6062 43.9799 22.4025C44.29 22.1987 44.4671 21.8443 44.4439 21.474C44.4206 21.1036 44.2005 20.7742 43.8672 20.6109C42.2998 19.8229 40.4825 19.6938 38.8194 20.2523L34.8122 21.5884C34.3318 21.748 34.0377 22.232 34.1175 22.7319C34.1973 23.2317 34.6274 23.6002 35.1335 23.6024Z" fill="#474747"/>
<path d="M26.8098 27.5681C26.6266 27.0288 26.0415 26.7394 25.5016 26.9212C25.4655 26.9326 21.9418 28.0817 19.22 26.0398C18.8107 25.7347 18.24 25.7742 17.8767 26.1328C17.5138 26.5082 17.0453 26.7641 16.5333 26.8665C15.9626 26.8665 15.5 27.3291 15.5 27.8998C15.5 28.4705 15.9626 28.9331 16.5333 28.9331C17.305 28.8917 18.0463 28.6192 18.661 28.1509C18.817 28.2439 18.971 28.3266 19.1301 28.4061C18.9915 28.6164 18.8111 28.7958 18.6 28.9331C18.0293 28.9331 17.5667 29.3958 17.5667 29.9665C17.5667 31.2364 19.4752 31.7231 21.1554 29.1202C22.8203 29.4603 24.5439 29.3768 26.1681 28.8773C26.706 28.6919 26.9928 28.1067 26.8098 27.5681Z" fill="#474747"/>
<path d="M42.7799 26.0396C40.0716 28.0701 36.5716 26.9458 36.4993 26.921C35.9592 26.7367 35.3718 27.0252 35.1875 27.5653C35.0032 28.1055 35.2916 28.6928 35.8318 28.8771C37.4558 29.3774 39.1797 29.4609 40.8445 29.12C41.3694 29.9353 42.2695 30.9996 43.3999 30.9996C43.9755 31.0025 44.4464 30.5418 44.456 29.9663C44.4618 29.6942 44.3578 29.4313 44.1675 29.2369C43.9771 29.0424 43.7165 28.9329 43.4444 28.9329C43.2154 28.8015 43.0201 28.6186 42.874 28.3987C43.029 28.3191 43.184 28.2385 43.339 28.1455C43.953 28.6157 44.6944 28.8901 45.4666 28.9329C46.0373 28.9329 46.4999 28.4703 46.4999 27.8996C46.4999 27.3289 46.0373 26.8663 45.4666 26.8663C44.9575 26.7636 44.4916 26.5089 44.1305 26.1357C43.7669 25.7721 43.1913 25.7311 42.7799 26.0396Z" fill="#474747"/>
<path d="M27.3263 35.9929C29.5494 37.4803 32.4501 37.4803 34.6733 35.9929C34.9804 35.788 35.155 35.4348 35.1311 35.0664C35.1072 34.6979 34.8886 34.3702 34.5576 34.2066C34.2266 34.0431 33.8334 34.0686 33.5263 34.2734C31.997 35.2956 30.0026 35.2956 28.4733 34.2734C27.9985 33.9567 27.3568 34.0849 27.04 34.5597C26.7233 35.0345 26.8515 35.6762 27.3263 35.9929Z" fill="#474747"/>
<path d="M37.1998 42.1599C37.1967 41.8138 37.0506 41.4843 36.7962 41.2495C36.5419 41.0146 36.2018 40.8954 35.8565 40.9199C34.9998 40.9199 32.464 39.2666 30.9998 39.2666C29.5159 39.2666 27.0153 40.9199 26.1483 40.9199C25.8022 40.8942 25.4609 41.0129 25.2054 41.2478C24.95 41.4827 24.8031 41.8129 24.7998 42.1599C24.7998 43.618 27.719 45.4666 30.9998 45.4666C34.2806 45.4666 37.1998 43.6169 37.1998 42.1599ZM30.9998 41.3333C32.1119 41.659 33.1926 42.0837 34.229 42.6022C32.2075 43.6655 29.7921 43.6655 27.7706 42.6022C28.8065 42.0827 29.8873 41.658 30.9998 41.3333Z" fill="#474747"/>
<path d="M32.0336 47.5332H29.9669C29.3962 47.5332 28.9336 47.9958 28.9336 48.5665C28.9336 49.1372 29.3962 49.5998 29.9669 49.5998H32.0336C32.6043 49.5998 33.0669 49.1372 33.0669 48.5665C33.0669 47.9958 32.6043 47.5332 32.0336 47.5332Z" fill="#474747"/>
<path d="M13.4327 12.3997C14.0034 12.3997 14.4661 11.937 14.4661 11.3663C14.4661 10.7956 14.0034 10.333 13.4327 10.333C12.8621 10.333 12.3994 10.7956 12.3994 11.3663C12.3994 11.937 12.8621 12.3997 13.4327 12.3997Z" fill="#474747"/>
</g>
<defs>
<clipPath id="clip0">
<rect width="62" height="62" fill="white"/>
</clipPath>
</defs>
</svg>
