<svg width="62" height="62" viewBox="0 0 62 62" fill="none" xmlns="http://www.w3.org/2000/svg">
<g clip-path="url(#clip0)">
<path d="M25.7246 36.1404L25.4521 36.2493L26.2189 38.168L26.4912 38.0585C29.2713 36.9469 32.7295 36.9464 35.5096 38.0585L35.782 38.1675L36.5487 36.2487L36.2762 36.1403C33.014 34.8345 28.9869 34.835 25.7246 36.1404Z" fill="#474747"/>
<path d="M29.9668 20.6807H32.0327V32.0435H29.9668V20.6807Z" fill="#474747"/>
<path d="M59.9236 0.0212191V18.9776C59.9236 19.3105 59.8702 19.6411 59.7652 19.9571L54.8526 34.6941L47.1879 46.691C46.9504 47.0661 46.5661 47.3238 46.1291 47.4012C45.207 47.545 44.3428 46.9141 44.1989 45.9921C44.1437 45.6376 44.2026 45.2747 44.3673 44.9559C46.1641 41.6935 49.4677 35.6374 49.4677 35.6374C49.5063 35.5667 49.5366 35.492 49.558 35.4144L50.3936 32.3513L53.6778 22.0271L51.7087 21.4006L48.4171 31.7481L48.4246 31.7504C48.4201 31.7647 48.409 31.7748 48.405 31.7891C48.1416 32.756 47.1444 33.3262 46.1775 33.0629C46.1105 33.0447 46.0445 33.0225 45.9799 32.9967C45.168 32.6717 44.7033 31.8142 44.8743 30.9565L46.4754 22.9499C46.4884 22.883 46.4949 22.815 46.4949 22.7468V19.7209C46.4831 15.3158 48.2339 11.089 51.3571 7.9824C51.5508 7.78872 51.6598 7.52608 51.6598 7.25208V0.0212191H49.5938V6.83088C48.8782 7.58664 48.2267 8.4005 47.6459 9.26407C41.9408 0.0704159 29.8632 -2.75776 20.6696 2.94727C18.1061 4.53806 15.9446 6.69931 14.3536 9.26278C13.773 8.39972 13.1217 7.58625 12.4065 6.83088V0.0212191H10.3406V7.25208C10.3406 7.52608 10.4495 7.78872 10.6432 7.9824C13.7666 11.0891 15.5173 15.3162 15.5055 19.7214V22.7468C15.5056 22.8148 15.5124 22.8828 15.5256 22.9495L17.1267 30.9561C17.2982 31.8142 16.8333 32.6723 16.021 32.9974C15.0902 33.3696 14.034 32.9167 13.6618 31.9859C13.6361 31.9217 13.6142 31.856 13.596 31.7894C13.592 31.7748 13.5809 31.7647 13.5764 31.7506L13.5839 31.7483L10.2921 21.4006L8.32301 22.0271L11.6072 32.3513L12.4428 35.4144C12.4642 35.492 12.4946 35.5667 12.5332 35.6374C12.5332 35.6374 15.8368 41.6932 17.6335 44.9559C18.0319 45.6782 17.8342 46.5669 17.1129 47.1086C16.7579 47.3743 16.3085 47.4805 15.8722 47.4016C15.435 47.3245 15.0506 47.0666 14.8134 46.6914L7.14864 34.6945L2.23604 19.9577C2.13042 19.6418 2.07658 19.3107 2.0767 18.9776V0.0212191H0.0107427V18.9776C0.0104845 19.5327 0.100096 20.0843 0.27609 20.6107L5.2291 35.4694C5.25583 35.5501 5.29237 35.6273 5.33808 35.6989L13.0712 47.8037C13.6209 48.6608 14.5017 49.2514 15.5034 49.4344C15.7154 49.473 15.9305 49.4923 16.146 49.4923C16.9623 49.4878 17.7549 49.2172 18.4036 48.7216C18.4447 48.6909 18.4763 48.6529 18.5158 48.6208C18.5902 48.7051 18.6589 48.7965 18.7345 48.879C19.3299 49.5322 19.9774 50.136 20.6704 50.6845V54.6038C20.6692 56.6559 20.3381 58.6946 19.6898 60.6417C19.5101 61.1831 19.8033 61.7678 20.3448 61.9475C20.4498 61.9824 20.5597 62 20.6704 62H41.33C41.9004 62.0002 42.3631 61.5378 42.3631 60.9672C42.3631 60.8565 42.3454 60.7467 42.3105 60.6417C41.6622 58.6946 41.3311 56.6559 41.33 54.6038V50.6853C42.0204 50.139 42.6655 49.5375 43.2588 48.887C43.3389 48.7996 43.4095 48.7062 43.4876 48.617C43.5433 48.6634 43.5894 48.7163 43.6481 48.7605C45.2651 49.9737 47.5595 49.6464 48.7727 48.0294C48.8277 47.9562 48.8799 47.8809 48.9292 47.8037L56.6624 35.6989C56.7081 35.6273 56.7446 35.5501 56.7714 35.4694L61.7254 20.6102C61.9006 20.0838 61.9898 19.5324 61.9896 18.9776V0.0212191H59.9236ZM46.2046 11.7993C45.9371 11.4703 45.6582 11.164 45.3772 10.863L45.8892 10.351C46.0804 10.6583 46.2615 10.9735 46.4353 11.295C46.3517 11.4601 46.2832 11.6319 46.2046 11.7993ZM44.6847 8.63369L43.8977 9.42134C43.1263 8.7419 42.3016 8.1256 41.4315 7.57825L42.5729 6.43693C43.3395 7.10617 44.0462 7.84127 44.6847 8.63369ZM22.4568 6.54449L21.078 5.16585C22.089 4.46717 23.1711 3.87721 24.3061 3.40591L25.3132 5.41893C24.3319 5.71552 23.3766 6.09192 22.4568 6.54449ZM27.3763 4.924L26.2845 2.74183C27.4871 2.40999 28.7217 2.20752 29.9672 2.13754V4.60894C29.0973 4.65504 28.2316 4.76027 27.3761 4.924H27.3763ZM32.0331 2.12295C33.2821 2.19371 34.52 2.3972 35.7261 2.72982L34.6254 4.92491C33.7695 4.76131 32.9034 4.65569 32.0331 4.60907V2.12295ZM37.6954 3.40978C38.8327 3.87617 39.9175 4.46174 40.9314 5.15681L39.5433 6.54462C38.6238 6.09205 37.669 5.71539 36.688 5.41854L37.6954 3.40978ZM19.441 6.45036L20.5687 7.57786C19.6981 8.12443 18.8734 8.74087 18.1025 9.42108L17.3263 8.64506C17.718 8.15103 18.1361 7.67857 18.5788 7.22987C18.8555 6.95445 19.1502 6.70499 19.441 6.45036ZM16.1096 10.3499L16.6233 10.8634C16.3415 11.1658 16.0618 11.4722 15.7958 11.7993C15.7176 11.6327 15.6494 11.4616 15.5661 11.2972C15.7394 10.9765 15.9171 10.6586 16.1095 10.3501L16.1096 10.3499ZM39.9484 59.9341H22.052C22.5057 58.1936 22.7357 56.4025 22.7363 54.6038V52.1266C23.2435 52.4195 23.7658 52.6858 24.3009 52.9242C28.5666 54.8197 33.4357 54.8197 37.7014 52.9242C38.2357 52.6859 38.7572 52.4201 39.2637 52.1275V54.6043C39.2645 56.4027 39.4945 58.1938 39.9484 59.9341ZM41.7288 47.4996C40.3751 49.0093 38.7164 50.2146 36.8623 51.0357C33.1291 52.6855 28.8736 52.6855 25.1405 51.0357C23.2825 50.2128 21.6206 49.0042 20.265 47.4904C20.0745 47.2829 19.9019 47.0652 19.7236 46.8513C20.0327 45.8897 19.9313 44.8431 19.4429 43.9589C17.951 41.2489 15.4169 36.6081 14.6048 35.1206C16.708 35.531 18.7457 34.1588 19.1561 32.0555C19.2531 31.5584 19.2519 31.047 19.1524 30.5504L18.4528 27.0512C19.3661 27.1406 20.2853 27.202 21.2083 27.202C22.8187 27.2033 24.4263 27.0658 26.0131 26.7909L25.658 24.7562C23.1361 25.1845 20.5651 25.241 18.0268 24.9241L17.5714 22.6444V20.8625C19.9034 19.6174 22.72 19.3155 25.581 20.0395L26.0895 18.037C23.0869 17.2752 20.107 17.4897 17.5183 18.5987C17.4302 17.0573 17.1507 15.5328 16.6865 14.0603C17.202 13.3208 17.7744 12.6227 18.3986 11.9724C18.4541 11.9103 18.5166 11.8483 18.5801 11.7838C18.6337 11.7308 18.6851 11.6772 18.789 11.586C19.9622 10.4428 21.2932 9.47364 22.7414 8.70794C24.0955 7.97736 25.5434 7.43634 27.0448 7.09998C29.6507 6.49103 32.3621 6.49194 34.9677 7.10256C36.4671 7.43957 37.913 7.98098 39.265 8.71156C40.7175 9.48074 42.0522 10.4542 43.2281 11.6024C43.3662 11.7315 43.4934 11.8592 43.6366 12.0119C44.2483 12.6498 44.8089 13.3347 45.3134 14.0602C44.8491 15.5328 44.5697 17.0574 44.4816 18.599C41.8935 17.4903 38.9147 17.2766 35.9104 18.0373L36.4189 20.0397C39.2799 19.3148 42.0973 19.6166 44.4285 20.8625V22.6444L43.9532 25.0217C41.7581 25.213 39.5477 25.1237 37.3752 24.7558L37.0201 26.7914C38.5884 27.0616 40.1769 27.1967 41.7683 27.1954C42.3577 27.1954 42.9454 27.1727 43.5305 27.1361L42.8478 30.5507C42.4275 32.6524 43.7905 34.6968 45.8923 35.1171C46.3882 35.2163 46.8989 35.2176 47.3954 35.1209C46.5833 36.6084 44.0502 41.2491 42.5573 43.9592C42.0695 44.8415 41.9696 45.8867 42.2819 46.8454C42.1007 47.0635 41.9261 47.2836 41.7284 47.4996H41.7288Z" fill="#474747"/>
</g>
<defs>
<clipPath id="clip0">
<rect width="62" height="62" fill="white"/>
</clipPath>
</defs>
</svg>
