<svg width="148" height="235" viewBox="0 0 148 235" fill="none" xmlns="http://www.w3.org/2000/svg">
<path opacity="0.8" d="M105.316 99.7054C105.336 100.53 105.346 101.356 105.34 102.177C105.292 108.517 104.984 114.847 104.484 121.166C104.14 125.51 103.728 129.851 103.277 134.185C102.913 137.675 102.471 141.157 102.017 144.636C101.649 147.453 101.235 150.265 100.799 153.073C100.344 156.013 99.8601 158.949 99.3484 161.881C98.8024 164.991 98.2363 168.098 97.6239 171.196C96.9732 174.485 96.2864 177.767 95.5635 181.041C93.9333 188.42 92.1486 195.761 90.099 203.036C89.2333 206.11 88.3506 209.18 87.4293 212.238C86.6092 214.959 85.7458 217.667 84.8646 220.368C84.1042 222.7 83.3139 225.022 82.4938 227.334C81.4744 230.191 80.4519 233.048 79.3453 235.878C78.0309 239.235 76.6666 242.572 75.2523 245.89C72.9355 251.347 70.368 256.685 67.5498 261.902C64.8152 267.067 61.7101 272.026 58.2587 276.741C56.27 279.504 54.0599 282.099 51.6505 284.503C50.3188 285.818 48.907 287.049 47.4231 288.189C46.3193 289.026 45.1552 289.78 43.9403 290.445C43.8545 290.492 43.7704 290.541 43.6823 290.581C43.6053 290.632 43.5163 290.662 43.4242 290.667C43.3321 290.672 43.2402 290.653 43.1578 290.612C43.0754 290.57 43.0054 290.508 42.955 290.43C42.9046 290.353 42.8755 290.264 42.8707 290.172C42.6231 288.821 42.4919 287.452 42.4784 286.079C42.4409 282.362 42.6841 278.647 43.2058 274.967C43.4854 272.811 43.7951 270.658 44.165 268.517C44.687 265.505 45.2307 262.488 45.8516 259.491C46.5582 256.078 47.3243 252.675 48.1282 249.284C48.9684 245.738 49.8581 242.204 50.7748 238.677C51.5779 235.588 52.4405 232.509 53.2892 229.429C53.7024 227.93 54.1387 226.437 54.5712 224.944C55.1087 223.102 55.6523 221.262 56.2022 219.423C56.6656 217.864 57.1369 216.306 57.6162 214.751C58.1491 213.022 58.6896 211.295 59.238 209.569C59.7384 207.983 60.2373 206.396 60.7493 204.813C61.3061 203.092 61.8752 201.374 62.4428 199.656C62.9718 198.053 63.4993 196.45 64.0414 194.852C64.6963 192.921 65.3635 190.99 66.03 189.064C66.654 187.263 67.2756 185.461 67.9151 183.666C68.7213 181.4 69.5373 179.139 70.3631 176.881C71.2968 174.327 72.2274 171.771 73.1911 169.228C74.4999 165.779 75.8266 162.335 77.1714 158.896C78.4889 155.539 79.8133 152.184 81.1933 148.857C83.0236 144.437 84.8857 140.031 86.7798 135.639C89.4364 129.471 92.2335 123.368 95.1712 117.329C97.7807 111.954 100.474 106.623 103.434 101.431C103.873 100.658 104.33 99.9015 104.786 99.1416C104.863 99.015 104.92 98.8451 105.209 98.8497C105.259 99.133 105.294 99.4186 105.316 99.7054ZM56.2478 278.427C58.9269 275.001 61.3851 271.408 63.6074 267.67C66.6372 262.59 69.403 257.357 71.8938 251.993C73.6383 248.277 75.2917 244.521 76.8169 240.709C78.1452 237.383 79.4323 234.041 80.6782 230.682C81.6103 228.179 82.483 225.653 83.3371 223.123C84.2453 220.431 85.1236 217.728 85.972 215.014C86.7845 212.418 87.5598 209.81 88.3213 207.198C90.906 198.331 93.1479 189.376 95.1241 180.354C95.7501 177.494 96.3471 174.628 96.915 171.756C97.5189 168.694 98.0865 165.623 98.6394 162.551C99.0935 160.028 99.5219 157.502 99.9245 154.971C100.331 152.417 100.712 149.858 101.067 147.296C101.433 144.698 101.796 142.1 102.102 139.496C102.516 135.975 102.915 132.451 103.246 128.922C103.607 125.077 103.935 121.229 104.185 117.377C104.446 113.367 104.607 109.351 104.794 105.337C104.871 103.687 104.898 102.036 104.948 100.386C104.957 100.241 104.935 100.097 104.882 99.9618C104.811 100.077 104.734 100.193 104.668 100.309C102.234 104.654 99.9052 109.053 97.6811 113.507C94.714 119.437 91.913 125.446 89.214 131.501C86.9008 136.692 84.6638 141.915 82.5031 147.171C80.9771 150.902 79.4588 154.637 77.9784 158.386C76.6578 161.729 75.3859 165.09 74.1078 168.449C73.1966 170.843 72.2997 173.243 71.4173 175.649C70.6705 177.677 69.943 179.712 69.2155 181.75C68.4397 183.923 67.67 186.098 66.9065 188.274C66.3211 189.948 65.7481 191.627 65.1813 193.305C64.5712 195.099 63.9647 196.893 63.3618 198.689C62.8915 200.094 62.4351 201.503 61.9718 202.912C61.4744 204.435 60.9802 205.96 60.489 207.486C60.0694 208.793 59.656 210.102 59.2488 211.412C58.7818 212.905 58.3184 214.401 57.8587 215.901C57.4911 217.097 57.1289 218.294 56.7721 219.493C56.2238 221.333 55.6796 223.173 55.1396 225.014C54.6803 226.588 54.2296 228.165 53.7873 229.744C53.2074 231.814 52.6289 233.886 52.0714 235.961C51.5007 238.085 50.9354 240.209 50.401 242.343C49.6287 245.442 48.8402 248.54 48.1321 251.655C47.3135 255.256 46.5304 258.866 45.8153 262.489C45.2338 265.431 44.7403 268.393 44.2708 271.355C43.7572 274.594 43.378 277.852 43.1757 281.127C43.0209 283.271 43.0124 285.424 43.1502 287.569C43.1618 287.724 43.1811 287.874 43.1966 288.025H43.2676C43.3309 287.674 43.3966 287.321 43.4576 286.969C43.7039 285.532 43.9333 284.093 44.1966 282.659C44.6353 280.27 45.0793 277.881 45.5481 275.497C46.9155 268.547 48.4284 261.629 50.0867 254.742C51.3184 249.666 52.6104 244.604 53.8978 239.542C54.5395 237.023 55.2191 234.513 55.9056 232.005C56.5621 229.603 57.2432 227.208 57.9212 224.812C58.4943 222.791 59.074 220.771 59.6604 218.752C60.2977 216.571 60.9462 214.393 61.6057 212.22C62.1653 210.36 62.7317 208.501 63.3047 206.643C63.9271 204.635 64.5635 202.635 65.1975 200.631C65.6925 199.068 66.186 197.505 66.6941 195.946C67.3258 194.006 67.965 192.068 68.6116 190.133C69.1321 188.567 69.657 187.001 70.1863 185.436C70.7578 183.758 71.3364 182.082 71.9223 180.409C72.5401 178.643 73.16 176.879 73.7819 175.116C74.3673 173.468 74.9594 171.823 75.5581 170.18C76.195 168.435 76.8385 166.693 77.4888 164.953C78.225 162.985 78.9687 161.021 79.7198 159.059C80.4828 157.076 81.2551 155.097 82.0366 153.122C82.8792 151 83.7232 148.879 84.599 146.772C85.8346 143.789 87.0849 140.81 88.3653 137.845C90.3237 133.308 92.3455 128.799 94.5619 124.381C94.6391 124.232 94.6669 124.019 94.9032 124.028C95.077 124.166 94.9805 124.3 94.9226 124.429C94.5364 125.268 94.1503 126.104 93.7726 126.946C92.0188 130.87 90.2481 134.786 88.5213 138.722C87.3861 141.313 86.3026 143.927 85.2284 146.544C84.1673 149.127 83.1355 151.718 82.1108 154.32C81.184 156.669 80.272 159.024 79.3746 161.385C78.6024 163.416 77.8479 165.455 77.0972 167.494C76.2843 169.706 75.4791 171.919 74.6816 174.136C73.9734 176.114 73.283 178.098 72.5965 180.082C71.8474 182.238 71.105 184.397 70.3693 186.558C69.7453 188.399 69.1376 190.244 68.529 192.09C67.8641 194.108 67.1992 196.127 66.5482 198.149C65.935 200.057 65.3365 201.97 64.7372 203.882C64.1812 205.655 63.6293 207.429 63.0815 209.205C62.7 210.447 62.3347 211.694 61.9617 212.939C61.5756 214.219 61.1895 215.498 60.8126 216.779C60.3786 218.247 59.9479 219.714 59.5206 221.181C59.0248 222.897 58.5342 224.613 58.0487 226.331C57.6883 227.606 57.333 228.881 56.983 230.159C56.3373 232.527 55.6958 234.895 55.0585 237.263C54.5225 239.271 53.9964 241.281 53.48 243.292C51.7707 249.941 50.1693 256.615 48.6757 263.315C47.8741 266.919 47.1096 270.532 46.3821 274.154C45.7952 277.046 45.2562 279.946 44.7295 282.854C44.3179 285.124 43.9572 287.404 43.5711 289.68C43.5611 289.739 43.5603 289.799 43.5487 289.932C43.7032 289.864 43.8175 289.823 43.924 289.764C45.3011 288.989 46.6113 288.101 47.8409 287.108C49.819 285.516 51.6592 283.759 53.3417 281.857C53.5899 281.574 53.81 281.267 53.9989 280.942C55.8454 277.826 57.498 274.609 59.0673 271.346C61.2945 266.713 63.3456 262.007 65.2546 257.239C66.6347 253.79 67.9645 250.32 69.2773 246.845C70.221 244.347 71.1184 241.83 72.0034 239.309C72.961 236.581 73.8972 233.846 74.8121 231.107C75.6142 228.712 76.3973 226.311 77.1613 223.903C78.017 221.218 78.858 218.529 79.6843 215.836C80.3253 213.746 80.9377 211.647 81.5509 209.549C82.2758 207.065 82.9934 204.579 83.7039 202.092C84.2762 200.07 84.8276 198.042 85.3751 196.013C86.0894 193.362 86.81 190.713 87.4926 188.053C88.4193 184.442 89.3198 180.822 90.2203 177.203C91.7022 171.249 93.0436 165.263 94.3418 159.266C94.9663 156.383 95.5676 153.493 96.1458 150.596C96.672 147.988 97.1788 145.376 97.6664 142.761C98.1081 140.41 98.5326 138.055 98.9398 135.697C99.3352 133.424 99.7152 131.148 100.08 128.87C100.381 127 100.668 125.128 100.94 123.253C101.249 121.127 101.544 118.999 101.837 116.87C102.022 115.524 102.19 114.174 102.37 112.827C102.4 112.576 102.462 112.33 102.556 112.096C102.479 112.986 102.407 113.878 102.314 114.767C102.171 116.142 102.019 117.517 101.859 118.892C101.738 119.929 101.6 120.964 101.461 121.999C101.294 123.25 101.124 124.501 100.942 125.751C100.745 127.108 100.535 128.464 100.325 129.82C100.145 130.984 99.9662 132.149 99.7762 133.311C99.5564 134.653 99.3296 135.994 99.0958 137.335C98.8178 138.938 98.5347 140.54 98.2464 142.142C98.0286 143.35 97.8108 144.557 97.5722 145.76C96.8517 149.394 96.1404 153.031 95.389 156.659C94.7851 159.573 94.1572 162.483 93.4869 165.385C92.2606 170.688 91.0105 175.985 89.7368 181.276C88.9692 184.452 88.1367 187.613 87.3088 190.775C86.5948 193.504 85.8611 196.225 85.1079 198.938C84.2877 201.9 83.4504 204.857 82.5957 207.809C81.808 210.527 81.0013 213.239 80.1755 215.946C79.3996 218.502 78.6062 221.053 77.7954 223.6C77.02 226.042 76.2282 228.478 75.4199 230.91C74.6476 233.238 73.8615 235.562 73.0498 237.877C72.1015 240.58 71.1462 243.282 70.1446 245.967C68.875 249.365 67.5961 252.763 66.2508 256.137C63.6638 262.638 60.879 269.052 57.695 275.29C57.159 276.338 56.5984 277.375 56.0493 278.416L55.8647 278.768L55.9234 278.823C56.0369 278.686 56.1443 278.557 56.2478 278.427Z" fill="url(#paint0_linear)"/>
<path opacity="0.8" d="M46.6077 295.015C46.7011 294.938 46.8609 294.871 46.932 294.748C46.9998 294.597 47.0363 294.434 47.0393 294.268C47.1544 293.169 47.2641 292.068 47.3745 290.968C47.3915 290.803 47.3992 290.638 47.4177 290.473C47.5722 289.126 47.7267 287.781 47.8734 286.434C48.2796 282.697 48.7399 278.964 49.0704 275.22C49.6009 269.215 50.2875 263.229 50.9887 257.244C52.6609 242.965 54.4448 228.7 56.3404 214.449C57.5228 205.486 58.6317 196.514 59.8318 187.554C60.0813 185.691 60.3137 183.825 60.6041 181.967C61.7077 174.835 62.4745 167.658 63.4808 160.513C63.8005 158.242 64.2121 155.984 64.5812 153.718C64.8901 151.808 65.1898 149.896 65.5157 147.988C66.0369 144.937 66.5768 141.887 67.1088 138.839C67.1281 138.73 67.1482 138.621 67.166 138.513C67.4584 136.741 67.7514 134.968 68.0448 133.195C68.4418 130.821 68.7082 128.43 68.9198 126.034C69.0799 123.829 69.067 121.614 68.8812 119.41C68.736 117.288 68.6194 115.163 68.5198 113.04C68.4876 112.321 68.5025 111.602 68.5646 110.886C68.8889 107.085 69.2156 103.284 69.8195 99.5127C70.0774 97.9025 70.3284 96.2916 70.5917 94.6814C70.9696 92.3646 71.3519 90.0478 71.7385 87.7311C71.9738 86.3132 72.2135 84.8974 72.4575 83.4836C72.4892 83.2952 72.5347 83.1091 72.5695 82.9253C72.6424 82.8767 72.72 82.8355 72.8012 82.8025C74.0973 82.4101 75.3644 81.9272 76.593 81.3576C77.3289 81.0402 78.0603 80.7267 78.7661 80.3367C80.4063 79.3992 81.8072 78.0948 82.8591 76.5256C84.2425 74.5177 85.2355 72.2672 85.786 69.8918C86.0297 68.8416 86.2015 67.776 86.3003 66.7024C86.3281 66.4321 86.3675 66.1618 86.413 65.802C86.5335 65.8976 86.644 66.0052 86.7428 66.1232C87.254 66.9441 87.7768 67.7589 88.2549 68.5991C88.692 69.3714 89.0704 70.1683 89.4866 70.9491C90.0187 71.953 90.5446 72.957 91.1084 73.9377C93.1724 77.5693 96.2616 80.5115 99.9894 82.3963C101.771 83.3491 103.665 84.0755 105.627 84.5586C106.923 84.85 108.245 85.0091 109.572 85.0335C111.425 85.0336 113.271 84.8243 115.076 84.4096C116.783 84.0705 118.501 83.7825 120.197 83.3971C121.581 83.0874 123.03 83.2735 124.29 83.923C125.463 84.4853 126.591 85.1262 127.703 85.795C128.58 86.3209 129.449 86.8592 130.321 87.3928C132.795 88.9226 135.537 89.9707 138.401 90.4819C140.362 90.8519 142.379 90.7992 144.319 90.3274C144.748 90.223 145.167 90.0798 145.57 89.8996C146.244 89.6249 146.8 89.1225 147.142 88.48C147.483 87.8375 147.588 87.0955 147.439 86.3835C147.305 85.5898 147.019 84.8294 146.597 84.1439C146.025 83.1947 145.295 82.3497 144.44 81.6449C143.205 80.6207 141.862 79.7352 140.433 79.0045C139.281 78.4053 138.123 77.8183 136.965 77.2283C134.429 75.9312 132.049 74.3489 129.871 72.5121C127.409 70.4138 125.072 68.1727 122.873 65.8004C121.56 64.415 120.251 63.0288 118.915 61.6681C117.909 60.6407 116.839 59.6774 115.713 58.7836C114.164 57.5269 112.405 56.5559 110.516 55.9163C108.593 55.2947 106.582 54.987 104.561 55.005C102.681 55.0256 100.811 55.2939 99.0009 55.8027C98.841 55.846 98.6796 55.88 98.5313 55.9163C98.4031 55.795 98.4865 55.7054 98.5422 55.6158C98.8333 55.1463 99.1391 54.6891 99.4148 54.2072C100.057 53.0453 100.551 51.8079 100.886 50.5236C101.318 48.979 101.728 47.4345 102.075 45.8668C102.758 42.9045 103.612 39.9843 104.633 37.121C105.222 35.422 105.75 33.7076 106.337 32.0109C106.996 30.105 107.699 28.2145 108.367 26.3109C109.249 23.8061 109.848 21.2102 110.152 18.5721C110.255 17.8879 110.278 17.1942 110.22 16.5047C110.198 16.3132 110.175 16.1186 110.143 15.9309C110.101 15.6278 109.998 15.3363 109.839 15.0747C109.681 14.813 109.47 14.5867 109.22 14.4096C108.971 14.2325 108.687 14.1085 108.388 14.0451C108.089 13.9817 107.779 13.9804 107.48 14.0412C107.046 14.122 106.623 14.2515 106.219 14.4274C105.996 14.523 105.779 14.6331 105.57 14.7571C105.37 14.6845 105.444 14.5254 105.423 14.4049C105.379 14.1601 105.351 13.913 105.307 13.6682C105.14 12.7529 104.764 11.8885 104.207 11.1427C103.651 10.3969 102.93 9.78987 102.1 9.36903C101.047 8.75456 99.8886 8.34182 98.6842 8.15196C97.7822 8.01913 96.8772 7.8894 95.969 7.81989C95.6376 7.814 95.3129 7.72552 95.0243 7.56249C94.7358 7.39946 94.4924 7.16702 94.3163 6.88622C93.0077 5.02647 91.344 3.44409 89.421 2.23027C88.2222 1.43218 86.8967 0.843081 85.501 0.48804C81.2536 -0.661856 77.3984 0.267944 73.88 2.7747C70.8906 4.89214 68.7943 8.04449 67.9977 11.6202C67.6684 12.9635 67.4871 14.3389 67.4571 15.7217C67.4123 17.8214 67.3675 19.9204 67.3112 22.0194C67.295 22.6272 67.2455 23.2342 67.2 23.8404C67.1568 24.3383 67.0019 24.8201 66.7467 25.2498C66.5268 25.6333 66.3026 26.0146 66.074 26.3935C65.3583 27.5817 64.9167 28.9145 64.7812 30.295C64.6206 31.9748 64.6761 33.6683 64.9465 35.334C65.1749 36.8089 65.4842 38.2702 65.8732 39.7111C66.282 41.205 66.8336 42.6561 67.5205 44.0443C68.0263 45.0892 68.5514 46.1255 69.0611 47.1681C69.2418 47.538 69.404 47.9179 69.5708 48.2855C69.4009 48.44 69.3515 48.2786 69.3082 48.2191C68.9352 47.7048 68.5707 47.1835 68.2085 46.6607C67.0895 45.0482 65.9605 43.4427 64.8585 41.8186C63.3954 39.6041 62.1045 37.2805 60.9972 34.8683C60.6304 34.096 60.2712 33.3161 59.8782 32.5515C59.2302 31.2654 58.3953 30.0823 57.4008 29.0408C57.2656 28.9018 57.1336 28.7589 56.9884 28.6323C55.2465 27.0492 53.2523 25.7681 51.0883 24.842C49.8867 24.3594 48.6325 24.001 47.3915 23.6226C45.8593 23.1552 44.3205 22.7093 42.7749 22.2851C41.2304 21.8634 39.6758 21.4704 38.1197 21.0904C35.5713 20.4687 33.0081 19.8934 30.4628 19.2509C28.785 18.7874 27.1333 18.2342 25.5149 17.5936C23.392 16.8059 21.2675 16.0105 19.1299 15.2768C16.9848 14.5428 14.786 13.9764 12.5533 13.5825C10.536 13.2021 8.46033 13.2611 6.46788 13.7555C5.20334 14.0716 4.01491 14.6378 2.97263 15.4205C1.71632 16.3456 0.77597 17.6358 0.279755 19.115C-0.104874 20.1641 -0.0927887 21.3176 0.313736 22.3585C0.871658 23.7785 1.71452 25.0692 2.79037 26.151C3.80589 27.1709 4.95181 28.0519 6.19835 28.7713C7.4586 29.5186 8.65573 30.3676 9.77779 31.3097C10.5071 31.9052 11.0842 32.6657 11.4613 33.5284C13.2598 37.6001 16.5889 40.8002 20.7284 42.4364C22.5355 43.1991 24.3803 43.8693 26.2555 44.4443C28.6135 45.1604 31.0526 45.5756 33.5148 45.6799C33.9287 45.7 34.3418 45.7386 34.7558 45.7572C35.9142 45.8089 37.0725 45.8529 38.2309 45.9039C38.6917 45.8816 39.153 45.9338 39.5971 46.0583C39.4349 46.1889 39.3384 46.2823 39.2279 46.3534C37.8402 47.2636 36.5205 48.2735 35.2794 49.3752C33.2966 51.0996 31.1706 52.652 28.9244 54.0157C27.0298 55.1611 25.2629 56.5055 23.6538 58.0261C21.3934 60.1664 19.7412 62.868 18.8657 65.8552C18.5217 66.9352 18.2719 68.0429 18.119 69.1659C17.9266 70.8196 18.1171 72.4953 18.6758 74.0636C18.9579 74.8755 19.3686 75.6368 19.8921 76.3186C20.8872 77.6811 21.757 79.1309 22.4907 80.6502C22.9927 81.6355 23.5558 82.5886 24.1766 83.5037C25.6394 85.6507 27.8367 87.1888 30.3547 87.8284C33.3294 88.634 36.4533 88.7187 39.4673 88.0755C41.1969 87.7252 42.8994 87.2524 44.5619 86.6607C46.3891 86.0251 48.2062 85.3618 50.0272 84.7115C51.4246 84.1878 52.8498 83.7416 54.2963 83.3747C56.1282 82.9381 58.0219 82.8213 59.8936 83.0295C60.9647 83.1485 62.0366 83.2712 63.1054 83.4157C65.7691 83.7523 68.4689 83.6713 71.1076 83.1755C71.2937 83.1415 71.4822 83.1176 71.7254 83.0797C71.7339 83.2256 71.7324 83.3719 71.7208 83.5176C71.3346 85.8915 70.9362 88.2631 70.5523 90.6371C70.2265 92.6565 69.9508 94.6845 69.5901 96.697C68.98 100.102 68.5414 103.528 68.2093 106.968C68.0719 108.399 67.9336 109.831 67.8417 111.265C67.7753 112.59 67.7923 113.918 67.8927 115.241C68.017 117.254 68.1545 119.266 68.2788 121.279C68.3542 122.631 68.3462 123.986 68.2549 125.337C68.0935 127.906 67.7838 130.457 67.3753 132.996C66.9232 135.807 66.4547 138.616 65.9698 141.421C65.5064 144.118 65.0222 146.811 64.5511 149.506C64.4515 150.077 64.3789 150.654 64.2824 151.226C63.9233 153.352 63.5572 155.474 63.2012 157.603C63.0951 158.23 63.0009 158.859 62.9186 159.489C62.2845 164.369 61.6706 169.252 61.0196 174.13C60.5562 177.582 60.0349 181.026 59.5654 184.478C58.9128 189.272 58.2641 194.067 57.6487 198.865C55.7391 213.755 53.8391 228.647 51.9486 243.541C51.3076 248.586 50.6898 253.635 50.0952 258.688C49.6787 262.202 49.29 265.719 48.9291 269.239C48.5236 273.172 48.1761 277.109 47.7707 281.042C47.4618 284.094 47.0949 287.143 46.7613 290.191C46.6841 290.933 46.637 291.679 46.5551 292.42C46.5096 292.829 46.413 293.233 46.3528 293.641C46.3051 293.941 46.2739 294.243 46.2594 294.545C46.2509 294.653 46.2815 294.759 46.3455 294.845C46.4096 294.932 46.5027 294.992 46.6077 295.015ZM104.895 70.3297L104.94 70.2903C104.78 70.0002 104.552 69.7538 104.275 69.5729C102.325 67.8556 100.207 66.3392 97.9537 65.0467C96.1636 64.0027 94.2663 63.1546 92.2946 62.5168L90.4805 61.9268C90.9949 61.5008 91.577 61.1641 92.2027 60.9305C94.4679 61.2861 96.6972 61.842 98.8642 62.5917C102.286 63.7693 105.593 65.2559 108.744 67.0329C112.859 69.3556 116.764 72.0317 120.415 75.0312C120.909 75.4313 121.404 75.829 121.901 76.2244C121.978 76.2885 122.068 76.3549 122.17 76.2244C122.093 76.1472 122.016 76.0645 121.935 75.9927C121.085 75.2853 120.247 74.5656 119.386 73.8775C114.512 69.9232 109.149 66.6148 103.427 64.0343C101.164 63.0068 98.8198 62.1658 96.4192 61.5198C95.4577 61.2711 94.4886 61.0641 93.5186 60.8317C93.2565 60.8213 93.0066 60.7188 92.8128 60.5421C92.9525 60.451 93.0576 60.3737 93.1703 60.3104C93.2831 60.2471 93.4174 60.193 93.5564 60.1289C94.0198 60.1544 94.4916 60.1614 94.9581 60.2062C97.1036 60.4102 99.231 60.7726 101.323 61.2904C103.144 61.7523 104.925 62.3558 106.652 63.0952C109.482 64.3454 112.189 65.8576 114.738 67.6121C117.008 69.1389 119.185 70.7939 121.369 72.4395C123.728 74.2178 126.096 75.9847 128.473 77.7403C129.161 78.2462 129.901 78.6825 130.622 79.1428C130.768 79.1968 130.92 79.2331 131.075 79.2509C130.173 78.623 129.387 78.1095 128.637 77.5519C125.96 75.5492 123.292 73.5372 120.633 71.5159C117.927 69.411 115.117 67.4451 112.212 65.6259C108.036 63.0088 103.395 61.2201 98.5429 60.3575C97.3992 60.1644 96.2431 60.0486 95.0925 59.8942C94.8523 59.8617 94.6137 59.8231 94.3743 59.7876C95.2049 59.5986 96.061 59.548 96.908 59.6378C98.3398 59.7397 99.7654 59.9397 101.189 60.1181C101.709 60.183 102.222 60.3035 102.734 60.4008C103.304 60.5081 103.872 60.6185 104.441 60.7274L104.422 60.746C104.383 60.5769 104.239 60.5614 104.106 60.5313C103.326 60.3552 102.545 60.1768 101.763 60.0046C100.065 59.6147 98.3311 59.403 96.5891 59.3729C96.2411 59.3904 95.8932 59.3379 95.5659 59.2184C95.962 59.1482 96.2261 59.0903 96.4926 59.0555C98.7415 58.7621 101.02 58.7743 103.265 59.0918C103.839 59.1729 104.404 59.308 104.976 59.4076C106.662 59.7031 108.322 60.1338 109.939 60.6958C110.031 60.7485 110.133 60.7802 110.238 60.7888C110.343 60.7973 110.449 60.7824 110.548 60.7452C110.239 60.6193 109.977 60.4981 109.703 60.4008C107.431 59.6101 105.083 59.0583 102.697 58.7543C101.628 58.6095 100.551 58.5434 99.4727 58.5566C98.3683 58.573 97.2658 58.6529 96.1705 58.796C95.9931 58.7998 95.8156 58.7887 95.64 58.7628L97.2386 57.1974C97.2739 57.1548 97.3147 57.1169 97.3598 57.0847C97.5238 56.9855 97.6964 56.9015 97.8757 56.8337C98.4294 56.6615 98.9862 56.4962 99.5476 56.351C102.306 55.6065 105.194 55.4776 108.007 55.9734C109.999 56.3226 111.904 57.0571 113.614 58.1357C114.704 58.8437 115.733 59.6411 116.69 60.5197C118.36 62.0163 119.894 63.6458 121.423 65.283C123.517 67.5226 125.648 69.732 127.937 71.78C130.529 74.1532 133.419 76.1782 136.535 77.8036C137.717 78.4045 138.902 78.9976 140.08 79.6061C141.486 80.3183 142.807 81.1861 144.019 82.1932C144.813 82.8413 145.485 83.6258 146.004 84.51C146.051 84.5926 146.154 84.6829 146.035 84.7903C145.231 84.3578 144.439 83.9091 143.627 83.5014C142.844 83.0524 142.006 82.7052 141.135 82.4681C142.962 83.3315 144.728 84.3192 146.42 85.4243C146.683 85.8847 146.786 86.4197 146.712 86.9449C146.532 86.846 146.368 86.7681 146.217 86.6692C145.361 86.1116 144.518 85.534 143.651 84.9919C142.042 83.9709 140.351 83.0842 138.596 82.3407C138.519 82.2919 138.432 82.2612 138.341 82.2508C138.251 82.2403 138.159 82.2505 138.073 82.2804C138.837 82.6588 139.575 83.0064 140.295 83.3863C141.052 83.7856 141.802 84.2003 142.535 84.6374C143.247 85.0598 143.944 85.5077 144.635 85.9657C145.358 86.4147 146.054 86.9064 146.72 87.4384C146.692 87.79 146.573 88.1285 146.376 88.4207C146.178 88.7129 145.908 88.9489 145.592 89.1057C145.155 89.3403 144.69 89.5218 144.21 89.6463C142.41 90.1093 140.531 90.1765 138.703 89.8432C136.187 89.4368 133.765 88.5828 131.55 87.3218C130.59 86.7742 129.651 86.1912 128.706 85.6228C127.379 84.7747 126.001 84.0087 124.58 83.3292C124.131 83.1178 123.71 82.8519 123.326 82.5376C121.8 81.3491 120.261 80.1791 118.72 79.0107C118.527 78.8647 118.354 78.6624 118.08 78.6554L118.051 78.6809C118.161 78.9574 118.433 79.0671 118.644 79.2285C119.861 80.183 121.086 81.1274 122.306 82.0773C122.476 82.2094 122.635 82.3561 122.814 82.5083C122.726 82.5554 122.68 82.6025 122.643 82.5963C121.763 82.4919 120.872 82.5408 120.009 82.7407C118.029 83.1199 116.046 83.4844 114.072 83.8891C112.37 84.2587 110.625 84.3992 108.885 84.3069C107.975 84.2579 107.069 84.1446 106.175 83.9678C103.907 83.4619 101.728 82.6173 99.7106 81.4626C96.4332 79.6904 93.7077 77.049 91.8335 73.8288C91.1933 72.7322 90.6133 71.6001 90.0094 70.4819C89.4588 69.4609 88.9476 68.4168 88.356 67.4198C87.807 66.4931 87.1861 65.6112 86.5798 64.7239C86.452 64.5656 86.3661 64.3776 86.33 64.1773C86.294 63.977 86.309 63.7708 86.3736 63.5779L88.9074 62.584C89.109 62.6473 89.2688 62.6897 89.4233 62.7477C91.6334 63.6216 93.7373 64.7431 95.6948 66.0908C99.6098 68.7475 103.143 71.9267 106.198 75.5402C107.599 77.1423 108.913 78.8179 110.136 80.5598C110.199 80.6502 110.234 80.8116 110.433 80.7715C110.414 80.689 110.385 80.609 110.348 80.5328C110.079 80.115 109.819 79.6887 109.526 79.2879C106.734 75.4 103.472 71.8723 99.8141 68.7852C96.8052 66.1718 93.4007 64.0524 89.7276 62.506C89.6635 62.4805 89.6218 62.3971 89.5237 62.2897C89.6526 62.2306 89.7886 62.1883 89.9284 62.1638C90.0657 62.1714 90.2012 62.1987 90.3307 62.2449C92.2021 62.7321 94.0222 63.3983 95.7659 64.2343C98.8218 65.7283 101.67 67.6135 104.24 69.8424C104.446 70.017 104.676 70.1668 104.895 70.3297ZM49.9168 26.2869L49.9693 26.2437C49.6928 25.8674 49.3618 25.5345 48.987 25.256C48.8395 25.1116 48.6943 24.9648 48.4286 24.7007C48.78 24.7687 48.9692 24.788 49.1468 24.8428C50.6334 25.2802 52.0494 25.9285 53.3518 26.7681C53.9279 27.148 54.4963 27.5403 55.0654 27.9326C56.4747 28.9183 57.668 30.1812 58.5723 31.6441C59.2398 32.7589 59.8359 33.915 60.357 35.1054C61.5271 37.6715 62.9083 40.136 64.4862 42.4735C66.108 44.8142 67.7514 47.1387 69.3824 49.4733C69.4805 49.6146 69.6635 49.7258 69.6241 49.9366C69.5693 49.9552 69.5399 49.9768 69.5198 49.9698C68.8707 49.8068 68.3117 49.3948 67.9637 48.8231C67.8178 48.5582 67.6247 48.3195 67.4564 48.0662C66.4782 46.5928 65.4979 45.1198 64.5156 43.6473C64.443 43.5392 64.4021 43.3624 64.1472 43.3732C64.2561 43.5686 64.3303 43.7153 64.4175 43.8543C65.1226 44.9787 65.8315 46.1001 66.5335 47.2252C66.5953 47.3233 66.7297 47.4353 66.5374 47.582C66.3574 47.3727 66.1713 47.1712 66.0014 46.9557C63.2089 43.4532 60.5993 39.8087 58.1831 36.0367C58.0737 35.8805 57.9565 35.7299 57.8317 35.5857L57.7614 35.6367C57.8248 35.8163 57.9023 35.9906 57.9931 36.158C58.7206 37.2986 59.4349 38.4477 60.1956 39.5652C61.1285 40.9336 62.1031 42.2735 63.0529 43.6288C63.1108 43.7122 63.2692 43.7995 63.1062 43.9701C62.9085 43.7601 62.7147 43.5663 62.5347 43.3601C61.8799 42.6125 61.2312 41.8596 60.5763 41.112C60.5184 41.0448 60.4527 40.9259 60.3261 41.0742C60.4218 41.2055 60.5176 41.3398 60.6172 41.4703C60.7346 41.6248 60.8551 41.7754 60.9756 41.926C61.0785 42.0547 61.1833 42.1834 61.2899 42.3121C61.3949 42.4395 61.5015 42.567 61.608 42.6936C61.7324 42.8411 61.8567 42.9894 61.9834 43.1353C62.0915 43.2612 62.2019 43.3848 62.3108 43.5091L62.6969 43.9439C62.8058 44.0682 62.9147 44.1933 63.0251 44.3169C63.1356 44.4405 63.2468 44.5625 63.3587 44.6853C63.4885 44.8281 63.619 44.9702 63.7487 45.1139C63.8599 45.2367 63.9688 45.361 64.0808 45.483C64.1928 45.605 64.3079 45.7247 64.4198 45.8468C64.5511 45.9881 64.6816 46.131 64.8121 46.273C64.9239 46.3951 65.0364 46.5168 65.1496 46.6383C65.2809 46.7796 65.4207 46.9148 65.5427 47.0638C65.6315 47.1727 65.7944 47.2523 65.7458 47.504C65.6242 47.4253 65.5067 47.3405 65.3936 47.2499C64.7975 46.7163 64.1966 46.1881 63.6175 45.6398C63.2338 45.2832 62.8691 44.9069 62.5247 44.5123C59.8434 41.39 57.0617 38.362 54.0816 35.5216C52.3198 33.8086 50.4507 32.2093 48.4858 30.7336C48.2923 30.5359 48.0514 30.3911 47.7861 30.3127L47.7413 30.3521C47.8958 30.5012 48.0502 30.661 48.214 30.7969C49.3608 31.7499 50.54 32.6666 51.6551 33.6543C55.1427 36.8058 58.4171 40.1854 61.4567 43.7709C61.5208 43.8481 61.5741 43.9292 61.747 44.1648C61.3527 43.9672 60.9769 43.7346 60.6242 43.4697C59.8179 42.884 58.9281 42.4229 57.9846 42.1021C57.3863 41.8906 56.8255 41.5851 56.3235 41.197C53.5315 39.1634 50.6741 37.2268 47.7514 35.3873C40.8441 31.002 33.4236 27.4831 25.657 24.91C25.4876 24.8722 25.3153 24.8492 25.1419 24.8413C25.2006 24.8984 25.2191 24.9262 25.2408 24.9355C25.9651 25.2011 26.69 25.4658 27.4154 25.7294C33.9075 28.0821 40.1441 31.0877 46.0292 34.6999C49.2804 36.6929 52.4506 38.8076 55.5396 41.0441C55.6941 41.1561 55.9427 41.2178 55.9358 41.485C55.0863 41.4078 54.2623 41.302 53.436 41.2657C52.9122 41.2422 52.4001 41.1032 51.9362 40.8587C49.0578 39.3883 46.1196 38.0498 43.1217 36.843C40.177 35.6483 37.1876 34.5764 34.1441 33.6659C32.2907 33.1122 30.4219 32.6202 28.5514 32.1337C27.4031 31.8356 26.2401 31.5932 25.0801 31.3406C24.7596 31.2711 24.4276 31.2541 24.1001 31.2132C27.2046 31.9932 30.3006 32.777 33.358 33.7053C37.5609 34.9766 41.6821 36.5036 45.6987 38.2778C47.7331 39.1309 49.7227 40.0872 51.6598 41.1429C51.6698 41.1483 51.6598 41.1931 51.6551 41.2201C51.4527 41.2951 51.2372 41.3287 51.0215 41.3189C50.8058 41.3091 50.5943 41.2561 50.3995 41.163C46.9035 40.0298 43.3406 39.1142 39.7314 38.4215C37.6942 38.0268 35.6284 37.8361 33.5688 37.6036C33.494 37.6009 33.4191 37.6042 33.3449 37.6137C36.1706 38.0207 38.9823 38.4408 41.7571 39.0856C44.5565 39.7146 47.3215 40.4879 50.0411 41.4024C49.9282 41.4582 49.8019 41.481 49.6766 41.468C49.3507 41.4101 49.0279 41.3329 48.7051 41.2572C46.9034 40.8363 45.1025 40.4077 43.2993 39.9961C43.0043 39.9281 42.6985 39.9019 42.3973 39.8617C42.1239 39.8247 41.849 39.7899 41.5741 39.7621C41.3019 39.7108 41.023 39.7061 40.7493 39.7482C41.4011 39.881 42.0621 39.9482 42.7093 40.0788C44.7125 40.4803 46.6911 40.99 48.6665 41.5105C48.7206 41.5252 48.7561 41.6094 48.8387 41.7059C48.553 41.7916 48.3213 41.865 48.0873 41.9298C46.7266 42.3015 45.4086 42.8147 44.155 43.4612C43.2244 43.947 42.3185 44.4799 41.4011 44.9903C41.1856 45.1108 40.9678 45.2274 40.7833 45.327C39.8789 45.2938 39.0233 45.2645 38.1676 45.2289C36.9835 45.1805 35.797 45.1291 34.6083 45.0745C34.0839 45.0498 33.5611 45.0027 33.0367 44.9756C30.7984 44.8589 28.5832 44.4641 26.4424 43.8003C24.5936 43.2296 22.785 42.5453 20.991 41.8248C18.1635 40.6613 15.6965 38.7665 13.843 36.3348C13.7109 36.168 13.6113 35.9765 13.4437 35.717C13.6121 35.7296 13.7797 35.7515 13.9457 35.7826C14.8801 36.0275 15.8122 36.2831 16.7467 36.5263C17.7071 36.7765 18.695 36.9062 19.6874 36.9125C17.4656 36.5109 15.3056 35.8807 13.1719 35.2838C12.7201 34.649 12.7201 34.649 12.6313 34.1725C12.7147 34.1864 12.7942 34.1957 12.8715 34.2142C14.0793 34.5076 15.2856 34.8042 16.4934 35.0961C17.1367 35.2506 17.7854 35.3896 18.424 35.5595C19.3934 35.7833 20.3758 35.9463 21.3655 36.0476C21.4734 36.052 21.5814 36.0468 21.6883 36.0321C21.5547 35.9457 21.4045 35.8881 21.2474 35.863C20.2713 35.6707 19.2882 35.5131 18.3213 35.2838C16.5451 34.8637 14.7828 34.4057 13.0166 33.9555C12.7533 33.8883 12.5015 33.7771 12.2899 33.7022C12.2073 33.5408 12.1471 33.4466 12.1085 33.3439C11.6693 32.2627 10.9413 31.3231 10.0041 30.6278C8.93277 29.755 7.79916 28.9616 6.61229 28.2539C5.4859 27.6045 4.43999 26.8245 3.49622 25.9302C2.4621 24.9647 1.63933 23.7953 1.07982 22.4959C0.903595 22.0619 0.767609 21.6126 0.673615 21.1537C0.583969 20.7676 0.621902 20.3628 0.781723 20C0.946213 20.0208 1.07982 20.0316 1.21111 20.0556C2.16176 20.2301 3.11395 20.4008 4.06229 20.5838C5.98753 20.9568 7.91278 21.3283 9.83339 21.7182C10.5361 21.8611 11.2296 22.048 11.9247 22.2272C12.8599 22.4681 13.792 22.7245 14.7272 22.9647C14.8999 22.9969 15.0746 23.017 15.25 23.0249C14.9333 22.8516 14.5981 22.7145 14.2507 22.6164C11.9223 21.9113 9.54997 21.3808 7.17064 20.885C5.25002 20.4873 3.31551 20.1575 1.38872 19.7899C1.22169 19.7461 1.05867 19.6883 0.901428 19.6169C0.878387 19.5703 0.865891 19.5191 0.864822 19.467C0.863754 19.415 0.874146 19.3633 0.895248 19.3157C1.30171 18.1024 2.04173 17.0281 3.03055 16.2159C4.05899 15.37 5.25816 14.7565 6.54587 14.4173C7.43529 14.091 8.41022 14.0826 9.30516 14.3934C9.33031 14.4018 9.35614 14.408 9.38239 14.4119C11.7262 14.9478 14.036 15.6104 16.3165 16.3657C20.8956 17.8283 25.3147 19.7513 29.5059 22.1052C29.5987 22.1477 29.6951 22.1818 29.794 22.2071C29.7295 22.0601 29.6189 21.9381 29.4789 21.8596C28.98 21.5653 28.4827 21.2665 27.9715 20.9931C22.9327 18.3421 17.6129 16.2636 12.1116 14.7965L9.64496 14.1184C9.76491 14.0505 9.90193 14.0186 10.0396 14.0265C11.0619 14.0408 12.0804 14.1547 13.0807 14.3663C15.061 14.7498 17.0133 15.2658 18.9244 15.9109C20.8342 16.5549 22.7224 17.2639 24.609 17.9728C26.7926 18.8359 29.0249 19.57 31.2945 20.1714C33.4128 20.695 35.5419 21.1831 37.6687 21.6665C39.7168 22.1299 41.7432 22.6751 43.7626 23.2496C44.4258 23.4391 45.0511 23.7422 45.6107 24.1455C47.82 25.7146 49.8761 27.4889 51.7517 29.4447C51.8953 29.5938 52.0096 29.7891 52.2513 29.854C52.239 29.786 52.2451 29.7312 52.2212 29.6996C50.3415 27.5832 48.2397 25.675 45.952 24.008C46.0223 23.9844 46.0957 23.9709 46.1698 23.9678C46.9359 24.0975 47.6512 24.4367 48.2363 24.9478C48.6418 25.3224 49.0773 25.6637 49.5059 26.0128C49.6379 26.1115 49.775 26.203 49.9168 26.2869ZM52.4042 66.5487C52.6815 66.4367 52.7865 66.1626 52.9448 65.9471C54.5496 63.73 56.2262 61.5692 57.9491 59.4432C59.5677 57.4096 61.3222 55.488 63.2004 53.6914C64.3589 52.5792 65.6681 51.6355 67.0895 50.8881C67.4417 50.6832 67.821 50.5291 68.2163 50.4301C68.4773 50.6618 68.8881 50.6904 69.1646 51.0224C68.9453 51.2333 68.7507 51.4263 68.5468 51.6132C67.3435 52.7147 66.198 53.8778 65.1149 55.0977C63.7468 56.6195 62.5002 58.2462 61.3864 59.9629C61.3184 60.0702 61.1416 60.1714 61.2999 60.349C61.747 59.742 62.1741 59.1304 62.6344 58.545C63.2831 57.7203 63.9379 56.8978 64.626 56.1047C65.3141 55.3116 66.0354 54.5478 66.7598 53.7879C67.1598 53.3686 67.5946 52.9824 68.0155 52.5824C68.0357 52.5636 68.0609 52.551 68.0881 52.5461C68.1043 52.5461 68.1244 52.5647 68.1421 52.5747C68.1483 52.5994 68.1684 52.6334 68.1583 52.6519C68.0502 52.8064 67.946 52.9716 67.8255 53.1207C66.3644 54.9252 65.0215 56.8222 63.8051 58.7999C61.914 61.7603 60.4388 64.9666 59.421 68.3288C59.3457 68.5366 59.2939 68.7521 59.2665 68.9713C59.255 69.193 58.9839 69.3574 59.1584 69.6494C59.2542 69.4177 59.3453 69.2161 59.4187 69.0107C59.8264 67.867 60.1909 66.7063 60.6427 65.5811C61.9409 62.4671 63.5801 59.5064 65.5303 56.7534C66.7175 55.0199 68.015 53.3646 69.4148 51.7978C69.4858 51.6809 69.5793 51.5793 69.6898 51.4988C69.8004 51.4184 69.9258 51.3607 70.0589 51.329C70.6597 51.5676 71.2438 51.8463 71.8073 52.1631C71.693 52.3252 71.608 52.4635 71.5053 52.5878C70.81 53.4478 70.1934 54.3684 69.6627 55.3386C67.872 58.6768 66.6448 62.2878 66.0308 66.0259C65.7396 67.6013 65.5736 69.1991 65.3604 70.7884C65.179 72.1306 65.1535 73.486 65.0855 74.8366C65.0624 75.29 65.1048 75.7471 65.1172 76.2028C65.2268 75.8901 65.2847 75.5617 65.2886 75.2305C65.2979 74.0172 65.3753 72.8055 65.5203 71.6009C65.6411 70.0576 65.8525 68.5228 66.1536 67.0044C66.4208 65.6491 66.6895 64.2968 67.0308 62.9577C67.6667 60.4371 68.61 58.0043 69.8396 55.7139C70.3573 54.7363 70.9671 53.8103 71.6605 52.9485C71.8266 52.693 72.0451 52.4758 72.3015 52.3114C72.4137 52.3281 72.5247 52.3523 72.6336 52.3839C73.646 52.75 74.6484 53.1477 75.6724 53.4798C75.9615 53.5721 76.2287 53.7224 76.4577 53.9216C76.6866 54.1208 76.8724 54.3646 77.0038 54.6382C77.5182 55.59 77.8298 56.6381 77.9189 57.7164C78.0573 59.0095 77.9648 60.317 77.6456 61.5777C77.5937 61.844 77.5581 62.1133 77.539 62.3839C77.7012 61.9762 77.8116 61.7522 77.878 61.5159C77.9371 61.2744 77.9823 61.0297 78.0132 60.783C78.0579 60.5104 78.1035 60.2378 78.1375 59.9637C78.1679 59.7166 78.1895 59.4686 78.2024 59.22C78.2163 58.9729 78.2193 58.7242 78.2193 58.4763C78.2193 58.2284 78.2194 57.9782 78.2047 57.7311C78.1844 57.4831 78.1509 57.2364 78.1043 56.992C78.0595 56.748 78.0008 56.5055 77.9352 56.2661C77.8618 55.9997 77.7807 55.7348 77.6896 55.4745C77.6069 55.2428 77.4981 55.0158 77.4108 54.7795C77.3336 54.5656 77.1297 54.3933 77.1297 54.1331C77.505 54.0806 77.7475 54.303 78.0371 54.3818C78.7014 54.5877 79.2734 55.0182 79.655 55.5996C80.8444 57.2054 81.6487 59.0632 82.0057 61.0294C82.2445 62.3087 82.2787 63.6177 82.1069 64.9077C81.998 65.8704 81.7574 66.8137 81.3918 67.711C81.3231 67.8724 81.2026 68.0454 81.3609 68.2801C81.4791 68.0322 81.5926 67.8168 81.6876 67.5897C82.4001 65.8115 82.6653 63.8855 82.4598 61.9808C82.2628 59.7379 81.4772 57.5868 80.1824 55.7448C80.1052 55.6297 79.9508 55.5301 80.0064 55.3502C80.0393 55.3431 80.0732 55.3413 80.1068 55.3448C80.1835 55.3737 80.2585 55.407 80.3315 55.4444C81.4766 56.0644 82.5012 56.885 83.3564 57.867C83.8999 58.459 84.3377 59.14 84.6507 59.8803C85.2101 61.1772 85.5519 62.5574 85.6624 63.9655C85.8416 66.5387 85.4915 69.1212 84.6337 71.5538C84.0216 73.3927 83.1168 75.1209 81.954 76.6715C80.7021 78.3481 78.9132 79.5447 76.8857 80.0617C76.4594 80.1737 76.0269 80.2687 75.5944 80.3529C74.204 80.5895 72.7902 80.659 71.3833 80.5598C69.6391 80.5111 67.9146 80.1778 66.2779 79.5729C64.321 78.8145 62.3556 78.0786 60.4002 77.3164C58.8435 76.6671 57.2192 76.1939 55.5574 75.9054C53.3919 75.5614 51.1773 75.6977 49.0704 76.3047C46.5424 77.0036 44.3266 78.54 42.7857 80.6626C42.4598 81.1081 42.1533 81.5684 41.8428 82.0256C41.4397 82.621 41.0659 83.2373 40.6358 83.8111C40.106 84.5185 39.551 85.206 38.9708 85.8738C38.3762 86.5376 37.6085 87.0227 36.7536 87.2747C36.359 87.4005 35.9566 87.5063 35.5543 87.5998C35.4398 87.6039 35.3253 87.5911 35.2145 87.5619C35.3744 87.0502 35.5777 86.5532 35.8223 86.0761C36.0277 85.6236 36.237 85.1726 36.4578 84.727C36.6895 84.2567 36.9328 83.791 37.1799 83.3276C37.427 82.8643 37.6757 82.4009 37.939 81.9484C38.1885 81.519 38.4619 81.1027 38.7175 80.6765C39.0265 80.2613 39.2932 79.8163 39.5137 79.3482C39.398 79.3953 39.2976 79.4733 39.2233 79.5737C38.8704 80.0687 38.5051 80.5552 38.1831 81.0695C37.0144 82.9456 35.9898 84.9076 35.118 86.9387C35.0106 87.1874 34.8863 87.4299 34.7774 87.6631C34.0743 87.7469 33.3633 87.7391 32.6622 87.6399C31.4587 87.4597 30.28 87.1417 29.1492 86.6924C27.5656 86.0842 26.182 85.0482 25.1527 83.6999C24.7967 83.2427 24.4747 82.7569 24.1627 82.2681C23.5276 81.2335 22.9474 80.1664 22.4243 79.0709C22.5618 78.8879 22.6738 78.7304 22.7927 78.5798C22.9302 78.406 23.0738 78.2377 23.2151 78.0678L23.5873 77.623L23.9627 77.1797C24.1063 77.0121 24.2499 76.8437 24.3951 76.6769C24.5233 76.5317 24.6538 76.3889 24.7813 76.2452L25.1674 75.8143C25.2979 75.6714 25.4276 75.5278 25.5597 75.3865C25.7141 75.2243 25.8632 75.0644 26.0146 74.9038C26.1482 74.7633 26.2802 74.6219 26.4146 74.4829C26.549 74.3439 26.6849 74.2057 26.8208 74.0682C26.9753 73.9097 27.1297 73.7521 27.2841 73.5956C27.4208 73.4581 27.5568 73.3214 27.6958 73.1863C27.8348 73.0512 27.9745 72.9183 28.1143 72.784C28.2734 72.6295 28.4302 72.4751 28.5908 72.3206C28.7314 72.187 28.8758 72.058 29.0179 71.9275C29.16 71.797 29.3013 71.6634 29.4449 71.5337C29.6097 71.3859 29.7749 71.2392 29.9407 71.0935C30.0859 70.9653 30.2327 70.8387 30.3794 70.7128C30.5261 70.5869 30.6736 70.461 30.8211 70.3359C30.9686 70.2108 31.1161 70.0849 31.2659 69.9621C31.4369 69.8221 31.6091 69.6833 31.7826 69.5459C31.937 69.4262 32.0876 69.308 32.2405 69.1899C32.3934 69.0717 32.5494 68.9528 32.7 68.8354C32.8761 68.701 33.056 68.5721 33.2267 68.4315C33.3338 68.3717 33.4272 68.2903 33.5012 68.1925C33.5751 68.0946 33.6278 67.9825 33.6561 67.8631C32.7435 68.4637 31.8637 69.1125 31.0203 69.8069C30.2303 70.4548 29.4488 71.1197 28.6943 71.8063C27.922 72.5137 27.166 73.2481 26.4293 73.9964C25.7118 74.7254 25.0253 75.4838 24.3295 76.236C23.619 77.0005 22.995 77.8423 22.2328 78.6439C21.7972 78.0477 21.4675 77.4546 21.0937 76.8383C21.4012 76.4814 21.7327 76.146 22.0861 75.8344C22.4269 75.51 22.7687 75.1875 23.1116 74.8668C23.436 74.5656 23.7611 74.2659 24.0909 73.9717C24.4422 73.6628 24.7936 73.3469 25.155 73.045C25.5165 72.743 25.891 72.4604 26.2586 72.1669C26.6262 71.8735 27.0023 71.6318 27.3475 71.3174C27.288 71.2727 27.2579 71.2402 27.2479 71.2441C27.0742 71.3257 26.9058 71.418 26.7436 71.5205C25.6056 72.3081 24.522 73.1714 23.5001 74.1045C22.7448 74.7942 22.0003 75.4946 21.2474 76.1896C21.1308 76.2977 21.0312 76.4499 20.7879 76.4167C20.723 76.3394 20.6288 76.2445 20.5477 76.1379C19.137 74.2596 18.484 71.9195 18.7182 69.5822C18.7975 68.7565 18.9471 67.939 19.1654 67.1387C20.0324 63.4482 22.0692 60.1369 24.972 57.6986C26.4497 56.4478 28.0233 55.3148 29.6782 54.3099C31.5921 53.1454 33.4078 51.8267 35.1071 50.3668C36.7156 48.9287 38.4374 47.6227 40.2558 46.4615C41.77 45.4908 43.3365 44.6042 44.9481 43.8057C47.9851 42.2925 51.3877 41.6674 54.7643 42.0024C56.5034 42.1697 58.1847 42.7161 59.6897 43.6033C61.2321 44.5326 62.6071 45.7147 63.7572 47.1001C63.8213 47.2014 63.8764 47.3081 63.9217 47.4191C63.6167 47.3812 63.3989 47.3581 63.1827 47.3256C61.1606 47.0145 59.1176 46.8596 57.0718 46.8623C54.0586 46.8733 51.0608 47.2934 48.1607 48.111C47.8155 48.2083 47.4811 48.3427 47.1459 48.4693C47.0401 48.5095 46.9003 48.5388 46.8972 48.7118C47.6371 48.5219 48.3545 48.3342 49.0735 48.1527C52.6242 47.2948 56.2876 46.9993 59.9299 47.277C61.1408 47.3542 62.3448 47.5643 63.5503 47.7233C63.7685 47.7587 63.983 47.8137 64.1912 47.8878C64.3451 47.9611 64.4928 48.0466 64.633 48.1435C61.4616 47.8743 58.2678 48.0875 55.1604 48.7759C52.0988 49.402 49.1227 50.3905 46.2949 51.7206C43.8777 52.879 39.5183 55.8815 38.5445 57.1032C38.9306 56.826 39.197 56.6399 39.4588 56.4491C40.4218 55.7541 41.3756 55.0413 42.3486 54.3594C43.7713 53.3525 45.2896 52.4883 46.8818 51.7792C51.5253 49.6736 56.541 48.5121 61.6374 48.362C62.8508 48.3106 64.0662 48.3908 65.2624 48.6014C65.5066 48.7258 65.7239 48.8972 65.9018 49.1057C65.8119 49.1498 65.7187 49.1867 65.623 49.2161C63.5663 49.6535 61.5788 50.3691 59.7152 51.3429C56.6698 52.866 53.831 54.771 51.2675 57.0121C50.4118 57.7542 49.6009 58.5466 48.7754 59.3227C48.6982 59.3953 48.5398 59.4772 48.6734 59.6316C49.6156 58.8115 50.5423 57.982 51.4937 57.1828C54.1072 54.9566 56.9865 53.063 60.0658 51.5453C61.5492 50.8027 63.1043 50.213 64.7071 49.7853C64.8191 49.7567 64.945 49.6764 65.0253 49.8092C64.0105 50.2618 62.9881 50.6819 61.998 51.1684C59.06 52.6609 56.3545 54.5727 53.9665 56.8437C50.8819 59.7006 48.0117 62.7804 45.379 66.0583C44.1665 67.565 42.9935 69.1041 41.8111 70.634C41.6474 70.8456 41.4065 71.0201 41.4204 71.3383L41.4134 71.329C41.5256 71.2603 41.6292 71.1787 41.7223 71.0858C42.1556 70.5452 42.578 70.0046 43.0027 69.4571C45.4733 66.2312 48.1265 63.1495 50.9493 60.227C52.8932 58.1826 54.9864 56.2856 57.2116 54.5517C59.7344 52.6071 62.5564 51.0855 65.5674 50.0463C65.9837 49.9065 66.4084 49.7899 66.7806 49.6772C67.0863 49.7794 67.3681 49.9422 67.6093 50.156C67.5454 50.2254 67.4736 50.287 67.3953 50.3398C65.3875 51.3438 63.576 52.6997 62.0467 54.3432C58.5685 58.0168 55.389 61.9622 52.5386 66.1418C52.4725 66.2598 52.4187 66.3842 52.378 66.5132L52.4042 66.5487ZM77.6649 53.5068C77.5104 53.0983 77.3814 52.7647 77.2625 52.4256C75.7262 48.0418 74.3856 43.5989 73.2406 39.0972C72.3548 35.5865 71.71 32.0256 71.0682 28.4639C71.058 28.2094 70.9904 27.9605 70.8705 27.7357C70.8487 27.7956 70.8352 27.8582 70.8304 27.9218C70.8667 28.2786 70.8999 28.6354 70.9508 28.9899C71.432 32.2998 72.0498 35.5842 72.8382 38.8346C73.9464 43.4033 75.2979 47.901 76.8416 52.3407C76.978 52.629 77.0611 52.9395 77.0872 53.2574C76.5046 53.1253 75.939 52.9271 75.4014 52.6666C72.8887 48.2645 70.8635 43.6016 69.3615 38.7605C69.3078 38.8171 69.2712 38.8877 69.2559 38.9642C69.2406 39.0408 69.2472 39.1201 69.275 39.193C69.4364 39.7498 69.5839 40.3112 69.7693 40.861C70.9829 44.5666 72.5251 48.1565 74.3774 51.5877C74.5071 51.8256 74.6206 52.0719 74.7395 52.3098C74.6762 52.3492 74.6476 52.3801 74.6322 52.3747C73.7487 52.0696 72.8622 51.7708 71.9841 51.448C71.7943 51.3621 71.6236 51.2389 71.4825 51.0856C71.3413 50.9324 71.2324 50.7523 71.1624 50.556C71.0574 50.3313 70.9817 50.0926 70.8991 49.861C70.4742 48.6626 69.9738 47.4923 69.4009 46.3572C68.9545 45.4676 68.5059 44.581 68.078 43.6813C66.3589 40.0468 65.4268 36.0901 65.3427 32.0704C65.2405 30.1496 65.7175 28.2424 66.7119 26.5958C67.8294 24.7988 67.8255 24.8459 67.9622 22.4728C67.9707 22.3345 67.9769 22.1963 67.9799 22.058C68.0242 19.959 68.0677 17.86 68.1105 15.761C68.1368 14.4073 68.3121 13.0606 68.6333 11.7453C69.4637 8.08702 71.7038 4.90403 74.867 2.88745C76.8147 1.60084 79.0671 0.85023 81.3972 0.711224C81.7099 0.657918 82.0312 0.686935 82.3293 0.795407C82.345 0.951135 82.351 1.10769 82.3471 1.26416C82.2699 2.28355 82.1841 3.30217 82.1092 4.32078C82.0111 5.67069 81.9123 7.02369 81.832 8.37206C81.8042 8.83541 81.825 9.31035 81.8366 9.77989C81.8366 9.83163 81.9216 9.88106 82.0034 9.97373C82.0644 9.14741 82.1239 8.38363 82.1772 7.61832C82.2281 6.87463 82.2699 6.13019 82.3216 5.3865C82.3757 4.61424 82.4204 3.84196 82.4992 3.07356C82.5256 2.29375 82.6249 1.51811 82.7958 0.75678C82.9913 0.740481 83.1879 0.740481 83.3835 0.75678C83.9001 0.84559 84.4167 0.944458 84.928 1.0657C86.3858 1.39608 87.7723 1.98622 89.021 2.80791C89.9645 3.43659 90.8574 4.13815 91.6914 4.90615C91.8521 5.05597 92.0003 5.21506 92.1671 5.38341C92.7968 8.49721 93.1708 11.6573 93.2854 14.832C93.3712 14.4843 93.4216 14.1288 93.436 13.7709C93.4275 13.0535 93.3819 12.3368 93.3325 11.621C93.2182 9.96677 93.0135 8.3234 92.7432 6.68698C92.6596 6.4696 92.6541 6.22991 92.7278 6.00894C93.3742 6.6422 93.7781 7.43915 94.3704 8.05001C94.4106 8.24693 94.4476 8.40758 94.4739 8.5713C94.7001 10.2132 94.819 11.868 94.8299 13.5254C94.8368 14.7671 94.7905 16.0097 94.7357 17.2507C94.6947 18.1604 94.599 19.0671 94.5326 19.976C94.5488 20.1072 94.5775 20.2365 94.6183 20.3622C94.8148 19.3384 94.9473 18.3033 95.0152 17.2631C95.0925 16.3016 95.1064 15.3324 95.1118 14.3671C95.1179 13.374 95.0886 12.3793 95.0585 11.3862C95.0284 10.393 94.86 9.42156 94.8268 8.4516C94.9233 8.41376 94.9751 8.37437 95.0222 8.37437C96.203 8.50874 97.3869 8.62073 98.5622 8.79526C99.1624 8.88999 99.7522 9.04152 100.324 9.2478C100.964 9.42669 101.557 9.74527 102.06 10.1807C102.026 10.9962 102.008 11.7955 101.954 12.5925C101.851 13.3698 101.793 14.1523 101.779 14.9363C101.906 14.4578 102.004 13.9719 102.071 13.4813C102.142 12.9616 102.165 12.4349 102.241 11.9159C102.312 11.4371 102.268 10.9437 102.387 10.4564C103.212 10.9262 103.872 11.639 104.276 12.4975C104.681 13.356 104.811 14.3185 104.649 15.2537C103.504 15.5405 102.405 15.9891 101.386 16.5858C100.342 17.1967 99.3453 17.8894 98.2919 18.5697C98.3236 18.3211 98.3398 18.1064 98.3784 17.9017C98.5074 17.1967 98.6495 16.4939 98.7738 15.7881C98.7855 15.6435 98.7829 15.4981 98.7661 15.354C98.4472 16.5897 98.1715 17.8253 97.7776 18.9937C97.0617 19.7034 96.3582 20.3676 95.6925 21.0688C95.0268 21.77 94.3882 22.4975 93.7619 23.2311C93.1356 23.9648 92.5262 24.7177 91.9331 25.4838C91.3401 26.2499 90.7632 27.0283 90.2249 27.8276C89.6866 28.6269 89.1847 29.4586 88.7059 30.2988C88.2271 31.1391 87.8031 31.9924 87.2679 33.0018C87.2679 31.9584 87.2679 31.1043 87.2756 30.2502C87.2803 29.4215 87.3034 28.5929 87.2965 27.7643C87.3348 26.9349 87.309 26.1038 87.2193 25.2784C87.097 25.8988 87.0352 26.5296 87.0347 27.1619C87.0277 27.9079 87.0123 28.6531 86.9969 29.4015C86.9691 30.7274 86.9281 32.0534 86.9158 33.3794C86.9165 33.7655 86.8512 34.1489 86.7227 34.5131C85.9334 36.7571 85.4081 39.0855 85.1573 41.451C85.1272 41.7182 85.0747 41.9831 85.0322 42.2488C84.9386 42.1049 84.8831 41.9396 84.8708 41.7684C84.6044 39.4903 84.3882 37.2075 84.3032 34.9154C84.2314 32.9848 84.1858 31.0495 84.1542 29.1157C84.1078 26.3541 84.0939 23.591 84.0453 20.8294C84.0898 20.1206 84.0328 19.4091 83.8762 18.7165C83.846 18.9566 83.8213 19.064 83.8205 19.1721C83.8066 21.078 83.7804 22.984 83.7889 24.8868C83.7989 27.1264 83.8453 29.3659 83.8661 31.5993C83.8962 34.7795 84.1163 37.9465 84.4221 41.1105C84.6137 43.089 84.9627 45.049 85.04 47.0407C85.1411 49.6331 85.3056 52.2241 85.4014 54.8166C85.409 55.6725 85.3719 56.5284 85.2902 57.3805C85.2569 57.8488 85.1278 58.3054 84.911 58.7219C84.7816 58.6306 84.6809 58.5042 84.6208 58.3578C84.5606 58.2113 84.5434 58.0507 84.5712 57.8948C84.5665 56.0986 84.4701 54.3039 84.2824 52.5175C83.8442 48.3144 83.4015 44.1115 82.9541 39.9089C82.9265 39.7322 82.8894 39.5571 82.8429 39.3845C82.7777 40.1558 82.787 40.9317 82.8707 41.7013C83.1343 44.4227 83.403 47.1439 83.6769 49.8648C83.9016 52.0642 84.1063 54.2667 84.1889 56.4738C84.2249 56.855 84.2111 57.2392 84.148 57.6168C83.8615 57.5589 83.7781 57.3272 83.6229 57.1835C83.4414 57.016 83.2831 56.8237 83.0823 56.6121C82.8568 55.5309 82.6243 54.4196 82.3957 53.3114C81.5475 49.2822 80.9387 45.2063 80.5724 41.1051C80.4064 39.1512 80.2349 37.1982 80.0712 35.2436C80.0522 34.9394 79.9814 34.6406 79.8619 34.3601C79.8573 34.693 79.8473 34.8297 79.855 34.9656C79.9384 36.3433 80.0179 37.7218 80.1098 39.0995C80.3472 42.9334 80.8114 46.7499 81.4999 50.529C81.8088 52.1855 82.1478 53.8358 82.4691 55.49C82.5023 55.663 82.6081 55.8429 82.476 56.0305C82.4181 55.9857 82.3563 55.9618 82.3386 55.9193C82.2744 55.7672 82.2197 55.6111 82.1749 55.4521C81.3254 52.2774 80.4759 49.1003 79.7878 45.8846C79.7299 45.6127 79.6673 45.344 79.6063 45.0706C79.5496 45.201 79.5321 45.3451 79.5561 45.4853C79.8369 47.3426 80.2169 49.1834 80.6944 51.0001C81.0234 52.3415 81.3779 53.6767 81.7115 55.0158C81.7455 55.1525 81.8745 55.3178 81.6621 55.4699C81.5308 55.3927 81.3887 55.3077 81.2512 55.2181C81.1138 55.1285 80.9802 55.0312 80.8296 54.9262C80.7524 54.6636 80.669 54.4019 80.5979 54.1354C79.4797 49.8859 78.5131 45.6017 77.6981 41.2827C76.346 34.366 75.5109 27.3581 75.1998 20.3174C75.0429 16.9495 75.1532 13.5744 75.5296 10.2239C75.5496 10.0617 75.5388 9.89571 75.5427 9.732C75.3268 10.3044 75.1979 10.906 75.1604 11.5167C74.8707 13.9878 74.7598 16.4765 74.8284 18.9636C74.8863 22.5013 75.1496 26.0275 75.5466 29.5436C76.2181 35.4744 77.214 41.364 78.5298 47.1858C79.0464 49.4764 79.6287 51.7522 80.1732 54.0366C80.2133 54.2065 80.3639 54.3879 80.1786 54.5988L77.6649 53.5068ZM85.9219 61.4819C86.003 61.4165 86.0889 61.3574 86.179 61.3051C86.9768 60.9151 87.6699 60.3403 88.2008 59.6285C89.2106 58.3351 89.8573 56.7959 90.0743 55.1695C90.2489 53.9652 90.272 52.7437 90.143 51.5337C89.996 50.1605 89.7751 48.7963 89.4812 47.4469C89.0989 45.5232 88.7607 43.5925 88.5545 41.641C88.3486 39.5511 88.3241 37.4474 88.4811 35.3533C88.537 34.8041 88.6252 34.2587 88.7453 33.72C88.9689 32.7224 89.2723 31.7443 89.6527 30.7954C90.1288 29.438 90.7989 28.1567 91.642 26.9912C93.1646 24.921 94.8183 22.9505 96.593 21.0919C98.0655 19.5906 99.7383 18.2999 101.564 17.2561C102.417 16.743 103.33 16.3348 104.281 16.0406C104.81 15.8822 105.313 15.6503 105.777 15.3517C106.237 15.0421 106.749 14.8189 107.289 14.693C107.541 14.6097 107.809 14.5864 108.071 14.6249C108.334 14.6634 108.584 14.7627 108.801 14.9148C109.019 15.067 109.198 15.2678 109.324 15.5013C109.45 15.7349 109.52 15.9946 109.528 16.2599C109.54 16.342 109.546 16.4249 109.545 16.5078C109.532 17.0862 109.555 17.6662 109.494 18.2431C109.166 21.1277 108.493 23.9626 107.49 26.687C106.791 28.6362 106.085 30.583 105.409 32.5399C104.841 34.1833 104.333 35.8483 103.759 37.4901C102.733 40.4373 101.882 43.4425 101.21 46.49C100.87 48.0261 100.48 49.5513 100.004 51.0533C98.9794 54.4803 96.7141 57.4023 93.6507 59.2486C91.9753 60.276 90.2295 61.1838 88.4263 61.9654C87.8703 62.2071 87.2865 62.3832 86.7111 62.5762C86.5517 62.6159 86.3892 62.6417 86.2254 62.6535C86.0299 62.2923 85.9257 61.8888 85.9219 61.4781V61.4819ZM38.0155 87.6229C39.0473 86.8598 39.9462 85.9317 40.6759 84.876C41.1856 84.1887 41.6567 83.4736 42.1432 82.7693C42.551 82.1793 42.9417 81.5754 43.3672 80.9977C44.1298 79.9425 45.0833 79.0393 46.1783 78.335C48.394 76.9466 50.9798 76.2654 53.592 76.3819C55.6673 76.4617 57.7113 76.9143 59.6264 77.7179C62.0575 78.6972 64.4916 79.6749 66.9799 80.5019C69.2334 81.2711 71.6109 81.6116 73.9897 81.5059C74.1451 81.5153 74.2999 81.5341 74.453 81.5622C74.0229 81.7167 73.7696 81.8163 73.5093 81.8951C70.2201 82.8855 66.7616 83.1852 63.351 82.7755C62.3363 82.6581 61.3207 82.5438 60.3075 82.4079C58.0283 82.0984 55.7096 82.2673 53.4993 82.9037C52.0683 83.3168 50.6574 83.8041 49.2519 84.2891C47.6077 84.8552 45.9806 85.4722 44.3357 86.0367C42.565 86.6625 40.7483 87.1495 38.902 87.4932C38.6086 87.5403 38.3112 87.5758 38.0155 87.6191V87.6229ZM85.8694 60.644C85.9636 60.2811 86.0153 60.0718 86.0732 59.8641C86.4021 58.7202 86.5445 57.5309 86.4949 56.3418C86.3613 53.6651 86.1149 50.9985 85.8632 48.3311C85.58 45.6911 85.6197 43.0265 85.9813 40.3961C86.0748 39.7683 86.213 39.1466 86.3296 38.5226C86.7113 36.4839 87.3618 34.5048 88.2641 32.6372C88.353 32.4542 88.4626 32.2812 88.59 32.055C88.6029 32.13 88.605 32.2064 88.5962 32.282C88.1952 33.3723 87.951 34.514 87.8711 35.673C87.6986 37.6557 87.7084 39.6501 87.9004 41.631C88.0857 43.6389 88.441 45.6251 88.8202 47.606C89.0318 48.718 89.2426 49.8316 89.3893 50.9537C89.6718 52.7335 89.5861 54.5524 89.1376 56.2977C88.776 57.6385 88.0728 58.8626 87.0965 59.8502C86.76 60.212 86.3381 60.4837 85.8694 60.6402V60.644Z" fill="url(#paint1_linear)"/>
<defs>
<linearGradient id="paint0_linear" x1="5691.05" y1="24454.4" x2="18569.9" y2="24432.4" gradientUnits="userSpaceOnUse">
<stop stop-color="#E8C46F"/>
<stop offset="0.24" stop-color="#BB842C"/>
<stop offset="0.515" stop-color="#7D5723"/>
<stop offset="0.857" stop-color="#E8C46F"/>
</linearGradient>
<linearGradient id="paint1_linear" x1="-13105.8" y1="37458.6" x2="-43323.6" y2="37379.8" gradientUnits="userSpaceOnUse">
<stop stop-color="#E8C46F"/>
<stop offset="0.24" stop-color="#BB842C"/>
<stop offset="0.515" stop-color="#7D5723"/>
<stop offset="0.857" stop-color="#E8C46F"/>
</linearGradient>
</defs>
</svg>
