<svg width="18" height="18" viewBox="0 0 18 18" fill="none" xmlns="http://www.w3.org/2000/svg">
<path d="M13.4857 0H4.5C2.02857 0 0 2.02857 0 4.51429V13.5C0 15.9714 2.02857 18 4.5 18H13.4857C15.9714 18 18 15.9714 18 13.4857V4.51429C18 2.02857 15.9714 0 13.4857 0ZM8.51429 3.7C8.54286 3.25714 8.95714 3.41429 9.17143 3.38571C11.8571 3.47143 14.1714 5.88571 14.1429 8.48571C14.1429 8.74286 14.2286 9.11429 13.8429 9.11429C13.4714 9.11429 13.5714 8.72857 13.5286 8.47143C13.1714 5.71429 11.8857 4.41429 9.08571 3.98571C8.85714 3.95714 8.5 4 8.51429 3.7ZM12.5286 8.6C12.1 8.65714 12.1857 8.28571 12.1429 8.04286C11.8571 6.35714 11.2571 5.74286 9.52857 5.37143C9.27143 5.31429 8.87143 5.35714 8.94286 4.97143C9 4.6 9.35714 4.72857 9.62857 4.75714C11.3571 4.95714 12.7714 6.42857 12.7571 8.04286C12.7286 8.21429 12.8429 8.54286 12.5286 8.6ZM11.4571 7.71429C11.4571 7.94286 11.4286 8.15714 11.1714 8.18571C10.9857 8.21429 10.8714 8.05714 10.8429 7.87143C10.7714 7.18571 10.4 6.77143 9.68571 6.65714C9.47143 6.62857 9.27143 6.55714 9.37143 6.27143C9.44286 6.08571 9.61429 6.05714 9.8 6.05714C10.5714 6.04286 11.4571 6.94286 11.4571 7.71429ZM14.1714 12.9857C13.8714 13.8 12.8571 14.6286 11.9857 14.6143C11.8571 14.5857 11.6143 14.5429 11.4 14.4571C7.57143 12.8429 4.78571 10.1857 3.21429 6.38571C2.68571 5.11429 3.24286 4.02857 4.57143 3.6C4.81429 3.51429 5.04286 3.51429 5.28571 3.6C5.85714 3.8 7.3 5.75714 7.32857 6.32857C7.35714 6.77143 7.04286 7.01429 6.74286 7.21429C6.15714 7.6 6.15714 8.08571 6.41429 8.64286C6.97143 9.87143 7.92857 10.7286 9.17143 11.2714C9.61429 11.4714 10.0571 11.4571 10.3571 11C10.9 10.1857 11.5714 10.2286 12.3 10.7286C12.6714 10.9857 13.0429 11.2286 13.3857 11.5C13.8571 11.8857 14.4571 12.2 14.1714 12.9857Z" fill="#232323"/>
</svg>
