<svg width="14" height="18" viewBox="0 0 14 18" fill="none" xmlns="http://www.w3.org/2000/svg">
<path d="M7 0C3.27783 0 0.25 3.02818 0.25 6.75C0.25 11.7297 6.47779 17.6484 6.74294 17.8982C6.81543 17.9659 6.90771 18 7 18C7.09229 18 7.18457 17.9659 7.2571 17.8982C7.52221 17.6484 13.75 11.7297 13.75 6.75C13.75 3.02818 10.7222 0 7 0ZM7 10.5C4.93236 10.5 3.24999 8.81764 3.24999 6.75C3.24999 4.68236 4.93239 2.99999 7 2.99999C9.06761 2.99999 10.75 4.68239 10.75 6.75C10.75 8.81761 9.06764 10.5 7 10.5Z" fill="#232323"/>
</svg>
