<svg width="191" height="383" viewBox="0 0 191 383" fill="none" xmlns="http://www.w3.org/2000/svg">
<path opacity="0.8" d="M136.373 129.108C136.399 130.176 136.412 131.245 136.404 132.308C136.342 140.518 135.943 148.715 135.296 156.897C134.851 162.523 134.317 168.143 133.733 173.756C133.262 178.275 132.689 182.784 132.101 187.289C131.625 190.937 131.089 194.578 130.525 198.214C129.935 202.021 129.309 205.823 128.646 209.619C127.939 213.646 127.206 217.67 126.413 221.681C125.57 225.94 124.681 230.19 123.745 234.429C121.634 243.984 119.323 253.491 116.669 262.911C115.548 266.892 114.405 270.867 113.212 274.827C112.15 278.35 111.032 281.856 109.891 285.354C108.906 288.373 107.883 291.38 106.821 294.374C105.501 298.074 104.177 301.774 102.744 305.438C101.042 309.785 99.2752 314.107 97.4439 318.402C94.4439 325.469 91.1192 332.38 87.4699 339.137C83.9289 345.824 79.908 352.246 75.4389 358.352C72.8636 361.929 70.0018 365.29 66.8819 368.403C65.1574 370.105 63.3293 371.699 61.4079 373.175C59.9785 374.259 58.4711 375.236 56.8979 376.097C56.7869 376.158 56.6779 376.221 56.5639 376.273C56.4642 376.339 56.3489 376.377 56.2296 376.384C56.1103 376.391 55.9913 376.367 55.8846 376.313C55.778 376.259 55.6874 376.178 55.6221 376.078C55.5568 375.978 55.5191 375.862 55.5129 375.743C55.1923 373.994 55.0223 372.221 55.0049 370.443C54.9563 365.63 55.2712 360.82 55.9469 356.054C56.3089 353.263 56.7099 350.475 57.1889 347.702C57.8649 343.802 58.5689 339.895 59.3729 336.015C60.2879 331.595 61.2799 327.189 62.3209 322.797C63.4089 318.206 64.5609 313.629 65.7479 309.062C66.7879 305.062 67.9049 301.075 69.0039 297.087C69.5389 295.146 70.1039 293.213 70.6639 291.28C71.3599 288.895 72.0639 286.512 72.7759 284.131C73.3759 282.112 73.9862 280.095 74.6069 278.08C75.2969 275.841 75.9969 273.605 76.7069 271.371C77.3549 269.317 78.0009 267.262 78.6639 265.212C79.3849 262.983 80.1219 260.759 80.8569 258.534C81.5419 256.459 82.2249 254.383 82.9269 252.313C83.7749 249.813 84.6389 247.313 85.5019 244.819C86.3099 242.486 87.1149 240.153 87.9429 237.828C88.9869 234.895 90.0435 231.966 91.1129 229.043C92.3219 225.736 93.5269 222.426 94.7749 219.133C96.4695 214.666 98.1875 210.207 99.9289 205.754C101.635 201.407 103.35 197.063 105.137 192.754C107.507 187.031 109.918 181.326 112.371 175.638C115.811 167.652 119.433 159.749 123.237 151.929C126.616 144.969 130.104 138.066 133.937 131.342C134.505 130.342 135.097 129.362 135.687 128.378C135.787 128.214 135.861 127.994 136.235 128C136.299 128.367 136.345 128.737 136.373 129.108ZM72.8349 360.535C76.3041 356.099 79.4872 351.446 82.3649 346.605C86.2881 340.027 89.8695 333.252 93.0949 326.305C95.3539 321.493 97.4949 316.63 99.4699 311.694C101.19 307.387 102.857 303.059 104.47 298.71C105.677 295.469 106.807 292.198 107.913 288.921C109.089 285.435 110.226 281.935 111.325 278.421C112.377 275.059 113.381 271.682 114.367 268.3C117.714 256.818 120.617 245.222 123.176 233.54C123.987 229.837 124.76 226.125 125.495 222.406C126.277 218.441 127.012 214.465 127.728 210.487C128.316 207.22 128.871 203.949 129.392 200.672C129.918 197.364 130.411 194.051 130.872 190.733C131.346 187.369 131.816 184.005 132.212 180.633C132.748 176.073 133.264 171.51 133.693 166.94C134.161 161.962 134.585 156.979 134.909 151.991C135.247 146.799 135.456 141.598 135.697 136.4C135.797 134.264 135.832 132.126 135.897 129.989C135.908 129.802 135.879 129.615 135.812 129.44C135.719 129.589 135.62 129.74 135.534 129.89C132.383 135.515 129.367 141.212 126.487 146.98C122.645 154.659 119.018 162.439 115.523 170.28C112.528 177.002 109.631 183.766 106.833 190.571C104.857 195.403 102.891 200.239 100.974 205.093C99.2639 209.422 97.6169 213.775 95.9619 218.124C94.7819 221.225 93.6205 224.332 92.4779 227.447C91.5109 230.073 90.5689 232.709 89.6269 235.347C88.6222 238.161 87.6255 240.977 86.6369 243.796C85.8789 245.963 85.1369 248.137 84.4029 250.31C83.6129 252.633 82.8275 254.957 82.0469 257.282C81.4379 259.101 80.8469 260.926 80.2469 262.75C79.6029 264.723 78.9629 266.697 78.3269 268.673C77.7835 270.366 77.2482 272.06 76.7209 273.757C76.1162 275.69 75.5162 277.628 74.9209 279.57C74.4449 281.118 73.9759 282.668 73.5139 284.221C72.8039 286.603 72.0992 288.986 71.3999 291.37C70.8052 293.409 70.2215 295.45 69.6489 297.495C68.8979 300.176 68.1489 302.858 67.4269 305.546C66.6879 308.296 65.9559 311.046 65.2639 313.81C64.2639 317.823 63.2429 321.834 62.3259 325.868C61.2659 330.531 60.2519 335.205 59.3259 339.896C58.5729 343.706 57.9339 347.541 57.3259 351.377C56.6609 355.571 56.1699 359.79 55.9079 364.031C55.7074 366.808 55.6963 369.595 55.8749 372.373C55.8899 372.573 55.9149 372.767 55.9349 372.963H56.0269C56.1089 372.508 56.1939 372.052 56.2729 371.596C56.5919 369.735 56.8889 367.871 57.2299 366.015C57.7979 362.921 58.3729 359.828 58.9799 356.741C60.7505 347.741 62.7095 338.782 64.8569 329.865C66.4519 323.292 68.1249 316.737 69.7919 310.182C70.6229 306.92 71.5029 303.67 72.3919 300.423C73.2419 297.313 74.1239 294.211 75.0019 291.108C75.7439 288.491 76.4945 285.876 77.2539 283.262C78.0792 280.437 78.9189 277.617 79.7729 274.803C80.4975 272.394 81.2309 269.987 81.9729 267.582C82.7789 264.982 83.6029 262.391 84.4239 259.797C85.0649 257.773 85.7039 255.749 86.3619 253.73C87.1799 251.218 88.0075 248.709 88.8449 246.203C89.5189 244.174 90.1985 242.147 90.8839 240.121C91.6239 237.948 92.3732 235.778 93.1319 233.611C93.9319 231.324 94.7345 229.04 95.5399 226.757C96.2979 224.624 97.0645 222.493 97.8399 220.366C98.6645 218.106 99.4979 215.85 100.34 213.597C101.293 211.049 102.256 208.505 103.229 205.965C104.217 203.397 105.217 200.834 106.229 198.277C107.32 195.53 108.413 192.783 109.547 190.054C111.147 186.192 112.766 182.334 114.424 178.495C116.96 172.62 119.578 166.782 122.448 161.06C122.548 160.867 122.584 160.592 122.89 160.604C123.115 160.782 122.99 160.955 122.915 161.122C122.415 162.209 121.915 163.291 121.426 164.382C119.155 169.463 116.862 174.534 114.626 179.631C113.156 182.986 111.753 186.371 110.362 189.759C108.988 193.104 107.652 196.459 106.325 199.828C105.125 202.87 103.944 205.92 102.782 208.977C101.782 211.607 100.805 214.247 99.8329 216.888C98.7802 219.751 97.7375 222.618 96.7049 225.488C95.7879 228.049 94.8939 230.618 94.0049 233.188C93.0349 235.98 92.0735 238.775 91.1209 241.574C90.3129 243.957 89.5259 246.347 88.7379 248.737C87.8769 251.35 87.0159 253.964 86.1729 256.583C85.3789 259.053 84.6039 261.53 83.8279 264.006C83.1079 266.302 82.3932 268.6 81.6839 270.899C81.1899 272.507 80.7169 274.122 80.2339 275.734C79.7339 277.392 79.2339 279.048 78.7459 280.707C78.1839 282.607 77.6262 284.507 77.0729 286.407C76.4309 288.628 75.7955 290.851 75.1669 293.076C74.7002 294.726 74.2402 296.378 73.7869 298.032C72.9509 301.099 72.1202 304.165 71.2949 307.232C70.6009 309.832 69.9195 312.434 69.2509 315.039C67.0375 323.648 64.9639 332.29 63.0299 340.966C61.9919 345.633 61.0019 350.311 60.0599 355.002C59.2999 358.747 58.6019 362.502 57.9199 366.267C57.3869 369.207 56.9199 372.159 56.4199 375.106C56.4069 375.182 56.4059 375.26 56.3909 375.433C56.5909 375.345 56.7389 375.291 56.8769 375.215C58.6601 374.212 60.3566 373.061 61.9489 371.776C64.5103 369.714 66.8931 367.439 69.0719 364.976C69.3932 364.61 69.6782 364.213 69.9229 363.791C72.3139 359.757 74.4539 355.591 76.4859 351.366C79.3699 345.366 82.0259 339.273 84.4979 333.098C86.2849 328.632 88.0069 324.139 89.7069 319.639C90.9289 316.404 92.0909 313.145 93.2369 309.881C94.4769 306.348 95.6892 302.807 96.8739 299.26C97.9125 296.159 98.9265 293.05 99.9159 289.931C101.024 286.455 102.113 282.973 103.183 279.485C104.013 276.779 104.806 274.061 105.6 271.344C106.539 268.128 107.468 264.909 108.388 261.688C109.129 259.07 109.843 256.444 110.552 253.817C111.477 250.384 112.41 246.954 113.294 243.51C114.494 238.833 115.66 234.146 116.826 229.46C118.745 221.75 120.482 213.998 122.163 206.233C122.972 202.5 123.75 198.757 124.499 195.006C125.18 191.629 125.837 188.247 126.468 184.861C127.04 181.816 127.59 178.767 128.117 175.714C128.629 172.77 129.121 169.823 129.593 166.873C129.983 164.452 130.354 162.028 130.707 159.6C131.107 156.847 131.489 154.091 131.868 151.335C132.108 149.591 132.326 147.844 132.559 146.099C132.597 145.774 132.678 145.456 132.8 145.152C132.7 146.305 132.606 147.46 132.486 148.611C132.301 150.392 132.104 152.172 131.897 153.953C131.74 155.295 131.562 156.636 131.382 157.976C131.165 159.596 130.945 161.216 130.71 162.834C130.454 164.592 130.183 166.348 129.91 168.104C129.678 169.611 129.446 171.119 129.2 172.624C128.915 174.362 128.622 176.099 128.319 177.834C127.959 179.91 127.592 181.985 127.219 184.059C126.937 185.623 126.655 187.186 126.346 188.744C125.413 193.45 124.492 198.159 123.519 202.857C122.737 206.63 121.924 210.399 121.056 214.157C119.468 221.024 117.849 227.883 116.2 234.734C115.206 238.847 114.128 242.94 113.056 247.034C112.131 250.567 111.181 254.091 110.206 257.604C109.144 261.439 108.06 265.268 106.953 269.091C105.933 272.61 104.888 276.123 103.819 279.628C102.814 282.938 101.787 286.242 100.737 289.539C99.7329 292.701 98.7075 295.856 97.6609 299.005C96.6609 302.019 95.6429 305.029 94.5919 308.026C93.3639 311.526 92.1269 315.026 90.8299 318.502C89.1859 322.902 87.5299 327.302 85.7879 331.672C82.4379 340.089 78.8319 348.395 74.7089 356.472C74.0149 357.83 73.2889 359.172 72.5779 360.521L72.3389 360.976L72.4149 361.048C72.5619 360.87 72.7009 360.703 72.8349 360.535Z" fill="url(#paint0_linear)"/>
<path opacity="0.8" d="M60.3521 382.015C60.4731 381.915 60.6801 381.828 60.772 381.669C60.8599 381.473 60.9072 381.262 60.9111 381.048C61.0601 379.624 61.202 378.199 61.345 376.775C61.3671 376.561 61.377 376.347 61.401 376.133C61.601 374.39 61.8011 372.648 61.9911 370.904C62.5171 366.064 63.1131 361.231 63.5411 356.382C64.2281 348.607 65.1171 340.855 66.025 333.105C68.1904 314.615 70.5004 296.143 72.9551 277.69C74.4861 266.084 75.9221 254.466 77.4761 242.864C77.799 240.451 78.1001 238.035 78.4761 235.629C79.9051 226.394 80.898 217.101 82.201 207.849C82.6151 204.908 83.1481 201.984 83.6261 199.049C84.0261 196.576 84.4141 194.1 84.8361 191.63C85.5111 187.679 86.21 183.73 86.899 179.783C86.924 179.642 86.9501 179.501 86.9731 179.36C87.3517 177.065 87.7311 174.77 88.1111 172.474C88.6251 169.4 88.97 166.304 89.244 163.202C89.4514 160.346 89.4347 157.478 89.1941 154.624C89.0061 151.876 88.855 149.124 88.7261 146.375C88.6844 145.445 88.7037 144.513 88.784 143.586C89.204 138.664 89.6271 133.742 90.409 128.859C90.743 126.774 91.068 124.688 91.409 122.603C91.8984 119.603 92.3934 116.603 92.8941 113.603C93.1987 111.767 93.509 109.934 93.8251 108.103C93.8661 107.859 93.925 107.618 93.97 107.38C94.0644 107.317 94.1649 107.264 94.2701 107.221C95.9484 106.713 97.5891 106.088 99.1801 105.35C100.133 104.939 101.08 104.533 101.994 104.028C104.118 102.814 105.932 101.125 107.294 99.093C109.085 96.493 110.371 93.5788 111.084 90.503C111.4 89.143 111.622 87.7632 111.75 86.373C111.786 86.023 111.837 85.673 111.896 85.207C112.052 85.3308 112.195 85.4702 112.323 85.623C112.985 86.686 113.662 87.741 114.281 88.829C114.847 89.829 115.337 90.861 115.876 91.872C116.565 93.172 117.246 94.472 117.976 95.742C120.649 100.445 124.649 104.254 129.476 106.695C131.783 107.929 134.236 108.869 136.776 109.495C138.454 109.872 140.166 110.078 141.885 110.11C144.284 110.11 146.674 109.839 149.012 109.302C151.222 108.863 153.447 108.49 155.643 107.991C157.435 107.59 159.311 107.831 160.943 108.672C162.462 109.4 163.922 110.23 165.363 111.096C166.498 111.777 167.623 112.474 168.752 113.165C171.956 115.146 175.506 116.503 179.215 117.165C181.755 117.644 184.367 117.576 186.878 116.965C187.434 116.83 187.977 116.644 188.499 116.411C189.371 116.055 190.091 115.405 190.533 114.573C190.976 113.741 191.112 112.78 190.918 111.858C190.744 110.83 190.374 109.846 189.828 108.958C189.087 107.729 188.143 106.635 187.035 105.722C185.436 104.396 183.696 103.249 181.847 102.303C180.355 101.527 178.855 100.767 177.356 100.003C174.072 98.3233 170.99 96.2744 168.17 93.896C164.982 91.1788 161.956 88.2768 159.108 85.205C157.408 83.411 155.713 81.616 153.983 79.854C152.68 78.5237 151.295 77.2763 149.836 76.119C147.831 74.4916 145.553 73.2343 143.107 72.406C140.617 71.6011 138.013 71.2026 135.396 71.226C132.961 71.2527 130.54 71.6001 128.196 72.259C127.989 72.315 127.78 72.359 127.588 72.406C127.422 72.249 127.53 72.133 127.602 72.017C127.979 71.409 128.375 70.817 128.732 70.193C129.563 68.6884 130.203 67.0861 130.637 65.423C131.196 63.423 131.728 61.423 132.177 59.393C133.061 55.557 134.167 51.7757 135.489 48.068C136.252 45.868 136.936 43.648 137.695 41.451C138.549 38.983 139.459 36.535 140.324 34.07C141.467 30.8265 142.242 27.4652 142.636 24.049C142.769 23.163 142.798 22.2647 142.724 21.372C142.695 21.124 142.665 20.872 142.624 20.629C142.57 20.2364 142.436 19.859 142.231 19.5202C142.025 19.1814 141.752 18.8883 141.429 18.659C141.106 18.4297 140.739 18.2691 140.352 18.187C139.964 18.105 139.563 18.1033 139.175 18.182C138.614 18.2866 138.066 18.4543 137.543 18.682C137.254 18.8058 136.973 18.9484 136.703 19.109C136.443 19.015 136.539 18.809 136.512 18.653C136.455 18.336 136.419 18.016 136.362 17.699C136.146 16.5137 135.659 15.3944 134.938 14.4287C134.218 13.463 133.284 12.6769 132.209 12.132C130.845 11.3363 129.346 10.8018 127.786 10.556C126.618 10.384 125.446 10.216 124.27 10.126C123.841 10.1184 123.421 10.0038 123.047 9.79267C122.673 9.58156 122.358 9.28058 122.13 8.91697C120.435 6.50878 118.281 4.45976 115.791 2.88797C114.239 1.85452 112.522 1.09171 110.715 0.631963C105.215 -0.857037 100.223 0.346961 95.6671 3.59296C91.7961 6.33483 89.0815 10.4168 88.05 15.047C87.6236 16.7865 87.3888 18.5674 87.3501 20.358C87.2921 23.077 87.234 25.795 87.161 28.513C87.14 29.3 87.076 30.086 87.0171 30.871C86.9612 31.5157 86.7606 32.1395 86.4301 32.696C86.1454 33.1926 85.855 33.6863 85.5591 34.177C84.6323 35.7155 84.0604 37.4414 83.885 39.229C83.677 41.4042 83.7489 43.5971 84.0991 45.754C84.3948 47.6639 84.7954 49.5561 85.299 51.422C85.8284 53.3564 86.5427 55.2354 87.4321 57.033C88.0871 58.386 88.767 59.728 89.427 61.078C89.661 61.557 89.871 62.049 90.0871 62.525C89.8671 62.725 89.803 62.516 89.747 62.439C89.264 61.773 88.7921 61.098 88.3231 60.421C86.8741 58.333 85.4121 56.254 83.9851 54.151C82.0905 51.2834 80.4189 48.2745 78.9851 45.151C78.5101 44.151 78.0451 43.141 77.536 42.151C76.697 40.4856 75.6159 38.9536 74.328 37.605C74.153 37.425 73.9821 37.24 73.7941 37.076C71.5384 35.026 68.9562 33.3671 66.1541 32.168C64.5981 31.543 62.974 31.079 61.3671 30.589C59.3831 29.9836 57.3904 29.4063 55.3891 28.857C53.3891 28.311 51.3761 27.802 49.3611 27.31C46.0611 26.505 42.7421 25.76 39.446 24.928C37.2735 24.3279 35.1348 23.6115 33.039 22.782C30.2901 21.762 27.5391 20.732 24.7711 19.782C21.9934 18.8315 19.1462 18.098 16.2551 17.588C13.6428 17.0953 10.9551 17.1717 8.37505 17.812C6.73761 18.2214 5.1987 18.9544 3.84904 19.968C2.22227 21.166 1.00459 22.8366 0.362045 24.752C-0.136017 26.1105 -0.120361 27.6042 0.406052 28.952C1.12851 30.7908 2.21994 32.4621 3.61305 33.863C4.92804 35.1836 6.4119 36.3244 8.02605 37.256C9.65794 38.2236 11.2081 39.323 12.6611 40.543C13.6055 41.314 14.3528 42.2988 14.841 43.416C17.1699 48.6884 21.4807 52.8322 26.841 54.951C29.181 55.9385 31.5698 56.8063 33.998 57.551C37.0515 58.4782 40.2098 59.0158 43.3981 59.151C43.9341 59.177 44.4691 59.227 45.0051 59.251C46.5051 59.318 48.0051 59.375 49.5051 59.441C50.1016 59.4121 50.699 59.4796 51.274 59.641C51.064 59.81 50.9391 59.931 50.7961 60.023C48.9991 61.2016 47.2902 62.5094 45.683 63.936C43.1155 66.1688 40.3626 68.1791 37.4541 69.945C35.0007 71.4281 32.7127 73.169 30.6291 75.138C27.7021 77.9095 25.5627 81.4078 24.429 85.276C23.9836 86.6744 23.66 88.1087 23.4621 89.563C23.2129 91.7043 23.4596 93.8742 24.183 95.905C24.5484 96.9563 25.0802 97.9422 25.7581 98.825C27.0466 100.589 28.1729 102.467 29.123 104.434C29.7731 105.71 30.5022 106.944 31.306 108.129C33.2003 110.909 36.0455 112.901 39.306 113.729C43.158 114.772 47.2032 114.882 51.106 114.049C53.3457 113.595 55.5502 112.983 57.703 112.217C60.069 111.394 62.4221 110.535 64.7801 109.693C66.5895 109.015 68.435 108.437 70.3081 107.962C72.6803 107.397 75.1323 107.245 77.5561 107.515C78.9431 107.669 80.331 107.828 81.715 108.015C85.1642 108.451 88.6603 108.346 92.077 107.704C92.318 107.66 92.562 107.629 92.8771 107.58C92.8881 107.769 92.886 107.958 92.871 108.147C92.371 111.221 91.855 114.292 91.358 117.366C90.9361 119.981 90.5791 122.607 90.1121 125.213C89.3221 129.622 88.7541 134.058 88.3241 138.513C88.146 140.366 87.9671 142.22 87.8481 144.077C87.762 145.793 87.7841 147.512 87.914 149.225C88.0751 151.832 88.253 154.437 88.414 157.044C88.5117 158.795 88.5014 160.55 88.383 162.299C88.174 165.626 87.773 168.929 87.244 172.217C86.6587 175.857 86.052 179.493 85.424 183.126C84.8241 186.618 84.1971 190.105 83.5871 193.595C83.4581 194.335 83.3641 195.082 83.2391 195.823C82.7741 198.576 82.3 201.323 81.8391 204.08C81.7017 204.892 81.5797 205.706 81.4731 206.523C80.6521 212.842 79.8571 219.164 79.0141 225.481C78.4141 229.951 77.7391 234.41 77.1311 238.881C76.286 245.089 75.446 251.297 74.649 257.511C72.1764 276.792 69.716 296.075 67.2681 315.361C66.438 321.894 65.638 328.432 64.868 334.975C64.3287 339.525 63.8254 344.079 63.358 348.638C62.8331 353.73 62.383 358.829 61.858 363.921C61.4581 367.873 60.9831 371.821 60.5511 375.769C60.451 376.729 60.3901 377.695 60.2841 378.655C60.2251 379.185 60.1001 379.708 60.022 380.236C59.9603 380.624 59.9199 381.015 59.901 381.407C59.8901 381.546 59.9297 381.684 60.0126 381.795C60.0956 381.907 60.2161 381.985 60.3521 382.015ZM135.828 91.07L135.886 91.019C135.68 90.6433 135.384 90.3243 135.025 90.09C132.501 87.8662 129.758 85.9026 126.84 84.229C124.522 82.8772 122.065 81.7788 119.512 80.953L117.163 80.189C117.829 79.6374 118.583 79.2014 119.393 78.899C122.326 79.3594 125.213 80.0792 128.019 81.05C132.449 82.5749 136.732 84.4999 140.813 86.801C146.141 89.8085 151.198 93.2739 155.925 97.158C156.564 97.676 157.206 98.191 157.849 98.703C157.949 98.786 158.065 98.872 158.198 98.703C158.098 98.603 157.998 98.496 157.893 98.403C156.793 97.487 155.708 96.555 154.593 95.664C148.282 90.5436 141.336 86.2595 133.928 82.918C130.997 81.5875 127.962 80.4985 124.853 79.662C123.608 79.34 122.353 79.072 121.097 78.771C120.758 78.7576 120.434 78.6248 120.183 78.396C120.364 78.278 120.5 78.178 120.646 78.096C120.792 78.014 120.966 77.944 121.146 77.861C121.746 77.894 122.357 77.903 122.961 77.961C125.739 78.2251 128.494 78.6944 131.203 79.365C133.56 79.9631 135.867 80.7445 138.103 81.702C141.768 83.3208 145.274 85.279 148.574 87.551C151.514 89.528 154.332 91.671 157.16 93.802C160.215 96.1046 163.282 98.3926 166.36 100.666C167.251 101.321 168.208 101.886 169.142 102.482C169.331 102.552 169.528 102.599 169.729 102.622C168.561 101.809 167.543 101.144 166.572 100.422C163.105 97.8286 159.65 95.2233 156.207 92.606C152.704 89.8803 149.065 87.3347 145.303 84.979C139.896 81.59 133.886 79.2739 127.603 78.157C126.122 77.907 124.625 77.757 123.135 77.557C122.824 77.515 122.515 77.465 122.205 77.419C123.281 77.1742 124.389 77.1087 125.486 77.225C127.34 77.357 129.186 77.616 131.03 77.847C131.703 77.931 132.367 78.087 133.03 78.213C133.768 78.352 134.504 78.495 135.241 78.636L135.216 78.66C135.165 78.441 134.979 78.421 134.807 78.382C133.796 78.154 132.785 77.923 131.773 77.7C129.574 77.1951 127.329 76.921 125.073 76.882C124.622 76.9046 124.172 76.8366 123.748 76.682C124.261 76.591 124.603 76.516 124.948 76.471C127.86 76.0911 130.81 76.1069 133.718 76.518C134.461 76.623 135.193 76.798 135.933 76.927C138.117 77.3095 140.266 77.8673 142.36 78.595C142.479 78.6632 142.611 78.7043 142.747 78.7154C142.883 78.7265 143.02 78.7072 143.148 78.659C142.748 78.496 142.409 78.339 142.054 78.213C139.112 77.1891 136.072 76.4746 132.982 76.081C131.599 75.8935 130.203 75.8079 128.807 75.825C127.377 75.8461 125.949 75.9497 124.531 76.135C124.301 76.1399 124.071 76.1255 123.844 76.092L125.914 74.065C125.96 74.0097 126.013 73.9606 126.071 73.919C126.283 73.7905 126.507 73.6817 126.739 73.594C127.456 73.371 128.177 73.157 128.904 72.969C132.475 72.0049 136.215 71.8379 139.858 72.48C142.437 72.9321 144.904 73.8832 147.119 75.28C148.53 76.1968 149.862 77.2293 151.102 78.367C153.264 80.305 155.251 82.415 157.23 84.535C159.942 87.435 162.701 90.296 165.665 92.948C169.021 96.0211 172.764 98.6432 176.799 100.748C178.329 101.526 179.864 102.294 181.39 103.082C183.21 104.004 184.921 105.128 186.49 106.432C187.518 107.271 188.389 108.287 189.06 109.432C189.121 109.539 189.255 109.656 189.101 109.795C188.06 109.235 187.034 108.654 185.982 108.126C184.968 107.545 183.884 107.095 182.756 106.788C185.122 107.906 187.408 109.185 189.599 110.616C189.94 111.212 190.073 111.905 189.977 112.585C189.744 112.457 189.532 112.356 189.336 112.228C188.228 111.506 187.136 110.758 186.014 110.056C183.93 108.734 181.741 107.586 179.468 106.623C179.368 106.56 179.255 106.52 179.138 106.507C179.021 106.493 178.902 106.506 178.79 106.545C179.78 107.035 180.735 107.485 181.668 107.977C182.648 108.494 183.619 109.031 184.568 109.597C185.49 110.144 186.393 110.724 187.287 111.317C188.224 111.898 189.126 112.535 189.987 113.224C189.951 113.679 189.798 114.118 189.542 114.496C189.286 114.874 188.936 115.18 188.527 115.383C187.96 115.687 187.359 115.922 186.737 116.083C184.406 116.683 181.974 116.77 179.606 116.338C176.348 115.812 173.212 114.706 170.344 113.073C169.101 112.364 167.885 111.609 166.661 110.873C164.943 109.775 163.159 108.783 161.319 107.903C160.737 107.629 160.192 107.285 159.694 106.878C157.719 105.339 155.726 103.824 153.73 102.311C153.481 102.122 153.257 101.86 152.902 101.851L152.864 101.884C153.007 102.242 153.359 102.384 153.632 102.593C155.208 103.829 156.794 105.052 158.374 106.282C158.594 106.453 158.8 106.643 159.032 106.84C158.918 106.901 158.858 106.962 158.81 106.954C157.671 106.819 156.517 106.882 155.399 107.141C152.836 107.632 150.268 108.104 147.712 108.628C145.507 109.107 143.248 109.289 140.995 109.169C139.817 109.106 138.644 108.959 137.486 108.73C134.549 108.075 131.727 106.981 129.115 105.486C124.871 103.191 121.342 99.7708 118.915 95.601C118.086 94.181 117.335 92.715 116.553 91.267C115.84 89.945 115.178 88.593 114.412 87.302C113.701 86.102 112.897 84.96 112.112 83.811C111.947 83.6059 111.835 83.3625 111.789 83.1032C111.742 82.8438 111.761 82.5769 111.845 82.327L115.126 81.04C115.387 81.122 115.594 81.177 115.794 81.252C118.656 82.3836 121.38 83.8359 123.915 85.581C128.985 89.0211 133.56 93.1378 137.515 97.817C139.329 99.8916 141.032 102.061 142.615 104.317C142.696 104.434 142.742 104.643 142.999 104.591C142.974 104.484 142.938 104.381 142.89 104.282C142.541 103.741 142.205 103.189 141.825 102.67C138.21 97.6354 133.986 93.0675 129.249 89.07C125.353 85.6859 120.944 82.9415 116.188 80.939C116.105 80.906 116.051 80.798 115.924 80.659C116.091 80.5824 116.267 80.5277 116.448 80.496C116.626 80.5058 116.801 80.5411 116.969 80.601C119.392 81.2318 121.749 82.0945 124.007 83.177C127.964 85.1116 131.653 87.5527 134.98 90.439C135.247 90.665 135.545 90.859 135.828 91.07ZM64.6371 34.039L64.705 33.983C64.3471 33.4957 63.9184 33.0646 63.4331 32.704C63.2421 32.517 63.0541 32.327 62.7101 31.985C63.1651 32.073 63.41 32.098 63.6401 32.169C65.5649 32.7353 67.3986 33.5748 69.0851 34.662C69.8311 35.154 70.5671 35.662 71.3041 36.17C73.1289 37.4463 74.6741 39.0817 75.8451 40.976C76.7094 42.4196 77.4813 43.9166 78.1561 45.458C79.6712 48.7808 81.4597 51.9721 83.5031 54.999C85.6031 58.03 87.731 61.04 89.843 64.063C89.97 64.246 90.2071 64.39 90.1561 64.663C90.0851 64.687 90.0471 64.715 90.021 64.706C89.1804 64.4948 88.4566 63.9614 88.0061 63.221C87.817 62.878 87.5671 62.569 87.3491 62.241C86.0824 60.333 84.8131 58.4256 83.5411 56.519C83.4471 56.379 83.3941 56.15 83.064 56.164C83.205 56.417 83.3011 56.607 83.4141 56.787C84.3271 58.243 85.2451 59.695 86.1541 61.152C86.2341 61.279 86.4081 61.424 86.159 61.614C85.926 61.343 85.6851 61.082 85.465 60.803C81.8491 56.2675 78.4699 51.5482 75.341 46.664C75.1995 46.4616 75.0476 46.2667 74.8861 46.08L74.7951 46.146C74.8772 46.3785 74.9775 46.6042 75.0951 46.821C76.0371 48.298 76.9621 49.786 77.9471 51.233C79.1551 53.005 80.417 54.74 81.647 56.495C81.722 56.603 81.927 56.716 81.716 56.937C81.4601 56.665 81.2091 56.414 80.9761 56.147C80.1281 55.179 79.288 54.204 78.44 53.236C78.3651 53.149 78.2801 52.995 78.1161 53.187C78.2401 53.357 78.3641 53.531 78.493 53.7C78.6451 53.9 78.8011 54.095 78.9571 54.29C79.0904 54.4566 79.2261 54.6233 79.3641 54.79C79.5001 54.955 79.6381 55.12 79.7761 55.284C79.9371 55.475 80.0981 55.667 80.2621 55.856C80.4021 56.019 80.5451 56.179 80.6861 56.34L81.1861 56.903C81.327 57.064 81.4681 57.226 81.6111 57.386C81.7541 57.546 81.8981 57.704 82.0431 57.863C82.2111 58.048 82.3801 58.232 82.548 58.418C82.692 58.577 82.8331 58.738 82.9781 58.896C83.123 59.054 83.2721 59.209 83.4171 59.367C83.5871 59.55 83.7561 59.735 83.925 59.919C84.0697 60.077 84.2154 60.2346 84.3621 60.392C84.5321 60.575 84.7131 60.75 84.871 60.943C84.986 61.084 85.1971 61.187 85.134 61.513C84.9766 61.411 84.8245 61.3012 84.678 61.184C83.906 60.493 83.1281 59.809 82.3781 59.099C81.8813 58.6373 81.409 58.1499 80.9631 57.639C77.4911 53.596 73.8891 49.675 70.0301 45.997C67.7487 43.7787 65.3284 41.7079 62.7841 39.797C62.5335 39.541 62.2216 39.3534 61.8781 39.252L61.8201 39.303C62.0201 39.496 62.22 39.703 62.4321 39.879C63.9171 41.113 65.4441 42.3 66.8881 43.579C71.4041 47.6598 75.6441 52.0361 79.5801 56.679C79.6631 56.779 79.7321 56.884 79.9561 57.189C79.4454 56.9331 78.9588 56.6319 78.5021 56.289C77.458 55.5305 76.3058 54.9334 75.0841 54.518C74.3093 54.2442 73.5832 53.8486 72.9331 53.346C69.3177 50.7126 65.6177 48.205 61.8331 45.823C52.8889 40.1444 43.28 35.5879 33.2231 32.256C33.0037 32.2071 32.7805 32.1773 32.556 32.167C32.632 32.241 32.6561 32.277 32.6841 32.289C33.6221 32.633 34.5607 32.9756 35.5 33.317C43.9067 36.3635 51.9824 40.2555 59.6031 44.933C63.8131 47.5136 67.9181 50.252 71.9181 53.148C72.118 53.293 72.4401 53.373 72.4311 53.719C71.3311 53.619 70.2641 53.482 69.1941 53.435C68.5158 53.4045 67.8526 53.2246 67.2521 52.908C63.5247 51.004 59.72 49.2706 55.838 47.708C52.025 46.161 48.1541 44.773 44.2131 43.594C41.8131 42.877 39.3931 42.24 36.9711 41.61C35.4841 41.224 33.9781 40.91 32.4761 40.583C32.0611 40.493 31.631 40.471 31.207 40.418C35.2271 41.428 39.2361 42.443 43.1951 43.645C48.6374 45.2912 53.974 47.2685 59.175 49.566C61.8094 50.6706 64.3858 51.9089 66.8941 53.276C66.9071 53.283 66.8941 53.341 66.8881 53.376C66.6259 53.4731 66.3469 53.5166 66.0676 53.5038C65.7882 53.4911 65.5143 53.4225 65.2621 53.302C60.7351 51.8346 56.1216 50.649 51.448 49.752C48.81 49.241 46.1351 48.994 43.468 48.693C43.3712 48.6894 43.2742 48.6937 43.1781 48.706C46.8371 49.233 50.478 49.777 54.071 50.612C57.696 51.4265 61.2765 52.4278 64.798 53.612C64.6519 53.6843 64.4883 53.7137 64.326 53.697C63.9041 53.622 63.4861 53.522 63.0681 53.424C60.7351 52.879 58.4031 52.324 56.0681 51.791C55.6861 51.703 55.2901 51.669 54.9001 51.617C54.5461 51.569 54.19 51.524 53.834 51.488C53.4816 51.4215 53.1205 51.4154 52.7661 51.47C53.61 51.642 54.466 51.729 55.304 51.898C57.898 52.418 60.4601 53.078 63.0181 53.752C63.0881 53.771 63.134 53.88 63.2411 54.005C62.871 54.116 62.571 54.211 62.2681 54.295C60.5061 54.7762 58.7994 55.4408 57.1761 56.278C55.9711 56.907 54.798 57.597 53.61 58.258C53.331 58.414 53.049 58.565 52.81 58.694C51.639 58.651 50.5311 58.613 49.423 58.567C47.8897 58.5043 46.3534 58.4376 44.8141 58.367C44.1351 58.335 43.4581 58.274 42.7791 58.239C39.8806 58.0878 37.0122 57.5766 34.2401 56.717C31.8461 55.978 29.504 55.092 27.181 54.159C23.5197 52.6523 20.3252 50.1987 17.925 47.05C17.754 46.834 17.625 46.586 17.4081 46.25C17.6261 46.2662 17.8431 46.2946 18.058 46.335C19.2681 46.652 20.4751 46.983 21.6851 47.298C22.9288 47.6219 24.2079 47.7898 25.4931 47.798C22.6161 47.278 19.819 46.462 17.056 45.689C16.471 44.867 16.4711 44.867 16.356 44.25C16.4641 44.268 16.567 44.28 16.6671 44.304C18.231 44.684 19.7931 45.068 21.3571 45.446C22.19 45.646 23.0301 45.826 23.8571 46.046C25.1123 46.3358 26.3844 46.5469 27.666 46.678C27.8057 46.6837 27.9456 46.677 28.084 46.658C27.911 46.546 27.7165 46.4714 27.513 46.439C26.249 46.19 24.976 45.986 23.724 45.689C21.424 45.145 19.1421 44.552 16.8551 43.969C16.5141 43.882 16.188 43.738 15.914 43.641C15.8071 43.432 15.729 43.31 15.679 43.177C15.1104 41.777 14.1677 40.5603 12.9541 39.66C11.5668 38.5298 10.0989 37.5024 8.56206 36.586C7.10349 35.745 5.74913 34.7351 4.52705 33.577C3.18797 32.3268 2.12256 30.8126 1.39806 29.13C1.16985 28.568 0.993774 27.9862 0.872055 27.392C0.755966 26.8919 0.805084 26.3678 1.01205 25.898C1.22505 25.925 1.39806 25.939 1.56805 25.97C2.79906 26.196 4.03206 26.417 5.26006 26.654C7.75305 27.137 10.246 27.618 12.733 28.123C13.6431 28.308 14.5411 28.55 15.4411 28.782C16.6521 29.094 17.8591 29.426 19.0701 29.737C19.2936 29.7787 19.5199 29.8048 19.7471 29.815C19.337 29.5905 18.9029 29.4131 18.453 29.286C15.438 28.373 12.366 27.686 9.28505 27.044C6.79805 26.529 4.29305 26.102 1.79805 25.626C1.58176 25.5693 1.37067 25.4944 1.16705 25.402C1.13722 25.3415 1.12105 25.2753 1.11966 25.2079C1.11827 25.1405 1.13173 25.0736 1.15906 25.012C1.68538 23.4408 2.64365 22.0497 3.92406 20.998C5.2558 19.9026 6.80858 19.1082 8.47604 18.669C9.62775 18.2465 10.8902 18.2355 12.0491 18.638C12.0816 18.6489 12.1151 18.6569 12.149 18.662C15.1841 19.356 18.175 20.214 21.1281 21.192C27.0575 23.0859 32.7798 25.576 38.207 28.624C38.3272 28.6791 38.452 28.7232 38.58 28.756C38.4965 28.5656 38.3533 28.4077 38.1721 28.306C37.5261 27.925 36.882 27.538 36.22 27.184C29.6953 23.7512 22.8067 21.0598 15.683 19.16L12.489 18.282C12.6444 18.194 12.8218 18.1527 13 18.163C14.3239 18.1815 15.6428 18.3289 16.938 18.603C19.5023 19.0996 22.0303 19.7677 24.5051 20.603C26.9781 21.437 29.4231 22.355 31.8661 23.273C34.6935 24.3906 37.5842 25.3412 40.5231 26.12C43.2661 26.798 46.0231 27.43 48.7771 28.056C51.429 28.656 54.053 29.362 56.668 30.106C57.5268 30.3513 58.3365 30.7438 59.0611 31.266C61.9219 33.2978 64.5844 35.5954 67.0131 38.128C67.1991 38.321 67.347 38.574 67.66 38.658C67.6441 38.57 67.652 38.499 67.621 38.458C65.187 35.7175 62.4654 33.2466 59.5031 31.088C59.5941 31.0574 59.6891 31.0399 59.785 31.036C60.7771 31.2038 61.7033 31.6431 62.461 32.305C62.986 32.79 63.55 33.232 64.105 33.684C64.2759 33.8118 64.4535 33.9303 64.6371 34.039ZM67.858 86.174C68.217 86.029 68.3531 85.674 68.5581 85.395C70.6361 82.524 72.807 79.726 75.038 76.973C77.1341 74.3397 79.4059 71.8514 81.8381 69.525C83.3382 68.0848 85.0334 66.8628 86.8741 65.895C87.3301 65.6297 87.8213 65.4301 88.3331 65.302C88.6711 65.602 89.203 65.639 89.5611 66.069C89.2771 66.342 89.025 66.592 88.761 66.834C87.2029 68.2603 85.7196 69.7663 84.317 71.346C82.5456 73.3166 80.9313 75.4231 79.4891 77.646C79.4011 77.785 79.1721 77.916 79.3771 78.146C79.9561 77.36 80.509 76.568 81.105 75.81C81.945 74.742 82.7931 73.677 83.6841 72.65C84.5751 71.623 85.509 70.634 86.4471 69.65C86.965 69.107 87.5281 68.607 88.0731 68.089C88.0993 68.0646 88.1319 68.0483 88.1671 68.042C88.1881 68.042 88.2141 68.066 88.2371 68.079C88.2451 68.111 88.271 68.155 88.258 68.179C88.118 68.379 87.983 68.593 87.827 68.786C85.9351 71.1226 84.1962 73.579 82.621 76.14C80.1722 79.9734 78.262 84.1253 76.9441 88.479C76.8466 88.748 76.7795 89.0271 76.744 89.311C76.729 89.598 76.3781 89.811 76.604 90.189C76.7281 89.889 76.8461 89.628 76.9411 89.362C77.4691 87.881 77.9411 86.378 78.5261 84.921C80.2071 80.8886 82.3297 77.0549 84.855 73.49C86.3923 71.2453 88.0724 69.1018 89.885 67.073C89.977 66.9216 90.098 66.7901 90.2412 66.6859C90.3844 66.5817 90.5468 66.5069 90.719 66.466C91.497 66.7749 92.2534 67.1357 92.983 67.546C92.835 67.756 92.7251 67.935 92.592 68.096C91.6917 69.2095 90.8932 70.4016 90.206 71.658C87.8872 75.9806 86.2982 80.6565 85.5031 85.497C85.1261 87.537 84.911 89.606 84.635 91.664C84.4 93.402 84.3671 95.157 84.2791 96.906C84.2491 97.493 84.3041 98.085 84.3201 98.675C84.462 98.2702 84.537 97.8449 84.5421 97.416C84.5541 95.8449 84.6542 94.2758 84.842 92.716C84.9984 90.7176 85.2722 88.7302 85.662 86.764C86.008 85.009 86.356 83.258 86.798 81.524C87.6214 78.2601 88.8429 75.1098 90.4351 72.144C91.1055 70.8781 91.8951 69.679 92.7931 68.563C93.008 68.2322 93.291 67.951 93.623 67.738C93.7683 67.7596 93.912 67.791 94.053 67.832C95.364 68.306 96.6621 68.821 97.9881 69.251C98.3624 69.3705 98.7084 69.5651 99.0048 69.8231C99.3013 70.081 99.5419 70.3968 99.7121 70.751C100.378 71.9835 100.782 73.3407 100.897 74.737C101.076 76.4115 100.956 78.1044 100.543 79.737C100.476 80.0819 100.43 80.4305 100.405 80.781C100.615 80.253 100.758 79.963 100.844 79.657C100.921 79.3443 100.979 79.0274 101.019 78.708C101.077 78.355 101.136 78.002 101.18 77.647C101.219 77.327 101.247 77.006 101.264 76.684C101.282 76.364 101.286 76.042 101.286 75.721C101.286 75.4 101.286 75.076 101.267 74.756C101.241 74.4349 101.197 74.1154 101.137 73.799C101.079 73.483 101.003 73.169 100.918 72.859C100.823 72.514 100.718 72.171 100.6 71.834C100.493 71.534 100.352 71.24 100.239 70.934C100.139 70.657 99.8751 70.434 99.8751 70.097C100.361 70.029 100.675 70.317 101.05 70.419C101.91 70.6856 102.651 71.2431 103.145 71.996C104.685 74.0753 105.727 76.481 106.189 79.027C106.498 80.6835 106.543 82.3786 106.32 84.049C106.179 85.2957 105.867 86.5171 105.394 87.679C105.305 87.888 105.149 88.112 105.354 88.416C105.507 88.095 105.654 87.816 105.777 87.522C106.7 85.2193 107.043 82.7253 106.777 80.259C106.522 77.3547 105.505 74.5692 103.828 72.184C103.728 72.035 103.528 71.906 103.6 71.673C103.643 71.6638 103.687 71.6614 103.73 71.666C103.829 71.7034 103.927 71.7465 104.021 71.795C105.504 72.5978 106.831 73.6604 107.938 74.932C108.642 75.6986 109.209 76.5804 109.614 77.539C110.338 79.2184 110.781 81.0057 110.924 82.829C111.156 86.1609 110.703 89.5051 109.592 92.655C108.799 95.0363 107.628 97.274 106.122 99.282C104.501 101.453 102.184 103.002 99.5591 103.672C99.007 103.817 98.447 103.94 97.887 104.049C96.0866 104.355 94.2559 104.445 92.4341 104.317C90.1755 104.254 87.9424 103.822 85.8231 103.039C83.2891 102.057 80.744 101.104 78.2121 100.117C76.1963 99.2763 74.0929 98.6635 71.9411 98.29C69.137 97.8445 66.2693 98.021 63.5411 98.807C60.2675 99.712 57.3983 101.702 55.403 104.45C54.981 105.027 54.584 105.623 54.1821 106.215C53.66 106.986 53.1761 107.784 52.619 108.527C51.933 109.443 51.2144 110.333 50.463 111.198C49.6931 112.058 48.699 112.686 47.5921 113.012C47.0811 113.175 46.56 113.312 46.039 113.433C45.8908 113.438 45.7425 113.422 45.599 113.384C45.8061 112.721 46.0694 112.078 46.386 111.46C46.6521 110.874 46.923 110.29 47.209 109.713C47.509 109.104 47.8241 108.501 48.1441 107.901C48.4641 107.301 48.786 106.701 49.127 106.115C49.45 105.559 49.8041 105.02 50.1351 104.468C50.5352 103.93 50.8805 103.354 51.166 102.748C51.0163 102.809 50.8863 102.91 50.7901 103.04C50.3331 103.681 49.8601 104.311 49.4431 104.977C47.9298 107.406 46.603 109.947 45.474 112.577C45.335 112.899 45.1741 113.213 45.0331 113.515C44.1226 113.623 43.2019 113.613 42.2941 113.485C40.7357 113.252 39.2094 112.84 37.7451 112.258C35.6945 111.47 33.9029 110.129 32.5701 108.383C32.1091 107.791 31.6921 107.162 31.2881 106.529C30.4657 105.189 29.7144 103.807 29.037 102.389C29.215 102.152 29.36 101.948 29.5141 101.753C29.692 101.528 29.8781 101.31 30.0611 101.09L30.543 100.514L31.0291 99.94C31.2151 99.723 31.401 99.505 31.5891 99.289C31.7551 99.101 31.9241 98.916 32.0891 98.73L32.5891 98.172C32.7581 97.987 32.926 97.801 33.097 97.618C33.297 97.408 33.4901 97.201 33.6861 96.993C33.8591 96.811 34.0301 96.628 34.2041 96.448C34.3781 96.268 34.5541 96.089 34.7301 95.911C34.9301 95.7056 35.1301 95.5016 35.33 95.299C35.507 95.121 35.6831 94.944 35.8631 94.769C36.043 94.594 36.224 94.422 36.405 94.248C36.611 94.048 36.8141 93.848 37.022 93.648C37.2041 93.475 37.3911 93.308 37.5751 93.139C37.7591 92.97 37.942 92.797 38.1281 92.629C38.3414 92.4376 38.5554 92.2476 38.7701 92.059C38.9581 91.893 39.1481 91.729 39.3381 91.566C39.5281 91.403 39.7191 91.24 39.91 91.078C40.101 90.916 40.2921 90.753 40.4861 90.594C40.7074 90.4126 40.9304 90.233 41.155 90.055C41.355 89.9 41.55 89.747 41.748 89.594C41.946 89.441 42.148 89.287 42.343 89.135C42.571 88.961 42.8041 88.794 43.0251 88.612C43.1637 88.5346 43.2847 88.4291 43.3804 88.3024C43.4762 88.1757 43.5445 88.0305 43.5811 87.876C42.3994 88.6536 41.2601 89.4938 40.168 90.393C39.1451 91.232 38.1331 92.093 37.1561 92.982C36.1561 93.898 35.177 94.849 34.2231 95.818C33.2941 96.762 32.4051 97.744 31.5041 98.718C30.5841 99.708 29.776 100.798 28.789 101.836C28.2251 101.064 27.798 100.296 27.3141 99.498C27.7122 99.0358 28.1415 98.6015 28.599 98.198C29.0404 97.778 29.483 97.3603 29.927 96.945C30.347 96.555 30.7681 96.167 31.1951 95.786C31.6501 95.386 32.1051 94.977 32.5731 94.586C33.0411 94.195 33.526 93.829 34.002 93.449C34.478 93.069 34.965 92.756 35.412 92.349C35.3351 92.291 35.2961 92.249 35.2831 92.254C35.0582 92.3596 34.8401 92.4792 34.6301 92.612C33.1566 93.6318 31.7534 94.7497 30.4301 95.958C29.4521 96.851 28.4881 97.758 27.513 98.658C27.362 98.798 27.233 98.995 26.918 98.952C26.834 98.852 26.7121 98.729 26.6071 98.591C24.7803 96.1587 23.9348 93.1286 24.2381 90.102C24.3407 89.0328 24.5344 87.9743 24.817 86.938C25.9397 82.1591 28.5772 77.8713 32.336 74.714C34.2496 73.0943 36.2872 71.6271 38.4301 70.326C40.9084 68.818 43.2595 67.1104 45.4601 65.22C47.5428 63.3578 49.7723 61.6666 52.127 60.163C54.0878 58.9061 56.1162 57.758 58.203 56.724C62.1357 54.7645 66.5417 53.9552 70.9141 54.389C73.166 54.6055 75.3431 55.3131 77.2921 56.462C79.2892 57.6652 81.0698 59.1959 82.5591 60.99C82.642 61.1211 82.7133 61.2593 82.772 61.403C82.3771 61.354 82.095 61.324 81.815 61.282C79.1967 60.8791 76.5512 60.6785 73.9021 60.682C70.0003 60.6963 66.1185 61.2402 62.3631 62.299C61.916 62.425 61.4831 62.599 61.0491 62.763C60.9121 62.815 60.731 62.853 60.7271 63.077C61.685 62.831 62.614 62.588 63.5451 62.353C68.1429 61.242 72.8866 60.8594 77.6031 61.219C79.1711 61.319 80.7301 61.591 82.2911 61.797C82.5736 61.8427 82.8514 61.914 83.121 62.01C83.3202 62.1049 83.5115 62.2156 83.6931 62.341C79.5865 61.9924 75.4508 62.2686 71.4271 63.16C67.4626 63.9706 63.6087 65.2506 59.9471 66.973C56.817 68.473 51.1721 72.361 49.9111 73.943C50.4111 73.584 50.756 73.343 51.095 73.096C52.342 72.196 53.5771 71.273 54.8371 70.39C56.6792 69.0861 58.6454 67.9671 60.707 67.049C66.7199 64.3224 73.2148 62.8183 79.814 62.624C81.3853 62.5574 82.9592 62.6613 84.508 62.934C84.8243 63.0951 85.1057 63.317 85.3361 63.587C85.2197 63.644 85.0989 63.6918 84.9751 63.73C82.3118 64.2964 79.7382 65.2229 77.3251 66.484C73.3816 68.4562 69.7056 70.923 66.386 73.825C65.278 74.786 64.2281 75.812 63.159 76.817C63.0591 76.911 62.854 77.017 63.0271 77.217C64.2471 76.155 65.4471 75.081 66.6791 74.046C70.0632 71.1633 73.7916 68.7113 77.7791 66.746C79.6999 65.7844 81.7136 65.0208 83.7891 64.467C83.9341 64.43 84.0971 64.326 84.201 64.498C82.887 65.084 81.563 65.628 80.2811 66.258C76.4765 68.1907 72.9732 70.6662 69.8811 73.607C65.8868 77.3063 62.1701 81.2944 58.761 85.539C57.191 87.49 55.6721 89.483 54.1411 91.464C53.929 91.738 53.6171 91.964 53.6351 92.376L53.6261 92.364C53.7713 92.275 53.9055 92.1693 54.026 92.049C54.5871 91.349 55.134 90.649 55.6841 89.94C58.8831 85.7629 62.3188 81.7723 65.9741 77.988C68.4912 75.3407 71.2016 72.8843 74.0831 70.639C77.3498 68.121 81.0041 66.1506 84.9031 64.805C85.4421 64.624 85.9921 64.473 86.4741 64.327C86.8698 64.4593 87.2348 64.6702 87.5471 64.947C87.4643 65.0368 87.3713 65.1167 87.2701 65.185C84.6701 66.4851 82.3243 68.2409 80.3441 70.369C75.8401 75.126 71.7231 80.2349 68.0321 85.647C67.9464 85.7998 67.8767 85.9609 67.8241 86.128L67.858 86.174ZM100.568 69.286C100.368 68.757 100.201 68.325 100.047 67.886C98.0577 62.2093 96.3217 56.4563 94.8391 50.627C93.692 46.081 92.8571 41.47 92.0261 36.858C92.0128 36.5284 91.9253 36.206 91.7701 35.915C91.7418 35.9926 91.7243 36.0737 91.718 36.156C91.765 36.618 91.8081 37.08 91.8741 37.539C92.4971 41.825 93.2971 46.078 94.3181 50.287C95.7531 56.203 97.5031 62.027 99.5021 67.776C99.6786 68.1493 99.7863 68.5514 99.8201 68.963C99.0656 68.792 98.3332 68.5354 97.637 68.198C94.3835 62.4977 91.761 56.4597 89.816 50.191C89.7465 50.2643 89.6991 50.3557 89.6793 50.4548C89.6594 50.5539 89.668 50.6566 89.704 50.751C89.913 51.472 90.104 52.199 90.344 52.911C91.9156 57.7093 93.9126 62.3578 96.3111 66.801C96.479 67.109 96.6261 67.428 96.7801 67.736C96.6981 67.787 96.661 67.827 96.6411 67.82C95.4971 67.425 94.3491 67.038 93.2121 66.62C92.9662 66.5088 92.7453 66.3492 92.5625 66.1508C92.3797 65.9523 92.2387 65.7191 92.148 65.465C92.012 65.174 91.9141 64.865 91.8071 64.565C91.2568 63.0132 90.6089 61.4978 89.8671 60.028C89.289 58.876 88.7081 57.728 88.1541 56.563C85.928 51.8566 84.721 46.7331 84.6121 41.528C84.4797 39.0407 85.0974 36.571 86.385 34.439C87.832 32.112 87.827 32.173 88.0041 29.1C88.0151 28.921 88.0231 28.742 88.0271 28.563C88.0844 25.845 88.1407 23.127 88.1961 20.409C88.2301 18.656 88.4572 16.9122 88.873 15.209C89.9484 10.4719 92.849 6.35023 96.9451 3.73896C99.4671 2.07293 102.384 1.10096 105.401 0.920964C105.806 0.851939 106.222 0.889512 106.608 1.02997C106.628 1.23162 106.636 1.43435 106.631 1.63697C106.531 2.95697 106.42 4.27598 106.323 5.59498C106.196 7.34298 106.068 9.09498 105.964 10.841C105.928 11.441 105.955 12.056 105.97 12.664C105.97 12.731 106.08 12.795 106.186 12.915C106.265 11.845 106.342 10.856 106.411 9.86496C106.477 8.90196 106.531 7.93798 106.598 6.97498C106.668 5.97498 106.726 4.97495 106.828 3.97995C106.862 2.97017 106.991 1.9658 107.212 0.979955C107.465 0.958849 107.72 0.958849 107.973 0.979955C108.642 1.09495 109.311 1.22298 109.973 1.37998C111.861 1.80778 113.656 2.57195 115.273 3.63596C116.495 4.45004 117.651 5.35849 118.731 6.35297C118.939 6.54697 119.131 6.75298 119.347 6.97098C120.162 11.003 120.647 15.095 120.795 19.206C120.906 18.7557 120.972 18.2954 120.99 17.832C120.979 16.903 120.92 15.975 120.856 15.048C120.708 12.906 120.443 10.778 120.093 8.65897C119.985 8.37749 119.978 8.06711 120.073 7.78098C120.91 8.60098 121.433 9.63295 122.2 10.424C122.252 10.679 122.3 10.887 122.334 11.099C122.627 13.225 122.781 15.3679 122.795 17.514C122.804 19.122 122.744 20.731 122.673 22.338C122.62 23.516 122.496 24.69 122.41 25.867C122.431 26.0368 122.468 26.2042 122.521 26.367C122.775 25.0413 122.947 23.701 123.035 22.354C123.135 21.109 123.153 19.854 123.16 18.604C123.168 17.318 123.13 16.03 123.091 14.744C123.052 13.458 122.834 12.2 122.791 10.944C122.916 10.895 122.983 10.844 123.044 10.844C124.573 11.018 126.106 11.163 127.628 11.389C128.405 11.5116 129.169 11.7079 129.909 11.975C130.738 12.2066 131.506 12.6192 132.157 13.183C132.113 14.239 132.09 15.274 132.02 16.306C131.887 17.3126 131.812 18.3258 131.793 19.341C131.958 18.7214 132.085 18.0922 132.172 17.457C132.264 16.784 132.293 16.102 132.392 15.43C132.483 14.81 132.427 14.171 132.581 13.54C133.649 14.1484 134.503 15.0713 135.027 16.183C135.552 17.2947 135.72 18.541 135.51 19.752C134.027 20.1234 132.604 20.7043 131.285 21.477C129.932 22.268 128.642 23.165 127.278 24.046C127.319 23.724 127.34 23.446 127.39 23.181C127.557 22.268 127.741 21.358 127.902 20.444C127.917 20.2568 127.914 20.0685 127.892 19.882C127.479 21.482 127.122 23.082 126.612 24.595C125.685 25.514 124.774 26.374 123.912 27.282C123.05 28.19 122.223 29.132 121.412 30.082C120.601 31.032 119.812 32.007 119.044 32.999C118.276 33.991 117.529 34.999 116.832 36.034C116.135 37.069 115.485 38.146 114.865 39.234C114.245 40.322 113.696 41.427 113.003 42.734C113.003 41.383 113.003 40.277 113.013 39.171C113.019 38.098 113.049 37.025 113.04 35.952C113.09 34.878 113.056 33.8018 112.94 32.733C112.782 33.5363 112.702 34.3532 112.701 35.172C112.692 36.138 112.672 37.103 112.652 38.072C112.616 39.789 112.563 41.506 112.547 43.223C112.548 43.723 112.463 44.2195 112.297 44.691C111.275 47.5968 110.595 50.6118 110.27 53.675C110.231 54.021 110.163 54.364 110.108 54.708C109.987 54.5217 109.915 54.3077 109.899 54.086C109.554 51.136 109.274 48.18 109.164 45.212C109.071 42.712 109.012 40.206 108.971 37.702C108.911 34.126 108.893 30.548 108.83 26.972C108.888 26.0542 108.814 25.1329 108.611 24.236C108.572 24.547 108.54 24.686 108.539 24.826C108.521 27.294 108.487 29.762 108.498 32.226C108.511 35.126 108.571 38.026 108.598 40.918C108.637 45.036 108.922 49.137 109.318 53.234C109.566 55.796 110.018 58.334 110.118 60.913C110.249 64.27 110.462 67.625 110.586 70.982C110.596 72.0904 110.548 73.1986 110.442 74.302C110.399 74.9085 110.232 75.4997 109.951 76.039C109.784 75.9207 109.653 75.7572 109.575 75.5675C109.497 75.3778 109.475 75.1698 109.511 74.968C109.505 72.6421 109.38 70.3181 109.137 68.005C108.57 62.5623 107.996 57.12 107.417 51.678C107.381 51.4492 107.333 51.2225 107.273 50.999C107.189 51.9978 107.201 53.0024 107.309 53.999C107.65 57.523 107.998 61.0466 108.353 64.57C108.644 67.418 108.909 70.27 109.016 73.128C109.063 73.6215 109.045 74.119 108.963 74.608C108.592 74.533 108.484 74.233 108.283 74.047C108.048 73.83 107.843 73.581 107.583 73.307C107.291 71.907 106.99 70.468 106.694 69.033C105.596 63.8155 104.807 58.5376 104.333 53.227C104.118 50.697 103.896 48.168 103.684 45.637C103.659 45.243 103.568 44.8561 103.413 44.493C103.407 44.924 103.394 45.101 103.404 45.277C103.512 47.061 103.615 48.846 103.734 50.63C104.041 55.5945 104.643 60.5365 105.534 65.43C105.934 67.575 106.373 69.712 106.789 71.854C106.832 72.078 106.969 72.311 106.798 72.554C106.723 72.496 106.643 72.465 106.62 72.41C106.537 72.2129 106.466 72.0108 106.408 71.805C105.308 67.694 104.208 63.58 103.317 59.416C103.242 59.064 103.161 58.716 103.082 58.362C103.009 58.5308 102.986 58.7174 103.017 58.899C103.381 61.3039 103.873 63.6877 104.491 66.04C104.917 67.777 105.376 69.506 105.808 71.24C105.852 71.417 106.019 71.631 105.744 71.828C105.574 71.728 105.39 71.618 105.212 71.502C105.034 71.386 104.861 71.26 104.666 71.124C104.566 70.784 104.458 70.445 104.366 70.1C102.918 64.5973 101.666 59.0496 100.611 53.457C98.8602 44.5005 97.7789 35.4261 97.3761 26.309C97.1729 21.9479 97.3157 17.5775 97.803 13.239C97.829 13.029 97.8151 12.814 97.8201 12.602C97.5405 13.3432 97.3736 14.1222 97.3251 14.913C96.9499 18.1128 96.8062 21.3355 96.8951 24.556C96.97 29.137 97.3111 33.703 97.8251 38.256C98.6947 45.9358 99.9843 53.5622 101.688 61.101C102.357 64.067 103.111 67.014 103.816 69.972C103.868 70.192 104.063 70.427 103.823 70.7L100.568 69.286ZM111.26 79.613C111.365 79.5283 111.476 79.4517 111.593 79.384C112.626 78.879 113.524 78.1347 114.211 77.213C115.519 75.5382 116.356 73.5451 116.637 71.439C116.863 69.8795 116.893 68.2979 116.726 66.731C116.536 64.9529 116.25 63.1863 115.869 61.439C115.374 58.948 114.936 56.448 114.669 53.921C114.402 51.2148 114.371 48.4906 114.574 45.779C114.646 45.0679 114.761 44.3616 114.916 43.664C115.206 42.3722 115.599 41.1058 116.091 39.877C116.708 38.1193 117.575 36.4601 118.667 34.951C120.639 32.2702 122.78 29.7187 125.078 27.312C126.985 25.3679 129.151 23.6965 131.515 22.345C132.62 21.6805 133.801 21.152 135.033 20.771C135.718 20.5659 136.37 20.2656 136.971 19.879C137.566 19.478 138.229 19.1889 138.928 19.026C139.254 18.9181 139.601 18.8879 139.941 18.9377C140.282 18.9876 140.605 19.1162 140.887 19.3132C141.168 19.5103 141.4 19.7703 141.564 20.0727C141.727 20.3751 141.818 20.7114 141.828 21.055C141.843 21.1613 141.851 21.2686 141.85 21.376C141.833 22.125 141.862 22.876 141.783 23.623C141.359 27.3583 140.488 31.0292 139.189 34.557C138.283 37.081 137.369 39.602 136.494 42.136C135.758 44.264 135.1 46.42 134.357 48.546C133.028 52.3622 131.926 56.2537 131.057 60.2C130.616 62.189 130.111 64.164 129.495 66.109C128.168 70.5465 125.235 74.3302 121.268 76.721C119.099 78.0514 116.838 79.227 114.503 80.239C113.783 80.552 113.027 80.78 112.282 81.03C112.076 81.0813 111.865 81.1148 111.653 81.13C111.4 80.6623 111.265 80.1398 111.26 79.608V79.613ZM49.226 113.463C50.5621 112.475 51.7261 111.273 52.6711 109.906C53.3311 109.016 53.941 108.09 54.571 107.178C55.099 106.414 55.6051 105.632 56.1561 104.884C57.1435 103.518 58.3781 102.348 59.7961 101.436C62.6652 99.6382 66.0135 98.7561 69.396 98.907C72.0834 99.0103 74.7302 99.5963 77.2101 100.637C80.3581 101.905 83.51 103.171 86.732 104.242C89.6501 105.238 92.7288 105.679 95.8091 105.542C96.0103 105.554 96.2107 105.579 96.409 105.615C95.8521 105.815 95.524 105.944 95.187 106.046C90.9278 107.328 86.4494 107.717 82.0331 107.186C80.719 107.034 79.404 106.886 78.092 106.71C75.1407 106.309 72.1382 106.528 69.2761 107.352C67.4231 107.887 65.5961 108.518 63.7761 109.146C61.647 109.879 59.5401 110.678 57.41 111.409C55.1172 112.219 52.7648 112.85 50.3741 113.295C49.994 113.356 49.609 113.402 49.226 113.458V113.463ZM111.192 78.528C111.314 78.058 111.381 77.787 111.456 77.518C111.882 76.0368 112.066 74.4968 112.002 72.957C111.829 69.491 111.51 66.038 111.184 62.584C110.817 59.1655 110.869 55.715 111.337 52.309C111.458 51.496 111.637 50.691 111.788 49.883C112.282 47.243 113.125 44.6803 114.293 42.262C114.408 42.025 114.55 41.801 114.715 41.508C114.732 41.6051 114.734 41.7041 114.723 41.802C114.204 43.2138 113.888 44.6922 113.784 46.193C113.561 48.7604 113.573 51.3429 113.822 53.908C114.062 56.508 114.522 59.08 115.013 61.645C115.287 63.085 115.56 64.527 115.75 65.98C116.116 68.2846 116.005 70.6399 115.424 72.9C114.956 74.6362 114.045 76.2212 112.781 77.5C112.345 77.9686 111.799 78.3203 111.192 78.523V78.528Z" fill="url(#paint1_linear)"/>
<defs>
<linearGradient id="paint0_linear" x1="7369.35" y1="31666" x2="24046.2" y2="31637.5" gradientUnits="userSpaceOnUse">
<stop stop-color="#E8C46F"/>
<stop offset="0.24" stop-color="#BB842C"/>
<stop offset="0.515" stop-color="#7D5723"/>
<stop offset="0.857" stop-color="#E8C46F"/>
</linearGradient>
<linearGradient id="paint1_linear" x1="-16970.7" y1="48505.2" x2="-56099.7" y2="48403.1" gradientUnits="userSpaceOnUse">
<stop stop-color="#E8C46F"/>
<stop offset="0.24" stop-color="#BB842C"/>
<stop offset="0.515" stop-color="#7D5723"/>
<stop offset="0.857" stop-color="#E8C46F"/>
</linearGradient>
</defs>
</svg>
