<svg width="534" height="1341" viewBox="0 0 534 1341" fill="none" xmlns="http://www.w3.org/2000/svg">
<path opacity="0.8" d="M505.663 1178.39C505.314 1178.82 505.527 1179.29 505.576 1179.74C506.022 1183.47 506.116 1187.23 505.859 1190.97C505.304 1198.52 503.502 1205.95 500.515 1213C497.637 1219.93 493.741 1226.47 488.934 1232.43C480.148 1243.33 469.2 1252.59 456.669 1259.72C445.877 1265.98 434.025 1270.54 421.604 1273.2C412.771 1275.06 403.701 1275.8 394.651 1275.38C393.969 1275.27 393.27 1275.29 392.596 1275.44C392.46 1275.83 392.303 1276.26 392.173 1276.7C390.228 1283.36 386.433 1289.43 381.163 1294.33C377.349 1297.84 372.969 1300.79 368.179 1303.07C362.313 1305.86 356.051 1307.87 349.576 1309.04C340.945 1310.65 332.146 1311.36 323.344 1311.15C316.207 1311.01 309.086 1310.47 302.021 1309.52C297.19 1308.9 292.377 1308.17 287.601 1307.25C283.369 1306.43 279.166 1305.47 274.962 1304.55C268.89 1303.22 262.903 1301.61 256.964 1299.85C250.931 1298.07 244.934 1296.18 238.933 1294.3C234.124 1292.8 229.328 1291.25 224.534 1289.71C220.262 1288.33 216.001 1286.92 211.731 1285.54C209.453 1284.8 207.17 1284.08 204.882 1283.37C195.255 1280.36 185.545 1277.62 175.73 1275.18C169.416 1273.62 163.045 1272.26 156.616 1271.16C144.466 1269 132.114 1267.95 119.741 1268.04C104.426 1268.28 89.2602 1270.86 74.8537 1275.65C66.6839 1278.28 58.7739 1281.56 51.2103 1285.44C38.6734 1291.93 27.7371 1300.76 19.094 1311.36C14.6654 1316.63 10.5648 1322.14 6.81183 1327.84C4.1788 1331.9 1.99823 1336.2 0.303406 1340.66C0.281067 1340.73 0.242584 1340.8 0.190369 1340.86C0.138153 1340.92 0.0733032 1340.97 0 1341C0.444855 1339.74 0.844879 1338.46 1.34143 1337.21C3.35281 1332.41 5.91452 1327.82 8.98309 1323.52C12.8153 1317.92 16.9991 1312.52 21.5129 1307.36C29.5841 1298.13 39.5164 1290.43 50.7627 1284.67C68.2941 1275.55 87.6471 1269.79 107.657 1267.74C116.863 1266.87 126.137 1266.81 135.356 1267.54C140.771 1267.93 146.157 1268.54 151.517 1269.35C156.478 1270.1 161.405 1271.02 166.31 1272.05C175.883 1274.05 185.315 1276.52 194.661 1279.27C200.647 1281.02 206.588 1282.93 212.539 1284.8C216.918 1286.18 221.282 1287.59 225.649 1289C230.348 1290.51 235.037 1292.04 239.742 1293.56C242.069 1294.31 244.401 1295.04 246.741 1295.75C255.088 1298.33 263.474 1300.78 271.992 1302.86C277.875 1304.29 283.797 1305.57 289.776 1306.63C298.455 1308.22 307.234 1309.3 316.061 1309.88C326.701 1310.62 337.4 1310.1 347.896 1308.33C354.792 1307.2 361.465 1305.12 367.695 1302.17C374.038 1299.19 379.598 1294.97 383.986 1289.8C387.185 1285.92 389.572 1281.52 391.025 1276.83C391.277 1276.34 391.326 1275.79 391.161 1275.27C390.795 1275.17 390.422 1275.1 390.046 1275.04C383.332 1274.43 376.719 1273.09 370.339 1271.07C358.143 1267.39 347.143 1260.94 338.347 1252.33C334.709 1248.78 331.746 1244.7 329.58 1240.24C327.856 1236.78 326.918 1233.02 326.824 1229.21C326.766 1227.07 327.152 1224.95 327.961 1222.94C329.162 1219.95 331.587 1217.51 334.717 1216.14C337.23 1215.06 339.97 1214.49 342.744 1214.49C345.513 1214.43 348.278 1214.7 350.973 1215.29C363.248 1217.86 374.241 1224.13 382.212 1233.1C389.708 1241.37 393.861 1251.77 393.962 1262.54C394.06 1266.11 393.761 1269.68 393.069 1273.19C393.017 1273.46 392.986 1273.74 392.947 1273.99C393.356 1274.43 393.9 1274.35 394.377 1274.38C409.047 1275.05 423.699 1272.75 437.296 1267.62C457.114 1260.42 474.412 1248.35 487.314 1232.72C491.266 1227.98 494.621 1222.83 497.316 1217.39C500.11 1211.83 502.181 1205.99 503.487 1199.98C505.052 1192.74 505.298 1185.31 504.215 1178L505.663 1178.39ZM391.656 1274.19C391.829 1273.54 391.988 1273.06 392.079 1272.56C392.816 1268.64 393.049 1264.64 392.775 1260.66C392.272 1250.86 388.318 1241.47 381.51 1233.92C373.582 1224.91 362.568 1218.65 350.274 1216.17C347.722 1215.64 345.105 1215.41 342.49 1215.49C339.866 1215.52 337.281 1216.09 334.927 1217.16C333.236 1217.94 331.761 1219.07 330.614 1220.46C329.467 1221.85 328.678 1223.46 328.307 1225.17C327.846 1227.17 327.747 1229.23 328.014 1231.25C328.485 1235.09 329.765 1238.8 331.781 1242.18C334.763 1247.24 338.697 1251.77 343.4 1255.56C351.442 1262.19 360.894 1267.2 371.153 1270.28C376.545 1271.93 382.094 1273.12 387.726 1273.82C388.964 1273.96 390.21 1274.05 391.656 1274.19Z" fill="url(#paint0_linear)"/>
<path opacity="0.8" d="M479.373 129.108C479.399 130.176 479.412 131.245 479.404 132.308C479.342 140.518 478.943 148.715 478.296 156.897C477.851 162.523 477.317 168.143 476.733 173.756C476.262 178.275 475.689 182.784 475.101 187.289C474.625 190.937 474.089 194.578 473.525 198.214C472.935 202.021 472.309 205.823 471.646 209.619C470.939 213.646 470.206 217.67 469.413 221.681C468.57 225.94 467.681 230.19 466.745 234.429C464.634 243.984 462.323 253.491 459.669 262.911C458.548 266.892 457.405 270.867 456.212 274.827C455.15 278.35 454.032 281.856 452.891 285.354C451.906 288.373 450.883 291.38 449.821 294.374C448.501 298.074 447.177 301.774 445.744 305.438C444.042 309.785 442.275 314.107 440.444 318.402C437.444 325.469 434.119 332.38 430.47 339.137C426.929 345.824 422.908 352.246 418.439 358.352C415.864 361.929 413.002 365.29 409.882 368.403C408.157 370.105 406.329 371.699 404.408 373.175C402.979 374.259 401.471 375.236 399.898 376.097C399.787 376.158 399.678 376.221 399.564 376.273C399.464 376.339 399.349 376.377 399.23 376.384C399.11 376.391 398.991 376.367 398.885 376.313C398.778 376.259 398.687 376.178 398.622 376.078C398.557 375.978 398.519 375.862 398.513 375.743C398.192 373.994 398.022 372.221 398.005 370.443C397.956 365.63 398.271 360.82 398.947 356.054C399.309 353.263 399.71 350.475 400.189 347.702C400.865 343.802 401.569 339.895 402.373 336.015C403.288 331.595 404.28 327.189 405.321 322.797C406.409 318.206 407.561 313.629 408.748 309.062C409.788 305.062 410.905 301.075 412.004 297.087C412.539 295.146 413.104 293.213 413.664 291.28C414.36 288.895 415.064 286.512 415.776 284.131C416.376 282.112 416.986 280.095 417.607 278.08C418.297 275.841 418.997 273.605 419.707 271.371C420.355 269.317 421.001 267.262 421.664 265.212C422.385 262.983 423.122 260.759 423.857 258.534C424.542 256.459 425.225 254.383 425.927 252.313C426.775 249.813 427.639 247.313 428.502 244.819C429.31 242.486 430.115 240.153 430.943 237.828C431.987 234.895 433.044 231.966 434.113 229.043C435.322 225.736 436.527 222.426 437.775 219.133C439.47 214.666 441.188 210.207 442.929 205.754C444.635 201.407 446.35 197.063 448.137 192.754C450.507 187.031 452.918 181.326 455.371 175.638C458.811 167.652 462.433 159.749 466.237 151.929C469.616 144.969 473.104 138.066 476.937 131.342C477.505 130.342 478.097 129.362 478.687 128.378C478.787 128.214 478.861 127.994 479.235 128C479.299 128.367 479.345 128.737 479.373 129.108ZM415.835 360.535C419.304 356.099 422.487 351.446 425.365 346.605C429.288 340.027 432.87 333.252 436.095 326.305C438.354 321.493 440.495 316.63 442.47 311.694C444.19 307.387 445.857 303.059 447.47 298.71C448.677 295.469 449.807 292.198 450.913 288.921C452.089 285.435 453.226 281.935 454.325 278.421C455.377 275.059 456.381 271.682 457.367 268.3C460.714 256.818 463.617 245.222 466.176 233.54C466.987 229.837 467.76 226.125 468.495 222.406C469.277 218.441 470.012 214.465 470.728 210.487C471.316 207.22 471.871 203.949 472.392 200.672C472.918 197.364 473.411 194.051 473.872 190.733C474.346 187.369 474.816 184.005 475.212 180.633C475.748 176.073 476.264 171.51 476.693 166.94C477.161 161.962 477.585 156.979 477.909 151.991C478.247 146.799 478.456 141.598 478.697 136.4C478.797 134.264 478.832 132.126 478.897 129.989C478.908 129.802 478.879 129.615 478.812 129.44C478.719 129.589 478.62 129.74 478.534 129.89C475.383 135.515 472.367 141.212 469.487 146.98C465.645 154.659 462.018 162.439 458.523 170.28C455.528 177.002 452.631 183.766 449.833 190.571C447.857 195.403 445.891 200.239 443.974 205.093C442.264 209.422 440.617 213.775 438.962 218.124C437.782 221.225 436.621 224.332 435.478 227.447C434.511 230.073 433.569 232.709 432.627 235.347C431.622 238.161 430.626 240.977 429.637 243.796C428.879 245.963 428.137 248.137 427.403 250.31C426.613 252.633 425.828 254.957 425.047 257.282C424.438 259.101 423.847 260.926 423.247 262.75C422.603 264.723 421.963 266.697 421.327 268.673C420.784 270.366 420.248 272.06 419.721 273.757C419.116 275.69 418.516 277.628 417.921 279.57C417.445 281.118 416.976 282.668 416.514 284.221C415.804 286.603 415.099 288.986 414.4 291.37C413.805 293.409 413.222 295.45 412.649 297.495C411.898 300.176 411.149 302.858 410.427 305.546C409.688 308.296 408.956 311.046 408.264 313.81C407.264 317.823 406.243 321.834 405.326 325.868C404.266 330.531 403.252 335.205 402.326 339.896C401.573 343.706 400.934 347.541 400.326 351.377C399.661 355.571 399.17 359.79 398.908 364.031C398.707 366.808 398.696 369.595 398.875 372.373C398.89 372.573 398.915 372.767 398.935 372.963H399.027C399.109 372.508 399.194 372.052 399.273 371.596C399.592 369.735 399.889 367.871 400.23 366.015C400.798 362.921 401.373 359.828 401.98 356.741C403.751 347.741 405.71 338.782 407.857 329.865C409.452 323.292 411.125 316.737 412.792 310.182C413.623 306.92 414.503 303.67 415.392 300.423C416.242 297.313 417.124 294.211 418.002 291.108C418.744 288.491 419.495 285.876 420.254 283.262C421.079 280.437 421.919 277.617 422.773 274.803C423.498 272.394 424.231 269.987 424.973 267.582C425.779 264.982 426.603 262.391 427.424 259.797C428.065 257.773 428.704 255.749 429.362 253.73C430.18 251.218 431.008 248.709 431.845 246.203C432.519 244.174 433.199 242.147 433.884 240.121C434.624 237.948 435.373 235.778 436.132 233.611C436.932 231.324 437.735 229.04 438.54 226.757C439.298 224.624 440.065 222.493 440.84 220.366C441.665 218.106 442.498 215.85 443.34 213.597C444.293 211.049 445.256 208.505 446.229 205.965C447.217 203.397 448.217 200.834 449.229 198.277C450.32 195.53 451.413 192.783 452.547 190.054C454.147 186.192 455.766 182.334 457.424 178.495C459.96 172.62 462.578 166.782 465.448 161.06C465.548 160.867 465.584 160.592 465.89 160.604C466.115 160.782 465.99 160.955 465.915 161.122C465.415 162.209 464.915 163.291 464.426 164.382C462.155 169.463 459.862 174.534 457.626 179.631C456.156 182.986 454.753 186.371 453.362 189.759C451.988 193.104 450.652 196.459 449.325 199.828C448.125 202.87 446.944 205.92 445.782 208.977C444.782 211.607 443.805 214.247 442.833 216.888C441.78 219.751 440.738 222.618 439.705 225.488C438.788 228.049 437.894 230.618 437.005 233.188C436.035 235.98 435.074 238.775 434.121 241.574C433.313 243.957 432.526 246.347 431.738 248.737C430.877 251.35 430.016 253.964 429.173 256.583C428.379 259.053 427.604 261.53 426.828 264.006C426.108 266.302 425.393 268.6 424.684 270.899C424.19 272.507 423.717 274.122 423.234 275.734C422.734 277.392 422.234 279.048 421.746 280.707C421.184 282.607 420.626 284.507 420.073 286.407C419.431 288.628 418.796 290.851 418.167 293.076C417.7 294.726 417.24 296.378 416.787 298.032C415.951 301.099 415.12 304.165 414.295 307.232C413.601 309.832 412.92 312.434 412.251 315.039C410.038 323.648 407.964 332.29 406.03 340.966C404.992 345.633 404.002 350.311 403.06 355.002C402.3 358.747 401.602 362.502 400.92 366.267C400.387 369.207 399.92 372.159 399.42 375.106C399.407 375.182 399.406 375.26 399.391 375.433C399.591 375.345 399.739 375.291 399.877 375.215C401.66 374.212 403.357 373.061 404.949 371.776C407.51 369.714 409.893 367.439 412.072 364.976C412.393 364.61 412.678 364.213 412.923 363.791C415.314 359.757 417.454 355.591 419.486 351.366C422.37 345.366 425.026 339.273 427.498 333.098C429.285 328.632 431.007 324.139 432.707 319.639C433.929 316.404 435.091 313.145 436.237 309.881C437.477 306.348 438.689 302.807 439.874 299.26C440.913 296.159 441.927 293.05 442.916 289.931C444.024 286.455 445.113 282.973 446.183 279.485C447.013 276.779 447.806 274.061 448.6 271.344C449.539 268.128 450.468 264.909 451.388 261.688C452.129 259.07 452.843 256.444 453.552 253.817C454.477 250.384 455.41 246.954 456.294 243.51C457.494 238.833 458.66 234.146 459.826 229.46C461.745 221.75 463.482 213.998 465.163 206.233C465.972 202.5 466.75 198.757 467.499 195.006C468.18 191.629 468.837 188.247 469.468 184.861C470.04 181.816 470.59 178.767 471.117 175.714C471.629 172.77 472.121 169.823 472.593 166.873C472.983 164.452 473.354 162.028 473.707 159.6C474.107 156.847 474.489 154.091 474.868 151.335C475.108 149.591 475.326 147.844 475.559 146.099C475.597 145.774 475.678 145.456 475.8 145.152C475.7 146.305 475.606 147.46 475.486 148.611C475.301 150.392 475.104 152.172 474.897 153.953C474.74 155.295 474.562 156.636 474.382 157.976C474.165 159.596 473.945 161.216 473.71 162.834C473.454 164.592 473.183 166.348 472.91 168.104C472.678 169.611 472.446 171.119 472.2 172.624C471.915 174.362 471.622 176.099 471.319 177.834C470.959 179.91 470.592 181.985 470.219 184.059C469.937 185.623 469.655 187.186 469.346 188.744C468.413 193.45 467.492 198.159 466.519 202.857C465.737 206.63 464.924 210.399 464.056 214.157C462.468 221.024 460.849 227.883 459.2 234.734C458.206 238.847 457.128 242.94 456.056 247.034C455.131 250.567 454.181 254.091 453.206 257.604C452.144 261.439 451.06 265.268 449.953 269.091C448.933 272.61 447.888 276.123 446.819 279.628C445.814 282.938 444.787 286.242 443.737 289.539C442.733 292.701 441.708 295.856 440.661 299.005C439.661 302.019 438.643 305.029 437.592 308.026C436.364 311.526 435.127 315.026 433.83 318.502C432.186 322.902 430.53 327.302 428.788 331.672C425.438 340.089 421.832 348.395 417.709 356.472C417.015 357.83 416.289 359.172 415.578 360.521L415.339 360.976L415.415 361.048C415.562 360.87 415.701 360.703 415.835 360.535Z" fill="url(#paint1_linear)"/>
<path opacity="0.8" d="M403.352 382.015C403.473 381.915 403.68 381.828 403.772 381.669C403.86 381.473 403.907 381.262 403.911 381.048C404.06 379.624 404.202 378.199 404.345 376.775C404.367 376.561 404.377 376.347 404.401 376.133C404.601 374.39 404.801 372.648 404.991 370.904C405.517 366.064 406.113 361.231 406.541 356.382C407.228 348.607 408.117 340.855 409.025 333.105C411.19 314.615 413.5 296.143 415.955 277.69C417.486 266.084 418.922 254.466 420.476 242.864C420.799 240.451 421.1 238.035 421.476 235.629C422.905 226.394 423.898 217.101 425.201 207.849C425.615 204.908 426.148 201.984 426.626 199.049C427.026 196.576 427.414 194.1 427.836 191.63C428.511 187.679 429.21 183.73 429.899 179.783C429.924 179.642 429.95 179.501 429.973 179.36C430.352 177.065 430.731 174.77 431.111 172.474C431.625 169.4 431.97 166.304 432.244 163.202C432.451 160.346 432.435 157.478 432.194 154.624C432.006 151.876 431.855 149.124 431.726 146.375C431.684 145.445 431.704 144.513 431.784 143.586C432.204 138.664 432.627 133.742 433.409 128.859C433.743 126.774 434.068 124.688 434.409 122.603C434.898 119.603 435.393 116.603 435.894 113.603C436.199 111.767 436.509 109.934 436.825 108.103C436.866 107.859 436.925 107.618 436.97 107.38C437.064 107.317 437.165 107.264 437.27 107.221C438.948 106.713 440.589 106.088 442.18 105.35C443.133 104.939 444.08 104.533 444.994 104.028C447.118 102.814 448.932 101.125 450.294 99.093C452.085 96.493 453.371 93.5788 454.084 90.503C454.4 89.143 454.622 87.7632 454.75 86.373C454.786 86.023 454.837 85.673 454.896 85.207C455.052 85.3308 455.195 85.4702 455.323 85.623C455.985 86.686 456.662 87.741 457.281 88.829C457.847 89.829 458.337 90.861 458.876 91.872C459.565 93.172 460.246 94.472 460.976 95.742C463.649 100.445 467.649 104.254 472.476 106.695C474.783 107.929 477.236 108.869 479.776 109.495C481.454 109.872 483.166 110.078 484.885 110.11C487.284 110.11 489.674 109.839 492.012 109.302C494.222 108.863 496.447 108.49 498.643 107.991C500.435 107.59 502.311 107.831 503.943 108.672C505.462 109.4 506.922 110.23 508.363 111.096C509.498 111.777 510.623 112.474 511.752 113.165C514.956 115.146 518.506 116.503 522.215 117.165C524.755 117.644 527.367 117.576 529.878 116.965C530.434 116.83 530.977 116.644 531.499 116.411C532.371 116.055 533.091 115.405 533.533 114.573C533.976 113.741 534.112 112.78 533.918 111.858C533.744 110.83 533.374 109.846 532.828 108.958C532.087 107.729 531.143 106.635 530.035 105.722C528.436 104.396 526.696 103.249 524.847 102.303C523.355 101.527 521.855 100.767 520.356 100.003C517.072 98.3233 513.99 96.2744 511.17 93.896C507.982 91.1788 504.956 88.2768 502.108 85.205C500.408 83.411 498.713 81.616 496.983 79.854C495.68 78.5237 494.295 77.2763 492.836 76.119C490.831 74.4916 488.553 73.2343 486.107 72.406C483.617 71.6011 481.013 71.2026 478.396 71.226C475.961 71.2527 473.54 71.6001 471.196 72.259C470.989 72.315 470.78 72.359 470.588 72.406C470.422 72.249 470.53 72.133 470.602 72.017C470.979 71.409 471.375 70.817 471.732 70.193C472.563 68.6884 473.203 67.0861 473.637 65.423C474.196 63.423 474.728 61.423 475.177 59.393C476.061 55.557 477.167 51.7757 478.489 48.068C479.252 45.868 479.936 43.648 480.695 41.451C481.549 38.983 482.459 36.535 483.324 34.07C484.467 30.8265 485.242 27.4652 485.636 24.049C485.769 23.163 485.798 22.2647 485.724 21.372C485.695 21.124 485.665 20.872 485.624 20.629C485.57 20.2364 485.436 19.859 485.231 19.5202C485.025 19.1814 484.752 18.8883 484.429 18.659C484.106 18.4297 483.739 18.2691 483.352 18.187C482.964 18.105 482.563 18.1033 482.175 18.182C481.614 18.2866 481.066 18.4543 480.543 18.682C480.254 18.8058 479.973 18.9484 479.703 19.109C479.443 19.015 479.539 18.809 479.512 18.653C479.455 18.336 479.419 18.016 479.362 17.699C479.146 16.5137 478.659 15.3944 477.938 14.4287C477.218 13.463 476.284 12.6769 475.209 12.132C473.845 11.3363 472.346 10.8018 470.786 10.556C469.618 10.384 468.446 10.216 467.27 10.126C466.841 10.1184 466.421 10.0038 466.047 9.79267C465.673 9.58156 465.358 9.28058 465.13 8.91697C463.435 6.50878 461.281 4.45976 458.791 2.88797C457.239 1.85452 455.522 1.09171 453.715 0.631963C448.215 -0.857037 443.223 0.346961 438.667 3.59296C434.796 6.33483 432.082 10.4168 431.05 15.047C430.624 16.7865 430.389 18.5674 430.35 20.358C430.292 23.077 430.234 25.795 430.161 28.513C430.14 29.3 430.076 30.086 430.017 30.871C429.961 31.5157 429.761 32.1395 429.43 32.696C429.145 33.1926 428.855 33.6863 428.559 34.177C427.632 35.7155 427.06 37.4414 426.885 39.229C426.677 41.4042 426.749 43.5971 427.099 45.754C427.395 47.6639 427.795 49.5561 428.299 51.422C428.828 53.3564 429.543 55.2354 430.432 57.033C431.087 58.386 431.767 59.728 432.427 61.078C432.661 61.557 432.871 62.049 433.087 62.525C432.867 62.725 432.803 62.516 432.747 62.439C432.264 61.773 431.792 61.098 431.323 60.421C429.874 58.333 428.412 56.254 426.985 54.151C425.09 51.2834 423.419 48.2745 421.985 45.151C421.51 44.151 421.045 43.141 420.536 42.151C419.697 40.4856 418.616 38.9536 417.328 37.605C417.153 37.425 416.982 37.24 416.794 37.076C414.538 35.026 411.956 33.3671 409.154 32.168C407.598 31.543 405.974 31.079 404.367 30.589C402.383 29.9836 400.39 29.4063 398.389 28.857C396.389 28.311 394.376 27.802 392.361 27.31C389.061 26.505 385.742 25.76 382.446 24.928C380.273 24.3279 378.135 23.6115 376.039 22.782C373.29 21.762 370.539 20.732 367.771 19.782C364.993 18.8315 362.146 18.098 359.255 17.588C356.643 17.0953 353.955 17.1717 351.375 17.812C349.738 18.2214 348.199 18.9544 346.849 19.968C345.222 21.166 344.005 22.8366 343.362 24.752C342.864 26.1105 342.88 27.6042 343.406 28.952C344.129 30.7908 345.22 32.4621 346.613 33.863C347.928 35.1836 349.412 36.3244 351.026 37.256C352.658 38.2236 354.208 39.323 355.661 40.543C356.605 41.314 357.353 42.2988 357.841 43.416C360.17 48.6884 364.481 52.8322 369.841 54.951C372.181 55.9385 374.57 56.8063 376.998 57.551C380.051 58.4782 383.21 59.0158 386.398 59.151C386.934 59.177 387.469 59.227 388.005 59.251C389.505 59.318 391.005 59.375 392.505 59.441C393.102 59.4121 393.699 59.4796 394.274 59.641C394.064 59.81 393.939 59.931 393.796 60.023C391.999 61.2016 390.29 62.5094 388.683 63.936C386.116 66.1688 383.363 68.1791 380.454 69.945C378.001 71.4281 375.713 73.169 373.629 75.138C370.702 77.9095 368.563 81.4078 367.429 85.276C366.984 86.6744 366.66 88.1087 366.462 89.563C366.213 91.7043 366.46 93.8742 367.183 95.905C367.548 96.9563 368.08 97.9422 368.758 98.825C370.047 100.589 371.173 102.467 372.123 104.434C372.773 105.71 373.502 106.944 374.306 108.129C376.2 110.909 379.046 112.901 382.306 113.729C386.158 114.772 390.203 114.882 394.106 114.049C396.346 113.595 398.55 112.983 400.703 112.217C403.069 111.394 405.422 110.535 407.78 109.693C409.59 109.015 411.435 108.437 413.308 107.962C415.68 107.397 418.132 107.245 420.556 107.515C421.943 107.669 423.331 107.828 424.715 108.015C428.164 108.451 431.66 108.346 435.077 107.704C435.318 107.66 435.562 107.629 435.877 107.58C435.888 107.769 435.886 107.958 435.871 108.147C435.371 111.221 434.855 114.292 434.358 117.366C433.936 119.981 433.579 122.607 433.112 125.213C432.322 129.622 431.754 134.058 431.324 138.513C431.146 140.366 430.967 142.22 430.848 144.077C430.762 145.793 430.784 147.512 430.914 149.225C431.075 151.832 431.253 154.437 431.414 157.044C431.512 158.795 431.501 160.55 431.383 162.299C431.174 165.626 430.773 168.929 430.244 172.217C429.659 175.857 429.052 179.493 428.424 183.126C427.824 186.618 427.197 190.105 426.587 193.595C426.458 194.335 426.364 195.082 426.239 195.823C425.774 198.576 425.3 201.323 424.839 204.08C424.702 204.892 424.58 205.706 424.473 206.523C423.652 212.842 422.857 219.164 422.014 225.481C421.414 229.951 420.739 234.41 420.131 238.881C419.286 245.089 418.446 251.297 417.649 257.511C415.176 276.792 412.716 296.075 410.268 315.361C409.438 321.894 408.638 328.432 407.868 334.975C407.329 339.525 406.825 344.079 406.358 348.638C405.833 353.73 405.383 358.829 404.858 363.921C404.458 367.873 403.983 371.821 403.551 375.769C403.451 376.729 403.39 377.695 403.284 378.655C403.225 379.185 403.1 379.708 403.022 380.236C402.96 380.624 402.92 381.015 402.901 381.407C402.89 381.546 402.93 381.684 403.013 381.795C403.096 381.907 403.216 381.985 403.352 382.015ZM478.828 91.07L478.886 91.019C478.68 90.6433 478.384 90.3243 478.025 90.09C475.501 87.8662 472.758 85.9026 469.84 84.229C467.522 82.8772 465.065 81.7788 462.512 80.953L460.163 80.189C460.829 79.6374 461.583 79.2014 462.393 78.899C465.326 79.3594 468.213 80.0792 471.019 81.05C475.449 82.5749 479.732 84.4999 483.813 86.801C489.141 89.8085 494.198 93.2739 498.925 97.158C499.564 97.676 500.206 98.191 500.849 98.703C500.949 98.786 501.065 98.872 501.198 98.703C501.098 98.603 500.998 98.496 500.893 98.403C499.793 97.487 498.708 96.555 497.593 95.664C491.282 90.5436 484.336 86.2595 476.928 82.918C473.997 81.5875 470.962 80.4985 467.853 79.662C466.608 79.34 465.353 79.072 464.097 78.771C463.758 78.7576 463.434 78.6248 463.183 78.396C463.364 78.278 463.5 78.178 463.646 78.096C463.792 78.014 463.966 77.944 464.146 77.861C464.746 77.894 465.357 77.903 465.961 77.961C468.739 78.2251 471.494 78.6944 474.203 79.365C476.56 79.9631 478.867 80.7445 481.103 81.702C484.768 83.3208 488.274 85.279 491.574 87.551C494.514 89.528 497.332 91.671 500.16 93.802C503.215 96.1046 506.282 98.3926 509.36 100.666C510.251 101.321 511.208 101.886 512.142 102.482C512.331 102.552 512.528 102.599 512.729 102.622C511.561 101.809 510.543 101.144 509.572 100.422C506.105 97.8286 502.65 95.2233 499.207 92.606C495.704 89.8803 492.065 87.3347 488.303 84.979C482.896 81.59 476.886 79.2739 470.603 78.157C469.122 77.907 467.625 77.757 466.135 77.557C465.824 77.515 465.515 77.465 465.205 77.419C466.281 77.1742 467.389 77.1087 468.486 77.225C470.34 77.357 472.186 77.616 474.03 77.847C474.703 77.931 475.367 78.087 476.03 78.213C476.768 78.352 477.504 78.495 478.241 78.636L478.216 78.66C478.165 78.441 477.979 78.421 477.807 78.382C476.796 78.154 475.785 77.923 474.773 77.7C472.574 77.1951 470.329 76.921 468.073 76.882C467.622 76.9046 467.172 76.8366 466.748 76.682C467.261 76.591 467.603 76.516 467.948 76.471C470.86 76.0911 473.81 76.1069 476.718 76.518C477.461 76.623 478.193 76.798 478.933 76.927C481.117 77.3095 483.266 77.8673 485.36 78.595C485.479 78.6632 485.611 78.7043 485.747 78.7154C485.883 78.7265 486.02 78.7072 486.148 78.659C485.748 78.496 485.409 78.339 485.054 78.213C482.112 77.1891 479.072 76.4746 475.982 76.081C474.599 75.8935 473.203 75.8079 471.807 75.825C470.377 75.8461 468.949 75.9497 467.531 76.135C467.301 76.1399 467.071 76.1255 466.844 76.092L468.914 74.065C468.96 74.0097 469.013 73.9606 469.071 73.919C469.283 73.7905 469.507 73.6817 469.739 73.594C470.456 73.371 471.177 73.157 471.904 72.969C475.475 72.0049 479.215 71.8379 482.858 72.48C485.437 72.9321 487.904 73.8832 490.119 75.28C491.53 76.1968 492.862 77.2293 494.102 78.367C496.264 80.305 498.251 82.415 500.23 84.535C502.942 87.435 505.701 90.296 508.665 92.948C512.021 96.0211 515.764 98.6432 519.799 100.748C521.329 101.526 522.864 102.294 524.39 103.082C526.21 104.004 527.921 105.128 529.49 106.432C530.518 107.271 531.389 108.287 532.06 109.432C532.121 109.539 532.255 109.656 532.101 109.795C531.06 109.235 530.034 108.654 528.982 108.126C527.968 107.545 526.884 107.095 525.756 106.788C528.122 107.906 530.408 109.185 532.599 110.616C532.94 111.212 533.073 111.905 532.977 112.585C532.744 112.457 532.532 112.356 532.336 112.228C531.228 111.506 530.136 110.758 529.014 110.056C526.93 108.734 524.741 107.586 522.468 106.623C522.368 106.56 522.255 106.52 522.138 106.507C522.021 106.493 521.902 106.506 521.79 106.545C522.78 107.035 523.735 107.485 524.668 107.977C525.648 108.494 526.619 109.031 527.568 109.597C528.49 110.144 529.393 110.724 530.287 111.317C531.224 111.898 532.126 112.535 532.987 113.224C532.951 113.679 532.798 114.118 532.542 114.496C532.286 114.874 531.936 115.18 531.527 115.383C530.96 115.687 530.359 115.922 529.737 116.083C527.406 116.683 524.974 116.77 522.606 116.338C519.348 115.812 516.212 114.706 513.344 113.073C512.101 112.364 510.885 111.609 509.661 110.873C507.943 109.775 506.159 108.783 504.319 107.903C503.737 107.629 503.192 107.285 502.694 106.878C500.719 105.339 498.726 103.824 496.73 102.311C496.481 102.122 496.257 101.86 495.902 101.851L495.864 101.884C496.007 102.242 496.359 102.384 496.632 102.593C498.208 103.829 499.794 105.052 501.374 106.282C501.594 106.453 501.8 106.643 502.032 106.84C501.918 106.901 501.858 106.962 501.81 106.954C500.671 106.819 499.517 106.882 498.399 107.141C495.836 107.632 493.268 108.104 490.712 108.628C488.507 109.107 486.248 109.289 483.995 109.169C482.817 109.106 481.644 108.959 480.486 108.73C477.549 108.075 474.727 106.981 472.115 105.486C467.871 103.191 464.342 99.7708 461.915 95.601C461.086 94.181 460.335 92.715 459.553 91.267C458.84 89.945 458.178 88.593 457.412 87.302C456.701 86.102 455.897 84.96 455.112 83.811C454.947 83.6059 454.835 83.3625 454.789 83.1032C454.742 82.8438 454.761 82.5769 454.845 82.327L458.126 81.04C458.387 81.122 458.594 81.177 458.794 81.252C461.656 82.3836 464.38 83.8359 466.915 85.581C471.985 89.0211 476.56 93.1378 480.515 97.817C482.329 99.8916 484.032 102.061 485.615 104.317C485.696 104.434 485.742 104.643 485.999 104.591C485.974 104.484 485.938 104.381 485.89 104.282C485.541 103.741 485.205 103.189 484.825 102.67C481.21 97.6354 476.986 93.0675 472.249 89.07C468.353 85.6859 463.944 82.9415 459.188 80.939C459.105 80.906 459.051 80.798 458.924 80.659C459.091 80.5824 459.267 80.5277 459.448 80.496C459.626 80.5058 459.801 80.5411 459.969 80.601C462.392 81.2318 464.749 82.0945 467.007 83.177C470.964 85.1116 474.653 87.5527 477.98 90.439C478.247 90.665 478.545 90.859 478.828 91.07ZM407.637 34.039L407.705 33.983C407.347 33.4957 406.918 33.0646 406.433 32.704C406.242 32.517 406.054 32.327 405.71 31.985C406.165 32.073 406.41 32.098 406.64 32.169C408.565 32.7353 410.399 33.5748 412.085 34.662C412.831 35.154 413.567 35.662 414.304 36.17C416.129 37.4463 417.674 39.0817 418.845 40.976C419.709 42.4196 420.481 43.9166 421.156 45.458C422.671 48.7808 424.46 51.9721 426.503 54.999C428.603 58.03 430.731 61.04 432.843 64.063C432.97 64.246 433.207 64.39 433.156 64.663C433.085 64.687 433.047 64.715 433.021 64.706C432.18 64.4948 431.457 63.9614 431.006 63.221C430.817 62.878 430.567 62.569 430.349 62.241C429.082 60.333 427.813 58.4256 426.541 56.519C426.447 56.379 426.394 56.15 426.064 56.164C426.205 56.417 426.301 56.607 426.414 56.787C427.327 58.243 428.245 59.695 429.154 61.152C429.234 61.279 429.408 61.424 429.159 61.614C428.926 61.343 428.685 61.082 428.465 60.803C424.849 56.2675 421.47 51.5482 418.341 46.664C418.199 46.4616 418.048 46.2667 417.886 46.08L417.795 46.146C417.877 46.3785 417.978 46.6042 418.095 46.821C419.037 48.298 419.962 49.786 420.947 51.233C422.155 53.005 423.417 54.74 424.647 56.495C424.722 56.603 424.927 56.716 424.716 56.937C424.46 56.665 424.209 56.414 423.976 56.147C423.128 55.179 422.288 54.204 421.44 53.236C421.365 53.149 421.28 52.995 421.116 53.187C421.24 53.357 421.364 53.531 421.493 53.7C421.645 53.9 421.801 54.095 421.957 54.29C422.09 54.4566 422.226 54.6233 422.364 54.79C422.5 54.955 422.638 55.12 422.776 55.284C422.937 55.475 423.098 55.667 423.262 55.856C423.402 56.019 423.545 56.179 423.686 56.34L424.186 56.903C424.327 57.064 424.468 57.226 424.611 57.386C424.754 57.546 424.898 57.704 425.043 57.863C425.211 58.048 425.38 58.232 425.548 58.418C425.692 58.577 425.833 58.738 425.978 58.896C426.123 59.054 426.272 59.209 426.417 59.367C426.587 59.55 426.756 59.735 426.925 59.919C427.07 60.077 427.215 60.2346 427.362 60.392C427.532 60.575 427.713 60.75 427.871 60.943C427.986 61.084 428.197 61.187 428.134 61.513C427.977 61.411 427.824 61.3012 427.678 61.184C426.906 60.493 426.128 59.809 425.378 59.099C424.881 58.6373 424.409 58.1499 423.963 57.639C420.491 53.596 416.889 49.675 413.03 45.997C410.749 43.7787 408.328 41.7079 405.784 39.797C405.533 39.541 405.222 39.3534 404.878 39.252L404.82 39.303C405.02 39.496 405.22 39.703 405.432 39.879C406.917 41.113 408.444 42.3 409.888 43.579C414.404 47.6598 418.644 52.0361 422.58 56.679C422.663 56.779 422.732 56.884 422.956 57.189C422.445 56.9331 421.959 56.6319 421.502 56.289C420.458 55.5305 419.306 54.9334 418.084 54.518C417.309 54.2442 416.583 53.8486 415.933 53.346C412.318 50.7126 408.618 48.205 404.833 45.823C395.889 40.1444 386.28 35.5879 376.223 32.256C376.004 32.2071 375.781 32.1773 375.556 32.167C375.632 32.241 375.656 32.277 375.684 32.289C376.622 32.633 377.561 32.9756 378.5 33.317C386.907 36.3635 394.982 40.2555 402.603 44.933C406.813 47.5136 410.918 50.252 414.918 53.148C415.118 53.293 415.44 53.373 415.431 53.719C414.331 53.619 413.264 53.482 412.194 53.435C411.516 53.4045 410.853 53.2246 410.252 52.908C406.525 51.004 402.72 49.2706 398.838 47.708C395.025 46.161 391.154 44.773 387.213 43.594C384.813 42.877 382.393 42.24 379.971 41.61C378.484 41.224 376.978 40.91 375.476 40.583C375.061 40.493 374.631 40.471 374.207 40.418C378.227 41.428 382.236 42.443 386.195 43.645C391.637 45.2912 396.974 47.2685 402.175 49.566C404.809 50.6706 407.386 51.9089 409.894 53.276C409.907 53.283 409.894 53.341 409.888 53.376C409.626 53.4731 409.347 53.5166 409.068 53.5038C408.788 53.4911 408.514 53.4225 408.262 53.302C403.735 51.8346 399.122 50.649 394.448 49.752C391.81 49.241 389.135 48.994 386.468 48.693C386.371 48.6894 386.274 48.6937 386.178 48.706C389.837 49.233 393.478 49.777 397.071 50.612C400.696 51.4265 404.276 52.4278 407.798 53.612C407.652 53.6843 407.488 53.7137 407.326 53.697C406.904 53.622 406.486 53.522 406.068 53.424C403.735 52.879 401.403 52.324 399.068 51.791C398.686 51.703 398.29 51.669 397.9 51.617C397.546 51.569 397.19 51.524 396.834 51.488C396.482 51.4215 396.12 51.4154 395.766 51.47C396.61 51.642 397.466 51.729 398.304 51.898C400.898 52.418 403.46 53.078 406.018 53.752C406.088 53.771 406.134 53.88 406.241 54.005C405.871 54.116 405.571 54.211 405.268 54.295C403.506 54.7762 401.799 55.4408 400.176 56.278C398.971 56.907 397.798 57.597 396.61 58.258C396.331 58.414 396.049 58.565 395.81 58.694C394.639 58.651 393.531 58.613 392.423 58.567C390.89 58.5043 389.353 58.4376 387.814 58.367C387.135 58.335 386.458 58.274 385.779 58.239C382.881 58.0878 380.012 57.5766 377.24 56.717C374.846 55.978 372.504 55.092 370.181 54.159C366.52 52.6523 363.325 50.1987 360.925 47.05C360.754 46.834 360.625 46.586 360.408 46.25C360.626 46.2662 360.843 46.2946 361.058 46.335C362.268 46.652 363.475 46.983 364.685 47.298C365.929 47.6219 367.208 47.7898 368.493 47.798C365.616 47.278 362.819 46.462 360.056 45.689C359.471 44.867 359.471 44.867 359.356 44.25C359.464 44.268 359.567 44.28 359.667 44.304C361.231 44.684 362.793 45.068 364.357 45.446C365.19 45.646 366.03 45.826 366.857 46.046C368.112 46.3358 369.384 46.5469 370.666 46.678C370.806 46.6837 370.946 46.677 371.084 46.658C370.911 46.546 370.717 46.4714 370.513 46.439C369.249 46.19 367.976 45.986 366.724 45.689C364.424 45.145 362.142 44.552 359.855 43.969C359.514 43.882 359.188 43.738 358.914 43.641C358.807 43.432 358.729 43.31 358.679 43.177C358.11 41.777 357.168 40.5603 355.954 39.66C354.567 38.5298 353.099 37.5024 351.562 36.586C350.103 35.745 348.749 34.7351 347.527 33.577C346.188 32.3268 345.123 30.8126 344.398 29.13C344.17 28.568 343.994 27.9862 343.872 27.392C343.756 26.8919 343.805 26.3678 344.012 25.898C344.225 25.925 344.398 25.939 344.568 25.97C345.799 26.196 347.032 26.417 348.26 26.654C350.753 27.137 353.246 27.618 355.733 28.123C356.643 28.308 357.541 28.55 358.441 28.782C359.652 29.094 360.859 29.426 362.07 29.737C362.294 29.7787 362.52 29.8048 362.747 29.815C362.337 29.5905 361.903 29.4131 361.453 29.286C358.438 28.373 355.366 27.686 352.285 27.044C349.798 26.529 347.293 26.102 344.798 25.626C344.582 25.5693 344.371 25.4944 344.167 25.402C344.137 25.3415 344.121 25.2753 344.12 25.2079C344.118 25.1405 344.132 25.0736 344.159 25.012C344.685 23.4408 345.644 22.0497 346.924 20.998C348.256 19.9026 349.809 19.1082 351.476 18.669C352.628 18.2465 353.89 18.2355 355.049 18.638C355.082 18.6489 355.115 18.6569 355.149 18.662C358.184 19.356 361.175 20.214 364.128 21.192C370.058 23.0859 375.78 25.576 381.207 28.624C381.327 28.6791 381.452 28.7232 381.58 28.756C381.497 28.5656 381.353 28.4077 381.172 28.306C380.526 27.925 379.882 27.538 379.22 27.184C372.695 23.7512 365.807 21.0598 358.683 19.16L355.489 18.282C355.644 18.194 355.822 18.1527 356 18.163C357.324 18.1815 358.643 18.3289 359.938 18.603C362.502 19.0996 365.03 19.7677 367.505 20.603C369.978 21.437 372.423 22.355 374.866 23.273C377.694 24.3906 380.584 25.3412 383.523 26.12C386.266 26.798 389.023 27.43 391.777 28.056C394.429 28.656 397.053 29.362 399.668 30.106C400.527 30.3513 401.336 30.7438 402.061 31.266C404.922 33.2978 407.584 35.5954 410.013 38.128C410.199 38.321 410.347 38.574 410.66 38.658C410.644 38.57 410.652 38.499 410.621 38.458C408.187 35.7175 405.465 33.2466 402.503 31.088C402.594 31.0574 402.689 31.0399 402.785 31.036C403.777 31.2038 404.703 31.6431 405.461 32.305C405.986 32.79 406.55 33.232 407.105 33.684C407.276 33.8118 407.453 33.9303 407.637 34.039ZM410.858 86.174C411.217 86.029 411.353 85.674 411.558 85.395C413.636 82.524 415.807 79.726 418.038 76.973C420.134 74.3397 422.406 71.8514 424.838 69.525C426.338 68.0848 428.033 66.8628 429.874 65.895C430.33 65.6297 430.821 65.4301 431.333 65.302C431.671 65.602 432.203 65.639 432.561 66.069C432.277 66.342 432.025 66.592 431.761 66.834C430.203 68.2603 428.72 69.7663 427.317 71.346C425.546 73.3166 423.931 75.4231 422.489 77.646C422.401 77.785 422.172 77.916 422.377 78.146C422.956 77.36 423.509 76.568 424.105 75.81C424.945 74.742 425.793 73.677 426.684 72.65C427.575 71.623 428.509 70.634 429.447 69.65C429.965 69.107 430.528 68.607 431.073 68.089C431.099 68.0646 431.132 68.0483 431.167 68.042C431.188 68.042 431.214 68.066 431.237 68.079C431.245 68.111 431.271 68.155 431.258 68.179C431.118 68.379 430.983 68.593 430.827 68.786C428.935 71.1226 427.196 73.579 425.621 76.14C423.172 79.9734 421.262 84.1253 419.944 88.479C419.847 88.748 419.78 89.0271 419.744 89.311C419.729 89.598 419.378 89.811 419.604 90.189C419.728 89.889 419.846 89.628 419.941 89.362C420.469 87.881 420.941 86.378 421.526 84.921C423.207 80.8886 425.33 77.0549 427.855 73.49C429.392 71.2453 431.072 69.1018 432.885 67.073C432.977 66.9216 433.098 66.7901 433.241 66.6859C433.384 66.5817 433.547 66.5069 433.719 66.466C434.497 66.7749 435.253 67.1357 435.983 67.546C435.835 67.756 435.725 67.935 435.592 68.096C434.692 69.2095 433.893 70.4016 433.206 71.658C430.887 75.9806 429.298 80.6565 428.503 85.497C428.126 87.537 427.911 89.606 427.635 91.664C427.4 93.402 427.367 95.157 427.279 96.906C427.249 97.493 427.304 98.085 427.32 98.675C427.462 98.2702 427.537 97.8449 427.542 97.416C427.554 95.8449 427.654 94.2758 427.842 92.716C427.998 90.7176 428.272 88.7302 428.662 86.764C429.008 85.009 429.356 83.258 429.798 81.524C430.621 78.2601 431.843 75.1098 433.435 72.144C434.106 70.8781 434.895 69.679 435.793 68.563C436.008 68.2322 436.291 67.951 436.623 67.738C436.768 67.7596 436.912 67.791 437.053 67.832C438.364 68.306 439.662 68.821 440.988 69.251C441.362 69.3705 441.708 69.5651 442.005 69.8231C442.301 70.081 442.542 70.3968 442.712 70.751C443.378 71.9835 443.782 73.3407 443.897 74.737C444.076 76.4115 443.956 78.1044 443.543 79.737C443.476 80.0819 443.43 80.4305 443.405 80.781C443.615 80.253 443.758 79.963 443.844 79.657C443.921 79.3443 443.979 79.0274 444.019 78.708C444.077 78.355 444.136 78.002 444.18 77.647C444.219 77.327 444.247 77.006 444.264 76.684C444.282 76.364 444.286 76.042 444.286 75.721C444.286 75.4 444.286 75.076 444.267 74.756C444.241 74.4349 444.197 74.1154 444.137 73.799C444.079 73.483 444.003 73.169 443.918 72.859C443.823 72.514 443.718 72.171 443.6 71.834C443.493 71.534 443.352 71.24 443.239 70.934C443.139 70.657 442.875 70.434 442.875 70.097C443.361 70.029 443.675 70.317 444.05 70.419C444.91 70.6856 445.651 71.2431 446.145 71.996C447.685 74.0753 448.727 76.481 449.189 79.027C449.498 80.6835 449.543 82.3786 449.32 84.049C449.179 85.2957 448.867 86.5171 448.394 87.679C448.305 87.888 448.149 88.112 448.354 88.416C448.507 88.095 448.654 87.816 448.777 87.522C449.7 85.2193 450.043 82.7253 449.777 80.259C449.522 77.3547 448.505 74.5692 446.828 72.184C446.728 72.035 446.528 71.906 446.6 71.673C446.643 71.6638 446.687 71.6614 446.73 71.666C446.829 71.7034 446.927 71.7465 447.021 71.795C448.504 72.5978 449.831 73.6604 450.938 74.932C451.642 75.6986 452.209 76.5804 452.614 77.539C453.338 79.2184 453.781 81.0057 453.924 82.829C454.156 86.1609 453.703 89.5051 452.592 92.655C451.799 95.0363 450.628 97.274 449.122 99.282C447.501 101.453 445.184 103.002 442.559 103.672C442.007 103.817 441.447 103.94 440.887 104.049C439.087 104.355 437.256 104.445 435.434 104.317C433.175 104.254 430.942 103.822 428.823 103.039C426.289 102.057 423.744 101.104 421.212 100.117C419.196 99.2763 417.093 98.6635 414.941 98.29C412.137 97.8445 409.269 98.021 406.541 98.807C403.268 99.712 400.398 101.702 398.403 104.45C397.981 105.027 397.584 105.623 397.182 106.215C396.66 106.986 396.176 107.784 395.619 108.527C394.933 109.443 394.214 110.333 393.463 111.198C392.693 112.058 391.699 112.686 390.592 113.012C390.081 113.175 389.56 113.312 389.039 113.433C388.891 113.438 388.743 113.422 388.599 113.384C388.806 112.721 389.069 112.078 389.386 111.46C389.652 110.874 389.923 110.29 390.209 109.713C390.509 109.104 390.824 108.501 391.144 107.901C391.464 107.301 391.786 106.701 392.127 106.115C392.45 105.559 392.804 105.02 393.135 104.468C393.535 103.93 393.881 103.354 394.166 102.748C394.016 102.809 393.886 102.91 393.79 103.04C393.333 103.681 392.86 104.311 392.443 104.977C390.93 107.406 389.603 109.947 388.474 112.577C388.335 112.899 388.174 113.213 388.033 113.515C387.123 113.623 386.202 113.613 385.294 113.485C383.736 113.252 382.209 112.84 380.745 112.258C378.695 111.47 376.903 110.129 375.57 108.383C375.109 107.791 374.692 107.162 374.288 106.529C373.466 105.189 372.714 103.807 372.037 102.389C372.215 102.152 372.36 101.948 372.514 101.753C372.692 101.528 372.878 101.31 373.061 101.09L373.543 100.514L374.029 99.94C374.215 99.723 374.401 99.505 374.589 99.289C374.755 99.101 374.924 98.916 375.089 98.73L375.589 98.172C375.758 97.987 375.926 97.801 376.097 97.618C376.297 97.408 376.49 97.201 376.686 96.993C376.859 96.811 377.03 96.628 377.204 96.448C377.378 96.268 377.554 96.089 377.73 95.911C377.93 95.7056 378.13 95.5016 378.33 95.299C378.507 95.121 378.683 94.944 378.863 94.769C379.043 94.594 379.224 94.422 379.405 94.248C379.611 94.048 379.814 93.848 380.022 93.648C380.204 93.475 380.391 93.308 380.575 93.139C380.759 92.97 380.942 92.797 381.128 92.629C381.341 92.4376 381.555 92.2476 381.77 92.059C381.958 91.893 382.148 91.729 382.338 91.566C382.528 91.403 382.719 91.24 382.91 91.078C383.101 90.916 383.292 90.753 383.486 90.594C383.707 90.4126 383.93 90.233 384.155 90.055C384.355 89.9 384.55 89.747 384.748 89.594C384.946 89.441 385.148 89.287 385.343 89.135C385.571 88.961 385.804 88.794 386.025 88.612C386.164 88.5346 386.285 88.4291 386.38 88.3024C386.476 88.1757 386.544 88.0305 386.581 87.876C385.399 88.6536 384.26 89.4938 383.168 90.393C382.145 91.232 381.133 92.093 380.156 92.982C379.156 93.898 378.177 94.849 377.223 95.818C376.294 96.762 375.405 97.744 374.504 98.718C373.584 99.708 372.776 100.798 371.789 101.836C371.225 101.064 370.798 100.296 370.314 99.498C370.712 99.0358 371.142 98.6015 371.599 98.198C372.04 97.778 372.483 97.3603 372.927 96.945C373.347 96.555 373.768 96.167 374.195 95.786C374.65 95.386 375.105 94.977 375.573 94.586C376.041 94.195 376.526 93.829 377.002 93.449C377.478 93.069 377.965 92.756 378.412 92.349C378.335 92.291 378.296 92.249 378.283 92.254C378.058 92.3596 377.84 92.4792 377.63 92.612C376.157 93.6318 374.753 94.7497 373.43 95.958C372.452 96.851 371.488 97.758 370.513 98.658C370.362 98.798 370.233 98.995 369.918 98.952C369.834 98.852 369.712 98.729 369.607 98.591C367.78 96.1587 366.935 93.1286 367.238 90.102C367.341 89.0328 367.534 87.9743 367.817 86.938C368.94 82.1591 371.577 77.8713 375.336 74.714C377.25 73.0943 379.287 71.6271 381.43 70.326C383.908 68.818 386.26 67.1104 388.46 65.22C390.543 63.3578 392.772 61.6666 395.127 60.163C397.088 58.9061 399.116 57.758 401.203 56.724C405.136 54.7645 409.542 53.9552 413.914 54.389C416.166 54.6055 418.343 55.3131 420.292 56.462C422.289 57.6652 424.07 59.1959 425.559 60.99C425.642 61.1211 425.713 61.2593 425.772 61.403C425.377 61.354 425.095 61.324 424.815 61.282C422.197 60.8791 419.551 60.6785 416.902 60.682C413 60.6963 409.118 61.2402 405.363 62.299C404.916 62.425 404.483 62.599 404.049 62.763C403.912 62.815 403.731 62.853 403.727 63.077C404.685 62.831 405.614 62.588 406.545 62.353C411.143 61.242 415.887 60.8594 420.603 61.219C422.171 61.319 423.73 61.591 425.291 61.797C425.574 61.8427 425.851 61.914 426.121 62.01C426.32 62.1049 426.512 62.2156 426.693 62.341C422.586 61.9924 418.451 62.2686 414.427 63.16C410.463 63.9706 406.609 65.2506 402.947 66.973C399.817 68.473 394.172 72.361 392.911 73.943C393.411 73.584 393.756 73.343 394.095 73.096C395.342 72.196 396.577 71.273 397.837 70.39C399.679 69.0861 401.645 67.9671 403.707 67.049C409.72 64.3224 416.215 62.8183 422.814 62.624C424.385 62.5574 425.959 62.6613 427.508 62.934C427.824 63.0951 428.106 63.317 428.336 63.587C428.22 63.644 428.099 63.6918 427.975 63.73C425.312 64.2964 422.738 65.2229 420.325 66.484C416.382 68.4562 412.706 70.923 409.386 73.825C408.278 74.786 407.228 75.812 406.159 76.817C406.059 76.911 405.854 77.017 406.027 77.217C407.247 76.155 408.447 75.081 409.679 74.046C413.063 71.1633 416.792 68.7113 420.779 66.746C422.7 65.7844 424.714 65.0208 426.789 64.467C426.934 64.43 427.097 64.326 427.201 64.498C425.887 65.084 424.563 65.628 423.281 66.258C419.477 68.1907 415.973 70.6662 412.881 73.607C408.887 77.3063 405.17 81.2944 401.761 85.539C400.191 87.49 398.672 89.483 397.141 91.464C396.929 91.738 396.617 91.964 396.635 92.376L396.626 92.364C396.771 92.275 396.906 92.1693 397.026 92.049C397.587 91.349 398.134 90.649 398.684 89.94C401.883 85.7629 405.319 81.7723 408.974 77.988C411.491 75.3407 414.202 72.8843 417.083 70.639C420.35 68.121 424.004 66.1506 427.903 64.805C428.442 64.624 428.992 64.473 429.474 64.327C429.87 64.4593 430.235 64.6702 430.547 64.947C430.464 65.0368 430.371 65.1167 430.27 65.185C427.67 66.4851 425.324 68.2409 423.344 70.369C418.84 75.126 414.723 80.2349 411.032 85.647C410.946 85.7998 410.877 85.9609 410.824 86.128L410.858 86.174ZM443.568 69.286C443.368 68.757 443.201 68.325 443.047 67.886C441.058 62.2093 439.322 56.4563 437.839 50.627C436.692 46.081 435.857 41.47 435.026 36.858C435.013 36.5284 434.925 36.206 434.77 35.915C434.742 35.9926 434.724 36.0737 434.718 36.156C434.765 36.618 434.808 37.08 434.874 37.539C435.497 41.825 436.297 46.078 437.318 50.287C438.753 56.203 440.503 62.027 442.502 67.776C442.679 68.1493 442.786 68.5514 442.82 68.963C442.066 68.792 441.333 68.5354 440.637 68.198C437.383 62.4977 434.761 56.4597 432.816 50.191C432.746 50.2643 432.699 50.3557 432.679 50.4548C432.659 50.5539 432.668 50.6566 432.704 50.751C432.913 51.472 433.104 52.199 433.344 52.911C434.916 57.7093 436.913 62.3578 439.311 66.801C439.479 67.109 439.626 67.428 439.78 67.736C439.698 67.787 439.661 67.827 439.641 67.82C438.497 67.425 437.349 67.038 436.212 66.62C435.966 66.5088 435.745 66.3492 435.562 66.1508C435.38 65.9523 435.239 65.7191 435.148 65.465C435.012 65.174 434.914 64.865 434.807 64.565C434.257 63.0132 433.609 61.4978 432.867 60.028C432.289 58.876 431.708 57.728 431.154 56.563C428.928 51.8566 427.721 46.7331 427.612 41.528C427.48 39.0407 428.097 36.571 429.385 34.439C430.832 32.112 430.827 32.173 431.004 29.1C431.015 28.921 431.023 28.742 431.027 28.563C431.084 25.845 431.141 23.127 431.196 20.409C431.23 18.656 431.457 16.9122 431.873 15.209C432.948 10.4719 435.849 6.35023 439.945 3.73896C442.467 2.07293 445.384 1.10096 448.401 0.920964C448.806 0.851939 449.222 0.889512 449.608 1.02997C449.628 1.23162 449.636 1.43435 449.631 1.63697C449.531 2.95697 449.42 4.27598 449.323 5.59498C449.196 7.34298 449.068 9.09498 448.964 10.841C448.928 11.441 448.955 12.056 448.97 12.664C448.97 12.731 449.08 12.795 449.186 12.915C449.265 11.845 449.342 10.856 449.411 9.86496C449.477 8.90196 449.531 7.93798 449.598 6.97498C449.668 5.97498 449.726 4.97495 449.828 3.97995C449.862 2.97017 449.991 1.9658 450.212 0.979955C450.465 0.958849 450.72 0.958849 450.973 0.979955C451.642 1.09495 452.311 1.22298 452.973 1.37998C454.861 1.80778 456.656 2.57195 458.273 3.63596C459.495 4.45004 460.651 5.35849 461.731 6.35297C461.939 6.54697 462.131 6.75298 462.347 6.97098C463.162 11.003 463.647 15.095 463.795 19.206C463.906 18.7557 463.972 18.2954 463.99 17.832C463.979 16.903 463.92 15.975 463.856 15.048C463.708 12.906 463.443 10.778 463.093 8.65897C462.985 8.37749 462.978 8.06711 463.073 7.78098C463.91 8.60098 464.433 9.63295 465.2 10.424C465.252 10.679 465.3 10.887 465.334 11.099C465.627 13.225 465.781 15.3679 465.795 17.514C465.804 19.122 465.744 20.731 465.673 22.338C465.62 23.516 465.496 24.69 465.41 25.867C465.431 26.0368 465.468 26.2042 465.521 26.367C465.775 25.0413 465.947 23.701 466.035 22.354C466.135 21.109 466.153 19.854 466.16 18.604C466.168 17.318 466.13 16.03 466.091 14.744C466.052 13.458 465.834 12.2 465.791 10.944C465.916 10.895 465.983 10.844 466.044 10.844C467.573 11.018 469.106 11.163 470.628 11.389C471.405 11.5116 472.169 11.7079 472.909 11.975C473.738 12.2066 474.506 12.6192 475.157 13.183C475.113 14.239 475.09 15.274 475.02 16.306C474.887 17.3126 474.812 18.3258 474.793 19.341C474.958 18.7214 475.085 18.0922 475.172 17.457C475.264 16.784 475.293 16.102 475.392 15.43C475.483 14.81 475.427 14.171 475.581 13.54C476.649 14.1484 477.503 15.0713 478.027 16.183C478.552 17.2947 478.72 18.541 478.51 19.752C477.027 20.1234 475.604 20.7043 474.285 21.477C472.932 22.268 471.642 23.165 470.278 24.046C470.319 23.724 470.34 23.446 470.39 23.181C470.557 22.268 470.741 21.358 470.902 20.444C470.917 20.2568 470.914 20.0685 470.892 19.882C470.479 21.482 470.122 23.082 469.612 24.595C468.685 25.514 467.774 26.374 466.912 27.282C466.05 28.19 465.223 29.132 464.412 30.082C463.601 31.032 462.812 32.007 462.044 32.999C461.276 33.991 460.529 34.999 459.832 36.034C459.135 37.069 458.485 38.146 457.865 39.234C457.245 40.322 456.696 41.427 456.003 42.734C456.003 41.383 456.003 40.277 456.013 39.171C456.019 38.098 456.049 37.025 456.04 35.952C456.09 34.878 456.056 33.8018 455.94 32.733C455.782 33.5363 455.702 34.3532 455.701 35.172C455.692 36.138 455.672 37.103 455.652 38.072C455.616 39.789 455.563 41.506 455.547 43.223C455.548 43.723 455.463 44.2195 455.297 44.691C454.275 47.5968 453.595 50.6118 453.27 53.675C453.231 54.021 453.163 54.364 453.108 54.708C452.987 54.5217 452.915 54.3077 452.899 54.086C452.554 51.136 452.274 48.18 452.164 45.212C452.071 42.712 452.012 40.206 451.971 37.702C451.911 34.126 451.893 30.548 451.83 26.972C451.888 26.0542 451.814 25.1329 451.611 24.236C451.572 24.547 451.54 24.686 451.539 24.826C451.521 27.294 451.487 29.762 451.498 32.226C451.511 35.126 451.571 38.026 451.598 40.918C451.637 45.036 451.922 49.137 452.318 53.234C452.566 55.796 453.018 58.334 453.118 60.913C453.249 64.27 453.462 67.625 453.586 70.982C453.596 72.0904 453.548 73.1986 453.442 74.302C453.399 74.9085 453.232 75.4997 452.951 76.039C452.784 75.9207 452.653 75.7572 452.575 75.5675C452.497 75.3778 452.475 75.1698 452.511 74.968C452.505 72.6421 452.38 70.3181 452.137 68.005C451.57 62.5623 450.996 57.12 450.417 51.678C450.381 51.4492 450.333 51.2225 450.273 50.999C450.189 51.9978 450.201 53.0024 450.309 53.999C450.65 57.523 450.998 61.0466 451.353 64.57C451.644 67.418 451.909 70.27 452.016 73.128C452.063 73.6215 452.045 74.119 451.963 74.608C451.592 74.533 451.484 74.233 451.283 74.047C451.048 73.83 450.843 73.581 450.583 73.307C450.291 71.907 449.99 70.468 449.694 69.033C448.596 63.8155 447.807 58.5376 447.333 53.227C447.118 50.697 446.896 48.168 446.684 45.637C446.659 45.243 446.568 44.8561 446.413 44.493C446.407 44.924 446.394 45.101 446.404 45.277C446.512 47.061 446.615 48.846 446.734 50.63C447.041 55.5945 447.643 60.5365 448.534 65.43C448.934 67.575 449.373 69.712 449.789 71.854C449.832 72.078 449.969 72.311 449.798 72.554C449.723 72.496 449.643 72.465 449.62 72.41C449.537 72.2129 449.466 72.0108 449.408 71.805C448.308 67.694 447.208 63.58 446.317 59.416C446.242 59.064 446.161 58.716 446.082 58.362C446.009 58.5308 445.986 58.7174 446.017 58.899C446.381 61.3039 446.873 63.6877 447.491 66.04C447.917 67.777 448.376 69.506 448.808 71.24C448.852 71.417 449.019 71.631 448.744 71.828C448.574 71.728 448.39 71.618 448.212 71.502C448.034 71.386 447.861 71.26 447.666 71.124C447.566 70.784 447.458 70.445 447.366 70.1C445.918 64.5973 444.666 59.0496 443.611 53.457C441.86 44.5005 440.779 35.4261 440.376 26.309C440.173 21.9479 440.316 17.5775 440.803 13.239C440.829 13.029 440.815 12.814 440.82 12.602C440.54 13.3432 440.374 14.1222 440.325 14.913C439.95 18.1128 439.806 21.3355 439.895 24.556C439.97 29.137 440.311 33.703 440.825 38.256C441.695 45.9358 442.984 53.5622 444.688 61.101C445.357 64.067 446.111 67.014 446.816 69.972C446.868 70.192 447.063 70.427 446.823 70.7L443.568 69.286ZM454.26 79.613C454.365 79.5283 454.476 79.4517 454.593 79.384C455.626 78.879 456.524 78.1347 457.211 77.213C458.519 75.5382 459.356 73.5451 459.637 71.439C459.863 69.8795 459.893 68.2979 459.726 66.731C459.536 64.9529 459.25 63.1863 458.869 61.439C458.374 58.948 457.936 56.448 457.669 53.921C457.402 51.2148 457.371 48.4906 457.574 45.779C457.646 45.0679 457.761 44.3616 457.916 43.664C458.206 42.3722 458.599 41.1058 459.091 39.877C459.708 38.1193 460.575 36.4601 461.667 34.951C463.639 32.2702 465.78 29.7187 468.078 27.312C469.985 25.3679 472.151 23.6965 474.515 22.345C475.62 21.6805 476.801 21.152 478.033 20.771C478.718 20.5659 479.37 20.2656 479.971 19.879C480.566 19.478 481.229 19.1889 481.928 19.026C482.254 18.9181 482.601 18.8879 482.941 18.9377C483.282 18.9876 483.605 19.1162 483.887 19.3132C484.168 19.5103 484.4 19.7703 484.564 20.0727C484.727 20.3751 484.818 20.7114 484.828 21.055C484.843 21.1613 484.851 21.2686 484.85 21.376C484.833 22.125 484.862 22.876 484.783 23.623C484.359 27.3583 483.488 31.0292 482.189 34.557C481.283 37.081 480.369 39.602 479.494 42.136C478.758 44.264 478.1 46.42 477.357 48.546C476.028 52.3622 474.926 56.2537 474.057 60.2C473.616 62.189 473.111 64.164 472.495 66.109C471.168 70.5465 468.235 74.3302 464.268 76.721C462.099 78.0514 459.838 79.227 457.503 80.239C456.783 80.552 456.027 80.78 455.282 81.03C455.076 81.0813 454.865 81.1148 454.653 81.13C454.4 80.6623 454.265 80.1398 454.26 79.608V79.613ZM392.226 113.463C393.562 112.475 394.726 111.273 395.671 109.906C396.331 109.016 396.941 108.09 397.571 107.178C398.099 106.414 398.605 105.632 399.156 104.884C400.144 103.518 401.378 102.348 402.796 101.436C405.665 99.6382 409.014 98.7561 412.396 98.907C415.083 99.0103 417.73 99.5963 420.21 100.637C423.358 101.905 426.51 103.171 429.732 104.242C432.65 105.238 435.729 105.679 438.809 105.542C439.01 105.554 439.211 105.579 439.409 105.615C438.852 105.815 438.524 105.944 438.187 106.046C433.928 107.328 429.449 107.717 425.033 107.186C423.719 107.034 422.404 106.886 421.092 106.71C418.141 106.309 415.138 106.528 412.276 107.352C410.423 107.887 408.596 108.518 406.776 109.146C404.647 109.879 402.54 110.678 400.41 111.409C398.117 112.219 395.765 112.85 393.374 113.295C392.994 113.356 392.609 113.402 392.226 113.458V113.463ZM454.192 78.528C454.314 78.058 454.381 77.787 454.456 77.518C454.882 76.0368 455.066 74.4968 455.002 72.957C454.829 69.491 454.51 66.038 454.184 62.584C453.817 59.1655 453.869 55.715 454.337 52.309C454.458 51.496 454.637 50.691 454.788 49.883C455.282 47.243 456.125 44.6803 457.293 42.262C457.408 42.025 457.55 41.801 457.715 41.508C457.732 41.6051 457.734 41.7041 457.723 41.802C457.204 43.2138 456.888 44.6922 456.784 46.193C456.561 48.7604 456.573 51.3429 456.822 53.908C457.062 56.508 457.522 59.08 458.013 61.645C458.287 63.085 458.56 64.527 458.75 65.98C459.116 68.2846 459.005 70.6399 458.424 72.9C457.956 74.6362 457.045 76.2212 455.781 77.5C455.345 77.9686 454.799 78.3203 454.192 78.523V78.528Z" fill="url(#paint2_linear)"/>
<defs>
<linearGradient id="paint0_linear" x1="-44958.1" y1="-19355.4" x2="-148590" y2="-17676.7" gradientUnits="userSpaceOnUse">
<stop stop-color="#E8C46F"/>
<stop offset="0.24" stop-color="#BB842C"/>
<stop offset="0.515" stop-color="#7D5723"/>
<stop offset="0.857" stop-color="#E8C46F"/>
</linearGradient>
<linearGradient id="paint1_linear" x1="7712.35" y1="31666" x2="24389.2" y2="31637.5" gradientUnits="userSpaceOnUse">
<stop stop-color="#E8C46F"/>
<stop offset="0.24" stop-color="#BB842C"/>
<stop offset="0.515" stop-color="#7D5723"/>
<stop offset="0.857" stop-color="#E8C46F"/>
</linearGradient>
<linearGradient id="paint2_linear" x1="-16627.7" y1="48505.2" x2="-55756.7" y2="48403.1" gradientUnits="userSpaceOnUse">
<stop stop-color="#E8C46F"/>
<stop offset="0.24" stop-color="#BB842C"/>
<stop offset="0.515" stop-color="#7D5723"/>
<stop offset="0.857" stop-color="#E8C46F"/>
</linearGradient>
</defs>
</svg>
