<svg width="30" height="30" viewBox="0 0 30 30" fill="none" xmlns="http://www.w3.org/2000/svg">
<g clip-path="url(#clip0)">
<path d="M24.5 3H17V4.00001H24V17.9999H25V3.49998C25 3.224 24.7765 3 24.5 3Z" fill="#868686"/>
<path d="M23.9999 21V28.9999H6.00002V17.5H5V29.5C5 29.7765 5.224 30 5.49998 30H24.4999C24.7764 30 24.9999 29.7765 24.9999 29.5V21H23.9999Z" fill="#868686"/>
<path d="M5.49998 3C5.224 3 5 3.224 5 3.49998V9.99993H5.99996V3.99996H12.9999V3H5.49998Z" fill="#868686"/>
<path d="M22.5 5H19.5V6.00002H22V19.9999H23V5.50004C23 5.224 22.7765 5 22.5 5Z" fill="#868686"/>
<path d="M22 23V27H8.00002V15.5H7V27.5C7 27.7765 7.224 27.9999 7.49998 27.9999H22.4999C22.7764 27.9999 22.9999 27.7765 22.9999 27.5V23H22Z" fill="#868686"/>
<path d="M7.49998 5C7.224 5 7 5.224 7 5.49998V8.99994H8.00002V5.99996H10.5V5H7.49998Z" fill="#868686"/>
<path d="M20.9676 7.32448L19.4676 3.32448C19.3941 3.12948 19.2076 2.99999 18.9991 2.99999H17.4991V2.50001C17.4991 1.12154 16.3776 0 14.9991 0C13.6206 0 12.499 1.12148 12.499 2.50001V2.99999H10.999C10.7906 2.99999 10.6041 3.12948 10.5305 3.32448L9.03054 7.32448C8.97353 7.478 8.99456 7.64997 9.08802 7.78497C9.18153 7.91944 9.33499 7.99995 9.49899 7.99995H20.4989C20.6629 7.99995 20.8165 7.91944 20.9104 7.78497C21.0036 7.64997 21.0251 7.478 20.9676 7.32448ZM10.2206 6.99999L11.3456 4H12.9991C13.2751 4 13.4991 3.776 13.4991 3.50003V2.50001C13.4991 1.67302 14.1721 1.00002 14.9991 1.00002C15.8261 1.00002 16.4991 1.67302 16.4991 2.50001V3.50003C16.4991 3.776 16.7226 4 16.9991 4H18.6526L19.7776 6.99999H10.2206Z" fill="#868686"/>
<path d="M20 13H11.5V14H20V13Z" fill="#868686"/>
<path d="M10.5 13H9.5V14H10.5V13Z" fill="#868686"/>
<path d="M17.5 16H11.5V17H17.5V16Z" fill="#868686"/>
<path d="M10.5 16H9.5V17H10.5V16Z" fill="#868686"/>
<path d="M20 19H11.5V20H20V19Z" fill="#868686"/>
<path d="M10.5 19H9.5V20H10.5V19Z" fill="#868686"/>
<path d="M17.5 22H11.5V23H17.5V22Z" fill="#868686"/>
<path d="M10.5 22H9.5V23H10.5V22Z" fill="#868686"/>
<path d="M17.5 10H12.5V11H17.5V10Z" fill="#868686"/>
<path d="M8.02304 8.5C7.23155 8.50299 6.48554 8.81201 5.92152 9.37152L5.5 9.79304L5.07748 9.37006C4.52295 8.82057 3.78801 8.51107 2.99999 8.50006C1.34548 8.50006 0 9.84554 0 11.5V11.9256C0 12.7665 0.359998 13.5716 0.98648 14.1325L5.16648 17.8725C5.26146 17.958 5.38099 18 5.5 18C5.62802 18 5.75599 17.9505 5.85349 17.8535L10.13 13.5775C10.6795 13.0231 10.989 12.2881 11 11.5071C11 11.5051 11 11.5026 11 11.5C11 9.86201 9.66752 8.51646 8.02304 8.5ZM9.42155 12.8715L5.48107 16.812L1.65357 13.3875C1.23855 13.0155 1.00007 12.4825 1.00007 11.925V11.5C1.00007 10.397 1.89708 9.50002 2.99307 9.50002C3.51356 9.50752 4.00358 9.71353 4.37155 10.0785L5.14656 10.8535C5.34209 11.0491 5.65808 11.0491 5.85355 10.8535L6.62704 10.08C7.00204 9.70855 7.49903 9.50201 8.02005 9.50002C9.11053 9.51103 9.99805 10.406 10 11.4965C9.99201 12.0155 9.786 12.5045 9.42155 12.8715Z" fill="#868686"/>
<path d="M29.8534 15.6466L28.3534 14.1466C28.1579 13.9511 27.8419 13.9511 27.6464 14.1466L18.6465 23.1466C18.5525 23.2401 18.5 23.3671 18.5 23.5001V25.0001C18.5 25.2766 18.7235 25.5001 19 25.5001H20.5C20.633 25.5001 20.7599 25.4476 20.8535 25.3536L29.8534 16.3536C30.0489 16.1581 30.0489 15.8421 29.8534 15.6466ZM20.293 24.5001H19.5V23.7071L27.9999 15.2071L28.7929 16.0001L20.293 24.5001Z" fill="#868686"/>
<path d="M26.8526 15.6474L26.1455 16.3545L27.6456 17.8546L28.3527 17.1475L26.8526 15.6474Z" fill="#868686"/>
</g>
<defs>
<clipPath id="clip0">
<rect width="30" height="30" fill="white"/>
</clipPath>
</defs>
</svg>
