<svg width="30" height="30" viewBox="0 0 30 30" fill="none" xmlns="http://www.w3.org/2000/svg">
<path d="M29.5 1.5H27.5V0H26.5V1.5H23.5V0H22.5V1.5H19.5V0H18.5V1.5H15.5V0H14.5V1.5H11.5V0H10.5V1.5H7.5V0H6.5V1.5H3.5V0H2.5V1.5H0.5C0.223875 1.5 0 1.72388 0 2V29.5C0 29.7761 0.223875 30 0.5 30H29.5C29.7761 30 30 29.7761 30 29.5V2C30 1.72388 29.7761 1.5 29.5 1.5ZM29 29H1V28H29V29ZM29 27H25.707L29 23.707V27ZM25 26.293V23H28.293L25 26.293ZM29 22H24.5C24.2239 22 24 22.2239 24 22.5V27H1V8H29V22ZM29 7H1V2.5H2.5V4H3.5V2.5H6.5V4H7.5V2.5H10.5V4H11.5V2.5H14.5V4H15.5V2.5H18.5V4H19.5V2.5H22.5V4H23.5V2.5H26.5V4H27.5V2.5H29V7Z" fill="#868686"/>
<path d="M7.5 9.5H4.5C4.22387 9.5 4 9.72387 4 10V13C4 13.2761 4.22387 13.5 4.5 13.5H7.5C7.77612 13.5 8 13.2761 8 13V10C8 9.72387 7.77612 9.5 7.5 9.5ZM7 12.5H5V10.5H7V12.5Z" fill="#868686"/>
<path d="M13.5 9.5H10.5C10.2239 9.5 10 9.72387 10 10V13C10 13.2761 10.2239 13.5 10.5 13.5H13.5C13.7761 13.5 14 13.2761 14 13V10C14 9.72387 13.7761 9.5 13.5 9.5ZM13 12.5H11V10.5H13V12.5Z" fill="#868686"/>
<path d="M19.5 9.5H16.5C16.2239 9.5 16 9.72387 16 10V13C16 13.2761 16.2239 13.5 16.5 13.5H19.5C19.7761 13.5 20 13.2761 20 13V10C20 9.72387 19.7761 9.5 19.5 9.5ZM19 12.5H17V10.5H19V12.5Z" fill="#868686"/>
<path d="M7.5 15.5H4.5C4.22387 15.5 4 15.7239 4 16V19C4 19.2761 4.22387 19.5 4.5 19.5H7.5C7.77612 19.5 8 19.2761 8 19V16C8 15.7239 7.77612 15.5 7.5 15.5ZM7 18.5H5V16.5H7V18.5Z" fill="#868686"/>
<path d="M19.5 15.5H16.5C16.2239 15.5 16 15.7239 16 16V19C16 19.2761 16.2239 19.5 16.5 19.5H19.5C19.7761 19.5 20 19.2761 20 19V16C20 15.7239 19.7761 15.5 19.5 15.5ZM19 18.5H17V16.5H19V18.5Z" fill="#868686"/>
<path d="M7.5 21.5H4.5C4.22387 21.5 4 21.7239 4 22V25C4 25.2761 4.22387 25.5 4.5 25.5H7.5C7.77612 25.5 8 25.2761 8 25V22C8 21.7239 7.77612 21.5 7.5 21.5ZM7 24.5H5V22.5H7V24.5Z" fill="#868686"/>
<path d="M13.5 21.5H10.5C10.2239 21.5 10 21.7239 10 22V25C10 25.2761 10.2239 25.5 10.5 25.5H13.5C13.7761 25.5 14 25.2761 14 25V22C14 21.7239 13.7761 21.5 13.5 21.5ZM13 24.5H11V22.5H13V24.5Z" fill="#868686"/>
<path d="M19.5 21.5H16.5C16.2239 21.5 16 21.7239 16 22V25C16 25.2761 16.2239 25.5 16.5 25.5H19.5C19.7761 25.5 20 25.2761 20 25V22C20 21.7239 19.7761 21.5 19.5 21.5ZM19 24.5H17V22.5H19V24.5Z" fill="#868686"/>
<path d="M25.5 9.5H22.5C22.2239 9.5 22 9.72387 22 10V13C22 13.2761 22.2239 13.5 22.5 13.5H25.5C25.7761 13.5 26 13.2761 26 13V10C26 9.72387 25.7761 9.5 25.5 9.5ZM25 12.5H23V10.5H25V12.5Z" fill="#868686"/>
<path d="M25.5 15.5H22.5C22.2239 15.5 22 15.7239 22 16V19C22 19.2761 22.2239 19.5 22.5 19.5H25.5C25.7761 19.5 26 19.2761 26 19V16C26 15.7239 25.7761 15.5 25.5 15.5ZM25 18.5H23V16.5H25V18.5Z" fill="#868686"/>
<path d="M14.6454 15.5263C14.3327 15.2133 13.915 15.0276 13.4732 15.0052V15.0032C12.9066 14.975 12.3602 15.2168 12.0002 15.6552C11.3696 14.897 10.2438 14.7936 9.48565 15.4241C8.72746 16.0547 8.62402 17.1805 9.25458 17.9386C9.28683 17.9775 9.32071 18.0148 9.35615 18.0508L11.6467 20.3413C11.8419 20.5365 12.1584 20.5365 12.3537 20.3413L14.6442 18.0508C15.3416 17.354 15.3422 16.2238 14.6454 15.5263ZM13.9372 17.3417L12.0002 19.2787L10.0636 17.3417C9.80834 17.0871 9.75946 16.6913 9.94515 16.3822C10.0779 16.156 10.3161 16.0124 10.5781 16.0007C10.5926 16.0007 10.6066 16.0007 10.6211 16.0007C10.868 15.9996 11.1005 16.1162 11.2472 16.3147L11.6002 16.7857C11.7819 17.0066 12.1083 17.0383 12.3293 16.8566C12.3552 16.8353 12.3789 16.8116 12.4002 16.7857L12.7532 16.3147C13.0143 15.9683 13.5068 15.8992 13.8533 16.1604C13.9335 16.2209 14.0013 16.2961 14.0532 16.3822C14.2393 16.6908 14.1915 17.0864 13.9372 17.3417Z" fill="#868686"/>
</svg>
