<svg width="30" height="30" viewBox="0 0 30 30" fill="none" xmlns="http://www.w3.org/2000/svg">
<g clip-path="url(#clip0)">
<path d="M5.54147 20.7315L4.30447 17.845C3.91953 16.9732 2.90075 16.5786 2.02897 16.9635C1.15719 17.3484 0.762526 18.3672 1.14747 19.239C3.42597 24.2515 3.53697 24.7945 4.54747 25.804L8.59747 29.854C8.69121 29.9478 8.81837 30.0005 8.95097 30.0005H14.3715C14.6476 30.0005 14.8715 29.7767 14.8715 29.5005C14.9387 28.4867 14.8832 27.4685 14.706 26.468C15.1486 26.51 15.5943 26.51 16.037 26.468C15.8215 27.383 15.8715 27.945 15.8715 29.5C15.8715 29.7762 16.0953 30 16.3715 30H21.794C21.9266 30 22.0537 29.9473 22.1475 29.8535L26.1975 25.8035C27.2065 24.794 27.287 24.318 29.5975 19.2385C29.8465 18.6746 29.7757 18.0206 29.4118 17.523C29.048 17.0254 28.4462 16.7597 27.8333 16.826C27.2204 16.8923 26.6895 17.2806 26.4405 17.8445L25.2015 20.7315C24.6211 20.33 23.8997 20.1881 23.2105 20.34C23.4418 19.7726 23.6382 19.1915 23.7985 18.6C24.791 18.4 27.1955 17.5285 27.1955 13.75C27.1955 12.4695 26.9725 10.8915 25.699 10.7175C27.499 7.93152 28.2184 4.5835 27.7215 1.30401L27.5215 0.391506C27.4704 0.161868 27.2662 -0.00112934 27.031 5.89297e-06H3.71197C3.47766 4.6103e-05 3.27481 0.162785 3.22397 0.391506L3.01397 1.34151C2.52597 4.61156 3.24834 7.9473 5.04547 10.7225C3.78447 10.9105 3.56597 12.484 3.56597 13.752C3.56597 17.532 5.97247 18.402 6.96597 18.602C7.12716 19.1951 7.32435 19.7779 7.55647 20.347C6.86063 20.1854 6.12891 20.3251 5.54147 20.7315ZM13.8715 29H9.15597L5.25597 25.097C4.43947 24.2825 4.44047 24.0665 2.05797 18.825C1.95329 18.5879 1.98307 18.3129 2.1361 18.1037C2.28912 17.8945 2.54214 17.7828 2.79985 17.8107C3.05755 17.8386 3.28079 18.0019 3.38547 18.239C5.41097 22.966 4.62347 21.8145 8.59547 25.789C8.72101 25.919 8.90691 25.9711 9.08172 25.9254C9.25654 25.8796 9.39306 25.7431 9.43882 25.5683C9.48457 25.3934 9.43245 25.2075 9.30247 25.082C6.56347 22.3435 6.43397 22.2675 6.01647 21.628C6.57637 21.1632 7.38763 21.1619 7.94897 21.625C8.99038 22.5799 10.1935 23.3418 11.502 23.875C12.6715 24.2635 13.8715 25.779 13.8715 27.9V29ZM14.35 25.4125C13.8855 24.2697 12.9694 23.3696 11.8185 22.9255C10.8359 22.528 9.92413 21.9742 9.11847 21.2855C7.40047 18.2415 7.17947 14.573 7.17697 11.0775C8.23647 9.21051 11.0155 4.90401 15.3715 2.27651C19.737 4.92351 22.5215 9.23651 23.5845 11.1085C23.5765 14.6585 23.3645 18.1585 21.6685 21.252C20.8508 21.955 19.9242 22.5202 18.925 22.9255C17.7731 23.3705 16.8564 24.2719 16.392 25.416C15.7151 25.5192 15.0265 25.518 14.35 25.4125ZM24.7265 21.6255C24.311 22.2625 24.1905 22.3295 21.4405 25.0795C21.251 25.2757 21.2537 25.5876 21.4466 25.7804C21.6394 25.9733 21.9513 25.976 22.1475 25.7865C26.0815 21.853 25.331 22.9685 27.3575 18.239C27.4621 18.0019 27.6854 17.8386 27.9431 17.8107C28.2008 17.7828 28.4538 17.8945 28.6068 18.1037C28.7599 18.3129 28.7896 18.5879 28.685 18.825C26.338 23.9885 26.3235 24.2625 25.49 25.097L21.587 29H16.8715V27.9C16.8544 26.8146 17.2051 25.7553 17.8665 24.8945C19.039 23.4285 19.413 24.471 22.794 21.625C23.3547 21.1612 24.166 21.1614 24.7265 21.6255ZM26.1955 13.75C26.1955 16.2675 24.975 17.1685 24.0675 17.4915C24.4053 15.7112 24.574 13.903 24.5715 12.091C25.034 11.7625 25.444 11.6255 25.6715 11.7355C25.794 11.7945 26.1955 12.1155 26.1955 13.75ZM26.631 1.00001C27.2932 4.34191 26.5519 7.80909 24.581 10.588C24.5335 6.85351 23.547 4.29501 21.564 2.77801C21.3446 2.61025 21.0307 2.65211 20.863 2.87151C20.6952 3.0909 20.7371 3.40475 20.9565 3.57251C22.402 4.67801 23.2305 6.48701 23.489 9.04751C21.484 6.00251 18.3875 2.75901 15.1565 1.00001H26.631ZM4.11297 1.00001H10.9325C9.81688 1.73893 8.82186 2.64541 7.98247 3.68751C7.80988 3.90317 7.8448 4.21792 8.06047 4.39051C8.27614 4.5631 8.59088 4.52817 8.76347 4.31251C9.88108 2.93246 11.2889 1.8155 12.887 1.04101C13.3949 1.24064 13.8921 1.46661 14.3765 1.71801C10.1795 4.42001 7.49897 8.45651 6.24097 10.7C4.20833 7.90565 3.43677 4.38864 4.11297 1.00001ZM4.56597 13.75C4.56597 12.1135 4.96597 11.7925 5.09097 11.7335C5.31397 11.626 5.73247 11.765 6.19097 12.089C6.18845 13.9019 6.35737 15.7109 6.69547 17.492C5.78797 17.171 4.56597 16.2705 4.56597 13.75Z" fill="#868686"/>
<path d="M9.22406 10.8678C9.74544 10.6058 10.3499 10.5629 10.9031 10.7488L12.8426 11.3953C13.0123 11.4518 13.1992 11.4134 13.3329 11.2947C13.4667 11.1759 13.5269 10.9949 13.4909 10.8197C13.455 10.6445 13.3283 10.5018 13.1586 10.4453L11.2191 9.80035C10.4145 9.53009 9.53532 9.59256 8.77706 9.97385C8.61582 10.0529 8.50932 10.2123 8.49806 10.3915C8.48679 10.5707 8.57249 10.7422 8.72257 10.8408C8.87265 10.9393 9.06407 10.9499 9.22406 10.8683V10.8678Z" fill="#868686"/>
<path d="M16.9999 11.4203C17.1164 11.4203 16.9999 11.4478 19.0999 10.7483C19.6529 10.5619 20.2576 10.6048 20.7789 10.8673C20.9389 10.9489 21.1303 10.9383 21.2804 10.8398C21.4304 10.7412 21.5161 10.5697 21.5049 10.3905C21.4936 10.2113 21.3871 10.0519 21.2259 9.97285C20.4674 9.59158 19.5881 9.52912 18.7834 9.79935L16.8444 10.4459C16.6119 10.5231 16.4697 10.7573 16.5082 10.9991C16.5468 11.241 16.755 11.4193 16.9999 11.4203Z" fill="#868686"/>
<path d="M12.9725 13.3396C12.8838 13.0786 12.6007 12.9386 12.3395 13.0266C12.322 13.0321 10.617 13.5881 9.3 12.6001C9.10196 12.4525 8.82581 12.4716 8.65 12.6451C8.47444 12.8267 8.24771 12.9506 8 13.0001C7.72386 13.0001 7.5 13.2239 7.5 13.5001C7.5 13.7762 7.72386 14.0001 8 14.0001C8.37337 13.9801 8.73208 13.8482 9.0295 13.6216C9.105 13.6666 9.1795 13.7066 9.2565 13.7451C9.18946 13.8468 9.10214 13.9336 9 14.0001C8.72386 14.0001 8.5 14.2239 8.5 14.5001C8.5 15.1146 9.4235 15.3501 10.2365 14.0906C11.0421 14.2552 11.8761 14.2148 12.662 13.9731C12.9222 13.8834 13.061 13.6002 12.9725 13.3396Z" fill="#868686"/>
<path d="M20.7007 13.1C19.3902 14.0825 17.6967 13.5385 17.6617 13.5265C17.4003 13.4373 17.1161 13.5768 17.0269 13.8382C16.9377 14.0996 17.0773 14.3838 17.3387 14.473C18.1245 14.715 18.9586 14.7554 19.7642 14.5905C20.0182 14.985 20.4537 15.5 21.0007 15.5C21.2792 15.5014 21.507 15.2785 21.5117 15C21.5145 14.8683 21.4642 14.7411 21.3721 14.647C21.28 14.5529 21.1539 14.4999 21.0222 14.5C20.9114 14.4364 20.8169 14.3479 20.7462 14.2415C20.8212 14.203 20.8962 14.164 20.9712 14.119C21.2683 14.3465 21.6271 14.4792 22.0007 14.5C22.2768 14.5 22.5007 14.2761 22.5007 14C22.5007 13.7238 22.2768 13.5 22.0007 13.5C21.7544 13.4503 21.5289 13.327 21.3542 13.1465C21.1783 12.9705 20.8998 12.9507 20.7007 13.1Z" fill="#868686"/>
<path d="M13.2226 17.4161C14.2983 18.1358 15.7019 18.1358 16.7776 17.4161C16.9262 17.317 17.0107 17.1461 16.9991 16.9678C16.9876 16.7895 16.8818 16.6309 16.7216 16.5518C16.5615 16.4727 16.3712 16.485 16.2226 16.5841C15.4826 17.0787 14.5176 17.0787 13.7776 16.5841C13.5479 16.4309 13.2374 16.4929 13.0841 16.7226C12.9309 16.9524 12.9929 17.2629 13.2226 17.4161Z" fill="#868686"/>
<path d="M18 20.4C17.9985 20.2325 17.9278 20.0731 17.8047 19.9594C17.6816 19.8458 17.5171 19.7881 17.35 19.8C16.9355 19.8 15.7085 19 15 19C14.282 19 13.072 19.8 12.6525 19.8C12.485 19.7876 12.3199 19.845 12.1963 19.9586C12.0727 20.0723 12.0016 20.2321 12 20.4C12 21.1055 13.4125 22 15 22C16.5875 22 18 21.105 18 20.4ZM15 20C15.5381 20.1576 16.061 20.3631 16.5625 20.614C15.5844 21.1285 14.4156 21.1285 13.4375 20.614C13.9387 20.3626 14.4617 20.1571 15 20Z" fill="#868686"/>
<path d="M15.5 23H14.5C14.2239 23 14 23.2239 14 23.5C14 23.7761 14.2239 24 14.5 24H15.5C15.7761 24 16 23.7761 16 23.5C16 23.2239 15.7761 23 15.5 23Z" fill="#868686"/>
<path d="M6.5 6C6.77614 6 7 5.77614 7 5.5C7 5.22386 6.77614 5 6.5 5C6.22386 5 6 5.22386 6 5.5C6 5.77614 6.22386 6 6.5 6Z" fill="#868686"/>
</g>
<defs>
<clipPath id="clip0">
<rect width="30" height="30" fill="white"/>
</clipPath>
</defs>
</svg>
