<svg width="30" height="30" viewBox="0 0 30 30" fill="none" xmlns="http://www.w3.org/2000/svg">
<g clip-path="url(#clip0)">
<path d="M26.4999 3H16C15.8669 3 15.74 3.0525 15.6465 3.14648L6.14646 12.6465C6.05248 12.74 5.99998 12.8675 5.99998 13V14H4.99996C4.86748 14 4.73998 14.0525 4.64647 14.1465L0.501971 18.2905C0.182519 18.609 0 19.05 0 19.4995C0 19.95 0.182519 20.391 0.501502 20.7085L9.29047 29.4975C9.60799 29.817 10.049 30 10.5 30C10.951 30 11.3919 29.817 11.7084 29.4985L15.8534 25.3535C15.9474 25.26 15.9999 25.133 15.9999 25V24H16.9999C17.1329 24 17.2599 23.9475 17.3534 23.8535L26.8534 14.3535C26.9474 14.26 26.9999 14.1325 26.9999 14V3.50004C26.9999 3.224 26.7764 3 26.4999 3ZM25.9999 13.793L16.793 22.9999H15.5C15.224 22.9999 15 23.2234 15 23.4999V24.7929L11.001 28.7924C10.7385 29.0559 10.263 29.0569 9.99898 28.7914L1.20802 20.0005C1.07355 19.867 1.00002 19.6894 1.00002 19.4995C1.00002 19.3105 1.07349 19.133 1.20849 18.9985L5.20697 15H6.49995C6.77593 15 6.99993 14.776 6.99993 14.5V13.2071L16.2069 4.00002H25.9999V13.793Z" fill="#868686"/>
<path d="M23 4.5C21.6215 4.5 20.5 5.62148 20.5 7.00001C20.5 8.37854 21.6215 9.50002 23 9.50002C24.3785 9.50002 25.5 8.37854 25.5 7.00001C25.5 5.62148 24.3785 4.5 23 4.5ZM23 8.5C22.173 8.5 21.5 7.827 21.5 7.00001C21.5 6.17302 22.173 5.50002 23 5.50002C23.827 5.50002 24.5 6.17302 24.5 7.00001C24.5 7.827 23.827 8.5 23 8.5Z" fill="#868686"/>
<path d="M29.8536 0.146601C29.6581 -0.048867 29.3421 -0.048867 29.1466 0.146601L22.6466 6.64661C22.4511 6.84214 22.4511 7.15814 22.6466 7.3536C22.7441 7.4511 22.8722 7.50009 23.0001 7.50009C23.1282 7.50009 23.2561 7.4511 23.3536 7.3536L29.8536 0.853649C30.0491 0.658122 30.0491 0.342128 29.8536 0.146601Z" fill="#868686"/>
<path d="M16.1464 7.14849L9.64648 13.6484L10.3536 14.3555L16.8535 7.8556L16.1464 7.14849Z" fill="#868686"/>
<path d="M12.6456 13.6464L11.1455 15.1465L11.8526 15.8536L13.3527 14.3535L12.6456 13.6464Z" fill="#868686"/>
<path d="M17.6455 8.64649L13.6455 12.6465L14.3526 13.3536L18.3526 9.3536L17.6455 8.64649Z" fill="#868686"/>
<path d="M19.1464 10.1485L12.6465 16.6484L13.3536 17.3555L19.8535 10.8556L19.1464 10.1485Z" fill="#868686"/>
<path d="M10.8538 21.6465L10.6733 21.466C10.0298 20.8235 9.01327 20.724 8.25882 21.2285L7.18784 21.939C6.82585 22.1816 6.34081 22.1325 6.03384 21.8265L5.85537 21.6481C5.50087 21.2906 5.50087 20.7096 5.85384 20.3536L6.35236 19.855C6.70984 19.5005 7.29085 19.5005 7.64833 19.855L8.35233 19.1451C7.60684 18.4056 6.39384 18.4061 5.64683 19.1466L5.14533 19.6481C4.40582 20.3936 4.40582 21.6066 5.14632 22.3536L5.32685 22.5341C5.97033 23.1766 6.98733 23.2761 7.74132 22.7716L8.81229 22.061C9.17481 21.8195 9.65979 21.868 9.96629 22.1735L10.1448 22.352C10.4993 22.7095 10.4993 23.2905 10.1463 23.6465L9.64778 24.145C9.2903 24.4995 8.70928 24.4995 8.3518 24.145L7.6478 24.855C8.02028 25.2245 8.50977 25.4095 8.99932 25.4095C9.48934 25.4095 9.97983 25.224 10.3533 24.8535L10.8548 24.352C11.5943 23.6065 11.5943 22.3935 10.8538 21.6465Z" fill="#868686"/>
<path d="M5.35262 18.6454L4.64551 19.3525L5.14542 19.8524L5.85252 19.1453L5.35262 18.6454Z" fill="#868686"/>
<path d="M10.8526 24.1464L10.1455 24.8535L10.6454 25.3534L11.3525 24.6463L10.8526 24.1464Z" fill="#868686"/>
<path d="M7.8536 15.1464L7.14648 15.8535L8.14631 16.8533L8.85343 16.1462L7.8536 15.1464Z" fill="#868686"/>
<path d="M9.85359 17.1464L9.14648 17.8535L10.1463 18.8534L10.8534 18.1462L9.85359 17.1464Z" fill="#868686"/>
<path d="M11.8526 19.1464L11.1455 19.8535L12.1453 20.8533L12.8524 20.1462L11.8526 19.1464Z" fill="#868686"/>
<path d="M13.8526 21.1454L13.1455 21.8525L14.1453 22.8524L14.8524 22.1453L13.8526 21.1454Z" fill="#868686"/>
<path d="M14.8536 17.6464L14.1465 18.3535L16.646 20.8531L17.3532 20.146L14.8536 17.6464Z" fill="#868686"/>
<path d="M16.3526 16.1464L15.6455 16.8535L18.1451 19.3531L18.8522 18.646L16.3526 16.1464Z" fill="#868686"/>
<path d="M17.8526 14.6484L17.1455 15.3555L19.6451 17.855L20.3522 17.1479L17.8526 14.6484Z" fill="#868686"/>
<path d="M19.3526 13.1474L18.6455 13.8545L21.1451 16.3541L21.8522 15.647L19.3526 13.1474Z" fill="#868686"/>
<path d="M20.8536 11.6464L20.1465 12.3535L22.6461 14.8531L23.3532 14.146L20.8536 11.6464Z" fill="#868686"/>
</g>
<defs>
<clipPath id="clip0">
<rect width="30" height="30" fill="white"/>
</clipPath>
</defs>
</svg>
